<svg width="952" height="476" viewBox="0 0 952 476" fill="none" xmlns="http://www.w3.org/2000/svg">
<path d="M938.758 2.63029C938.002 0.554703 935.706 -0.514648 933.63 0.241825L899.807 12.5693C897.731 13.3257 896.662 15.6216 897.418 17.6971C898.175 19.7727 900.471 20.8421 902.546 20.0856L932.612 9.12789L943.569 39.1933C944.326 41.2689 946.622 42.3382 948.697 41.5818C950.773 40.8253 951.842 38.5294 951.086 36.4539L938.758 2.63029ZM-25.3408 473.351C97.7092 483.872 293.233 464.213 480.63 393.436C668.028 322.658 847.873 200.531 938.626 5.6889L931.374 2.3111C841.828 194.56 664.111 315.585 477.803 385.952C291.493 456.318 97.1662 475.796 -24.6592 465.38L-25.3408 473.351Z" fill="#149AD2"/>
</svg>
