<svg width="130" height="42" viewBox="0 0 130 42" fill="none" xmlns="http://www.w3.org/2000/svg">
<g clip-path="url(#clip0_703_3)">
<path fill-rule="evenodd" clip-rule="evenodd" d="M113.248 19.1015L125.932 0.0209351H117.316L103.597 19.212L120.224 40.0958H130L113.248 19.1015Z" fill="#4AB27C"/>
<path fill-rule="evenodd" clip-rule="evenodd" d="M70.6998 31.7971L69.8793 28.9634L64.4024 12.6612L60.0851 0.13092C62.1188 0.16772 63.9385 0.186119 65.5262 0.186119C66.5075 0.186119 68.0239 0.16772 70.1112 0.13092C70.4501 1.51091 70.7178 2.55969 70.914 3.25889C71.1816 4.17888 71.6989 5.85326 72.4482 8.28204L75.7487 19.2483C76.0698 20.3892 76.48 21.8795 76.9617 23.7194L77.9965 21.0515L85.0789 5.09886L90.9662 12.6244L84.2939 26.277C83.5448 27.8227 82.7063 29.6626 81.7786 31.7786C79.2631 31.7418 77.4613 31.7234 76.373 31.7234C75.3918 31.7418 73.5008 31.7602 70.6998 31.7971Z" fill="black"/>
<path fill-rule="evenodd" clip-rule="evenodd" d="M32.7007 31.7971C33.0754 27.8043 33.3429 24.4739 33.5213 21.7691C33.682 19.0827 33.8603 15.5131 34.0387 11.042C34.217 6.58925 34.3063 3.62689 34.3063 2.1733L34.2884 0.13092C37.8208 0.16772 42.1023 0.186119 47.1154 0.186119C51.736 0.186119 55.8213 0.16772 59.3537 0.13092L59.3001 0.903712C59.2823 1.08771 59.2466 1.75011 59.193 2.92769L59.0504 5.44846C59.0147 5.98206 58.9969 6.53405 58.9969 7.08605C56.1068 6.95724 53.6983 6.90206 51.7182 6.90206C49.5595 6.90206 48.1144 6.90206 47.3473 6.92045C46.5802 6.92045 45.4206 6.95724 43.8151 7.03085L43.5474 12.3484C45.3136 12.4036 47.383 12.422 49.7201 12.422C50.5586 12.422 52.7886 12.3668 56.41 12.2564C56.2494 14.2251 56.1246 16.5987 55.9819 19.3219C53.395 19.2852 51.3971 19.2667 50.0055 19.2667C47.9361 19.2667 45.6169 19.3219 43.0657 19.4139L42.7803 25.0626H45.3671C46.1343 25.0626 47.722 25.0443 50.1125 24.989L54.7687 24.8787C55.4645 24.8603 56.6063 24.8051 58.2297 24.6947C58.0514 26.9946 57.9086 29.3682 57.7837 31.8154C54.1265 31.7786 50.1303 31.7602 45.7774 31.7602L35.894 31.7786L32.7007 31.7971Z" fill="black"/>
<path fill-rule="evenodd" clip-rule="evenodd" d="M0 31.7949C0.338959 28.2621 0.55304 25.4469 0.67792 23.331C0.856319 20.1662 1.05256 16.0999 1.23096 11.0951C1.35584 7.24953 1.42721 4.50795 1.42721 2.85198V0.147199C3.17552 0.202398 4.69192 0.220798 5.95855 0.220798C7.18952 0.220798 8.79511 0.183999 10.7754 0.110399C12.7556 0.0367996 14.6288 0 16.3771 0C18.3752 0 20.1413 0.128799 21.6399 0.367996C23.1563 0.625593 24.5478 1.12239 25.8679 1.89519C27.1703 2.66797 28.2764 3.67996 29.1506 4.93115C30.0247 6.18234 30.7026 7.63592 31.1665 9.32871C31.6303 11.0215 31.8622 12.7327 31.8622 14.5175C31.8622 16.2654 31.6839 17.9398 31.327 19.559C30.9702 21.1782 30.4707 22.6318 29.8285 23.9381C29.1862 25.2446 28.437 26.3485 27.5807 27.2869C26.7064 28.2253 25.7253 29.0165 24.6191 29.6789C23.7986 30.1756 22.9601 30.5621 22.1216 30.8381C21.2831 31.1141 20.1413 31.3349 18.6785 31.5189C17.0729 31.7028 15.2354 31.7949 13.1837 31.7949L4.1032 31.7213C3.3004 31.7213 1.92672 31.7397 0 31.7949ZM9.72279 24.8213C10.5434 24.8766 11.3998 24.9133 12.2917 24.9133C13.826 24.9133 15.1818 24.7662 16.3771 24.4901C17.5724 24.2142 18.625 23.6253 19.5169 22.7054C20.4268 21.7854 21.1047 20.6262 21.5328 19.1911C21.9788 17.7559 22.193 16.3022 22.193 14.7934C22.193 12.9535 21.8719 11.4079 21.2297 10.1383C20.5873 8.88711 19.731 8.00391 18.6606 7.50712C17.5902 7.01033 16.1452 6.77113 14.3077 6.77113C13.2373 6.77113 11.9706 6.82633 10.5078 6.91832L9.72279 24.8213Z" fill="black"/>
<path fill-rule="evenodd" clip-rule="evenodd" d="M3.3004 39.0982H2.39057C2.39057 39.043 2.39057 38.9143 2.4084 38.7487C2.42624 38.5831 2.44408 38.4542 2.44408 38.3623H2.42624C2.26568 38.6015 2.1408 38.7671 2.03376 38.8774C1.92673 38.9879 1.80184 39.0615 1.67696 39.1166C1.55208 39.1718 1.39152 39.2086 1.23096 39.2086C0.874163 39.2086 0.588723 39.0799 0.392483 38.8223C0.196243 38.5646 0.0892029 38.1967 0.0892029 37.7367C0.0892029 37.2583 0.196243 36.8166 0.410323 36.3934C0.624403 35.9703 0.909842 35.6575 1.26664 35.4367C1.62344 35.2343 2.05161 35.1238 2.53328 35.1238C2.92577 35.1238 3.40744 35.1791 3.94264 35.3079L3.44313 37.847C3.40744 38.0311 3.37176 38.2518 3.33608 38.5095C3.31825 38.7671 3.3004 38.9694 3.3004 39.0982ZM2.96144 35.8598C2.80089 35.8231 2.64032 35.8047 2.46193 35.8047C2.17648 35.8047 1.92673 35.8783 1.71264 36.0255C1.49856 36.1726 1.32016 36.4118 1.19528 36.7062C1.0704 37.0191 0.999043 37.3319 0.999043 37.663C0.999043 37.9206 1.05256 38.1231 1.14176 38.2518C1.23096 38.399 1.37368 38.4542 1.55208 38.4542C1.81969 38.4542 2.05161 38.307 2.26568 38.0311C2.47976 37.7366 2.64032 37.3686 2.72952 36.8902L2.96144 35.8598ZM7.43929 36.1359C7.35008 36.0623 7.2252 35.9887 7.08248 35.9334C6.93976 35.8783 6.79705 35.8414 6.61864 35.8414C6.38672 35.8414 6.17265 35.915 5.9764 36.0623C5.78016 36.2095 5.6196 36.4118 5.49472 36.6695C5.36984 36.9454 5.31632 37.2214 5.31632 37.5158C5.31632 37.8286 5.38768 38.0678 5.53041 38.2334C5.67312 38.399 5.86936 38.4726 6.11912 38.4726C6.27969 38.4726 6.44024 38.4359 6.6008 38.3806C6.7792 38.3254 6.92193 38.2334 7.06464 38.1414L6.90408 38.9143C6.54728 39.0982 6.20832 39.1902 5.86937 39.1902C5.42336 39.1902 5.06657 39.043 4.8168 38.7671C4.56704 38.491 4.44216 38.0862 4.44216 37.5894C4.44216 37.1294 4.53136 36.7246 4.7276 36.3382C4.92384 35.9519 5.17361 35.6575 5.51256 35.4367C5.85152 35.2158 6.22617 35.1055 6.65432 35.1055C6.83272 35.1055 7.01112 35.1238 7.18952 35.1791C7.36792 35.2158 7.51064 35.2894 7.59984 35.3447L7.43929 36.1359ZM10.811 36.1359C10.7218 36.0623 10.597 35.9887 10.4542 35.9334C10.3115 35.8783 10.1688 35.8414 9.99041 35.8414C9.75849 35.8414 9.5444 35.915 9.34817 36.0623C9.15192 36.2095 8.99136 36.4118 8.86648 36.6695C8.7416 36.9454 8.68808 37.2214 8.68808 37.5158C8.68808 37.8286 8.75944 38.0678 8.90216 38.2334C9.04488 38.399 9.24113 38.4726 9.49088 38.4726C9.65145 38.4726 9.81201 38.4359 9.97256 38.3806C10.151 38.3254 10.2937 38.2334 10.4364 38.1414L10.2758 38.9143C9.91904 39.0982 9.58008 39.1902 9.24113 39.1902C8.79512 39.1902 8.43832 39.043 8.18857 38.7671C7.9388 38.491 7.81392 38.0862 7.81392 37.5894C7.81392 37.1294 7.90313 36.7246 8.09936 36.3382C8.2956 35.9519 8.54537 35.6575 8.88433 35.4367C9.22328 35.2158 9.59792 35.1055 10.0261 35.1055C10.2045 35.1055 10.3829 35.1238 10.5613 35.1791C10.7397 35.2158 10.8824 35.2894 10.9716 35.3447L10.811 36.1359ZM14.6288 36.1726C14.6288 36.6326 14.4147 36.9823 13.9866 37.203C13.5583 37.4238 12.9162 37.5342 12.0598 37.5527V37.5894V37.663C12.0598 37.9206 12.1312 38.1231 12.2918 38.2703C12.4523 38.4175 12.6486 38.491 12.934 38.491C13.1124 38.491 13.3264 38.4542 13.5405 38.3806C13.7546 38.307 13.9508 38.215 14.1293 38.1047L13.9866 38.859C13.6119 39.0615 13.2016 39.1718 12.7556 39.1718C12.2739 39.1718 11.8814 39.0246 11.6138 38.7487C11.3462 38.4726 11.2035 38.0678 11.2035 37.5527C11.2035 37.111 11.2927 36.7063 11.489 36.3198C11.6674 35.9334 11.935 35.6391 12.2739 35.4183C12.6129 35.1975 12.9697 35.0871 13.38 35.0871C13.7725 35.0871 14.0936 35.1791 14.3255 35.3814C14.5218 35.6022 14.6288 35.8414 14.6288 36.1726ZM13.7725 36.1911C13.7725 36.0623 13.7189 35.9703 13.6297 35.8967C13.5405 35.8231 13.4157 35.7863 13.2551 35.7863C12.9875 35.7863 12.7556 35.8967 12.5415 36.1175C12.3274 36.3382 12.1847 36.6143 12.1312 36.9271C13.2194 36.9271 13.7725 36.6695 13.7725 36.1911ZM15.9489 39.1718C15.6814 39.1718 15.4673 39.0982 15.3245 38.9694C15.1818 38.8223 15.1104 38.6382 15.1104 38.3806C15.1104 38.215 15.164 37.9022 15.2532 37.4607C15.3423 37.0191 15.6278 35.6391 16.1095 33.3575H17.0015L16.1095 37.6814C16.056 37.9391 16.0381 38.1047 16.0381 38.1782C16.0381 38.3806 16.1452 38.4726 16.3593 38.4726C16.4841 38.4726 16.5912 38.4542 16.6982 38.4175L16.5555 39.1166C16.3414 39.1351 16.1452 39.1718 15.9489 39.1718ZM20.7122 36.1726C20.7122 36.6326 20.4981 36.9823 20.07 37.203C19.6418 37.4238 18.9996 37.5342 18.1433 37.5527V37.5894V37.663C18.1433 37.9206 18.2147 38.1231 18.3752 38.2703C18.5358 38.4175 18.732 38.491 19.0174 38.491C19.1958 38.491 19.4099 38.4542 19.624 38.3806C19.8381 38.307 20.0343 38.215 20.2127 38.1047L20.07 38.859C19.6954 39.0615 19.285 39.1718 18.8391 39.1718C18.3573 39.1718 17.9648 39.0246 17.6973 38.7487C17.4296 38.4726 17.287 38.0678 17.287 37.5527C17.287 37.111 17.3762 36.7063 17.5724 36.3198C17.7508 35.9334 18.0184 35.6391 18.3573 35.4183C18.6963 35.1975 19.0531 35.0871 19.4635 35.0871C19.8559 35.0871 20.177 35.1791 20.409 35.3814C20.6053 35.6022 20.7122 35.8414 20.7122 36.1726ZM19.8559 36.1911C19.8559 36.0623 19.8024 35.9703 19.7132 35.8967C19.624 35.8231 19.4991 35.7863 19.3385 35.7863C19.071 35.7863 18.8391 35.8967 18.625 36.1175C18.4109 36.3382 18.2681 36.6143 18.2147 36.9271C19.3029 36.9271 19.8559 36.6695 19.8559 36.1911ZM23.8164 36.099C23.6736 36.0255 23.5131 35.9703 23.3883 35.9703C23.1384 35.9703 22.9065 36.099 22.6925 36.3751C22.4784 36.6326 22.3357 37.0007 22.2465 37.4422L21.9075 39.1166H21.0155L21.5329 36.5774C21.6577 35.9519 21.7291 35.4919 21.7469 35.2158H22.6212C22.6032 35.455 22.5676 35.7311 22.514 36.0439H22.5319C22.6925 35.7495 22.8531 35.5286 23.0136 35.363C23.192 35.1975 23.3883 35.1238 23.6202 35.1238C23.7094 35.1238 23.8342 35.1422 23.9947 35.1791L23.8164 36.099ZM27.1882 39.0982H26.2783C26.2783 39.043 26.2783 38.9143 26.2961 38.7487C26.3139 38.5831 26.3319 38.4542 26.3319 38.3623H26.3139C26.1534 38.6015 26.0286 38.7671 25.9215 38.8774C25.8145 38.9879 25.6896 39.0615 25.5648 39.1166C25.4398 39.1718 25.2793 39.2086 25.1187 39.2086C24.7619 39.2086 24.4765 39.0799 24.2802 38.8223C24.0841 38.5646 23.9769 38.1967 23.9769 37.7367C23.9769 37.2583 24.0841 36.8166 24.298 36.3934C24.5121 35.9703 24.7976 35.6575 25.1543 35.4367C25.5112 35.2343 25.9394 35.1238 26.4211 35.1238C26.8135 35.1238 27.2952 35.1791 27.8304 35.3079L27.313 37.847C27.2774 38.0311 27.2416 38.2518 27.206 38.5095C27.206 38.7671 27.1882 38.9694 27.1882 39.0982ZM26.8492 35.8598C26.6886 35.8231 26.5281 35.8047 26.3497 35.8047C26.0642 35.8047 25.8145 35.8783 25.6004 36.0255C25.3863 36.1726 25.2079 36.4118 25.083 36.7062C24.9582 37.0191 24.8868 37.3319 24.8868 37.663C24.8868 37.9206 24.9404 38.1231 25.0295 38.2518C25.1187 38.399 25.2615 38.4542 25.4398 38.4542C25.7075 38.4542 25.9394 38.307 26.1534 38.0311C26.3675 37.7366 26.5281 37.3686 26.6172 36.8902L26.8492 35.8598ZM30.774 35.915H29.8641L29.5074 37.6814C29.4716 37.9022 29.436 38.0495 29.436 38.1231C29.436 38.2334 29.4538 38.3254 29.5074 38.3806C29.5608 38.4359 29.6501 38.4542 29.7571 38.4542C29.8641 38.4542 30.0426 38.4175 30.2745 38.3254L30.1318 39.043C29.8821 39.135 29.6501 39.1902 29.4003 39.1902C28.8116 39.1902 28.5262 38.8958 28.5262 38.307C28.5262 38.1598 28.544 37.9575 28.5975 37.7367L28.9722 35.9334H28.3656L28.5262 35.2158H29.1149L29.3111 34.2775L30.2566 34.0198L30.0247 35.1975H30.9523L30.774 35.915ZM32.9326 33.8911C32.9326 34.0383 32.8791 34.1671 32.7721 34.2775C32.6651 34.3695 32.5402 34.4246 32.3796 34.4246C32.2369 34.4246 32.1119 34.3879 32.005 34.2959C31.898 34.2039 31.8444 34.0751 31.8444 33.9279C31.8444 33.7806 31.898 33.6519 32.005 33.5414C32.1119 33.4495 32.2369 33.3944 32.3974 33.3944C32.5402 33.3944 32.6651 33.4495 32.7721 33.5414C32.8791 33.6336 32.9326 33.7439 32.9326 33.8911ZM31.9336 39.1718C31.666 39.1718 31.4519 39.0982 31.3092 38.951C31.1665 38.8038 31.0951 38.6015 31.0951 38.3439C31.0951 38.215 31.1129 38.0862 31.1308 37.9575L31.6839 35.1975H32.5758L32.0763 37.6447C32.0228 37.9022 32.005 38.0678 32.005 38.1414C32.005 38.3439 32.1119 38.4359 32.3261 38.4359C32.451 38.4359 32.558 38.4175 32.6651 38.3806L32.5224 39.0799C32.3082 39.135 32.1119 39.1718 31.9336 39.1718ZM37.0536 36.1542C37.0536 36.2831 37.018 36.5407 36.9466 36.9087L36.5006 39.0982H35.6087L36.0725 36.8351C36.126 36.559 36.1439 36.3934 36.1439 36.3382C36.1439 36.1911 36.1081 36.0623 36.0368 35.9703C35.9654 35.8783 35.8406 35.8231 35.6979 35.8231C35.5373 35.8231 35.3768 35.8783 35.1983 36.007C35.0199 36.1359 34.8594 36.3015 34.7166 36.5223C34.5739 36.7431 34.4847 36.9454 34.4491 37.1663L34.0566 39.0799H33.1467L33.7176 36.3567C33.8068 35.915 33.8781 35.5286 33.9139 35.1791H34.788C34.7702 35.3999 34.7344 35.6758 34.681 36.007H34.6988C34.895 35.7127 35.1269 35.4735 35.3768 35.3263C35.6265 35.1607 35.8762 35.0871 36.126 35.0871C36.4292 35.0871 36.6612 35.1791 36.8397 35.363C36.9645 35.5655 37.0536 35.8231 37.0536 36.1542ZM38.4809 40.9382C38.0705 40.9382 37.678 40.8462 37.3035 40.6438L37.464 39.8711C37.8208 40.1103 38.1776 40.2206 38.5343 40.2206C38.909 40.2206 39.2123 40.1103 39.4442 39.8894C39.6761 39.6686 39.8189 39.3191 39.9259 38.8407L40.0152 38.3623H39.9972C39.8189 38.6566 39.6227 38.859 39.4442 38.9879C39.248 39.1166 39.0517 39.1718 38.8198 39.1718C38.4631 39.1718 38.1954 39.043 37.9813 38.7854C37.7851 38.5279 37.678 38.1782 37.678 37.6998C37.678 37.2214 37.7851 36.7799 37.9813 36.3567C38.1954 35.9519 38.4631 35.6391 38.8198 35.3999C39.1767 35.1791 39.5869 35.0687 40.033 35.0687C40.4254 35.0687 40.9249 35.1238 41.5315 35.2527L40.8179 38.6934C40.7109 39.2454 40.5504 39.6686 40.3541 39.9814C40.1578 40.2942 39.908 40.515 39.5869 40.6623C39.3194 40.8646 38.9269 40.9382 38.4809 40.9382ZM40.5504 35.8598C40.3897 35.8231 40.2113 35.8047 39.9794 35.8047C39.7297 35.8047 39.48 35.8967 39.2658 36.0623C39.0517 36.2279 38.8734 36.4487 38.7663 36.7431C38.6415 37.0374 38.5879 37.3502 38.5879 37.6814C38.5879 37.9391 38.6415 38.1414 38.7306 38.2887C38.8376 38.4175 38.9626 38.491 39.1409 38.491C39.3194 38.491 39.48 38.4359 39.6227 38.307C39.7832 38.1782 39.9259 37.9942 40.0508 37.7367C40.1757 37.4791 40.2649 37.203 40.3363 36.9271L40.5504 35.8598ZM46.0093 33.8911C46.0093 34.0383 45.9558 34.1671 45.8488 34.2775C45.7418 34.3695 45.6169 34.4246 45.4563 34.4246C45.3136 34.4246 45.1888 34.3879 45.0817 34.2959C44.9747 34.2039 44.9211 34.0751 44.9211 33.9279C44.9211 33.7806 44.9747 33.6519 45.0817 33.5414C45.1888 33.4495 45.3136 33.3944 45.4741 33.3944C45.6169 33.3944 45.7418 33.4495 45.8488 33.5414C45.9558 33.6336 46.0093 33.7439 46.0093 33.8911ZM45.0103 39.1718C44.7427 39.1718 44.5286 39.0982 44.3859 38.951C44.2432 38.8038 44.1718 38.6015 44.1718 38.3439C44.1718 38.215 44.1897 38.0862 44.2075 37.9575L44.7606 35.1975H45.6526L45.153 37.6447C45.0995 37.9022 45.0817 38.0678 45.0817 38.1414C45.0817 38.3439 45.1888 38.4359 45.4028 38.4359C45.5277 38.4359 45.6347 38.4175 45.7418 38.3806L45.5991 39.0799C45.4028 39.135 45.1888 39.1718 45.0103 39.1718ZM50.1303 36.1542C50.1303 36.2831 50.0947 36.5407 50.0233 36.9087L49.5773 39.0982H48.6854L49.1492 36.8351C49.2027 36.559 49.2206 36.3934 49.2206 36.3382C49.2206 36.1911 49.1848 36.0623 49.1135 35.9703C49.0421 35.8783 48.9173 35.8231 48.7746 35.8231C48.614 35.8231 48.4535 35.8783 48.275 36.007C48.0966 36.1359 47.9361 36.3015 47.7933 36.5223C47.6506 36.7431 47.5614 36.9454 47.5258 37.1663L47.1333 39.0799H46.2234L46.7943 36.3567C46.8835 35.915 46.9548 35.5286 46.9906 35.1791H47.8647C47.8469 35.3999 47.8111 35.6758 47.7577 36.007H47.7755C47.9718 35.7127 48.2037 35.4735 48.4535 35.3263C48.7032 35.1607 48.9529 35.0871 49.2027 35.0871C49.5059 35.0871 49.7379 35.1791 49.9164 35.363C50.0591 35.5655 50.1303 35.8231 50.1303 36.1542ZM54.5726 36.1542C54.5726 36.2831 54.5368 36.5407 54.4654 36.9087L54.0195 39.0982H53.1275L53.5913 36.8351C53.6449 36.559 53.6627 36.3934 53.6627 36.3382C53.6627 36.1911 53.6271 36.0623 53.5557 35.9703C53.4843 35.8783 53.3594 35.8231 53.2167 35.8231C53.0561 35.8231 52.8956 35.8783 52.7172 36.007C52.5388 36.1359 52.3783 36.3015 52.2356 36.5223C52.0928 36.7431 52.0036 36.9454 51.9679 37.1663L51.5754 39.0799H50.6655L51.2365 36.3567C51.3257 35.915 51.3971 35.5286 51.4327 35.1791H52.3069C52.289 35.3999 52.2534 35.6758 52.1998 36.007H52.2176C52.4139 35.7127 52.6458 35.4735 52.8956 35.3263C53.1453 35.1607 53.3952 35.0871 53.6449 35.0871C53.9482 35.0871 54.1801 35.1791 54.3585 35.363C54.4834 35.5655 54.5726 35.8231 54.5726 36.1542ZM58.8899 36.7062C58.8899 37.1846 58.8007 37.6078 58.6222 37.9942C58.4438 38.3806 58.1762 38.6751 57.8551 38.8958C57.534 39.0982 57.1593 39.2086 56.7312 39.2086C56.2496 39.2086 55.8749 39.0615 55.6072 38.7854C55.3397 38.5095 55.197 38.1231 55.197 37.6263C55.197 37.1479 55.2861 36.7246 55.4645 36.3382C55.643 35.9519 55.9105 35.6575 56.2316 35.4367C56.5529 35.2343 56.9274 35.1238 57.3556 35.1238C57.8194 35.1238 58.1941 35.2711 58.4795 35.5471C58.7649 35.8231 58.8899 36.2095 58.8899 36.7062ZM57.9978 36.7246C57.9978 36.4487 57.9444 36.2462 57.8194 36.0806C57.6945 35.915 57.534 35.8414 57.3199 35.8414C57.0879 35.8414 56.8918 35.915 56.7134 36.0806C56.5349 36.2462 56.3922 36.4487 56.2852 36.7246C56.1782 37.0007 56.1246 37.295 56.1246 37.5894C56.1246 37.8655 56.1782 38.0862 56.303 38.2334C56.4279 38.3806 56.5885 38.4726 56.8026 38.4726C57.0345 38.4726 57.2307 38.399 57.427 38.2334C57.6053 38.0678 57.7481 37.8655 57.8551 37.5894C57.9444 37.3135 57.9978 37.0374 57.9978 36.7246ZM60.9771 39.0982H60.0673L59.5143 35.1975H60.4062L60.656 37.4975C60.6739 37.7183 60.6917 37.9391 60.6917 38.1414V38.2518H60.7095C60.8166 37.9942 60.9236 37.7367 61.0485 37.4975L62.2259 35.1791H63.2072L60.9771 39.0982ZM66.2577 39.0982H65.3479C65.3479 39.043 65.3479 38.9143 65.3657 38.7487C65.3836 38.5831 65.4014 38.4542 65.4014 38.3623H65.3836C65.2231 38.6015 65.0981 38.7671 64.9912 38.8774C64.884 38.9879 64.7592 39.0615 64.6343 39.1166C64.5094 39.1718 64.3488 39.2086 64.1883 39.2086C63.8316 39.2086 63.5461 39.0799 63.3498 38.8223C63.1536 38.5646 63.0466 38.1967 63.0466 37.7367C63.0466 37.2583 63.1536 36.8166 63.3677 36.3934C63.5817 35.9703 63.8672 35.6575 64.224 35.4367C64.5807 35.2343 65.009 35.1238 65.4906 35.1238C65.8831 35.1238 66.3647 35.1791 66.8999 35.3079L66.3827 37.847C66.3469 38.0311 66.3113 38.2518 66.2756 38.5095C66.2756 38.7671 66.2577 38.9694 66.2577 39.0982ZM65.9188 35.8598C65.7583 35.8231 65.5977 35.8047 65.4192 35.8047C65.1339 35.8047 64.884 35.8783 64.6701 36.0255C64.4559 36.1726 64.2775 36.4118 64.1527 36.7062C64.0277 37.0191 63.9564 37.3319 63.9564 37.663C63.9564 37.9206 64.0099 38.1231 64.0991 38.2518C64.1883 38.399 64.331 38.4542 64.5094 38.4542C64.777 38.4542 65.009 38.307 65.2231 38.0311C65.4371 37.7366 65.5977 37.3686 65.6869 36.8902L65.9188 35.8598ZM69.8615 35.915H68.9516L68.5948 37.6814C68.5591 37.9022 68.5234 38.0495 68.5234 38.1231C68.5234 38.2334 68.5413 38.3254 68.5948 38.3806C68.6483 38.4359 68.7375 38.4542 68.8446 38.4542C68.9516 38.4542 69.13 38.4175 69.3619 38.3254L69.2191 39.043C68.9694 39.135 68.7375 39.1902 68.4878 39.1902C67.899 39.1902 67.6136 38.8958 67.6136 38.307C67.6136 38.1598 67.6315 37.9575 67.6849 37.7367L68.0595 35.9334H67.4531L67.6136 35.2158H68.2023L68.3986 34.2775L69.3441 34.0198L69.1122 35.1975H70.0398L69.8615 35.915ZM72.0022 33.8911C72.0022 34.0383 71.9488 34.1671 71.8416 34.2775C71.7346 34.3695 71.6097 34.4246 71.4492 34.4246C71.3064 34.4246 71.1816 34.3879 71.0745 34.2959C70.9675 34.2039 70.914 34.0751 70.914 33.9279C70.914 33.7806 70.9675 33.6519 71.0745 33.5414C71.1816 33.4495 71.3064 33.3944 71.467 33.3944C71.6097 33.3944 71.7346 33.4495 71.8416 33.5414C71.9488 33.6336 72.0022 33.7439 72.0022 33.8911ZM71.0031 39.1718C70.7356 39.1718 70.5215 39.0982 70.3787 38.951C70.2361 38.8038 70.1648 38.6015 70.1648 38.3439C70.1648 38.215 70.1826 38.0862 70.2004 37.9575L70.7534 35.1975H71.6455L71.1459 37.6447C71.0924 37.9022 71.0745 38.0678 71.0745 38.1414C71.0745 38.3439 71.1816 38.4359 71.3957 38.4359C71.5205 38.4359 71.6277 38.4175 71.7346 38.3806L71.5919 39.0799C71.3778 39.135 71.1816 39.1718 71.0031 39.1718ZM76.0162 36.7062C76.0162 37.1846 75.927 37.6078 75.7487 37.9942C75.5703 38.3806 75.3026 38.6751 74.9815 38.8958C74.6604 39.0982 74.2858 39.2086 73.8575 39.2086C73.3759 39.2086 73.0012 39.0615 72.7337 38.7854C72.466 38.5095 72.3234 38.1231 72.3234 37.6263C72.3234 37.1479 72.4126 36.7246 72.591 36.3382C72.7693 35.9519 73.037 35.6575 73.3581 35.4367C73.6792 35.2343 74.0538 35.1238 74.4819 35.1238C74.9458 35.1238 75.3204 35.2711 75.6059 35.5471C75.8735 35.8231 76.0162 36.2095 76.0162 36.7062ZM75.1065 36.7246C75.1065 36.4487 75.0529 36.2462 74.928 36.0806C74.8032 35.915 74.6426 35.8414 74.4285 35.8414C74.1966 35.8414 74.0003 35.915 73.8219 36.0806C73.6436 36.2462 73.5008 36.4487 73.3937 36.7246C73.2867 37.0007 73.2332 37.295 73.2332 37.5894C73.2332 37.8655 73.2867 38.0862 73.4116 38.2334C73.5364 38.3806 73.697 38.4726 73.9111 38.4726C74.143 38.4726 74.3393 38.399 74.5355 38.2334C74.7139 38.0678 74.8566 37.8655 74.9637 37.5894C75.0529 37.3135 75.1065 37.0374 75.1065 36.7246ZM80.3692 36.1542C80.3692 36.2831 80.3335 36.5407 80.2621 36.9087L79.8161 39.0982H78.9242L79.388 36.8351C79.4416 36.559 79.4594 36.3934 79.4594 36.3382C79.4594 36.1911 79.4236 36.0623 79.3523 35.9703C79.2809 35.8783 79.1561 35.8231 79.0133 35.8231C78.8528 35.8231 78.6922 35.8783 78.5139 36.007C78.3354 36.1359 78.1748 36.3015 78.0321 36.5223C77.8895 36.7431 77.8002 36.9454 77.7646 37.1663L77.3721 39.0799H76.4622L77.0331 36.3567C77.1224 35.915 77.1936 35.5286 77.2294 35.1791H78.1035C78.0857 35.3999 78.05 35.6758 77.9965 36.007H78.0143C78.2106 35.7127 78.4425 35.4735 78.6922 35.3263C78.942 35.1607 79.1917 35.0871 79.4416 35.0871C79.7447 35.0871 79.9766 35.1791 80.1551 35.363C80.2979 35.5655 80.3692 35.8231 80.3692 36.1542Z" fill="black"/>
<path fill-rule="evenodd" clip-rule="evenodd" d="M99.4044 13.692L88.7004 0.0209351H98.0486L103.704 7.34407L99.4044 13.692Z" fill="#4AB27C"/>
<path fill-rule="evenodd" clip-rule="evenodd" d="M88.8788 40.0914L99.7612 24.3596L104.828 31.3147L98.6908 40.0914H88.8788Z" fill="#009246"/>
<path fill-rule="evenodd" clip-rule="evenodd" d="M113.248 19.1011L103.597 19.2299L120.224 40.0952H130L113.248 19.1011Z" fill="#009246"/>
</g>
<defs>
<clipPath id="clip0_703_3">
<rect width="130" height="41.5646" fill="white"/>
</clipPath>
</defs>
</svg>
