<svg width="402" height="402" viewBox="0 0 402 402" fill="none" xmlns="http://www.w3.org/2000/svg">
<g filter="url(#filter0_d_157_221)">
<circle cx="201" cy="191" r="165" fill="white"/>
<circle cx="201" cy="191" r="168" stroke="#26A73A" stroke-width="6"/>
</g>
<mask id="mask0_157_221" style="mask-type:alpha" maskUnits="userSpaceOnUse" x="36" y="26" width="330" height="330">
<circle cx="201" cy="191" r="165" fill="white"/>
</mask>
<g mask="url(#mask0_157_221)">
<path d="M81.4489 368C81.4489 368 66.7631 253.324 205.388 253.313C340.908 253.313 319.099 368 319.099 368H81.4489Z" fill="#31751B"/>
<path d="M135.354 94.692C135.354 94.692 112.231 118.453 135.354 142.386C158.477 166.319 271.142 141.201 271.142 141.201C271.142 141.201 287.914 108.289 260.951 84.9408C233.988 61.5925 171.184 68.8496 170.503 68.8496C169.821 68.8496 135.354 94.692 135.354 94.692Z" fill="#414142"/>
<path d="M148.64 147.562C148.566 151.521 146.941 155.292 144.115 158.065C141.289 160.839 137.487 162.392 133.528 162.392C129.569 162.392 125.767 160.839 122.941 158.065C120.115 155.292 118.49 151.521 118.416 147.562C118.416 139.216 125.077 128.939 133.525 132.453C141.233 135.655 148.64 139.211 148.64 147.562Z" fill="#B58C81"/>
<path d="M278.238 147.793C278.238 151.8 276.646 155.643 273.813 158.477C270.979 161.311 267.136 162.902 263.129 162.902C259.121 162.902 255.278 161.311 252.445 158.477C249.611 155.643 248.019 151.8 248.019 147.793C248.019 139.447 254.933 134.26 263.129 132.683C273.582 130.677 278.238 139.452 278.238 147.793Z" fill="#B58C81"/>
<path d="M221.935 218.851L218.781 177.4L186.417 181.842L181.134 242.451C191.813 241.148 209.191 236.246 221.935 218.851Z" fill="#D19582"/>
<path d="M133.799 133.354C133.193 143.271 133.638 146.227 134.732 156.133C136.878 175.711 146.259 192.757 164.023 202.229C181.788 211.701 206.113 215.102 225.079 207.298C239.764 201.248 251.114 190.467 256.928 175.936C263.547 159.378 263.622 138.208 262.726 120.325C259.417 54.0995 205.485 55.0757 205.485 55.0757C205.485 55.0757 133.525 49.5297 133.799 133.354Z" fill="#E5B5A3"/>
<path d="M181.134 242.43L178.806 269.099C178.806 269.099 179.755 282.422 201.333 284.959C222.911 287.496 225.47 264.974 225.47 264.974L221.957 218.846C209.191 236.246 191.813 241.148 181.134 242.43Z" fill="#E5B5A3"/>
<path opacity="0.5" d="M166.952 169.704C171.68 169.704 175.513 166.973 175.513 163.605C175.513 160.237 171.68 157.507 166.952 157.507C162.224 157.507 158.392 160.237 158.392 163.605C158.392 166.973 162.224 169.704 166.952 169.704Z" fill="#CE8282"/>
<path opacity="0.5" d="M238.536 164.077C238.536 167.446 234.701 170.176 229.954 170.176C225.207 170.176 221.372 167.446 221.372 164.077C221.372 160.709 225.207 157.979 229.954 157.979C234.701 157.979 238.536 160.709 238.536 164.077Z" fill="#CE8282"/>
<path d="M219.575 132.453C220.425 130.181 221.916 128.204 223.866 126.762C225.87 125.226 228.255 124.267 230.764 123.989C233.326 123.688 235.916 124.216 238.155 125.496C239.298 126.032 240.172 126.939 241.062 127.722C241.866 128.615 242.551 129.608 243.101 130.677C240.73 130.066 238.81 129.288 236.82 128.998C234.993 128.606 233.114 128.517 231.258 128.736C227.589 129.079 223.947 130.629 219.575 132.453Z" fill="#414142"/>
<path d="M178.806 130.677C174.756 127.518 170.959 126.472 166.899 126.633C164.86 126.633 162.747 127.11 160.526 127.48C159.454 127.791 158.279 127.963 157.126 128.237C155.925 128.557 154.702 128.792 153.468 128.939C154.252 127.938 155.121 127.004 156.064 126.15C157.06 125.359 158.106 124.634 159.196 123.978C161.476 122.835 164.024 121.886 166.759 121.864C169.553 121.737 172.313 122.526 174.617 124.112C176.848 125.721 178.5 128.076 178.806 130.677Z" fill="#414142"/>
<path d="M168.963 157.507H147.83C144.045 157.502 140.416 155.996 137.741 153.317C135.065 150.639 133.563 147.008 133.563 143.223V143.223C133.563 139.435 135.068 135.802 137.746 133.123C140.425 130.444 144.058 128.939 147.846 128.939H168.963C172.751 128.939 176.385 130.444 179.063 133.123C181.742 135.802 183.247 139.435 183.247 143.223C183.247 145.099 182.877 146.956 182.16 148.689C181.442 150.422 180.39 151.997 179.063 153.323C177.737 154.649 176.162 155.701 174.429 156.419C172.696 157.137 170.839 157.507 168.963 157.507V157.507Z" stroke="white" stroke-width="4.45" stroke-miterlimit="10"/>
<path d="M249.714 130.677H227.16C219.751 130.677 213.745 136.683 213.745 144.092C213.745 151.501 219.751 157.507 227.16 157.507H249.714C257.123 157.507 263.129 151.501 263.129 144.092C263.129 136.683 257.123 130.677 249.714 130.677Z" stroke="white" stroke-width="4.45" stroke-miterlimit="10"/>
<path d="M199.966 142.311C201.481 144.34 202.742 146.546 203.72 148.882C204.77 151.236 205.492 153.723 205.866 156.273C206.042 157.628 206.021 159.001 205.801 160.349C205.653 161.08 205.398 161.785 205.045 162.441C204.663 163.105 204.142 163.678 203.517 164.12C202.917 164.583 202.229 164.917 201.494 165.102C200.696 165.268 199.864 165.13 199.161 164.716C198.606 164.321 198.136 163.817 197.781 163.235C197.426 162.653 197.193 162.006 197.096 161.331C197.842 162.329 198.743 163.283 199.714 163.546C200.685 163.809 201.43 163.316 202.186 162.565C203.635 161.24 203.559 158.88 203.302 156.584C202.968 154.204 202.48 151.848 201.843 149.531C201.221 147.16 200.55 144.779 199.966 142.311Z" fill="#4C3D3B"/>
<g opacity="0.6">
<path opacity="0.6" d="M199.966 142.311C201.481 144.34 202.742 146.546 203.72 148.882C204.77 151.236 205.492 153.723 205.866 156.273C206.042 157.628 206.021 159.001 205.801 160.349C205.653 161.08 205.398 161.785 205.045 162.441C204.663 163.105 204.142 163.678 203.517 164.12C202.917 164.583 202.229 164.917 201.494 165.102C200.696 165.268 199.864 165.13 199.161 164.716C198.606 164.321 198.136 163.817 197.781 163.235C197.426 162.653 197.193 162.006 197.096 161.331C197.842 162.329 198.743 163.283 199.714 163.546C200.685 163.809 201.43 163.316 202.186 162.565C203.635 161.24 203.559 158.88 203.302 156.584C202.968 154.204 202.48 151.848 201.843 149.531C201.221 147.16 200.55 144.779 199.966 142.311Z" fill="#E5B5A3"/>
</g>
<path d="M170.277 149.242C172.565 146.955 172.565 143.246 170.277 140.959C167.99 138.672 164.282 138.672 161.994 140.959C159.707 143.246 159.707 146.955 161.994 149.242C164.282 151.53 167.99 151.53 170.277 149.242Z" fill="#373C44"/>
<path d="M166.137 143.695C166.2 144.042 166.154 144.4 166.006 144.72C165.859 145.04 165.616 145.307 165.311 145.484C165.007 145.662 164.655 145.741 164.303 145.711C163.952 145.682 163.618 145.544 163.348 145.318C163.077 145.092 162.883 144.789 162.791 144.448C162.699 144.108 162.714 143.748 162.834 143.416C162.954 143.085 163.173 142.798 163.462 142.596C163.751 142.393 164.095 142.285 164.447 142.285C164.858 142.25 165.265 142.379 165.582 142.643C165.898 142.907 166.097 143.285 166.137 143.695Z" fill="white"/>
<path d="M237.03 146.436C237.773 143.288 235.823 140.133 232.675 139.39C229.526 138.647 226.372 140.597 225.629 143.745C224.886 146.893 226.835 150.048 229.984 150.791C233.132 151.534 236.287 149.584 237.03 146.436Z" fill="#373C44"/>
<path d="M231.338 143.695C231.401 144.042 231.355 144.4 231.207 144.72C231.06 145.04 230.817 145.307 230.512 145.484C230.208 145.662 229.856 145.741 229.504 145.711C229.153 145.682 228.82 145.544 228.549 145.318C228.278 145.092 228.084 144.789 227.992 144.448C227.9 144.108 227.915 143.748 228.035 143.416C228.155 143.085 228.375 142.798 228.663 142.596C228.952 142.393 229.296 142.285 229.648 142.285C230.059 142.25 230.466 142.379 230.783 142.643C231.099 142.907 231.298 143.285 231.338 143.695Z" fill="white"/>
<path d="M243.085 319.812H278.233C279.897 319.812 281.494 320.474 282.671 321.651C283.847 322.827 284.509 324.424 284.509 326.088V367.126H237.19V325.707C237.191 324.144 237.813 322.646 238.918 321.541C240.023 320.435 241.522 319.814 243.085 319.812V319.812Z" fill="#244F12"/>
<path d="M183.226 147.793C183.226 147.793 200.684 135.649 213.745 147.793" stroke="white" stroke-width="4.45" stroke-miterlimit="10"/>
<path d="M226.521 169.248C218.744 171.468 212.308 158.799 202.808 164.168C202.808 164.168 202.47 164.377 201.199 164.211V164.029C201.012 164.072 200.851 164.099 200.663 164.131L200.127 164.029V164.211C198.861 164.377 198.517 164.168 198.517 164.168C189.024 158.805 182.582 171.468 174.81 169.248C181.783 173.324 187.146 176.853 200.641 170.455C213.745 176.499 219.527 173.319 226.521 169.248Z" fill="#414142"/>
<path d="M189.78 172.546C191.497 173.673 193.31 174.648 195.197 175.459C196.98 176.235 198.887 176.689 200.829 176.8C202.744 176.915 204.657 176.546 206.391 175.727C208.215 174.987 209.851 173.774 211.589 172.535C211.029 173.448 210.407 174.321 209.727 175.148C208.977 175.946 208.126 176.644 207.196 177.223C205.289 178.47 203.034 179.073 200.759 178.945C198.565 178.777 196.437 178.114 194.535 177.005C192.634 175.897 191.008 174.373 189.78 172.546V172.546Z" fill="#373C44"/>
</g>
<rect x="125" y="315" width="153" height="65" rx="32.5" fill="#26A73A"/>
<path d="M157.052 352.548L165.044 345.744L157.052 338.976H162.884L170.984 345.78L162.884 352.548H157.052ZM157.088 358.416V354.888H170.552V358.416H157.088ZM184.052 360.432C182.3 360.432 180.824 360.096 179.624 359.424C178.424 358.728 177.488 357.828 176.816 356.724C176.144 355.62 175.748 354.432 175.628 353.16H179.912C180.104 354.264 180.56 355.116 181.28 355.716C182.024 356.316 182.96 356.616 184.088 356.616C185.696 356.616 186.992 355.884 187.976 354.42C188.96 352.932 189.488 350.676 189.56 347.652C188.984 348.636 188.108 349.452 186.932 350.1C185.78 350.748 184.508 351.072 183.116 351.072C181.724 351.072 180.416 350.736 179.192 350.064C177.968 349.392 176.972 348.444 176.204 347.22C175.436 345.996 175.052 344.556 175.052 342.9C175.052 341.388 175.424 339.984 176.168 338.688C176.912 337.392 177.944 336.348 179.264 335.556C180.584 334.764 182.132 334.368 183.908 334.368C185.804 334.368 187.4 334.716 188.696 335.412C189.992 336.108 191.024 337.044 191.792 338.22C192.584 339.396 193.148 340.704 193.484 342.144C193.844 343.584 194.024 345.06 194.024 346.572C194.024 349.38 193.628 351.828 192.836 353.916C192.068 355.98 190.928 357.588 189.416 358.74C187.928 359.868 186.14 360.432 184.052 360.432ZM184.196 347.184C185.084 347.184 185.888 346.992 186.608 346.608C187.328 346.2 187.892 345.672 188.3 345.024C188.708 344.352 188.912 343.608 188.912 342.792C188.912 341.496 188.456 340.428 187.544 339.588C186.656 338.748 185.528 338.328 184.16 338.328C182.816 338.328 181.7 338.748 180.812 339.588C179.924 340.404 179.48 341.448 179.48 342.72C179.48 344.064 179.924 345.144 180.812 345.96C181.7 346.776 182.828 347.184 184.196 347.184ZM197.336 360V356.652C198.872 355.38 200.36 354.12 201.8 352.872C203.264 351.624 204.56 350.388 205.688 349.164C206.84 347.94 207.752 346.752 208.424 345.6C209.12 344.424 209.468 343.284 209.468 342.18C209.468 341.148 209.18 340.236 208.604 339.444C208.052 338.652 207.128 338.256 205.832 338.256C204.512 338.256 203.516 338.688 202.844 339.552C202.172 340.416 201.836 341.46 201.836 342.684H197.372C197.42 340.836 197.828 339.3 198.596 338.076C199.364 336.828 200.384 335.904 201.656 335.304C202.928 334.68 204.356 334.368 205.94 334.368C208.508 334.368 210.5 335.076 211.916 336.492C213.356 337.884 214.076 339.696 214.076 341.928C214.076 343.32 213.752 344.676 213.104 345.996C212.48 347.316 211.652 348.588 210.62 349.812C209.588 351.036 208.472 352.188 207.272 353.268C206.072 354.324 204.908 355.308 203.78 356.22H214.688V360H197.336ZM223.698 347.184C222.546 347.184 221.502 346.932 220.566 346.428C219.63 345.9 218.886 345.156 218.334 344.196C217.782 343.236 217.506 342.096 217.506 340.776C217.506 339.456 217.782 338.316 218.334 337.356C218.886 336.396 219.63 335.664 220.566 335.16C221.502 334.632 222.558 334.368 223.734 334.368C224.886 334.368 225.918 334.632 226.83 335.16C227.766 335.664 228.51 336.396 229.062 337.356C229.614 338.316 229.89 339.456 229.89 340.776C229.89 342.096 229.614 343.236 229.062 344.196C228.51 345.156 227.766 345.9 226.83 346.428C225.894 346.932 224.85 347.184 223.698 347.184ZM222.33 360L236.55 334.8H241.05L226.83 360H222.33ZM223.698 343.98C224.394 343.98 224.994 343.716 225.498 343.188C226.002 342.636 226.254 341.832 226.254 340.776C226.254 339.72 226.002 338.916 225.498 338.364C225.018 337.812 224.418 337.536 223.698 337.536C222.978 337.536 222.366 337.812 221.862 338.364C221.382 338.916 221.142 339.72 221.142 340.776C221.142 341.832 221.382 342.636 221.862 343.188C222.366 343.716 222.978 343.98 223.698 343.98ZM239.826 360.432C238.674 360.432 237.63 360.18 236.694 359.676C235.758 359.148 235.014 358.404 234.462 357.444C233.91 356.484 233.634 355.344 233.634 354.024C233.634 352.704 233.91 351.576 234.462 350.64C235.014 349.68 235.758 348.948 236.694 348.444C237.63 347.916 238.686 347.652 239.862 347.652C241.014 347.652 242.046 347.916 242.958 348.444C243.894 348.948 244.638 349.68 245.19 350.64C245.742 351.576 246.018 352.704 246.018 354.024C246.018 355.344 245.742 356.484 245.19 357.444C244.638 358.404 243.894 359.148 242.958 359.676C242.046 360.18 241.002 360.432 239.826 360.432ZM239.826 357.228C240.546 357.228 241.146 356.964 241.626 356.436C242.13 355.884 242.382 355.08 242.382 354.024C242.382 352.968 242.13 352.164 241.626 351.612C241.146 351.06 240.546 350.784 239.826 350.784C239.106 350.784 238.494 351.06 237.99 351.612C237.51 352.164 237.27 352.968 237.27 354.024C237.27 355.08 237.51 355.884 237.99 356.436C238.494 356.964 239.106 357.228 239.826 357.228Z" fill="white"/>
<defs>
<filter id="filter0_d_157_221" x="0" y="0" width="402" height="402" filterUnits="userSpaceOnUse" color-interpolation-filters="sRGB">
<feFlood flood-opacity="0" result="BackgroundImageFix"/>
<feColorMatrix in="SourceAlpha" type="matrix" values="0 0 0 0 0 0 0 0 0 0 0 0 0 0 0 0 0 0 127 0" result="hardAlpha"/>
<feOffset dy="10"/>
<feGaussianBlur stdDeviation="15"/>
<feComposite in2="hardAlpha" operator="out"/>
<feColorMatrix type="matrix" values="0 0 0 0 0 0 0 0 0 0 0 0 0 0 0 0 0 0 0.2 0"/>
<feBlend mode="normal" in2="BackgroundImageFix" result="effect1_dropShadow_157_221"/>
<feBlend mode="normal" in="SourceGraphic" in2="effect1_dropShadow_157_221" result="shape"/>
</filter>
</defs>
</svg>
