<svg width="104" height="101" viewBox="0 0 104 101" fill="none" xmlns="http://www.w3.org/2000/svg">
<g clip-path="url(#clip0_96_79)">
<path d="M2.36 51.33C2.36504 59.0314 4.17355 66.6246 7.64069 73.5014C11.1078 80.3782 16.1372 86.3475 22.3261 90.9312C28.5149 95.5149 35.6911 98.5855 43.28 99.8972C50.8689 101.209 58.6595 100.725 66.0278 98.4846C73.3961 96.2442 80.1374 92.3094 85.7116 86.9953C91.2858 81.6812 95.5381 75.1355 98.1279 67.8826C100.718 60.6297 101.573 52.8711 100.625 45.2282C99.6773 37.5854 96.9529 30.2707 92.67 23.87C88.1638 17.1388 82.0681 11.6219 74.9222 7.80735C67.7762 3.99281 59.8003 1.99821 51.7 2C45.2207 1.99738 38.8043 3.27147 32.8176 5.74948C26.8309 8.22749 21.3911 11.8609 16.809 16.442C12.227 21.0231 8.59253 26.4621 6.1133 32.4484C3.63408 38.4346 2.35869 44.8507 2.36 51.33Z" fill="url(#paint0_radial_96_79)"/>
<path d="M51.66 76.1201C44.2833 76.1975 37.0741 73.9205 31.08 69.6201C30.7013 69.388 30.256 69.2886 29.8145 69.3377C29.373 69.3867 28.9604 69.5813 28.6417 69.8907C28.3231 70.2002 28.1165 70.607 28.0547 71.0469C27.9928 71.4867 28.0791 71.9347 28.3 72.3201C30.9692 76.0044 34.4842 78.9938 38.5493 81.0368C42.6145 83.0798 47.1108 84.1166 51.66 84.0601C56.2059 84.1134 60.6982 83.0751 64.7596 81.0322C68.821 78.9893 72.3328 76.0016 75 72.3201C75.2209 71.9347 75.3073 71.4867 75.2454 71.0469C75.1835 70.607 74.977 70.2002 74.6583 69.8907C74.3397 69.5813 73.927 69.3867 73.4855 69.3377C73.044 69.2886 72.5988 69.388 72.22 69.6201C66.2315 73.9164 59.0299 76.1932 51.66 76.1201Z" fill="#87594A"/>
<path d="M66.3901 51.59H66.5501C68.6301 51.59 70.5501 52.87 71.8901 54.94C72.3001 55.56 73.0801 55.2101 73.0801 54.3801V50C73.0801 43.67 70.1501 38.55 66.5401 38.55H66.4001C62.7901 38.55 59.8601 43.67 59.8601 50V54.42C59.8601 55.25 60.6401 55.6 61.0501 54.98C62.4201 52.87 64.3101 51.59 66.3901 51.59Z" fill="#87594A"/>
<path d="M36.78 51.59H36.93C39.02 51.59 40.93 52.87 42.27 54.94C42.69 55.56 43.46 55.2101 43.46 54.3801V50C43.46 43.67 40.53 38.55 36.92 38.55H36.79C33.17 38.55 30.25 43.67 30.25 50V54.42C30.25 55.25 31.02 55.6 31.43 54.98C31.966 54.0117 32.7369 53.1938 33.6718 52.6014C34.6067 52.009 35.6755 51.6612 36.78 51.59Z" fill="#87594A"/>
<path d="M51.66 0C23.13 0 0 6.18 0 13.8C0 21.42 23.13 27.6 51.66 27.6C80.19 27.6 103.32 21.42 103.32 13.8C103.32 6.18 80.19 0 51.66 0ZM51.66 20C32.4 20 16.78 16.31 16.78 11.75C16.78 7.19 32.4 3.47 51.66 3.47C70.92 3.47 86.54 7.16 86.54 11.72C86.54 16.28 70.92 20 51.66 20Z" fill="url(#paint1_radial_96_79)"/>
</g>
<defs>
<radialGradient id="paint0_radial_96_79" cx="0" cy="0" r="1" gradientUnits="userSpaceOnUse" gradientTransform="translate(39.9237 43.9112) rotate(79.031) scale(58.1477 58.1598)">
<stop stop-color="#FDDB35"/>
<stop offset="0.48" stop-color="#FDD934"/>
<stop offset="0.713542" stop-color="#FCD232"/>
<stop offset="0.869792" stop-color="#FBC72E"/>
<stop offset="1" stop-color="#F8A022"/>
</radialGradient>
<radialGradient id="paint1_radial_96_79" cx="0" cy="0" r="1" gradientUnits="userSpaceOnUse" gradientTransform="translate(51.66 21.3872) scale(60.18 21.6648)">
<stop stop-color="#2ABEF8"/>
<stop offset="0.3" stop-color="#2CACEC"/>
<stop offset="0.71" stop-color="#2D99E0"/>
<stop offset="1" stop-color="#2E92DB"/>
</radialGradient>
<clipPath id="clip0_96_79">
<rect width="103.32" height="100.65" fill="white"/>
</clipPath>
</defs>
</svg>
