<svg width="23" height="23" viewBox="0 0 23 23" fill="none" xmlns="http://www.w3.org/2000/svg">
<path d="M21.9689 6.51602C21.9566 5.58907 21.7831 4.67134 21.4561 3.80387C21.1726 3.07216 20.7396 2.40765 20.1847 1.85277C19.6298 1.2979 18.9653 0.864867 18.2336 0.581351C17.3773 0.259903 16.4726 0.0860904 15.5582 0.0673143C14.3808 0.0146868 14.0075 0 11.0187 0C8.02998 0 7.6469 8.20686e-08 6.47808 0.0673143C5.56402 0.0862284 4.6598 0.260039 3.80387 0.581351C3.07205 0.864669 2.40743 1.29763 1.85253 1.85253C1.29763 2.40743 0.864669 3.07205 0.58135 3.80387C0.259259 4.65953 0.0858234 5.56396 0.0685382 6.47808C0.0159106 7.65669 0 8.02998 0 11.0187C0 14.0075 -9.11873e-09 14.3893 0.0685382 15.5594C0.0868966 16.4749 0.259466 17.3781 0.58135 18.236C0.865144 18.9676 1.29843 19.632 1.85351 20.1867C2.4086 20.7413 3.07328 21.1741 3.80509 21.4573C4.65868 21.7917 5.56306 21.978 6.4793 22.0081C7.65792 22.0607 8.0312 22.0766 11.02 22.0766C14.0087 22.0766 14.3918 22.0766 15.5606 22.0081C16.475 21.9901 17.3798 21.8167 18.236 21.4953C18.9676 21.2114 19.6319 20.7783 20.1867 20.2235C20.7416 19.6686 21.1747 19.0043 21.4586 18.2728C21.7804 17.416 21.953 16.5128 21.9714 15.5961C22.024 14.4187 22.0399 14.0454 22.0399 11.0554C22.0375 8.0667 22.0375 7.68729 21.9689 6.51602ZM11.0114 16.6707C7.88556 16.6707 5.35332 14.1384 5.35332 11.0126C5.35332 7.88678 7.88556 5.35454 11.0114 5.35454C12.512 5.35454 13.9512 5.95066 15.0122 7.01175C16.0733 8.07285 16.6695 9.512 16.6695 11.0126C16.6695 12.5132 16.0733 13.9524 15.0122 15.0135C13.9512 16.0746 12.512 16.6707 11.0114 16.6707ZM16.8947 6.46462C16.7214 6.46478 16.5497 6.43076 16.3896 6.36452C16.2294 6.29827 16.0839 6.20109 15.9614 6.07854C15.8388 5.956 15.7416 5.81049 15.6754 5.65034C15.6092 5.4902 15.5751 5.31856 15.5753 5.14526C15.5753 4.97208 15.6094 4.80059 15.6757 4.64059C15.742 4.4806 15.8391 4.33522 15.9615 4.21276C16.084 4.0903 16.2294 3.99317 16.3894 3.92689C16.5494 3.86062 16.7209 3.82651 16.894 3.82651C17.0672 3.82651 17.2387 3.86062 17.3987 3.92689C17.5587 3.99317 17.7041 4.0903 17.8265 4.21276C17.949 4.33522 18.0461 4.4806 18.1124 4.64059C18.1787 4.80059 18.2128 4.97208 18.2128 5.14526C18.2128 5.8747 17.6229 6.46462 16.8947 6.46462Z" fill="black"/>
<path d="M11.0114 14.6881C13.0413 14.6881 14.6868 13.0426 14.6868 11.0128C14.6868 8.98292 13.0413 7.3374 11.0114 7.3374C8.98157 7.3374 7.33606 8.98292 7.33606 11.0128C7.33606 13.0426 8.98157 14.6881 11.0114 14.6881Z" fill="black"/>
</svg>
