<svg width="22" height="22" viewBox="0 0 22 22" fill="none" xmlns="http://www.w3.org/2000/svg">
<path d="M4.31303 0.00488281C1.94326 0.00488281 0.0037384 1.94436 0.0037384 4.31418V17.6867C0.0037384 20.0565 1.94321 21.9953 4.31303 21.9953H17.6855C20.0553 21.9953 21.9941 20.0565 21.9941 17.6867V4.31418C21.9941 1.9444 20.0553 0.00488281 17.6855 0.00488281H4.31303ZM5.39688 3.63374C6.53314 3.63374 7.23303 4.37967 7.25463 5.36019C7.25463 6.31906 6.5331 7.08596 5.37491 7.08596H5.35359C4.23896 7.08596 3.51852 6.3191 3.51852 5.36019C3.51852 4.37969 4.26076 3.63374 5.39686 3.63374H5.39688ZM15.1886 8.21656C17.3739 8.21656 19.012 9.64484 19.012 12.7142V18.444H15.6911V13.0983C15.6911 11.755 15.2104 10.8385 14.0086 10.8385C13.0911 10.8385 12.5442 11.4562 12.3041 12.053C12.2164 12.2665 12.1948 12.5646 12.1948 12.8633V18.444H8.87387C8.87387 18.444 8.91746 9.38854 8.87387 8.4509H12.1955V9.86603C12.6368 9.18513 13.4262 8.21654 15.1886 8.21654V8.21656ZM3.71441 8.45163H7.03538V18.4441H3.71441V8.45163Z" fill="black"/>
</svg>
