<svg width="115" height="23" viewBox="0 0 115 23" fill="none" xmlns="http://www.w3.org/2000/svg">
<g clip-path="url(#clip0_2_6)">
<path d="M7.04078 8.53042V6.07514H4.44562V20.6832H7.04078V12.9415C7.04078 11.3368 7.50276 10.1846 8.41157 9.45764C9.34009 8.73639 10.5115 8.38337 11.6934 8.46861V5.81305C9.44661 5.81305 7.8991 6.71554 7.04078 8.53042Z" fill="#232326"/>
<path d="M27.8248 13.4039C27.8645 11.3986 27.1234 9.45376 25.7522 7.9642C24.3713 6.45098 22.5815 5.68695 20.3953 5.68695C18.0929 5.68695 16.2122 6.42873 14.7682 7.88014C13.3242 9.33154 12.5921 11.1736 12.5921 13.3792C12.5921 15.5847 13.3217 17.4243 14.8061 18.8782C16.2905 20.3321 18.2091 21.059 20.5745 21.059C23.5029 21.059 25.6908 19.9562 27.1381 17.7507L24.9368 16.5144C24.0398 17.9403 22.6092 18.654 20.6452 18.6557C19.3653 18.6944 18.1092 18.3113 17.0781 17.5677C16.0979 16.8198 15.4438 15.7356 15.2479 14.5339H27.744C27.8008 14.1598 27.8278 13.782 27.8248 13.4039ZM15.2403 12.3258C15.4047 11.13 16.0098 10.0342 16.9418 9.245C17.8506 8.46861 19.0144 8.09278 20.3953 8.09278C21.5382 8.06957 22.6511 8.45253 23.5281 9.17083C24.4243 9.89035 24.9923 10.9363 25.2044 12.3258H15.2403Z" fill="#232326"/>
<path d="M43.1231 0.225006V8.58235C41.8339 6.65208 39.954 5.68695 37.4834 5.68695C36.4836 5.67478 35.4924 5.86808 34.5736 6.25436C33.6548 6.64065 32.8289 7.21133 32.1492 7.92959C31.4309 8.647 30.8661 9.49775 30.4881 10.4319C30.1101 11.366 29.9264 12.3647 29.9479 13.3693C29.923 14.3743 30.1051 15.374 30.4833 16.3086C30.8615 17.2432 31.4281 18.0935 32.1492 18.809C32.8285 19.5279 33.6542 20.0992 34.5731 20.486C35.4919 20.8727 36.4834 21.0662 37.4834 21.0541C39.9524 21.0541 41.8323 20.0898 43.1231 18.1611V20.6832H45.7183V0.225006H43.1231ZM41.6084 17.1004C40.5991 18.0642 39.2452 18.6035 37.8356 18.6035C36.426 18.6035 35.0721 18.0642 34.0628 17.1004C33.5681 16.6141 33.179 16.0348 32.9187 15.3975C32.6584 14.7601 32.5324 14.0778 32.5481 13.3915C32.5297 12.7012 32.6544 12.0144 32.9147 11.3727C33.1751 10.7309 33.5656 10.1476 34.0628 9.65792C34.807 8.92176 35.759 8.42046 36.7965 8.21851C37.8339 8.01655 38.9093 8.12317 39.8844 8.52464C40.8594 8.92612 41.6896 9.6041 42.2681 10.4714C42.8466 11.3387 43.147 12.3557 43.1307 13.3915C43.1472 14.0792 43.02 14.763 42.757 15.4008C42.4939 16.0386 42.1005 16.617 41.6008 17.1004H41.6084Z" fill="#232326"/>
<path d="M52.2567 6.07513H49.659V20.6832H52.2567V6.07513Z" fill="#232326"/>
<path d="M50.9641 -5.8416e-06C50.7302 -0.00773278 50.4973 0.032236 50.28 0.117365C50.0627 0.202494 49.8658 0.330925 49.7019 0.494511C49.3776 0.818701 49.1963 1.25469 49.197 1.70855C49.1942 1.9322 49.2375 2.15409 49.3242 2.36099C49.411 2.56788 49.5394 2.75552 49.7019 2.9127C49.8679 3.07357 50.0651 3.20022 50.2819 3.28515C50.4987 3.37009 50.7307 3.4116 50.9641 3.40722C51.1921 3.41032 51.4184 3.3681 51.6293 3.2831C51.8402 3.1981 52.0313 3.07209 52.191 2.9127C52.3534 2.75544 52.4817 2.56778 52.5685 2.36091C52.6552 2.15403 52.6986 1.93218 52.6959 1.70855C52.6967 1.25469 52.5153 0.818701 52.191 0.494511C52.0333 0.332478 51.8426 0.204722 51.6312 0.11953C51.4199 0.0343379 51.1926 -0.00638785 50.9641 -5.8416e-06Z" fill="#149AD2"/>
<path d="M65.904 17.8644C65.0907 18.3206 64.1677 18.5554 63.2306 18.5444C62.5347 18.5659 61.842 18.445 61.1965 18.1896C60.551 17.9342 59.967 17.5497 59.4817 17.0608C58.9892 16.5812 58.6011 16.0088 58.3408 15.3781C58.0804 14.7474 57.9533 14.0716 57.967 13.3915C57.9528 12.7054 58.0795 12.0235 58.3397 11.3864C58.5999 10.7492 58.9883 10.1698 59.4817 9.68264C59.9685 9.19571 60.5528 8.81257 61.1979 8.55727C61.843 8.30197 62.5351 8.18003 63.2306 8.19909C64.1647 8.1759 65.0864 8.41252 65.8888 8.88153C66.6559 9.31592 67.2716 9.96641 67.656 10.7483L69.8296 9.51204C69.2558 8.34764 68.3432 7.3755 67.2066 6.71801C66.0038 6.02166 64.6277 5.66481 63.2306 5.68694C60.9787 5.68694 59.1064 6.42213 57.6136 7.89249C56.8826 8.61225 56.3076 9.46929 55.9233 10.4121C55.5389 11.355 55.3531 12.3642 55.3769 13.3792C55.353 14.3923 55.5389 15.3996 55.9233 16.3405C56.3077 17.2813 56.8827 18.1362 57.6136 18.8535C59.1115 20.3205 60.9838 21.0557 63.2306 21.059C64.6226 21.0729 65.9925 20.7166 67.194 20.0279C68.3463 19.3687 69.2919 18.4126 69.928 17.2636L67.7317 15.9976C67.3176 16.7785 66.6832 17.4264 65.904 17.8644Z" fill="#232326"/>
<path d="M73.8081 -2.07835e-05C73.5744 -0.00655349 73.3417 0.0339638 73.1246 0.119024C72.9075 0.204084 72.7105 0.331877 72.5459 0.494497C72.2216 0.818686 72.0403 1.25467 72.041 1.70854C72.0376 1.93226 72.0806 2.15433 72.1674 2.3613C72.2542 2.56827 72.3829 2.75585 72.5459 2.91269C72.7125 3.07265 72.9099 3.19871 73.1265 3.28359C73.3431 3.36846 73.5748 3.41048 73.8081 3.4072C74.0361 3.41031 74.2624 3.36808 74.4733 3.28309C74.6842 3.19809 74.8753 3.07208 75.035 2.91269C75.1973 2.75542 75.3257 2.56777 75.4124 2.36089C75.4992 2.15402 75.5425 1.93216 75.5399 1.70854C75.5406 1.25467 75.3593 0.818686 75.035 0.494497C74.8773 0.332463 74.6866 0.204707 74.4752 0.119515C74.2639 0.034323 74.0366 -0.00640279 73.8081 -2.07835e-05Z" fill="#149AD2"/>
<path d="M75.1006 6.07513H72.503V20.6832H75.1006V6.07513Z" fill="#232326"/>
<path d="M86.481 5.68695C84.32 5.68695 82.7128 6.51774 81.6592 8.17932V6.07515H79.0641V20.6832H81.6592V12.9415C81.6592 11.2931 82.0564 10.0774 82.8508 9.29445C83.6435 8.5057 84.6911 8.1175 85.9837 8.1175C87.1348 8.1175 88.0436 8.44389 88.695 9.10654C89.3463 9.76919 89.6795 10.6865 89.6795 11.8635V20.6832H92.2772V11.7126C92.2772 9.8582 91.7395 8.39443 90.6893 7.31639C89.6391 6.23834 88.2355 5.68695 86.481 5.68695Z" fill="#232326"/>
<path d="M108.214 7.95431C106.833 6.45098 105.041 5.68695 102.855 5.68695C100.55 5.68695 98.6717 6.42873 97.2252 7.88014C95.7786 9.33154 95.039 11.1736 95.039 13.3792C95.0356 13.7692 95.066 14.1588 95.1299 14.5438H110.196C110.256 14.1666 110.285 13.7855 110.284 13.4039C110.325 11.3959 109.585 9.44767 108.214 7.95431ZM97.6972 12.3258C97.8623 11.1296 98.4684 10.0338 99.4013 9.245C100.308 8.46861 101.474 8.09278 102.855 8.09278C103.998 8.06957 105.111 8.45253 105.988 9.17083C106.881 9.8854 107.447 10.9363 107.661 12.3258H97.6972Z" fill="#232326"/>
<path d="M107.124 16.277C106.859 16.8305 106.469 17.3182 105.985 17.7037C105.11 18.4266 103.997 18.8132 102.852 18.7917C101.471 18.7917 100.305 18.4183 99.3987 17.6394C98.9265 17.2571 98.539 16.7842 98.2602 16.2498C97.3514 16.8012 96.5335 17.2908 96.0992 17.5529C96.4048 18.0851 96.7827 18.5742 97.2226 19.0068C98.6692 20.4582 100.547 21.1975 102.852 21.1975C105.038 21.1975 106.828 20.4335 108.212 18.9301C108.601 18.5103 108.94 18.0482 109.221 17.5529C108.805 17.2933 108.005 16.8136 107.124 16.277Z" fill="#149AD2"/>
<path d="M112.844 5.91937C112.419 5.91937 112.004 5.79596 111.651 5.56475C111.297 5.33355 111.022 5.00492 110.859 4.62043C110.697 4.23594 110.654 3.81287 110.737 3.4047C110.82 2.99653 111.025 2.6216 111.325 2.32733C111.625 2.03305 112.008 1.83265 112.425 1.75146C112.842 1.67027 113.274 1.71194 113.666 1.8712C114.059 2.03046 114.394 2.30016 114.63 2.64619C114.866 2.99222 114.992 3.39904 114.992 3.8152C114.992 4.37306 114.765 4.90788 114.362 5.30235C113.96 5.69682 113.414 5.91872 112.844 5.91937ZM112.844 2.21049C112.518 2.21 112.2 2.30414 111.929 2.48098C111.658 2.65783 111.447 2.90944 111.322 3.20397C111.197 3.4985 111.164 3.82273 111.227 4.13561C111.29 4.44849 111.447 4.73598 111.677 4.96169C111.907 5.18739 112.2 5.34118 112.52 5.40358C112.839 5.46599 113.17 5.43421 113.471 5.31226C113.772 5.19032 114.029 4.98369 114.21 4.71852C114.391 4.45336 114.488 4.14157 114.488 3.82262C114.488 3.61059 114.446 3.4005 114.364 3.20436C114.282 3.00822 114.161 2.82986 114.008 2.67947C113.856 2.52909 113.674 2.40961 113.475 2.32787C113.275 2.24613 113.061 2.20372 112.844 2.20307V2.21049Z" fill="#232326"/>
<path d="M113.278 4.93032L112.816 4.15145H112.476V4.93032H112.026V2.69016H112.94C113.141 2.69016 113.334 2.76831 113.476 2.90742C113.618 3.04653 113.697 3.2352 113.697 3.43193C113.697 3.56912 113.656 3.70325 113.579 3.81765C113.5 3.93455 113.389 4.02714 113.258 4.08469L113.763 4.93032H113.278ZM112.476 3.10308V3.76573H112.94C112.982 3.766 113.023 3.75728 113.061 3.74019C113.099 3.7231 113.133 3.69806 113.16 3.66683C113.22 3.60297 113.252 3.51879 113.251 3.43193C113.253 3.34579 113.22 3.26233 113.16 3.19951C113.132 3.16911 113.098 3.1448 113.06 3.12817C113.023 3.11155 112.982 3.10299 112.94 3.10308H112.476Z" fill="#232326"/>
</g>
<defs>
<clipPath id="clip0_2_6">
<rect width="115" height="23" fill="white"/>
</clipPath>
</defs>
</svg>
