<svg width="115" height="23" viewBox="0 0 115 23" fill="none" xmlns="http://www.w3.org/2000/svg">
<g clip-path="url(#clip0_224_3)">
<path d="M7.04078 8.53042V6.07514H4.44562V20.6832H7.04078V12.9415C7.04078 11.3368 7.50276 10.1846 8.41157 9.45764C9.34009 8.73639 10.5115 8.38337 11.6934 8.46861V5.81305C9.44661 5.81305 7.8991 6.71554 7.04078 8.53042Z" fill="white"/>
<path d="M27.8248 13.4039C27.8645 11.3986 27.1234 9.45376 25.7522 7.9642C24.3713 6.45098 22.5815 5.68695 20.3953 5.68695C18.0929 5.68695 16.2122 6.42873 14.7682 7.88014C13.3242 9.33154 12.5921 11.1736 12.5921 13.3792C12.5921 15.5847 13.3217 17.4243 14.8061 18.8782C16.2905 20.3321 18.2091 21.059 20.5745 21.059C23.5029 21.059 25.6908 19.9562 27.1381 17.7507L24.9368 16.5144C24.0398 17.9403 22.6092 18.654 20.6452 18.6557C19.3653 18.6944 18.1092 18.3113 17.0781 17.5677C16.0979 16.8198 15.4438 15.7356 15.2479 14.5339H27.744C27.8008 14.1598 27.8278 13.782 27.8248 13.4039V13.4039ZM15.2403 12.3258C15.4047 11.13 16.0098 10.0342 16.9418 9.245C17.8506 8.46861 19.0144 8.09278 20.3953 8.09278C21.5382 8.06957 22.6511 8.45253 23.5281 9.17083C24.4243 9.89035 24.9923 10.9363 25.2044 12.3258H15.2403Z" fill="white"/>
<path d="M43.1231 0.225037V8.58238C41.8339 6.65211 39.954 5.68698 37.4834 5.68698C36.4836 5.67481 35.4924 5.86811 34.5736 6.25439C33.6548 6.64068 32.8289 7.21136 32.1492 7.92962C31.4309 8.64703 30.8661 9.49778 30.4881 10.4319C30.1101 11.366 29.9264 12.3647 29.9479 13.3693C29.923 14.3743 30.1051 15.374 30.4833 16.3086C30.8615 17.2432 31.4281 18.0936 32.1492 18.809C32.8285 19.5279 33.6542 20.0993 34.5731 20.486C35.4919 20.8727 36.4834 21.0663 37.4834 21.0541C39.9524 21.0541 41.8323 20.0898 43.1231 18.1612V20.6832H45.7183V0.225037H43.1231ZM41.6084 17.1004C40.5991 18.0642 39.2452 18.6036 37.8356 18.6036C36.426 18.6036 35.0721 18.0642 34.0628 17.1004C33.5681 16.6141 33.179 16.0349 32.9187 15.3975C32.6584 14.7601 32.5324 14.0778 32.5481 13.3916C32.5297 12.7012 32.6544 12.0145 32.9147 11.3727C33.1751 10.731 33.5656 10.1476 34.0628 9.65795C34.807 8.92179 35.759 8.4205 36.7964 8.21854C37.8339 8.01658 38.9093 8.1232 39.8844 8.52467C40.8594 8.92615 41.6896 9.60413 42.2681 10.4714C42.8466 11.3387 43.147 12.3557 43.1307 13.3916C43.1472 14.0793 43.02 14.763 42.757 15.4008C42.4939 16.0386 42.1005 16.617 41.6008 17.1004H41.6084Z" fill="white"/>
<path d="M52.2567 6.0752H49.659V20.6832H52.2567V6.0752Z" fill="white"/>
<path d="M50.9641 2.4676e-05C50.7302 -0.00770226 50.4973 0.0322665 50.28 0.117396C50.0627 0.202525 49.8658 0.330956 49.7019 0.494542C49.3776 0.818731 49.1963 1.25472 49.197 1.70858C49.1942 1.93223 49.2375 2.15412 49.3242 2.36102C49.411 2.56791 49.5394 2.75555 49.7019 2.91273C49.8679 3.0736 50.0651 3.20025 50.2819 3.28518C50.4987 3.37012 50.7307 3.41163 50.9641 3.40725C51.1921 3.41035 51.4184 3.36813 51.6293 3.28313C51.8402 3.19813 52.0313 3.07213 52.191 2.91273C52.3534 2.75547 52.4817 2.56781 52.5685 2.36094C52.6552 2.15406 52.6986 1.93221 52.6959 1.70858C52.6967 1.25472 52.5153 0.818731 52.191 0.494542C52.0333 0.332509 51.8426 0.204753 51.6312 0.119561C51.4199 0.0343684 51.1926 -0.00635733 50.9641 2.4676e-05V2.4676e-05Z" fill="white"/>
<path d="M65.904 17.8644C65.0907 18.3206 64.1677 18.5554 63.2306 18.5444C62.5347 18.5659 61.842 18.445 61.1965 18.1896C60.551 17.9342 59.967 17.5497 59.4817 17.0608C58.9892 16.5812 58.6011 16.0088 58.3408 15.3781C58.0804 14.7474 57.9533 14.0716 57.967 13.3915C57.9528 12.7054 58.0795 12.0235 58.3397 11.3864C58.5999 10.7492 58.9883 10.1698 59.4817 9.68264C59.9685 9.19571 60.5528 8.81257 61.1979 8.55727C61.843 8.30197 62.5351 8.18003 63.2306 8.19909C64.1647 8.1759 65.0864 8.41252 65.8888 8.88153C66.6559 9.31592 67.2716 9.96641 67.656 10.7483L69.8296 9.51204C69.2558 8.34764 68.3432 7.3755 67.2066 6.71801C66.0038 6.02166 64.6277 5.66481 63.2306 5.68694C60.9787 5.68694 59.1064 6.42213 57.6136 7.89249C56.8826 8.61225 56.3076 9.46929 55.9233 10.4121C55.5389 11.355 55.3531 12.3642 55.3769 13.3792C55.353 14.3923 55.5389 15.3996 55.9233 16.3405C56.3077 17.2813 56.8827 18.1362 57.6136 18.8535C59.1115 20.3205 60.9838 21.0557 63.2306 21.059C64.6226 21.0729 65.9925 20.7166 67.194 20.0279C68.3463 19.3687 69.2919 18.4126 69.928 17.2636L67.7317 15.9976C67.3176 16.7785 66.6832 17.4264 65.904 17.8644V17.8644Z" fill="white"/>
<path d="M73.8081 9.73411e-06C73.5744 -0.00652297 73.3417 0.0339943 73.1246 0.119054C72.9075 0.204115 72.7105 0.331908 72.5459 0.494527C72.2216 0.818716 72.0403 1.2547 72.041 1.70857C72.0376 1.93229 72.0806 2.15436 72.1674 2.36133C72.2542 2.56831 72.3829 2.75588 72.5459 2.91272C72.7125 3.07268 72.9099 3.19874 73.1265 3.28362C73.3431 3.36849 73.5748 3.41051 73.8081 3.40723C74.0361 3.41034 74.2624 3.36811 74.4733 3.28312C74.6842 3.19812 74.8753 3.07211 75.035 2.91272C75.1973 2.75545 75.3257 2.5678 75.4124 2.36092C75.4992 2.15405 75.5425 1.93219 75.5399 1.70857C75.5406 1.2547 75.3593 0.818716 75.035 0.494527C74.8773 0.332494 74.6866 0.204738 74.4752 0.119546C74.2639 0.0343535 74.0366 -0.00637227 73.8081 9.73411e-06V9.73411e-06Z" fill="white"/>
<path d="M75.1006 6.0752H72.503V20.6832H75.1006V6.0752Z" fill="white"/>
<path d="M86.481 5.68695C84.32 5.68695 82.7128 6.51774 81.6592 8.17932V6.07515H79.0641V20.6832H81.6592V12.9415C81.6592 11.2931 82.0564 10.0774 82.8508 9.29445C83.6435 8.5057 84.6911 8.1175 85.9837 8.1175C87.1348 8.1175 88.0436 8.44389 88.695 9.10654C89.3463 9.76919 89.6795 10.6865 89.6795 11.8635V20.6832H92.2772V11.7126C92.2772 9.8582 91.7395 8.39443 90.6893 7.31639C89.6391 6.23834 88.2355 5.68695 86.481 5.68695Z" fill="white"/>
<path d="M108.214 7.95431C106.833 6.45098 105.041 5.68695 102.855 5.68695C100.55 5.68695 98.6717 6.42873 97.2252 7.88014C95.7786 9.33154 95.039 11.1736 95.039 13.3792C95.0356 13.7692 95.066 14.1588 95.1299 14.5438H110.196C110.256 14.1666 110.285 13.7855 110.284 13.4039C110.325 11.3959 109.585 9.44767 108.214 7.95431V7.95431ZM97.6972 12.3258C97.8623 11.1296 98.4684 10.0338 99.4013 9.245C100.308 8.46861 101.474 8.09278 102.855 8.09278C103.998 8.06957 105.111 8.45253 105.988 9.17083C106.881 9.8854 107.447 10.9363 107.661 12.3258H97.6972Z" fill="white"/>
<path d="M107.124 16.2771C106.859 16.8305 106.469 17.3182 105.985 17.7038C105.11 18.4266 103.997 18.8133 102.852 18.7917C101.471 18.7917 100.305 18.4183 99.3987 17.6395C98.9265 17.2571 98.539 16.7843 98.2602 16.2499C97.3514 16.8013 96.5335 17.2908 96.0992 17.5529C96.4048 18.0851 96.7827 18.5742 97.2226 19.0068C98.6692 20.4582 100.547 21.1975 102.852 21.1975C105.038 21.1975 106.828 20.4335 108.212 18.9302C108.601 18.5103 108.94 18.0482 109.221 17.5529C108.805 17.2933 108.005 16.8136 107.124 16.2771Z" fill="white"/>
<path d="M112.844 5.9194C112.419 5.9194 112.004 5.79599 111.651 5.56479C111.297 5.33358 111.022 5.00495 110.859 4.62046C110.697 4.23598 110.654 3.8129 110.737 3.40473C110.82 2.99656 111.025 2.62163 111.325 2.32736C111.625 2.03308 112.008 1.83268 112.425 1.75149C112.842 1.6703 113.274 1.71197 113.666 1.87123C114.059 2.03049 114.394 2.30019 114.63 2.64622C114.866 2.99225 114.992 3.39907 114.992 3.81523C114.992 4.37309 114.765 4.90791 114.362 5.30238C113.96 5.69685 113.414 5.91875 112.844 5.9194V5.9194ZM112.844 2.21052C112.518 2.21003 112.2 2.30417 111.929 2.48101C111.658 2.65786 111.447 2.90947 111.322 3.204C111.197 3.49853 111.164 3.82276 111.227 4.13564C111.29 4.44853 111.447 4.73601 111.677 4.96172C111.907 5.18742 112.2 5.34121 112.52 5.40362C112.839 5.46602 113.17 5.43424 113.471 5.31229C113.772 5.19035 114.029 4.98372 114.21 4.71855C114.391 4.45339 114.488 4.1416 114.488 3.82265C114.488 3.61062 114.446 3.40053 114.364 3.20439C114.282 3.00825 114.161 2.82989 114.008 2.6795C113.856 2.52912 113.674 2.40964 113.475 2.3279C113.275 2.24616 113.061 2.20375 112.844 2.20311V2.21052Z" fill="white"/>
<path d="M113.278 4.93035L112.816 4.15148H112.476V4.93035H112.026V2.69019H112.94C113.141 2.69019 113.334 2.76834 113.476 2.90745C113.618 3.04656 113.697 3.23523 113.697 3.43196C113.697 3.56915 113.656 3.70328 113.579 3.81769C113.5 3.93458 113.389 4.02717 113.258 4.08472L113.763 4.93035H113.278ZM112.476 3.10311V3.76576H112.94C112.982 3.76603 113.023 3.75731 113.061 3.74022C113.099 3.72313 113.133 3.69809 113.16 3.66686C113.22 3.603 113.252 3.51882 113.251 3.43196C113.253 3.34582 113.22 3.26236 113.16 3.19954C113.132 3.16914 113.098 3.14483 113.06 3.1282C113.023 3.11158 112.982 3.10302 112.94 3.10311H112.476Z" fill="white"/>
</g>
<defs>
<clipPath id="clip0_224_3">
<rect width="115" height="23" fill="white"/>
</clipPath>
</defs>
</svg>
