<svg width="164" height="164" viewBox="0 0 164 164" fill="none" xmlns="http://www.w3.org/2000/svg">
<rect width="164" height="164" rx="82" fill="#1AA9E4" fill-opacity="0.7"/>
<path d="M72.3805 52.8955H91.6197V59.3085H96.4294V52.8955C96.4294 50.2501 94.265 48.0857 91.6197 48.0857H72.3805C69.7351 48.0857 67.5707 50.2501 67.5707 52.8955V59.3085H72.3805V52.8955Z" fill="white"/>
<path d="M112.462 60.9121H96.4293H91.6196H72.3804H67.5707H51.538C48.0109 60.9121 45.125 63.798 45.125 67.3252V109.01C45.125 112.537 48.0109 115.423 51.538 115.423H112.462C115.989 115.423 118.875 112.537 118.875 109.01V67.3252C118.875 63.798 115.989 60.9121 112.462 60.9121ZM93.2228 91.3741H85.2065V99.3904H78.7935V91.3741H70.7772V84.961H78.7935V76.9447H85.2065V84.961H93.2228V91.3741Z" fill="white"/>
</svg>
