<svg width="358" height="403" viewBox="0 0 358 403" fill="none" xmlns="http://www.w3.org/2000/svg">
<g clip-path="url(#clip0_244_316)">
<path d="M10.6505 403H358L346.274 388.783H22.3595L10.6505 403Z" fill="#149AD2" fill-opacity="0.2"/>
<path d="M284.505 265.848C241.324 264.775 213.308 297.602 213.308 297.602C217.559 311.059 220.254 321.132 220.254 321.132C243.871 316.673 270.728 314.873 292.856 309.127C312.818 303.959 314.885 277.011 312.702 265.716C310.519 254.422 299.191 251.747 288.044 248.065C275.31 243.854 251.065 243.524 233.683 243.474C215.359 243.474 191.296 245.125 178.826 247.932C178.826 247.932 152.365 246.76 132.702 247.09C121.208 245.142 128.121 263.817 146.362 279.752C155.372 287.681 166.028 293.522 177.564 296.856C189.101 300.191 201.234 300.936 213.093 299.038H213.242" fill="#263238"/>
<path d="M76.8525 265.848C120.017 264.775 158.352 297.602 158.352 297.602C154.102 311.059 151.39 321.132 151.39 321.132C127.773 316.673 90.6122 314.873 68.5007 309.127C48.5393 303.959 46.472 277.011 48.655 265.716C50.8381 254.422 62.1832 251.747 73.3299 248.065C86.0476 243.854 110.309 243.524 127.674 243.474C145.998 243.474 170.078 245.125 182.547 247.932C182.547 247.932 209.008 246.76 228.672 247.09C240.15 245.142 233.253 263.817 215.012 279.752C206.007 287.693 195.355 293.548 183.818 296.897C172.282 300.246 160.146 301.005 148.28 299.121H148.148" fill="#263238"/>
<path d="M213.126 148.743C216.847 161.491 220.8 174.123 224.935 186.721C226.996 193.018 229.113 199.309 231.285 205.595C233.435 211.886 235.668 218.144 238.016 224.485L238.314 225.261L238.694 226.235C238.975 226.863 239.273 227.441 239.571 228.052C240.162 229.161 240.825 230.231 241.555 231.255C242.871 233.094 244.367 234.798 246.021 236.341C248.911 239.041 252.076 241.432 255.464 243.474C261.662 247.141 268.197 250.21 274.979 252.639C287.88 257.266 301.201 260.633 314.753 262.695L317.283 251.978C311.28 249.832 305.078 247.569 299.091 245.093C293.105 242.616 287.2 240.139 281.544 237.249C276.044 234.606 270.773 231.513 265.784 228.002C261.12 224.7 257.399 220.539 257.035 218.095L245.954 180.117C242.228 167.435 238.369 154.776 234.378 142.138L213.126 148.743Z" fill="#CE7A63"/>
<path d="M312.983 252.457L333.193 247.338L323.551 266.74C323.551 266.74 309.874 267.318 305.359 259.706L312.983 252.457Z" fill="#CE7A63"/>
<path d="M170.028 11.1293C177.255 5.91138 189.163 1.5191 193.959 9.47805C198.755 17.437 202.889 34.2466 210.877 38.3086C218.865 42.3706 228.391 58.6683 223.148 72.9845C217.906 87.3007 238.579 83.4368 239.687 105.184C240.795 126.93 209.786 137.861 190.221 127.145C170.657 116.428 156.864 60.4186 158.104 38.259C159.345 16.0995 170.028 11.1293 170.028 11.1293Z" fill="#263238"/>
<path d="M179.124 10.1715C179.124 10.1715 168.507 -5.92807 148.959 2.37763C126.119 12.0869 133.297 22.5392 129.113 44.6327C124.929 66.7262 99.427 70.6726 100.585 101.402C102.553 153.763 148.959 144.053 161.776 130.167C174.593 116.28 160.386 65.2071 160.386 65.2071L179.124 10.1715Z" fill="#263238"/>
<path d="M349.532 254.95L340.585 270.753L323.568 266.988L333.209 247.586L349.532 254.95Z" fill="#CE7A63"/>
<path d="M227.151 118.889C235.949 121.118 242.035 157.23 242.035 157.23L217.823 173.743C217.823 173.743 194.67 137.316 201.285 127.657C208.446 117.518 214.334 115.586 227.151 118.889Z" fill="#149AD2"/>
<path opacity="0.2" d="M227.944 131.983L209.157 136.326L207.338 154.687C210.524 161.176 214.04 167.497 217.873 173.627L232.559 163.72C231.93 155.216 230.342 137.68 227.944 131.983Z" fill="black"/>
<path d="M227.151 118.889C227.151 118.889 237.272 122.422 216.963 247.338H130.37C131.809 212.15 131.858 190.453 115.006 118.228C127.134 115.736 139.426 114.119 151.787 113.39C166.357 112.697 178.248 112.234 191.114 113.39C208 114.942 227.151 118.889 227.151 118.889Z" fill="#149AD2"/>
<path opacity="0.2" d="M135.381 151.765L124.218 161.259C126.599 173.891 128.203 184.376 129.179 193.772C131.312 184.393 136.621 158.948 135.381 151.765Z" fill="black"/>
<path d="M155.69 69.1865C158.17 81.8185 160.651 104.969 151.787 113.39C151.787 113.39 160.056 132.33 181.969 132.33C203.882 132.33 191.114 113.39 191.114 113.39C177.007 110.088 177.371 99.5857 179.819 89.7609L155.69 69.1865Z" fill="#CE7A63"/>
<path d="M151.787 113.407C166.357 112.697 178.248 112.234 191.114 113.407C197.2 113.952 203.567 114.81 209.306 115.685C213.044 122.439 227.878 152.805 191.478 152.805C153.308 152.805 137.398 119.417 135.414 114.827C140.441 114.232 146.097 113.687 151.787 113.407Z" fill="#CE7A63"/>
<path opacity="0.2" d="M165.53 77.6079L179.819 89.794C179.204 92.0759 178.795 94.4078 178.595 96.7622C173.203 95.9861 165.811 90.1573 165.232 84.444C164.916 82.1661 165.017 79.8498 165.53 77.6079Z" fill="black"/>
<path d="M139.003 45.3264C143.005 66.0494 144.245 74.9331 156.235 84.3121C174.245 98.3971 198.887 88.9685 201.186 67.453C203.253 48.0675 196.373 17.3876 174.725 11.7238C169.975 10.4573 164.98 10.4231 160.214 11.6247C155.447 12.8263 151.067 15.2238 147.489 18.5897C143.911 21.9556 141.253 26.1784 139.768 30.8576C138.283 35.5367 138.019 40.5172 139.003 45.3264Z" fill="#CE7A63"/>
<path d="M176.081 9.47816C183.556 13.6723 178.611 21.0368 165.149 26.2712C151.687 31.5056 150.86 32.4633 153.06 43.3284C155.26 54.1936 135.662 64.2496 135.397 53.0377C135.133 41.8258 131.147 20.4919 141.632 14.5805C152.117 8.66905 168.159 5.08588 176.081 9.47816Z" fill="#263238"/>
<path d="M177.189 14.7126C183.804 16.8427 198.821 33.1568 197.713 27.7903C196.605 22.4238 193.793 14.9933 185.872 12.2357C182.115 10.7491 178.168 9.79858 174.146 9.41211L177.189 14.7126Z" fill="#263238"/>
<path d="M135.067 62.7469C137.023 66.3194 140.261 69.0209 144.129 70.3095C149.273 71.9607 151.869 67.5189 150.464 62.6478C149.207 58.2885 145.006 52.1625 139.83 52.6248C134.653 53.0872 132.735 58.3711 135.067 62.7469Z" fill="#CE7A63"/>
<path d="M217.922 318.589L209.984 296.017C209.703 295.207 206.263 297.354 205.42 297.519C205.42 297.519 192.999 295.868 188.055 297.272C183.11 298.675 183.341 301.829 184.234 305.181C186.335 313.008 189.725 314.494 191.908 324.864C193.248 331.204 194.339 337.033 201.268 343.027C207.884 348.74 214.234 348.394 211.621 341.376C205.337 324.599 208.314 327.093 212.299 320.851C213.011 319.811 218.336 319.794 217.922 318.589Z" fill="#CE7A63"/>
<path d="M155.673 318.589L163.595 296.017C163.892 295.207 167.332 297.354 168.176 297.519C168.176 297.519 180.579 295.868 185.524 297.272C190.469 298.675 190.254 301.829 189.361 305.181C187.261 313.008 183.87 314.494 181.671 324.864C180.348 331.204 179.256 337.033 172.327 343.027C165.712 348.74 159.344 348.394 161.957 341.376C168.258 324.599 165.265 327.093 161.296 320.851C160.585 319.811 155.243 319.794 155.673 318.589Z" fill="#CE7A63"/>
<path d="M215.194 323.989L207.206 294.052L217.724 289.709L232.559 321.842L215.194 323.989Z" fill="#149AD2"/>
<path d="M157.773 324.616L170.342 294.332L160.618 290.353L140.954 319.811L157.773 324.616Z" fill="#149AD2"/>
<path d="M186.467 47.0103C186.467 47.0103 190.32 53.9785 193.959 57.0993C191.974 59.4936 188.022 59.0147 188.022 59.0147L186.467 47.0103Z" fill="#BA4D3C"/>
<path d="M182.812 67.8985C182.77 67.915 182.722 67.915 182.68 67.8985C178.927 68.2228 175.194 67.0869 172.261 64.7281C172.231 64.6989 172.208 64.6642 172.192 64.6259C172.176 64.5877 172.168 64.5466 172.168 64.5052C172.168 64.4637 172.176 64.4227 172.192 64.3844C172.208 64.3462 172.231 64.3114 172.261 64.2823C172.289 64.2506 172.323 64.2253 172.362 64.208C172.4 64.1906 172.442 64.1816 172.484 64.1816C172.526 64.1816 172.568 64.1906 172.607 64.208C172.645 64.2253 172.679 64.2506 172.707 64.2823C175.514 66.5069 179.057 67.5919 182.63 67.3205C182.671 67.3135 182.714 67.3148 182.755 67.3243C182.795 67.3339 182.834 67.3514 182.868 67.3761C182.902 67.4007 182.93 67.4318 182.952 67.4677C182.974 67.5035 182.988 67.5433 182.994 67.5847C182.998 67.649 182.982 67.713 182.95 67.7688C182.918 67.8245 182.87 67.8696 182.812 67.8985V67.8985Z" fill="#263238"/>
<path d="M163.909 38.8532C163.815 38.9053 163.71 38.9326 163.603 38.9326C163.496 38.9326 163.391 38.9053 163.297 38.8532C163.156 38.7618 163.057 38.6192 163.02 38.4558C162.983 38.2925 163.011 38.1211 163.099 37.9781C163.886 36.653 164.981 35.5357 166.29 34.7198C167.599 33.9039 169.085 33.4131 170.623 33.2886C170.795 33.2886 170.959 33.3564 171.08 33.4772C171.2 33.598 171.268 33.7618 171.268 33.9326C171.268 34.1033 171.2 34.2671 171.08 34.3879C170.959 34.5087 170.795 34.5765 170.623 34.5765C169.296 34.6863 168.015 35.1144 166.89 35.8245C165.764 36.5346 164.826 37.5056 164.157 38.6551C164.095 38.7429 164.009 38.8116 163.909 38.8532V38.8532Z" fill="#263238"/>
<path d="M178.347 44.5833C178.449 44.5587 178.557 44.561 178.658 44.5899C178.759 44.6188 178.852 44.6735 178.926 44.7485C178.987 44.8071 179.036 44.8775 179.07 44.9556C179.103 45.0336 179.12 45.1176 179.12 45.2025C179.12 45.2875 179.103 45.3715 179.07 45.4495C179.036 45.5276 178.987 45.598 178.926 45.6566C177.857 46.7698 176.536 47.6104 175.074 48.1075C173.612 48.6046 172.051 48.7438 170.524 48.5133C170.438 48.499 170.355 48.4672 170.281 48.4198C170.207 48.3725 170.144 48.3106 170.095 48.238C170.046 48.1654 170.012 48.0835 169.996 47.9974C169.98 47.9113 169.981 47.8229 170 47.7374C170.019 47.6519 170.056 47.5712 170.107 47.5002C170.159 47.4293 170.224 47.3696 170.3 47.3247C170.375 47.2799 170.459 47.2509 170.546 47.2395C170.633 47.228 170.721 47.2345 170.805 47.2583C172.121 47.4495 173.463 47.3211 174.718 46.8842C175.973 46.4473 177.105 45.7147 178.016 44.7485C178.109 44.6646 178.224 44.6075 178.347 44.5833V44.5833Z" fill="#263238"/>
<path d="M201.087 42.2878C201.193 42.2684 201.303 42.2748 201.406 42.3064C201.51 42.338 201.604 42.3939 201.682 42.4695C201.744 42.5281 201.793 42.5985 201.826 42.6766C201.859 42.7546 201.877 42.8387 201.877 42.9236C201.877 43.0085 201.859 43.0925 201.826 43.1705C201.793 43.2486 201.744 43.3191 201.682 43.3777C200.612 44.4897 199.291 45.3295 197.829 45.8265C196.368 46.3236 194.808 46.4634 193.281 46.2343C193.113 46.1948 192.967 46.0917 192.875 45.9468C192.782 45.8019 192.75 45.6266 192.784 45.4582C192.82 45.2922 192.92 45.1469 193.063 45.0542C193.205 44.9614 193.379 44.9286 193.545 44.9628C194.862 45.1504 196.204 45.0221 197.461 44.5885C198.718 44.1549 199.853 43.4285 200.772 42.4695C200.856 42.3786 200.966 42.3153 201.087 42.2878Z" fill="#263238"/>
<path d="M199.234 32.5292C199.126 32.5735 199.009 32.5892 198.893 32.5747C198.777 32.5603 198.667 32.5162 198.573 32.4467C197.546 31.5961 196.33 31.0025 195.027 30.7153C193.724 30.4282 192.371 30.4556 191.081 30.7954C190.921 30.8483 190.746 30.8364 190.595 30.7623C190.443 30.6883 190.327 30.5579 190.271 30.3991C190.242 30.3201 190.23 30.2361 190.235 30.1522C190.239 30.0683 190.261 29.9862 190.298 29.9107C190.335 29.8353 190.387 29.768 190.45 29.7129C190.514 29.6578 190.588 29.616 190.668 29.59C192.15 29.1722 193.71 29.1161 195.218 29.4265C196.727 29.7369 198.138 30.4046 199.334 31.3734C199.467 31.4805 199.553 31.6349 199.575 31.8042C199.596 31.9735 199.551 32.1446 199.449 32.2816C199.394 32.3769 199.321 32.4609 199.234 32.5292V32.5292Z" fill="#263238"/>
<path d="M129.063 242.269L128.369 250.013C128.071 250.608 128.782 251.219 129.791 251.219H217.426C218.204 251.219 218.849 250.839 218.898 250.344L219.675 242.616C219.675 242.071 219.064 241.625 218.204 241.625H130.552C130.269 241.596 129.984 241.64 129.723 241.752C129.462 241.865 129.235 242.043 129.063 242.269V242.269Z" fill="#157EAA"/>
<path d="M140.838 252.06H138.49C138.027 252.06 137.68 251.813 137.696 251.532L138.804 241.476C138.804 241.179 139.251 240.931 139.714 240.931H142.062C142.525 240.931 142.889 241.179 142.856 241.476L141.748 251.532C141.715 251.813 141.351 252.06 140.838 252.06Z" fill="#263238"/>
<path d="M210.811 252.06H208.463C207.983 252.06 207.636 251.813 207.669 251.532L208.777 241.476C208.777 241.179 209.207 240.931 209.67 240.931H212.002C212.481 240.931 212.829 241.179 212.796 241.476L211.704 251.532C211.671 251.813 211.258 252.06 210.811 252.06Z" fill="#263238"/>
<path d="M175.816 252.06H173.468C173.005 252.06 172.641 251.813 172.674 251.532L173.782 241.476C173.782 241.179 174.212 240.931 174.692 240.931H177.04C177.503 240.931 177.867 241.179 177.834 241.476L176.726 251.532C176.693 251.813 176.28 252.06 175.816 252.06Z" fill="#263238"/>
<path d="M107.316 143.888L100.221 182.048C99.0301 188.4 97.7953 194.708 96.5163 200.971C95.8714 204.109 95.1602 207.18 94.4822 210.251L93.3906 214.743L92.3157 218.623C91.6427 220.344 90.6045 221.898 89.2726 223.18C87.4045 225.096 85.3553 226.827 83.1536 228.349C78.1876 231.785 72.9561 234.822 67.5085 237.431C61.9187 240.205 56.0972 242.731 50.1766 245.125C44.2559 247.52 38.1865 249.815 32.2493 251.928L34.7796 262.645C48.1534 260.601 61.3005 257.283 74.0411 252.737C80.6947 250.376 87.1211 247.42 93.2418 243.903C96.5831 241.945 99.7336 239.678 102.652 237.133C106.212 234.059 109.038 230.228 110.921 225.921L111.301 224.964L111.566 224.27L111.996 222.999L112.873 220.472L114.411 215.519C115.386 212.216 116.279 208.914 117.106 205.776C118.76 199.304 120.414 192.864 121.77 186.424C124.631 173.511 127.095 160.648 129.212 147.587L107.316 143.888Z" fill="#CE7A63"/>
<path d="M115.006 118.228C106.34 120.87 95.5901 148.743 95.5901 148.743L129.245 172.769C129.245 172.769 141.847 149.833 138.209 138.704C134.405 126.963 124.912 115.223 115.006 118.228Z" fill="#149AD2"/>
<path d="M36.5658 252.457L16.3397 247.338L25.9648 266.74C25.9648 266.74 39.6584 267.318 44.1567 259.706L36.5658 252.457Z" fill="#CE7A63"/>
<path d="M3.14161e-05 254.95L8.94715 270.753L25.9648 266.988L16.3397 247.586L3.14161e-05 254.95Z" fill="#CE7A63"/>
</g>
<defs>
<clipPath id="clip0_244_316">
<rect width="358" height="403" fill="white" transform="matrix(-1 0 0 1 358 0)"/>
</clipPath>
</defs>
</svg>
