<svg width="142" height="144" viewBox="0 0 142 144" fill="none" xmlns="http://www.w3.org/2000/svg">
<path d="M122.323 21.0504C109.502 7.09332 92.8616 0 72.5647 0C51.1663 0 33.7289 6.88672 20.2992 20.3617C6.8695 33.8368 0.00231469 50.9388 0.00231469 71.4153C-0.0287792 75.0362 0.253446 78.6532 0.846029 82.2275H140.721C141.277 78.7264 141.551 75.188 141.541 71.6449C141.923 53.0022 135.053 34.9149 122.323 21.0504V21.0504ZM24.682 61.6362C26.2145 50.5303 31.8414 40.3569 40.5023 33.0333C48.9163 25.8252 59.7444 22.3359 72.5647 22.3359C83.1762 22.1205 93.5085 25.6759 101.651 32.3446C109.948 38.9788 115.198 48.735 117.19 61.6362H24.682Z" fill="#232326"/>
<path d="M112.198 98.3182C109.737 103.456 106.124 107.984 101.627 111.564C93.5039 118.275 83.1667 121.864 72.5415 121.664C59.7212 121.664 48.893 118.198 40.4789 110.967C36.0943 107.417 32.4973 103.027 29.9087 98.0657C21.4712 103.185 13.8774 107.73 9.84619 110.163C12.683 115.104 16.1916 119.645 20.2758 123.661C33.7055 137.136 51.143 144 72.5415 144C92.8383 144 109.455 136.907 122.299 122.95C125.912 119.052 129.057 114.762 131.674 110.163C127.807 107.753 120.377 103.3 112.198 98.3182Z" fill="#149AD2"/>
</svg>
