<svg width="164" height="164" viewBox="0 0 164 164" fill="none" xmlns="http://www.w3.org/2000/svg">
<rect width="164" height="164" rx="82" fill="#1AA9E4" fill-opacity="0.7"/>
<path fill-rule="evenodd" clip-rule="evenodd" d="M84.9534 91.1291H87.7352C89.2504 91.1291 90.4758 92.3491 90.4758 93.8697V96.8707C90.4758 98.3924 89.2504 99.62 87.7352 99.62H84.9534C83.4328 99.62 82.2052 98.3924 82.2052 96.8707V93.8697C82.2052 92.348 83.4328 91.1291 84.9534 91.1291ZM70.6622 91.1291H73.4441C74.9636 91.1291 76.1846 92.3491 76.1846 93.8697V96.8707C76.1846 98.3924 74.9636 99.62 73.4441 99.62H70.6622C69.1416 99.62 67.9141 98.3924 67.9141 96.8707V93.8697C67.9141 92.348 69.1416 91.1291 70.6622 91.1291ZM56.3722 91.1291H59.154C60.6735 91.1291 61.8946 92.3491 61.8946 93.8697V96.8707C61.8946 98.3924 60.6735 99.62 59.154 99.62H56.3722C54.8516 99.62 53.6294 98.3924 53.6294 96.8707V93.8697C53.6294 92.348 54.8516 91.1291 56.3722 91.1291ZM84.9534 76.6958H87.7352C89.2504 76.6958 90.4758 77.9179 90.4758 79.4385V82.4407C90.4758 83.9613 89.2504 85.1877 87.7352 85.1877H84.9534C83.4328 85.1877 82.2052 83.9613 82.2052 82.4407V79.4385C82.2052 77.9179 83.4328 76.6958 84.9534 76.6958ZM70.6622 76.6958H73.4441C74.9636 76.6958 76.1846 77.9179 76.1846 79.4385V82.4407C76.1846 83.9613 74.9636 85.1877 73.4441 85.1877H70.6622C69.1416 85.1877 67.9141 83.9613 67.9141 82.4407V79.4385C67.9141 77.9179 69.1416 76.6958 70.6622 76.6958ZM56.3722 76.6958H59.154C60.6735 76.6958 61.8946 77.9179 61.8946 79.4385V82.4407C61.8946 83.9613 60.6735 85.1877 59.154 85.1877H56.3722C54.8516 85.1877 53.6294 83.9613 53.6294 82.4407V79.4385C53.6294 77.9179 54.8516 76.6958 56.3722 76.6958ZM51.9569 57.4531C48.5086 57.4531 45.7333 60.2284 45.7333 63.6767V103.931C45.7333 107.379 48.5206 109.884 51.9569 110.155H90.4139C90.0926 109.624 89.8593 109.052 89.7692 108.476C89.4403 106.395 90.2826 104.146 92.2004 102.71C93.5789 101.687 94.1671 101.301 94.1671 98.7691V92.7702C94.1671 87.9891 97.5654 84.3813 102.036 82.5003L102.708 80.9504C103.562 78.9892 105.507 78.2272 107.168 78.2272C108.831 78.2272 110.776 78.9957 111.623 80.9504L111.985 81.7775L112.482 81.9533V63.6767C112.482 60.2284 109.705 57.4531 106.263 57.4531H95.0333V61.1054C95.0333 64.4234 92.2634 67.177 88.8206 67.177C85.3778 67.177 82.6133 64.4234 82.6133 61.1054V57.4531H75.0873V61.1054C75.0873 64.4234 72.3174 67.177 68.8746 67.177C65.434 67.177 62.6674 64.4234 62.6674 61.1054V57.4531H51.9569Z" fill="white"/>
<path fill-rule="evenodd" clip-rule="evenodd" d="M68.8759 50.031C70.7937 50.031 72.2286 51.4724 72.2286 53.26V61.1008C72.2286 62.8873 70.7937 64.3222 68.8759 64.3222C66.9602 64.3222 65.5242 62.8862 65.5242 61.1008V53.26C65.5242 51.4735 66.9602 50.031 68.8759 50.031Z" fill="white"/>
<path fill-rule="evenodd" clip-rule="evenodd" d="M88.8207 50.031C90.7364 50.031 92.1723 51.4724 92.1723 53.26V61.1008C92.1723 62.8873 90.7364 64.3222 88.8207 64.3222C86.9028 64.3222 85.4669 62.8862 85.4669 61.1008V53.26C85.4669 51.4735 86.9028 50.031 88.8207 50.031Z" fill="white"/>
<path d="M104.965 81.937L104.049 84.0404C99.5312 85.4091 96.6322 88.6131 96.6322 92.7733V98.7722C96.6322 101.978 95.3265 103.47 93.6756 104.697C91.2965 106.472 91.8392 110.163 94.5743 110.157H119.759C122.495 110.162 123.043 106.471 120.658 104.697C119.013 103.47 117.701 101.978 117.701 98.7722V92.7733C117.701 88.6131 114.801 85.4091 110.285 84.0404L109.368 81.937C108.645 80.2818 105.689 80.2818 104.965 81.937Z" fill="white"/>
<path fill-rule="evenodd" clip-rule="evenodd" d="M113.06 112.543C113.06 114.652 111.94 116.596 110.116 117.653C108.289 118.703 106.044 118.703 104.218 117.653C102.399 116.595 101.273 114.651 101.273 112.543H113.06Z" fill="white"/>
</svg>
