<svg width="164" height="164" viewBox="0 0 164 164" fill="none" xmlns="http://www.w3.org/2000/svg">
<rect width="164" height="164" rx="82" fill="#1AA9E4" fill-opacity="0.7"/>
<mask id="mask0_30_65" style="mask-type:alpha" maskUnits="userSpaceOnUse" x="52" y="45" width="59" height="74">
<path d="M65.0343 45.946L53.3477 57.4756H65.0343V45.946Z" fill="black"/>
<path d="M109.26 45.05H68.1135V59.0151C68.1135 59.8654 67.4241 60.5547 66.5739 60.5547H52.4343V117.411C52.4343 118.257 53.1271 118.95 53.9739 118.95H109.26C110.123 118.95 110.8 118.257 110.8 117.411V46.5896C110.8 45.7428 110.123 45.05 109.26 45.05ZM70.9247 68.7135L78.13 68.0206L72.9108 63.0016C72.6183 62.7091 72.4489 62.3242 72.4489 61.9239C72.4335 61.5082 72.5875 61.1079 72.8646 60.8154C75.1739 58.4444 78.2685 57.1358 81.6094 57.1358C84.7809 57.1358 87.7677 58.3213 90.0156 60.5075C92.3404 62.7399 93.649 65.7574 93.7106 69.006C93.7722 72.2699 92.5713 75.3337 90.3389 77.6431C88.045 80.0294 84.935 81.338 81.6094 81.338C78.4379 81.338 75.4511 80.1372 73.1879 77.9664C71.1095 75.9649 69.8162 73.2706 69.5391 70.3916C69.4467 69.5448 70.0779 68.7904 70.9247 68.7135ZM83.5116 106.951H62.0815C61.2312 106.951 60.5419 106.261 60.5419 105.411C60.5419 104.561 61.2312 103.871 62.0815 103.871H83.5116C84.3618 103.871 85.0512 104.561 85.0512 105.411C85.0512 106.261 84.3618 106.951 83.5116 106.951ZM101.158 98.1272H62.0815C61.2312 98.1272 60.5419 97.4379 60.5419 96.5877C60.5419 95.7374 61.2312 95.0481 62.0815 95.0481H101.158C102.008 95.0481 102.698 95.7374 102.698 96.5877C102.698 97.4379 102.008 98.1272 101.158 98.1272ZM101.158 89.3039H62.0815C61.2312 89.3039 60.5419 88.6146 60.5419 87.7644C60.5419 86.9141 61.2312 86.2248 62.0815 86.2248H101.158C102.008 86.2248 102.698 86.9141 102.698 87.7644C102.698 88.6146 102.008 89.3039 101.158 89.3039Z" fill="black"/>
</mask>
<g mask="url(#mask0_30_65)">
<path d="M52.5293 52.2963C52.5293 48.2149 55.8379 44.9062 59.9193 44.9062H103.315C107.396 44.9062 110.705 48.2149 110.705 52.2963V111.437C110.705 115.518 107.396 118.827 103.315 118.827H59.9193C55.8379 118.827 52.5293 115.518 52.5293 111.437V52.2963Z" fill="white"/>
</g>
</svg>
