<svg width="53" height="53" viewBox="0 0 53 53" fill="none" xmlns="http://www.w3.org/2000/svg">
<path d="M26.5 52.8858C41.1355 52.8858 53 41.0469 53 26.4429C53 11.8389 41.1355 0 26.5 0C11.8645 0 0 11.8389 0 26.4429C0 41.0469 11.8645 52.8858 26.5 52.8858Z" fill="#FFC7C7"/>
<mask id="mask0_259_249" style="mask-type:alpha" maskUnits="userSpaceOnUse" x="0" y="0" width="53" height="53">
<path d="M26.5 52.8858C41.1355 52.8858 53 41.0469 53 26.4429C53 11.8389 41.1355 0 26.5 0C11.8645 0 0 11.8389 0 26.4429C0 41.0469 11.8645 52.8858 26.5 52.8858Z" fill="#FFC7C7"/>
</mask>
<g mask="url(#mask0_259_249)">
<path d="M24.2516 9.50536C24.2516 9.50536 22.3955 7.95284 21.1897 9.83404C19.9839 11.7152 21.001 14.1289 21.3613 15.0872C21.7216 16.0455 22.7856 20.8174 22.7856 20.8174C22.7856 20.8174 22.9983 21.6182 24.5588 22.683C26.1192 23.7478 25.8355 20.7507 25.8355 20.7507L24.2516 9.50536Z" fill="#120283"/>
<path d="M51.4276 73.1662L48.7579 73.1996L44.7476 73.2493L43.9972 73.2585L42.7914 73.2734L42.2893 73.2791L35.2348 73.3664L30.7181 73.4225L22.4373 73.5254L15.0991 73.6163L14.1324 73.6283L12.2883 73.651L11.3442 73.6624L10.2002 73.6766L6.58286 73.7213L0.580962 73.7923H0.578125C0.578125 73.7923 0.578125 73.7433 0.584508 73.6503C0.584508 73.6227 0.584508 73.59 0.588055 73.5538C0.588055 73.5297 0.588055 73.5034 0.588055 73.475C0.588757 73.4729 0.588757 73.4707 0.588055 73.4686C0.595857 73.2869 0.607915 73.0299 0.623519 72.7062V72.6657C0.627774 72.5905 0.631321 72.511 0.635576 72.4286C0.635576 72.3768 0.640541 72.3229 0.643378 72.2675C0.643378 72.2362 0.646925 72.2043 0.648343 72.1716C0.656855 72.0055 0.666312 71.8281 0.676714 71.6392C0.681679 71.5569 0.685935 71.4724 0.6909 71.3858C0.695865 71.2992 0.70083 71.2105 0.705795 71.1196C0.715725 70.9379 0.726837 70.7486 0.739131 70.5517C0.739131 70.5098 0.744096 70.4672 0.746933 70.4239C0.754735 70.2954 0.762537 70.1634 0.771048 70.0278C0.775304 69.9682 0.77885 69.9071 0.782397 69.8461C0.787362 69.7694 0.792327 69.692 0.797292 69.6132C0.807221 69.457 0.817151 69.2959 0.8285 69.1319C0.849778 68.8039 0.873421 68.4623 0.899427 68.1068C0.905811 68.0181 0.912194 67.928 0.918578 67.8378C0.928981 67.693 0.93962 67.5463 0.950495 67.3977C0.961844 67.2486 0.972483 67.0981 0.983831 66.9455C0.983831 66.9135 0.988796 66.8809 0.991633 66.8482C1.00014 66.7275 1.01007 66.6054 1.0193 66.4819C1.02426 66.4159 1.02923 66.3492 1.0349 66.2824C1.04199 66.1916 1.04908 66.1 1.05618 66.0077C1.06894 65.8482 1.08171 65.6866 1.09448 65.5229C1.10725 65.3591 1.12072 65.1935 1.13491 65.0259C1.19378 64.316 1.25761 63.5834 1.32712 62.8253C1.34509 62.636 1.36306 62.4443 1.38103 62.2503C1.39876 62.0579 1.41791 61.8634 1.43635 61.6675C1.45479 61.4715 1.47465 61.2749 1.49451 61.0761C1.51437 60.8774 1.53423 60.6786 1.5548 60.4777C1.57395 60.291 1.5931 60.1029 1.61367 59.9098C1.65008 59.561 1.68767 59.2094 1.72644 58.8549C1.79122 58.2643 1.85955 57.6661 1.93143 57.0603C1.94632 56.9325 1.96192 56.8047 1.97682 56.6769C2.00235 56.4704 2.02718 56.2631 2.05271 56.0551C2.08676 55.7801 2.12151 55.5047 2.15698 55.2288C2.18866 54.9822 2.22081 54.7354 2.25344 54.4884C2.26975 54.3649 2.28606 54.2413 2.30309 54.1171C2.32791 53.9297 2.35415 53.7423 2.3804 53.5542C2.4083 53.3511 2.43667 53.1479 2.46551 52.9444C2.49246 52.7541 2.51942 52.5632 2.54779 52.3722C2.56765 52.2302 2.58822 52.0897 2.60949 51.9505C2.71305 51.2406 2.82228 50.5357 2.9386 49.8301C2.97122 49.6256 3.00456 49.4219 3.03932 49.2175C3.07904 48.9775 3.12017 48.7369 3.16202 48.4976C3.19961 48.2776 3.23862 48.0575 3.27763 47.8389L3.28827 47.7792L3.29891 47.7203C3.3287 47.5528 3.3592 47.3845 3.39041 47.217C3.45566 46.8602 3.52257 46.5052 3.59113 46.1522C3.62518 45.9766 3.65946 45.8017 3.69398 45.6276C3.79328 45.1264 3.90842 44.6439 4.0394 44.1801C4.09141 43.9941 4.14579 43.8114 4.20253 43.6321C4.25927 43.4527 4.31814 43.2757 4.37914 43.1011C4.47064 42.8398 4.56781 42.585 4.66852 42.3358C4.70186 42.2528 4.73945 42.1704 4.77137 42.0895C4.79974 42.0185 4.82882 41.9553 4.85861 41.8886C4.8884 41.8219 4.91322 41.7651 4.9416 41.704C4.96997 41.643 5.00543 41.5663 5.03735 41.4989C5.0565 41.457 5.07707 41.4151 5.09693 41.3732C5.13168 41.3022 5.16785 41.2312 5.20261 41.1602C5.23736 41.0893 5.27354 41.0183 5.31113 40.9473L5.35794 40.8578C5.38773 40.8018 5.41752 40.7464 5.44802 40.691C5.56954 40.47 5.69438 40.2549 5.82252 40.0457C5.86578 39.9747 5.90905 39.9037 5.95232 39.8384C6.03979 39.7012 6.12869 39.5666 6.219 39.4345C6.2644 39.3685 6.30979 39.3032 6.35589 39.2386C6.41335 39.1577 6.47151 39.0774 6.52967 38.9979C6.58783 38.9184 6.64741 38.841 6.70699 38.7637C6.79635 38.6472 6.88691 38.5334 6.97864 38.4222C7.00914 38.3846 7.04035 38.3512 7.07084 38.3108C7.12049 38.2518 7.17014 38.1929 7.21979 38.1354C7.41934 37.904 7.62361 37.6818 7.83261 37.4688L7.99007 37.3105C8.03546 37.2658 8.08085 37.2211 8.12696 37.1771C8.21775 37.0886 8.30995 37.0015 8.40358 36.9158C8.44968 36.8732 8.49649 36.8314 8.54543 36.7895C8.68729 36.6641 8.82914 36.542 8.971 36.4232C9.01497 36.3863 9.05824 36.3522 9.10221 36.3153C9.11782 36.3018 9.13413 36.289 9.15044 36.2762C9.22894 36.2123 9.30838 36.1494 9.38876 36.0874C9.44125 36.0469 9.49444 36.0058 9.54835 35.966C9.64528 35.8931 9.74269 35.8221 9.84057 35.753L9.9881 35.648L10.1144 35.56C10.1711 35.5209 10.2271 35.4826 10.2839 35.4449L10.2895 35.4414L10.4456 35.3378L10.5321 35.2817L10.6882 35.1823L10.9009 35.051L11.0995 34.9324L11.108 34.9274L11.2499 34.8451L11.3343 34.7968L11.3705 34.7762L11.5336 34.6854L11.6322 34.6314L11.7223 34.5824C11.8239 34.5285 11.9249 34.4757 12.0251 34.4241L12.0769 34.3979L12.2706 34.3013L12.2876 34.2928L12.4181 34.2289L12.5443 34.1686L12.5805 34.1522L12.6578 34.116C12.6649 34.1118 12.6727 34.1089 12.6798 34.1054L12.8103 34.0458L12.8515 34.0273C12.9403 33.9876 13.029 33.9485 13.1174 33.9102L13.2125 33.8683L13.3309 33.8186L13.3799 33.7987C13.4508 33.7689 13.5217 33.7405 13.5926 33.7121C13.6636 33.6837 13.7388 33.6532 13.8118 33.6255L13.9778 33.5616L14.0012 33.5531L14.1317 33.5041L14.2324 33.4672L14.314 33.4374L14.3594 33.4211L14.4856 33.3763L14.6112 33.333L14.7367 33.2904L14.7913 33.272L14.9098 33.2329L14.9686 33.2145L15.1155 33.1669L15.2602 33.1286L15.4375 33.0739L15.463 33.0661L15.6531 33.0107L15.8311 32.9589L16.0028 32.9121L16.1567 32.8702L16.1964 32.8595L16.4134 32.8035L16.4922 32.7836L16.5276 32.7751L16.6099 32.7552L16.8121 32.7062L17.0206 32.6579L17.0596 32.6494L17.0809 32.6444L17.1213 32.6352L17.1546 32.6281L17.1866 32.621L17.3242 32.5912L17.3951 32.5756L17.5192 32.5493L17.7036 32.5124L17.7476 32.5039L17.9377 32.467L17.9958 32.4563L18.0668 32.4435L18.1944 32.4201L18.2178 32.4159L18.2888 32.4038L18.3597 32.3917L18.4462 32.3768L18.6157 32.3484L18.6505 32.3427L18.8257 32.3151L18.9115 32.3016L18.9378 32.2973L19.0796 32.276H19.0924L19.3094 32.2448L19.5768 32.2072L19.7329 32.1859L19.8747 32.1674L19.9705 32.1546L20.0286 32.1468L20.0797 32.1397L20.1315 32.1326L20.2137 32.1205C20.3556 32.1007 20.4599 32.0829 20.5308 32.0659L20.5698 32.056C20.5939 32.0496 20.6187 32.0432 20.6407 32.0354L20.7031 32.0169L20.7663 31.9963L20.8301 31.9743L20.8932 31.9502L20.9571 31.9246C20.9769 31.9168 20.9975 31.9083 21.0174 31.8991C21.2462 31.7988 21.4637 31.6746 21.6663 31.5285C21.7018 31.5029 21.7373 31.4767 21.7727 31.449L21.838 31.3979C21.8813 31.3631 21.9245 31.3269 21.9671 31.29C21.9884 31.2715 22.0096 31.2531 22.0309 31.2332L22.0933 31.1757L22.1579 31.1132C22.1784 31.0926 22.1997 31.072 22.2203 31.0508L22.2827 30.9854C22.304 30.9634 22.3238 30.9414 22.3437 30.9187L22.4047 30.8477C22.4253 30.8243 22.4451 30.8009 22.465 30.7767C22.4848 30.7526 22.5047 30.7285 22.5239 30.7057L22.5806 30.6348C23.126 29.9213 23.5644 28.9353 23.7452 27.639C23.7452 27.627 23.7495 27.6142 23.7509 27.6014C23.9374 26.2264 23.9353 24.0456 23.8864 22.1843C23.8701 21.5908 23.8495 21.0286 23.8282 20.5366C23.7807 19.4327 23.7318 18.6753 23.7318 18.6753H23.736L23.7729 18.6973L25.7064 19.8331L25.9943 20.0028L30.3756 22.5811C30.3387 23.5245 30.3131 24.3686 30.3089 25.1267C30.306 25.5016 30.3086 25.8565 30.3167 26.1916C30.3167 26.3186 30.3238 26.4422 30.3287 26.5636C30.3337 26.6849 30.3387 26.8028 30.3458 26.9185C30.3678 27.2947 30.399 27.6426 30.4429 27.9656C30.6167 29.2661 30.9799 30.157 31.6487 30.825C31.7097 30.8868 31.7735 30.9464 31.8395 31.0032C31.8721 31.033 31.9062 31.0614 31.9402 31.0884C31.9743 31.1153 32.0111 31.1445 32.0452 31.1714C32.0792 31.1984 32.1161 31.2261 32.1544 31.2516C32.1927 31.2772 32.2296 31.3049 32.2679 31.3297C32.4172 31.4297 32.5718 31.5214 32.7311 31.6045C32.7859 31.6333 32.8419 31.6617 32.8992 31.6896H32.9027L32.9396 31.7074L33.0389 31.7542C33.0864 31.777 33.1346 31.799 33.1807 31.8196C33.2268 31.8401 33.2793 31.8629 33.3297 31.8834C33.3772 31.904 33.4247 31.9239 33.4715 31.9431L33.6361 32.007C33.7486 32.0496 33.8654 32.0914 33.9865 32.1326C34.0297 32.1482 34.0737 32.1624 34.1184 32.1773C34.2603 32.2242 34.4078 32.271 34.5596 32.3193L34.5773 32.3243L34.7007 32.3605L34.7539 32.3761L34.9795 32.4407L35.2681 32.5188L35.3313 32.5358C35.4859 32.577 35.6448 32.6203 35.8065 32.6657L36.0278 32.7296L36.1909 32.7779L36.3973 32.8404C36.681 32.926 36.9721 33.0195 37.2704 33.1208C37.4414 33.1783 37.6151 33.2386 37.7896 33.3018L37.8499 33.3238L38.0088 33.382C38.1114 33.4194 38.215 33.4582 38.3195 33.4984C38.4972 33.5666 38.6767 33.6376 38.8578 33.7114C39.216 33.8534 39.5791 34.0117 39.943 34.1778C40.1094 34.253 40.2749 34.3311 40.4395 34.4121L40.626 34.5029C41.0225 34.6974 41.4197 34.9061 41.8133 35.1283L42.0098 35.2405L42.1361 35.3115C42.1871 35.3406 42.2382 35.3711 42.2886 35.4016C42.3389 35.4322 42.3999 35.4677 42.4552 35.5017L42.5971 35.5883C42.686 35.6432 42.7742 35.6986 42.8617 35.7545L42.8773 35.7644L42.9844 35.8354L43.1326 35.9334C43.2035 35.9795 43.2745 36.0256 43.3404 36.0753C43.4241 36.1321 43.5071 36.1889 43.5894 36.2478L43.7128 36.3359C43.7965 36.395 43.8795 36.4554 43.9617 36.5169C44.0171 36.5571 44.0717 36.5983 44.1256 36.6404C44.2674 36.7483 44.4093 36.8598 44.5512 36.974C44.6164 37.0266 44.6817 37.0798 44.7462 37.1338L44.9391 37.297C45.1831 37.5062 45.421 37.7235 45.6527 37.9487L45.7683 38.0623C45.7712 38.0645 45.7738 38.0672 45.7761 38.0701L45.8562 38.1503C45.9073 38.2021 45.9584 38.254 46.0087 38.3065L46.1265 38.43C46.3591 38.6785 46.5832 38.9352 46.7989 39.2003C46.8379 39.2485 46.8776 39.2982 46.9159 39.3472L46.9577 39.4004C46.9953 39.4487 47.0322 39.497 47.0691 39.5424C47.1173 39.6063 47.1648 39.6702 47.2109 39.7348C47.257 39.7994 47.3046 39.8654 47.3528 39.9307C47.401 39.996 47.4443 40.0628 47.489 40.1295C47.5784 40.2629 47.6654 40.3985 47.75 40.5363C47.7918 40.6072 47.8337 40.674 47.8748 40.7443C47.916 40.8145 47.9557 40.8862 47.9954 40.9572C48.0351 41.0282 48.0741 41.0992 48.1124 41.1702C48.1366 41.2149 48.16 41.2589 48.1834 41.3036C48.2068 41.3484 48.2295 41.3938 48.2543 41.4385C48.2997 41.5287 48.3437 41.6195 48.3869 41.7118C48.4089 41.7587 48.4302 41.8055 48.4515 41.8538C48.4649 41.8829 48.4784 41.9127 48.4912 41.9425C48.4915 41.9454 48.4915 41.9482 48.4912 41.9511C48.5139 42.0015 48.5359 42.0519 48.5572 42.103C48.5784 42.1541 48.6089 42.2258 48.6338 42.2875L48.6423 42.3081C48.6678 42.3727 48.6933 42.4373 48.7175 42.5019C48.7416 42.5665 48.7685 42.6375 48.7926 42.7057C48.8423 42.842 48.8884 42.9804 48.9345 43.1195C48.9565 43.1905 48.977 43.2558 48.9976 43.3247C48.9973 43.3266 48.9973 43.3285 48.9976 43.3304C49.0182 43.4014 49.0388 43.4723 49.0579 43.5433C49.0742 43.6023 49.0898 43.6612 49.1054 43.7208L49.1224 43.7882C49.1381 43.8507 49.1537 43.9132 49.1678 43.9764C49.1799 44.0261 49.1912 44.0758 49.2019 44.1262C49.2019 44.1368 49.2069 44.1467 49.2083 44.1574C49.2147 44.1829 49.2196 44.2085 49.2253 44.2348C49.2381 44.2965 49.2501 44.3583 49.2622 44.4193C49.2742 44.4804 49.2877 44.5556 49.2998 44.6245C49.3118 44.6934 49.3239 44.7665 49.3352 44.8375C49.3395 44.8666 49.3445 44.8957 49.3487 44.9248C49.3572 44.9837 49.3657 45.0426 49.3735 45.1022C49.4445 45.6574 49.5211 46.2764 49.5948 46.948C49.6012 47.014 49.609 47.0807 49.6161 47.1474C49.626 47.2376 49.6353 47.3285 49.6452 47.42C49.6646 47.6046 49.6837 47.7927 49.7026 47.9844C49.7192 48.1434 49.7353 48.3048 49.7509 48.4685C49.7594 48.5509 49.7672 48.6332 49.775 48.7156C49.7828 48.7979 49.7913 48.8824 49.7991 48.9662C49.8251 49.243 49.8513 49.5251 49.8778 49.8123C49.8934 49.9827 49.9083 50.1545 49.9239 50.3284C49.9707 50.8545 50.0168 51.3933 50.0658 51.947C50.0814 52.1306 50.0965 52.3156 50.1112 52.5021C50.119 52.5951 50.1268 52.6888 50.1339 52.7825L50.1466 52.9437C50.1463 52.9451 50.1463 52.9465 50.1466 52.9479C50.1466 52.9863 50.1523 53.0253 50.1559 53.0643C50.1559 53.0878 50.1559 53.1119 50.1615 53.1353C50.1693 53.2397 50.1779 53.3483 50.1864 53.4505C50.1949 53.5527 50.2027 53.6635 50.2112 53.7678C50.2254 53.956 50.2403 54.1448 50.2545 54.3357C50.3254 55.2877 50.3963 56.2567 50.4672 57.2278C50.4843 57.4706 50.501 57.7134 50.5176 57.9562C50.5176 57.9725 50.5176 57.9888 50.5211 58.0052L50.5594 58.5596C50.5732 58.7669 50.5871 58.9734 50.6013 59.1793C50.6126 59.3468 50.6233 59.5144 50.6346 59.6819L50.6644 60.1327C50.6765 60.3222 50.6892 60.5118 50.7013 60.7006C50.7098 60.8291 50.7176 60.9576 50.7261 61.0861C50.7413 61.3194 50.7561 61.552 50.7708 61.7839C50.7826 61.9732 50.7944 62.1625 50.8063 62.3518C50.8181 62.5411 50.8294 62.724 50.8403 62.9005C50.8403 62.9268 50.8403 62.9531 50.8453 62.9793C50.8609 63.2271 50.8758 63.4762 50.8907 63.7162C50.8907 63.724 50.8907 63.7311 50.8907 63.7389C50.9124 64.0957 50.9337 64.4476 50.9545 64.7945C50.9815 65.2408 51.0075 65.6769 51.0325 66.1028C51.0401 66.2377 51.0479 66.3712 51.0559 66.5032C51.0559 66.5351 51.0595 66.5678 51.0616 66.5997C51.0708 66.7573 51.0793 66.9135 51.0886 67.0676C51.0886 67.1123 51.0935 67.157 51.0964 67.201C51.1013 67.2898 51.1063 67.3771 51.1113 67.4637C51.1162 67.5503 51.1212 67.639 51.1262 67.7256C51.1311 67.8122 51.1368 67.9166 51.1425 68.0096L51.1489 68.121C51.1531 68.2005 51.1574 68.2786 51.1616 68.356C51.1687 68.4795 51.1758 68.6016 51.1822 68.7209C51.1822 68.7748 51.1886 68.8281 51.1914 68.8813C51.2028 69.0919 51.2141 69.2964 51.2255 69.4947C51.2255 69.5429 51.2304 69.5912 51.2333 69.6366C51.2333 69.6728 51.2368 69.7076 51.2389 69.7453C51.2389 69.8162 51.2467 69.8787 51.2503 69.944C51.2538 70.0093 51.2574 70.086 51.2616 70.157C51.2616 70.1875 51.2616 70.218 51.2666 70.2479L51.273 70.3664C51.273 70.4161 51.2779 70.4651 51.2808 70.5134C51.2836 70.5616 51.2872 70.6284 51.29 70.6844C51.295 70.7689 51.2992 70.8513 51.3035 70.9322C51.3035 70.9634 51.307 70.9947 51.3084 71.0259C51.3084 71.0855 51.3148 71.1437 51.3177 71.2005C51.3177 71.2412 51.3198 71.281 51.324 71.3198C51.329 71.4192 51.3347 71.5157 51.3389 71.608C51.3389 71.6442 51.3432 71.679 51.3446 71.7145C51.346 71.75 51.3446 71.7762 51.3496 71.8068C51.3545 71.8373 51.3496 71.8494 51.3531 71.8707C51.3531 71.9132 51.3574 71.9544 51.3595 71.9949C51.3616 72.0354 51.3638 72.0701 51.3652 72.1063C51.3694 72.1929 51.3737 72.2753 51.3779 72.352C51.3779 72.3711 51.3779 72.3903 51.3779 72.4087C51.3779 72.4272 51.3779 72.445 51.3779 72.4634C51.3779 72.4819 51.3779 72.4989 51.3779 72.5159C51.3779 72.533 51.3779 72.5621 51.3779 72.5869C51.3779 72.6302 51.3822 72.6714 51.3843 72.7097C51.3865 72.7481 51.3843 72.7672 51.3886 72.7935C51.3928 72.8198 51.3886 72.846 51.3921 72.8695C51.3921 72.8695 51.3921 72.8759 51.3921 72.8787C51.3921 72.9099 51.3921 72.939 51.3971 72.9653V72.9745C51.3971 72.9831 51.3971 72.9901 51.3971 72.998C51.4248 73.1073 51.4276 73.1662 51.4276 73.1662Z" fill="#FFE6E6"/>
<path d="M51.4275 73.1666L48.7578 73.2L44.7476 73.2497L43.9972 73.2589L42.7914 73.2738L42.2892 73.2795L35.2348 73.3668L30.7181 73.4229L22.987 73.5187L22.4366 73.5258L15.0984 73.6167L14.1316 73.6288L12.2875 73.6515L11.3435 73.6628L10.1994 73.677L6.5821 73.7217L0.5802 73.7927C0.5802 73.7927 0.5802 73.7438 0.585874 73.6508C0.585874 73.6231 0.585874 73.5904 0.589421 73.5542C0.589421 73.5301 0.589421 73.5038 0.589421 73.4754C0.590123 73.4733 0.590123 73.4711 0.589421 73.469C0.589421 73.398 0.596514 73.3228 0.600769 73.2341C0.607153 73.0864 0.615664 72.9096 0.624885 72.7066V72.6661C0.62914 72.5909 0.632687 72.5114 0.636942 72.429C0.636942 72.3772 0.641907 72.3233 0.644744 72.2679C0.644744 72.2367 0.648291 72.2047 0.649709 72.1721C0.658693 72.006 0.668151 71.8285 0.67808 71.6397C0.683045 71.5573 0.687301 71.4728 0.692266 71.3862C0.697231 71.2996 0.702196 71.2109 0.707161 71.12C0.7178 70.9383 0.728439 70.7487 0.740497 70.5521C0.740497 70.5102 0.745462 70.4676 0.748299 70.4243C0.75681 70.2958 0.764612 70.1638 0.772414 70.0282C0.77667 69.9686 0.780216 69.9075 0.783763 69.8465C0.788728 69.7698 0.793693 69.6924 0.798657 69.6136C0.808587 69.4575 0.819226 69.2963 0.829866 69.1323C0.85209 68.8044 0.875732 68.4627 0.900793 68.1073C0.907177 68.0185 0.91356 67.9284 0.919944 67.8382C0.930347 67.6934 0.940986 67.5467 0.951861 67.3981C0.96321 67.249 0.973849 67.0985 0.985197 66.9459C0.985197 66.9139 0.990162 66.8813 0.992999 66.8486C1.00151 66.7279 1.01144 66.6058 1.02066 66.4823C1.02563 66.4163 1.03059 66.3496 1.03627 66.2828C1.04336 66.192 1.05045 66.1004 1.05754 66.0081C1.07031 65.8486 1.08308 65.687 1.09584 65.5233C1.10861 65.3595 1.12209 65.1939 1.13627 65.0263C1.19514 64.3165 1.25898 63.5839 1.32849 62.8257C1.34646 62.6364 1.36442 62.4447 1.38239 62.2507C1.40012 62.0583 1.41927 61.8638 1.43772 61.6679C1.45616 61.4719 1.47602 61.2753 1.49588 61.0765C1.51574 60.8778 1.5356 60.679 1.55617 60.4781C1.57532 60.2914 1.59447 60.1033 1.61504 59.9102C1.65144 59.5614 1.68904 59.2098 1.72781 58.8553C1.79306 58.2647 1.86139 57.6665 1.93279 57.0607C1.94769 56.9329 1.96329 56.8051 1.97818 56.6774C2.00372 56.4708 2.02854 56.2635 2.05408 56.0555C2.08812 55.7805 2.12288 55.5051 2.15834 55.2292C2.19002 54.9826 2.22218 54.7358 2.2548 54.4888C2.27112 54.3653 2.28743 54.2417 2.30445 54.1175C2.32928 53.9301 2.35552 53.7427 2.38176 53.5546C2.40966 53.3515 2.43803 53.1483 2.46688 52.9448C2.49383 52.7545 2.52078 52.5636 2.54915 52.3726C2.56901 52.2306 2.58958 52.0901 2.61086 51.9509C2.71441 51.2411 2.82364 50.5361 2.93996 49.8305C2.97259 49.6261 3.00593 49.4223 3.04068 49.2179C3.0804 48.9779 3.12154 48.7373 3.16339 48.498C3.20098 48.278 3.23999 48.0579 3.279 47.8393L3.28964 47.7796L3.30028 47.7207C3.33007 47.5532 3.36057 47.3849 3.39177 47.2174C3.45703 46.8606 3.52394 46.5056 3.5925 46.1526C3.62654 45.977 3.66083 45.8021 3.69534 45.628C3.79464 45.1268 3.90978 44.6443 4.04076 44.1805C4.09278 43.9945 4.14715 43.8119 4.2039 43.6325C4.26064 43.4531 4.31951 43.2761 4.38051 43.1015C4.472 42.8402 4.56917 42.5854 4.66989 42.3362C4.70323 42.2532 4.74082 42.1708 4.77274 42.0899C4.80111 42.0189 4.83019 41.9557 4.85998 41.889C4.88977 41.8223 4.91459 41.7655 4.94296 41.7044C4.97133 41.6434 5.0068 41.5667 5.03871 41.4993C5.05786 41.4574 5.07843 41.4155 5.09829 41.3736C5.13305 41.3026 5.16922 41.2316 5.20398 41.1607C5.23873 41.0897 5.2749 41.0187 5.3125 40.9477L5.35931 40.8582C5.3891 40.8022 5.41889 40.7468 5.44939 40.6914C5.57091 40.4704 5.69574 40.2553 5.82388 40.0461C5.86715 39.9751 5.91042 39.9042 5.95368 39.8389C6.04163 39.7016 6.13053 39.567 6.22037 39.4349C6.26576 39.3689 6.31116 39.3036 6.35726 39.239C6.41471 39.1581 6.47287 39.0778 6.53103 38.9983C6.58919 38.9188 6.64877 38.8415 6.70835 38.7641C6.79772 38.6477 6.88827 38.5338 6.98 38.4226C7.0105 38.385 7.04171 38.3516 7.07221 38.3112C7.12186 38.2523 7.17151 38.1933 7.22116 38.1358C7.42118 37.9044 7.62545 37.6822 7.83397 37.4692L7.99143 37.3109C8.03683 37.2662 8.08222 37.2215 8.12832 37.1775C8.21911 37.089 8.31132 37.0019 8.40494 36.9162C8.45104 36.8736 8.49786 36.8318 8.5468 36.7899C8.68865 36.6645 8.83051 36.5424 8.97236 36.4236C9.01634 36.3867 9.0596 36.3526 9.10358 36.3157C9.11918 36.3022 9.1355 36.2894 9.15181 36.2766C9.23054 36.2127 9.31069 36.1503 9.39013 36.0878C9.44261 36.0473 9.49581 36.0062 9.54971 35.9664C9.64665 35.8935 9.74406 35.8225 9.84194 35.7534L9.98947 35.6484L10.1157 35.5604C10.1725 35.5213 10.2285 35.483 10.2852 35.4454L10.2909 35.4418L10.4469 35.3382L10.5335 35.2821L10.6895 35.1827L10.9023 35.0514L11.1009 34.9328L11.1094 34.9279L11.2513 34.8455L11.3357 34.7972L11.3718 34.7766L11.535 34.6858L11.6336 34.6318L11.691 34.6013L11.7236 34.5828C11.8253 34.5289 11.9263 34.4761 12.0265 34.4245L12.0783 34.3983L12.2719 34.3017L12.2889 34.2932L12.4194 34.2293L12.4663 34.2073L12.5457 34.169L12.5819 34.1527L12.6592 34.1165C12.6663 34.1122 12.6741 34.1094 12.6812 34.1058L12.8117 34.0462L12.8528 34.0277C12.9417 33.988 13.0304 33.9489 13.1188 33.9106L13.2138 33.8687L13.2372 33.8595C13.2692 33.8453 13.3004 33.8318 13.3323 33.819L13.3812 33.7991C13.4522 33.7693 13.5231 33.7409 13.594 33.7125L13.6231 33.7012L13.8132 33.6259L13.9791 33.562L14.0026 33.5535L14.1331 33.5045L14.2338 33.4676L14.3153 33.4378L14.3607 33.4215L14.487 33.3767L14.5579 33.3526L14.6125 33.3334L14.7381 33.2909L14.7501 33.2873L14.7927 33.2724L14.9111 33.2334L14.9345 33.2263L15.1168 33.1673C15.2339 33.1304 15.3509 33.0963 15.4658 33.0601L15.6559 33.0048L15.8339 32.9529L16.0056 32.9061L16.1595 32.8642L16.1992 32.8536L16.302 32.8273L16.3488 32.8152L16.4162 32.7975L16.495 32.7776L16.5176 32.7726H16.5304L16.6127 32.7528L16.8148 32.7038L16.8482 32.6967L17.0106 32.6591L17.0234 32.6555L17.0624 32.647L17.0837 32.642L17.1262 32.6328L17.1595 32.6257L17.1915 32.6186L17.3291 32.5888L17.4 32.5732L17.5241 32.5469L17.5582 32.5405L17.7085 32.51L17.7525 32.5015L17.9426 32.4645L18.0057 32.4525L18.0695 32.4411L18.1972 32.4177L18.2206 32.4134L18.2916 32.4014L18.3625 32.3893L18.449 32.3744L18.6185 32.346L18.6533 32.3403L18.8285 32.3126L18.9143 32.2991L18.9405 32.2949L19.0824 32.2736H19.0952L19.3122 32.2423L19.5796 32.2047L19.7356 32.1834L19.8775 32.165L19.9732 32.1522L20.0314 32.1444L20.0825 32.1373L20.1343 32.1302L20.2165 32.1181C20.3584 32.0982 20.4626 32.0805 20.5336 32.0635C20.5463 32.0635 20.5591 32.0578 20.5726 32.0535L20.5832 32.05L20.6456 32.0329L20.7081 32.0145L20.7712 31.9939L20.835 31.9719L20.8981 31.9477L20.962 31.9222C20.9818 31.9144 21.0024 31.9059 21.0223 31.8966C21.2511 31.7964 21.4686 31.6722 21.6713 31.5261C21.7067 31.5005 21.7422 31.4743 21.7776 31.4466L21.8429 31.3955C21.8862 31.3614 21.9294 31.3245 21.972 31.2876C21.9933 31.2691 22.0145 31.2506 22.0358 31.2308L22.0982 31.1733L22.1628 31.1108C22.1834 31.0902 22.2046 31.0696 22.2252 31.0483C22.2458 31.027 22.267 31.005 22.2876 30.983C22.3082 30.961 22.3288 30.939 22.3486 30.9163L22.4096 30.8453C22.4302 30.8219 22.45 30.7984 22.4699 30.7743C22.4898 30.7502 22.5096 30.726 22.5288 30.7033L22.5862 30.6323C27.9136 32.9104 30.7465 31.4743 31.6508 30.8254C31.7118 30.8865 31.7756 30.9461 31.8416 31.0036C31.8742 31.0334 31.9082 31.0618 31.9423 31.0888C31.9763 31.1158 32.0132 31.1449 32.0473 31.1718C32.0813 31.1988 32.1182 31.2258 32.1565 31.2521C32.1948 31.2783 32.2317 31.3046 32.27 31.3301C32.4197 31.4294 32.5742 31.5211 32.7331 31.6049C32.7885 31.6333 32.8438 31.6617 32.9012 31.6901H32.9048L32.9417 31.7078L33.041 31.7547C33.0885 31.7774 33.1367 31.7994 33.1828 31.82C33.2289 31.8406 33.2814 31.8633 33.3318 31.8839C33.3791 31.9047 33.4263 31.9246 33.4736 31.9435L33.6382 32.0074C33.7507 32.05 33.8675 32.0919 33.9886 32.133C34.0318 32.1486 34.0758 32.1628 34.1205 32.1777C34.2623 32.2246 34.4099 32.2715 34.5617 32.3197L34.5794 32.3247L34.7028 32.3609L34.756 32.3765L34.9815 32.4411L35.2702 32.5192L35.3333 32.5362C35.488 32.5774 35.6468 32.6207 35.8086 32.6662L36.0299 32.73L36.193 32.7783L36.3994 32.8408C36.6831 32.9264 36.9741 33.0199 37.2725 33.1212C37.4434 33.1787 37.6172 33.239 37.7917 33.3022L37.852 33.3242L38.0109 33.3824C38.1135 33.4198 38.217 33.4586 38.3215 33.4988C38.4993 33.567 38.6788 33.638 38.8599 33.7118C39.2181 33.8538 39.5812 34.0121 39.9451 34.1782C40.1115 34.2535 40.277 34.3315 40.4416 34.4125L40.6281 34.5033C41.0246 34.6978 41.4218 34.9066 41.8154 35.1287L42.0119 35.2409L42.1381 35.3119C42.1892 35.341 42.2403 35.3715 42.2906 35.4021C42.341 35.4326 42.402 35.4681 42.4573 35.5021L42.5992 35.5888C42.6881 35.6437 42.7763 35.699 42.8637 35.7549L42.8793 35.7648L42.9864 35.8358L43.1347 35.9338C43.2056 35.9799 43.2765 36.026 43.3425 36.0757C43.4262 36.1325 43.5092 36.1893 43.5915 36.2482L43.7149 36.3363C43.7986 36.3954 43.8815 36.4558 43.9638 36.5173C44.0191 36.5575 44.0738 36.5987 44.1277 36.6408C44.2695 36.7487 44.4114 36.8602 44.5532 36.9745C44.6185 37.027 44.6837 37.0802 44.7483 37.1342L44.9412 37.2975C45.1852 37.5066 45.423 37.7239 45.6547 37.9491L45.7703 38.0627C45.7733 38.0649 45.7759 38.0676 45.7782 38.0705L45.8583 38.1507C45.9094 38.2026 45.9604 38.2544 46.0108 38.3069L46.1285 38.4304C46.3612 38.6789 46.5853 38.9356 46.8009 39.2007C46.8399 39.2489 46.8797 39.2986 46.918 39.3476L46.9598 39.4008C46.9974 39.4491 47.0343 39.4974 47.0712 39.5428C47.1194 39.6067 47.1669 39.6706 47.213 39.7352C47.2591 39.7998 47.3066 39.8658 47.3549 39.9311C47.4031 39.9964 47.4464 40.0632 47.4911 40.1299C47.5804 40.2634 47.6674 40.3989 47.7521 40.5367C47.7939 40.6077 47.8358 40.6744 47.8769 40.7447C47.918 40.8149 47.9578 40.8866 47.9975 40.9576C48.0372 41.0286 48.0762 41.0996 48.1145 41.1706C48.1386 41.2153 48.162 41.2593 48.1854 41.3041C48.2088 41.3488 48.2315 41.3942 48.2564 41.4389C48.3018 41.5291 48.3457 41.62 48.389 41.7122C48.411 41.7591 48.4323 41.8059 48.4535 41.8542C48.467 41.8833 48.4805 41.9131 48.4933 41.943C48.4935 41.9458 48.4935 41.9486 48.4933 41.9515C48.516 42.0019 48.5379 42.0523 48.5592 42.1034C48.5805 42.1545 48.611 42.2262 48.6358 42.288L48.6443 42.3085C48.6699 42.3731 48.6954 42.4377 48.7195 42.5023C48.7436 42.5669 48.7706 42.6379 48.7947 42.7061C48.8436 42.8424 48.8905 42.9808 48.9366 43.1199C48.9585 43.1909 48.9791 43.2562 48.9997 43.3251C48.9994 43.327 48.9994 43.3289 48.9997 43.3308C49.0203 43.4018 49.0408 43.4728 49.06 43.5438C49.0763 43.6027 49.0919 43.6616 49.1075 43.7212L49.1245 43.7887C49.1401 43.8511 49.1557 43.9136 49.1699 43.9768C49.182 44.0265 49.1933 44.0762 49.204 44.1266C49.204 44.1372 49.2089 44.1472 49.2103 44.1578C49.2167 44.1834 49.2217 44.2089 49.2274 44.2352C49.2401 44.2969 49.2522 44.3587 49.2642 44.4197C49.2763 44.4808 49.2898 44.556 49.3018 44.6249C49.3139 44.6938 49.326 44.7669 49.3373 44.8379C49.3416 44.867 49.3465 44.8961 49.3508 44.9252C49.3593 44.9841 49.3678 45.043 49.3756 45.1027C49.4465 45.6578 49.5231 46.2768 49.5969 46.9484C49.6033 47.0144 49.6111 47.0811 49.6182 47.1478C49.6281 47.238 49.6373 47.3289 49.6473 47.4204C49.6666 47.605 49.6858 47.7931 49.7047 47.9848C49.721 48.1438 49.7373 48.3057 49.7529 48.4689C49.7615 48.5513 49.7693 48.6336 49.7771 48.716C49.7849 48.7983 49.7934 48.8828 49.8012 48.9666C49.8272 49.2434 49.8534 49.5255 49.8799 49.8128C49.8955 49.9831 49.9109 50.1552 49.926 50.3288C49.9728 50.8549 50.0189 51.3937 50.0679 51.9474C50.0835 52.131 50.0986 52.3161 50.1133 52.5025C50.1211 52.5955 50.1289 52.6892 50.136 52.7829C50.1402 52.8383 50.1452 52.893 50.1494 52.9483C50.1491 52.95 50.1491 52.9517 50.1494 52.9533L50.1579 53.0648C50.1579 53.0882 50.1579 53.1123 50.1636 53.1357C50.1721 53.2408 50.1799 53.3487 50.1884 53.4509C50.1969 53.5532 50.2047 53.6639 50.2133 53.7682C50.2274 53.9564 50.2423 54.1452 50.2565 54.3362C50.3275 55.2881 50.3984 56.2571 50.4693 57.2282C50.4863 57.471 50.5031 57.7138 50.5197 57.9566C50.5197 57.9729 50.5197 57.9892 50.5232 58.0056L50.5615 58.56C50.5752 58.7673 50.5892 58.9738 50.6034 59.1797C50.6147 59.3472 50.6254 59.5148 50.6367 59.6823L50.6665 60.1331C50.6785 60.3226 50.6913 60.5122 50.7034 60.701C50.7119 60.8295 50.7197 60.958 50.7282 61.0865C50.7433 61.3198 50.7582 61.5524 50.7729 61.7843C50.7847 61.9736 50.7965 62.1629 50.8083 62.3522C50.8202 62.5415 50.8315 62.7244 50.8424 62.9009C50.8424 62.9272 50.8424 62.9535 50.8474 62.9797C50.863 63.2277 50.8781 63.4734 50.8927 63.7166C50.8927 63.7244 50.8927 63.7315 50.8927 63.7393C50.9145 64.0962 50.9358 64.448 50.9566 64.7949C50.9835 65.2412 51.0095 65.6773 51.0346 66.1032C51.0422 66.2381 51.05 66.3716 51.058 66.5036C51.058 66.5356 51.0616 66.5682 51.0637 66.6002C51.0722 66.7587 51.0812 66.9146 51.0906 67.068C51.0906 67.1127 51.0956 67.1574 51.0984 67.2014C51.1034 67.2895 51.1084 67.3775 51.1133 67.4641C51.1183 67.5507 51.1233 67.6394 51.1282 67.726C51.1332 67.8127 51.1389 67.917 51.1445 68.01L51.1509 68.1215C51.1552 68.2002 51.1594 68.279 51.1637 68.3564C51.1708 68.4799 51.1779 68.602 51.1843 68.7213C51.1843 68.7753 51.1906 68.8285 51.1935 68.8817C51.2048 69.0923 51.2162 69.2968 51.2275 69.4951C51.2275 69.5434 51.2325 69.5916 51.2353 69.6371C51.2353 69.6733 51.2389 69.708 51.241 69.7457C51.241 69.8124 51.2481 69.8791 51.2524 69.9444C51.2566 70.0098 51.2594 70.0864 51.2637 70.1574C51.2637 70.1879 51.2637 70.2185 51.2687 70.2483L51.275 70.3668C51.275 70.4165 51.28 70.4655 51.2829 70.5138C51.2857 70.562 51.2892 70.6288 51.2921 70.6849C51.297 70.7693 51.3013 70.8517 51.3055 70.9326C51.3055 70.9638 51.3091 70.9951 51.3105 71.0263C51.3105 71.0859 51.3169 71.1441 51.3197 71.2009C51.3197 71.2416 51.3219 71.2814 51.3261 71.3202C51.3311 71.4196 51.3368 71.5161 51.341 71.6084C51.341 71.6446 51.3453 71.6794 51.3467 71.7149C51.3481 71.7504 51.3467 71.7774 51.3516 71.8072C51.3566 71.837 51.3517 71.8498 51.3552 71.8711C51.3552 71.9137 51.3595 71.9548 51.3616 71.9953C51.3637 72.0358 51.3658 72.0706 51.3673 72.1068C51.3715 72.1934 51.3758 72.2757 51.38 72.3524C51.38 72.3716 51.38 72.3907 51.38 72.4092C51.38 72.4276 51.38 72.4454 51.38 72.4638C51.38 72.4823 51.38 72.4993 51.38 72.5164C51.38 72.5334 51.38 72.5625 51.38 72.5874C51.38 72.6307 51.3843 72.6718 51.3864 72.7102C51.3885 72.7485 51.3864 72.7677 51.3907 72.7939C51.3949 72.8202 51.3907 72.8457 51.3942 72.8699C51.3942 72.8699 51.3942 72.8763 51.3942 72.8791C51.3942 72.9103 51.3942 72.9395 51.3992 72.9657V72.975C51.3992 72.9828 51.3992 72.9906 51.3992 72.9984C51.4247 73.1077 51.4275 73.1666 51.4275 73.1666Z" fill="#5661E1"/>
<path d="M22.9856 73.5215L22.4352 73.5286L15.097 73.6195L14.1303 73.6316L12.2862 73.6543L11.3421 73.6656L10.1981 73.6798L6.58076 73.7245L0.578857 73.7955C0.578857 73.7955 0.578857 73.7466 0.584532 73.6536C0.584532 73.6259 0.584532 73.5932 0.588078 73.557C0.588078 73.5329 0.588078 73.5066 0.588078 73.4782C0.588781 73.4761 0.588781 73.4739 0.588078 73.4718C0.588078 73.4008 0.595171 73.3256 0.599426 73.2369C0.60581 73.0892 0.614321 72.9124 0.623542 72.7094V72.6689C0.627798 72.5937 0.631344 72.5142 0.6356 72.4318C0.6356 72.38 0.640564 72.3261 0.643402 72.2707C0.643402 72.2395 0.646948 72.2075 0.648367 72.1749C0.657351 72.0088 0.666808 71.8313 0.676738 71.6425C0.681703 71.5601 0.685958 71.4756 0.690923 71.389C0.695888 71.3024 0.700853 71.2137 0.705818 71.1228C0.716457 70.9411 0.727096 70.7515 0.739154 70.5549C0.739154 70.513 0.744119 70.4704 0.746956 70.4271C0.755467 70.2986 0.763269 70.1666 0.771071 70.031C0.775327 69.9714 0.778873 69.9103 0.78242 69.8493C0.787385 69.7726 0.79235 69.6952 0.797315 69.6164C0.807245 69.4603 0.817884 69.2991 0.828523 69.1351C0.850747 68.8072 0.874389 68.4655 0.89945 68.1101C0.905834 68.0213 0.912217 67.9312 0.918601 67.841C0.929004 67.6962 0.939643 67.5495 0.950518 67.4009C0.961867 67.2518 0.972506 67.1013 0.983854 66.9487C0.983854 66.9167 0.988819 66.8841 0.991656 66.8514C1.00017 66.7307 1.0101 66.6086 1.01932 66.4851C1.02428 66.4191 1.02925 66.3524 1.03492 66.2856C1.04202 66.1948 1.04911 66.1032 1.0562 66.0109C1.06897 65.8514 1.08173 65.6898 1.0945 65.5261C1.10727 65.3623 1.12074 65.1967 1.13493 65.0291C1.1938 64.3193 1.25764 63.5867 1.32714 62.8285C1.34511 62.6392 1.36308 62.4475 1.38105 62.2535C1.39878 62.0611 1.41793 61.8666 1.43637 61.6707C1.45481 61.4747 1.47467 61.2781 1.49453 61.0793C1.51439 60.8806 1.53425 60.6818 1.55482 60.4809C1.57397 60.2942 1.59312 60.1061 1.61369 59.913C1.6501 59.5642 1.68769 59.2126 1.72647 58.8581C1.79172 58.2675 1.86005 57.6693 1.93145 57.0635C1.94634 56.9357 1.96195 56.8079 1.97684 56.6802C2.00238 56.4736 2.0272 56.2663 2.05273 56.0583C2.08678 55.7833 2.12153 55.5079 2.157 55.232C2.18868 54.9854 2.22083 54.7386 2.25346 54.4916C2.26977 54.3681 2.28609 54.2445 2.30311 54.1203C2.32793 53.9329 2.35418 53.7455 2.38042 53.5574C2.40832 53.3543 2.43669 53.1511 2.46553 52.9476C2.49249 52.7573 2.51944 52.5664 2.54781 52.3754C2.56767 52.2334 2.58824 52.0929 2.60952 51.9537C2.71307 51.2439 2.8223 50.5389 2.93862 49.8333C2.97125 49.6289 3.00458 49.4251 3.03934 49.2207C3.07906 48.9807 3.1202 48.7401 3.16204 48.5008C3.19964 48.2808 3.23865 48.0607 3.27766 47.8421L3.28829 47.7824L3.29893 47.7235C3.32872 47.556 3.35922 47.3877 3.39043 47.2202C3.45568 46.8634 3.52259 46.5084 3.59116 46.1554C3.6252 45.9798 3.65948 45.8049 3.694 45.6308C3.7933 45.1296 3.90844 44.6471 4.03942 44.1833C4.09143 43.9973 4.14581 43.8146 4.20255 43.6353C4.25929 43.4559 4.31816 43.2789 4.37916 43.1043C4.47066 42.8431 4.56783 42.5882 4.66855 42.339C4.70188 42.256 4.73947 42.1736 4.77139 42.0927C4.79976 42.0217 4.82884 41.9585 4.85863 41.8918C4.88842 41.8251 4.91325 41.7683 4.94162 41.7072C4.96999 41.6462 5.00545 41.5695 5.03737 41.5021C5.05652 41.4602 5.07709 41.4183 5.09695 41.3764C5.1317 41.3054 5.16788 41.2344 5.20263 41.1635C5.23739 41.0925 5.27356 41.0215 5.31115 40.9505L5.35796 40.861C5.38775 40.805 5.41754 40.7496 5.44804 40.6942C5.56956 40.4732 5.6944 40.2581 5.82254 40.0489C5.86581 39.9779 5.90907 39.907 5.95234 39.8416C6.04029 39.7044 6.12918 39.5698 6.21903 39.4377C6.26442 39.3717 6.30981 39.3064 6.35592 39.2418C6.41337 39.1609 6.47153 39.0806 6.52969 39.0011C6.58785 38.9216 6.64743 38.8443 6.70701 38.7669C6.79638 38.6505 6.88693 38.5366 6.97866 38.4254C7.00916 38.3878 7.04037 38.3544 7.07087 38.314C7.12052 38.2551 7.17017 38.1961 7.21982 38.1386C7.41983 37.9072 7.6241 37.685 7.83263 37.472L7.99009 37.3137C8.03548 37.269 8.08088 37.2243 8.12698 37.1803C8.21777 37.0918 8.30997 37.0047 8.4036 36.919C8.4497 36.8765 8.49651 36.8346 8.54545 36.7927C8.68731 36.6673 8.82916 36.5452 8.97102 36.4264C9.01499 36.3895 9.05826 36.3554 9.10224 36.3185C9.11784 36.305 9.13415 36.2922 9.15047 36.2794C9.2292 36.2155 9.30934 36.1531 9.38878 36.0906C9.44127 36.0501 9.49447 36.009 9.54837 35.9692C9.64531 35.8963 9.74271 35.8253 9.84059 35.7563L9.98812 35.6512L10.1144 35.5632C10.1711 35.5241 10.2271 35.4858 10.2839 35.4482L10.2896 35.4446L10.4456 35.341L10.5321 35.2849L10.6882 35.1855L10.901 35.0542L11.0996 34.9356L11.1081 34.9307L11.2499 34.8483L11.3343 34.8L11.3705 34.7794L11.5336 34.6886L11.6322 34.6346L11.6897 34.6041L11.7223 34.5856C11.824 34.5317 11.9249 34.4789 12.0252 34.4273L12.0769 34.4011L12.2706 34.3045L12.2876 34.296L12.4181 34.2321L12.4649 34.2101L12.5444 34.1718L12.5805 34.1555L12.6578 34.1193C12.6649 34.115 12.6727 34.1122 12.6798 34.1086L12.8103 34.049L12.8515 34.0305C12.9404 33.9908 13.029 33.9517 13.1175 33.9134L13.2125 33.8715L13.2359 33.8623C13.2678 33.8481 13.299 33.8346 13.3309 33.8218L13.3799 33.8019C13.4508 33.7721 13.5217 33.7437 13.5927 33.7153L13.6217 33.704L13.8118 33.6287L13.9778 33.5648L14.0012 33.5563L14.1317 33.5073L14.2324 33.4704L14.314 33.4406L14.3594 33.4243L14.4856 33.3795L14.5566 33.3554L14.6112 33.3362L14.7367 33.2937L14.7488 33.2901L14.7913 33.2752L14.9098 33.2362L14.9332 33.2291L15.1155 33.1701C15.2325 33.1332 15.3495 33.0991 15.4644 33.0629L15.6545 33.0076L15.8326 32.9557L16.0042 32.9089L16.1581 32.867L16.1978 32.8564L16.3007 32.8301L16.3475 32.818L16.4149 32.8003L16.4936 32.7804L16.5163 32.7754H16.5291L16.6113 32.7556L16.8135 32.7066L16.8468 32.6995L17.0093 32.6619L17.022 32.6583L17.061 32.6498L17.0823 32.6448L17.1249 32.6356L17.1582 32.6285L17.1901 32.6214L17.3277 32.5916L17.3986 32.576L17.5228 32.5497L17.5568 32.5433L17.7072 32.5128L17.7512 32.5043L17.9412 32.4673L18.0044 32.4553L18.0682 32.4439L18.1959 32.4205L18.2193 32.4162L18.2902 32.4042L18.3611 32.3921L18.4477 32.3772L18.6172 32.3488L18.6519 32.3431L18.8271 32.3154C18.8271 32.3154 22.1104 42.0664 22.4366 44.977C22.6721 47.0846 22.8863 64.2504 22.9856 73.5215Z" fill="#120283"/>
<path d="M51.4276 73.1665L48.7579 73.1999L44.7476 73.2495L43.9972 73.2588L42.7914 73.2737L42.2893 73.2794L35.2348 73.3667L30.7181 73.4228C33.9702 64.2382 33.6794 47.2734 33.6155 45.6839C33.5446 43.9092 35.2213 33.3 35.2213 33.3L36.1966 32.7739L36.403 32.8364C36.6867 32.9221 36.9777 33.0155 37.2761 33.1168C37.4471 33.1743 37.6208 33.2346 37.7953 33.2978L37.8556 33.3198L38.0145 33.378C38.1171 33.4154 38.2206 33.4542 38.3251 33.4945C38.5029 33.5626 38.6824 33.6336 38.8635 33.7074C39.2217 33.8494 39.5848 34.0077 39.9487 34.1738C40.1151 34.2491 40.2806 34.3272 40.4452 34.4081L40.6317 34.4989C41.0282 34.6935 41.4254 34.9022 41.819 35.1244L42.0155 35.2365L42.1418 35.3075C42.1928 35.3366 42.2439 35.3671 42.2943 35.3977C42.3446 35.4282 42.4056 35.4637 42.4609 35.4978L42.6028 35.5844C42.6917 35.6393 42.7799 35.6946 42.8673 35.7505L42.8829 35.7604L42.9901 35.8314L43.1383 35.9294C43.2092 35.9755 43.2801 36.0217 43.3461 36.0714C43.4298 36.1281 43.5128 36.1849 43.5951 36.2439L43.7185 36.3319C43.8022 36.391 43.8852 36.4514 43.9674 36.5129C44.0228 36.5531 44.0774 36.5943 44.1313 36.6364C44.2731 36.7443 44.415 36.8558 44.5568 36.9701C44.6221 37.0226 44.6873 37.0758 44.7519 37.1298L44.9448 37.2931C45.1888 37.5022 45.4267 37.7195 45.6584 37.9447L45.774 38.0583C45.7769 38.0606 45.7795 38.0632 45.7818 38.0661L45.8619 38.1463C45.913 38.1982 45.964 38.25 46.0144 38.3025L46.1321 38.426C46.3648 38.6745 46.5889 38.9312 46.8045 39.1963C46.8436 39.2445 46.8833 39.2942 46.9216 39.3432L46.9634 39.3965C47.001 39.4447 47.0379 39.493 47.0748 39.5384C47.123 39.6023 47.1705 39.6662 47.2166 39.7308C47.2627 39.7954 47.3103 39.8614 47.3585 39.9267C47.4067 39.9921 47.45 40.0588 47.4947 40.1255C47.584 40.259 47.671 40.3946 47.7557 40.5323C47.7975 40.6033 47.8394 40.67 47.8805 40.7403C47.9216 40.8106 47.9614 40.8823 48.0011 40.9532C48.0408 41.0242 48.0798 41.0952 48.1181 41.1662C48.1422 41.2109 48.1656 41.2549 48.189 41.2997C48.2125 41.3444 48.2352 41.3898 48.26 41.4345C48.3054 41.5247 48.3493 41.6156 48.3926 41.7079C48.4146 41.7547 48.4359 41.8016 48.4572 41.8498C48.4706 41.8789 48.4841 41.9087 48.4969 41.9386C48.4972 41.9414 48.4972 41.9442 48.4969 41.9471C48.5196 41.9975 48.5416 42.0479 48.5628 42.099C48.5841 42.1501 48.6146 42.2218 48.6394 42.2836L48.6479 42.3042C48.6735 42.3688 48.699 42.4334 48.7231 42.498C48.7472 42.5626 48.7742 42.6335 48.7983 42.7017C48.8473 42.838 48.8941 42.9764 48.9402 43.1156C48.9622 43.1865 48.9827 43.2519 49.0033 43.3207C49.003 43.3226 49.003 43.3245 49.0033 43.3264C49.0239 43.3974 49.0444 43.4684 49.0636 43.5394C49.0799 43.5983 49.0955 43.6572 49.1111 43.7168L49.1281 43.7843C49.1437 43.8467 49.1593 43.9092 49.1735 43.9724C49.1856 44.0221 49.1969 44.0718 49.2076 44.1222C49.2076 44.1328 49.2125 44.1428 49.214 44.1534C49.2203 44.179 49.2253 44.2045 49.231 44.2308C49.2437 44.2926 49.2558 44.3543 49.2679 44.4154C49.2799 44.4764 49.2934 44.5517 49.3055 44.6205C49.3175 44.6894 49.3296 44.7625 49.3409 44.8335C49.3452 44.8626 49.3501 44.8917 49.3544 44.9208C49.3629 44.9797 49.3714 45.0386 49.3792 45.0983C49.4501 45.6534 49.5267 46.2724 49.6005 46.944C49.6069 47.01 49.6147 47.0767 49.6218 47.1435C49.6317 47.2336 49.6409 47.3245 49.6509 47.4161C49.6703 47.6006 49.6894 47.7887 49.7083 47.9804C49.7246 48.1394 49.7409 48.3013 49.7566 48.4646C49.7651 48.5469 49.7729 48.6292 49.7807 48.7116C49.7885 48.7939 49.797 48.8784 49.8048 48.9622C49.8308 49.239 49.857 49.5211 49.8835 49.8084C49.8991 49.9787 49.9145 50.1508 49.9296 50.3245C49.9764 50.8505 50.0225 51.3893 50.0715 51.943C50.0871 52.1266 50.1022 52.3117 50.1169 52.4981C50.1247 52.5911 50.1325 52.6848 50.1396 52.7785C50.1438 52.8339 50.1488 52.8886 50.153 52.9439C50.1527 52.9456 50.1527 52.9473 50.153 52.9489L50.1615 53.0604C50.1615 53.0838 50.1616 53.1079 50.1672 53.1314C50.1757 53.2364 50.1835 53.3443 50.192 53.4465C50.2006 53.5488 50.2084 53.6595 50.2169 53.7639C50.2311 53.952 50.246 54.1408 50.2601 54.3318C50.3311 55.2837 50.402 56.2527 50.4729 57.2238C50.4899 57.4666 50.5067 57.7094 50.5233 57.9522C50.5233 57.9685 50.5233 57.9848 50.5268 58.0012L50.5651 58.5556C50.5788 58.7629 50.5928 58.9695 50.607 59.1753C50.6183 59.3429 50.629 59.5104 50.6403 59.6779L50.6701 60.1287C50.6822 60.3182 50.6949 60.5078 50.707 60.6966C50.7155 60.8251 50.7233 60.9536 50.7318 61.0821C50.7469 61.3154 50.7618 61.548 50.7765 61.7799C50.7883 61.9692 50.8001 62.1585 50.812 62.3478C50.8238 62.5371 50.8351 62.72 50.846 62.8966C50.846 62.9228 50.846 62.9491 50.851 62.9754C50.8666 63.2233 50.8817 63.469 50.8964 63.7122C50.8964 63.72 50.8964 63.7271 50.8964 63.7349C50.9181 64.0918 50.9394 64.4436 50.9602 64.7905C50.9871 65.2368 51.0132 65.6729 51.0382 66.0989C51.0458 66.2337 51.0536 66.3672 51.0616 66.4992C51.0616 66.5312 51.0652 66.5638 51.0673 66.5958C51.0758 66.7543 51.0848 66.9103 51.0942 67.0636C51.0942 67.1083 51.0992 67.153 51.1021 67.197C51.107 67.2851 51.112 67.3731 51.1169 67.4597C51.1219 67.5463 51.1269 67.635 51.1318 67.7217C51.1368 67.8083 51.1425 67.9126 51.1482 68.0056L51.1545 68.1171C51.1588 68.1959 51.163 68.2747 51.1673 68.352C51.1744 68.4756 51.1815 68.5977 51.1879 68.7169C51.1879 68.7709 51.1943 68.8241 51.1971 68.8774C51.2084 69.088 51.2198 69.2924 51.2311 69.4907C51.2311 69.539 51.2361 69.5872 51.2389 69.6327C51.2389 69.6689 51.2425 69.7037 51.2446 69.7413C51.2446 69.808 51.2517 69.8747 51.256 69.9401C51.2602 70.0054 51.2631 70.082 51.2673 70.153C51.2673 70.1835 51.2673 70.2141 51.2723 70.2439L51.2787 70.3624C51.2787 70.4121 51.2836 70.4611 51.2865 70.5094C51.2893 70.5577 51.2928 70.6244 51.2957 70.6805C51.3006 70.7649 51.3049 70.8473 51.3092 70.9282C51.3092 70.9594 51.3127 70.9907 51.3141 71.0219C51.3141 71.0815 51.3205 71.1398 51.3233 71.1966C51.3233 71.2373 51.3255 71.277 51.3297 71.3158C51.3347 71.4152 51.3404 71.5117 51.3446 71.604C51.3446 71.6402 51.3489 71.675 51.3503 71.7105C51.3517 71.746 51.3503 71.773 51.3553 71.8028C51.3602 71.8326 51.3553 71.8454 51.3588 71.8667C51.3588 71.9093 51.3631 71.9505 51.3652 71.9909C51.3673 72.0314 51.3694 72.0662 51.3709 72.1024C51.3751 72.189 51.3794 72.2713 51.3836 72.348C51.3836 72.3672 51.3836 72.3863 51.3836 72.4048C51.3836 72.4232 51.3836 72.441 51.3836 72.4594C51.3836 72.4779 51.3836 72.4949 51.3836 72.512C51.3836 72.529 51.3836 72.5581 51.3836 72.583C51.3836 72.6263 51.3879 72.6674 51.39 72.7058C51.3921 72.7441 51.39 72.7633 51.3943 72.7895C51.3985 72.8158 51.3943 72.8414 51.3978 72.8655C51.3978 72.8655 51.3978 72.8719 51.3978 72.8747C51.3978 72.906 51.3978 72.9351 51.4028 72.9613V72.9706C51.4028 72.9784 51.4028 72.9862 51.4028 72.994C51.4248 73.1076 51.4276 73.1665 51.4276 73.1665Z" fill="#120283"/>
<path d="M23.9978 19.7397C23.9978 19.7397 24.1872 22.8171 26.4093 25.6623C27.8612 27.5229 29.4344 27.2951 30.3487 26.9117C30.2813 25.7582 30.3082 24.3398 30.3777 22.5757L25.9937 19.996L23.9978 19.7397Z" fill="#120283"/>
<path d="M22.2479 16.5951C22.7976 16.5241 23.1579 16.6661 23.3714 16.8123C23.3374 13.9302 23.6225 10.4233 23.6225 10.4233H34.356L34.3276 16.7662C34.3276 16.7662 34.3077 17.08 34.3276 19.0698C34.3517 21.4869 32.387 25.1783 29.7556 25.1783C25.7078 25.1783 24.2232 22.2032 23.6558 19.9018C23.0175 20.0437 22.0167 20.1261 21.6698 19.3871C21.1471 18.2676 21.2521 16.7243 22.2479 16.5951Z" fill="#FFE6E6"/>
<path d="M28.1354 18.8558C28.31 18.8558 28.4515 18.7142 28.4515 18.5395C28.4515 18.3648 28.31 18.2231 28.1354 18.2231C27.9608 18.2231 27.8193 18.3648 27.8193 18.5395C27.8193 18.7142 27.9608 18.8558 28.1354 18.8558Z" fill="#120283"/>
<path d="M31.4413 18.8558C31.6159 18.8558 31.7574 18.7142 31.7574 18.5395C31.7574 18.3648 31.6159 18.2231 31.4413 18.2231C31.2668 18.2231 31.1252 18.3648 31.1252 18.5395C31.1252 18.7142 31.2668 18.8558 31.4413 18.8558Z" fill="#120283"/>
<path d="M29.4493 16.422C29.4493 16.422 29.2535 16.4746 28.3747 16.4746C27.496 16.4746 27.1051 16.5598 27.1215 16.4746C27.1924 16.1083 28.757 15.9251 29.0195 15.9642C29.2819 16.0032 29.5578 16.1864 29.4493 16.422Z" fill="#120283"/>
<path d="M30.8309 16.422C30.8309 16.422 31.0266 16.4746 31.9054 16.4746C32.7842 16.4746 33.175 16.5598 33.1587 16.4746C33.0878 16.1083 31.5231 15.9251 31.2607 15.9642C30.9983 16.0032 30.7224 16.1864 30.8309 16.422Z" fill="#120283"/>
<path d="M23.1189 16.5128L23.7714 18.7894C23.7714 18.7894 23.8197 16.0642 24.1332 14.3278C24.4467 12.5914 25.4099 12.1576 26.3858 11.9887C26.418 11.9837 26.4508 11.9837 26.483 11.9887H33.5297C33.5297 11.9887 35.5731 11.3193 33.5623 9.03911C33.3616 8.93689 32.1991 8.71469 31.9721 8.65293C29.2123 7.90542 25.0013 6.82569 24.2538 9.5048C24.2538 9.5048 23.1189 8.52373 22.7359 10.7755C22.3529 13.0273 23.1189 16.5128 23.1189 16.5128Z" fill="#120283"/>
<path d="M30.0536 20.751C30.1072 20.7357 30.162 20.7245 30.2174 20.7176C30.4415 20.6807 30.721 20.6346 30.765 20.477C30.7891 20.3918 30.7401 20.2988 30.616 20.193C30.1536 19.7962 30.2344 18.9223 30.2358 18.9152L30.1401 18.9053C30.1358 18.9436 30.0536 19.8381 30.5529 20.2675C30.6423 20.3442 30.6848 20.4095 30.6721 20.4528C30.6444 20.5515 30.3564 20.5991 30.2018 20.6246C30.1325 20.6296 30.0644 20.6459 30.0004 20.6729L30.0536 20.751Z" fill="#120283"/>
<path d="M30.0698 21.2327C30.0698 21.2327 29.2513 21.151 28.6903 20.8174C28.6903 20.8174 28.8272 21.8048 30.0698 21.2327Z" fill="#120283"/>
<path d="M32.9368 31.7029C31.5076 33.0516 28.2215 34.3678 20.8273 31.9691L20.8904 31.9449L20.9542 31.9194C20.9741 31.9116 20.9947 31.9031 21.0145 31.8938C21.2433 31.7936 21.4609 31.6694 21.6635 31.5233C21.699 31.4977 21.7344 31.4714 21.7699 31.4438L21.8352 31.3926C21.8784 31.3579 21.9217 31.3217 21.9642 31.2847C21.9855 31.2663 22.0068 31.2478 22.0281 31.2279L22.0905 31.1704L22.155 31.108C22.1969 31.0668 22.238 31.0242 22.2799 30.9802C22.3011 30.9582 22.321 30.9362 22.3409 30.9135L22.4019 30.8425C22.4224 30.8191 22.4423 30.7956 22.4622 30.7715C22.482 30.7474 22.5019 30.7232 22.521 30.7005L22.5778 30.6295C23.1232 29.9161 23.5615 28.93 23.7424 27.6338C25.1773 28.1307 27.7988 28.7583 30.4401 27.9632C30.6139 29.2637 30.977 30.1546 31.6459 30.8226C31.7069 30.8844 31.7707 30.944 31.8367 31.0008C31.8693 31.0306 31.9033 31.059 31.9374 31.086C31.9714 31.1129 32.0083 31.1421 32.0424 31.169C32.0764 31.196 32.1133 31.2237 32.1516 31.2492C32.1899 31.2748 32.2268 31.3025 32.2651 31.3273C32.4669 31.4618 32.6778 31.5821 32.8963 31.6872H32.8999L32.9368 31.7029Z" fill="#120283"/>
<path d="M22.4352 73.5251L15.097 73.6159L14.1303 73.628L12.2862 73.6507L11.3421 73.6621L10.1981 73.6763L6.58076 73.721L0.578857 73.792C0.578857 73.792 0.58595 73.5968 0.602973 73.2319C0.610066 73.0743 0.618577 72.8841 0.629216 72.664C0.637018 72.5128 0.64482 72.3481 0.654041 72.1671C0.663025 72.001 0.672482 71.8235 0.682412 71.6346C0.700853 71.3053 0.721422 70.9411 0.744828 70.5464C0.755704 70.3774 0.766343 70.2028 0.776746 70.0225C0.781001 69.9629 0.784548 69.9018 0.788094 69.8408C0.827104 69.2281 0.871789 68.5559 0.922857 67.8325C0.933259 67.6877 0.943899 67.541 0.954774 67.3924C0.966123 67.2433 0.976762 67.0928 0.98811 66.9402C0.98811 66.9082 0.993075 66.8756 0.995912 66.8429C1.00442 66.7222 1.01435 66.6001 1.02357 66.4766C1.02854 66.4106 1.0335 66.3439 1.03918 66.2771C1.04627 66.1863 1.05336 66.0947 1.06046 66.0024C1.07322 65.8429 1.08599 65.6813 1.09876 65.5176C1.11152 65.3538 1.125 65.1882 1.13919 65.0206C1.25622 63.6073 1.39523 62.0767 1.55908 60.4703C1.57823 60.2836 1.59738 60.0954 1.61795 59.9024C1.81229 58.0439 2.04351 56.0924 2.30736 54.1097C2.33219 53.9223 2.35843 53.7349 2.38468 53.5467C2.64853 51.63 2.9521 49.6828 3.29255 47.7718C3.32565 47.5825 3.3597 47.3951 3.39469 47.2096C3.49257 46.6833 3.59399 46.1568 3.69897 45.6301C3.79826 45.1289 3.9134 44.6464 4.04438 44.1826C4.0964 43.9966 4.15078 43.8139 4.20752 43.6346C4.26426 43.4552 4.32313 43.2782 4.38413 43.1036C4.47562 42.8424 4.5728 42.5875 4.67351 42.3383C4.78983 42.0515 4.91278 41.7726 5.04234 41.5014C5.06149 41.4595 5.08206 41.4176 5.10192 41.3757C5.17284 41.2337 5.24377 41.0918 5.3147 40.9498C5.35938 40.8632 5.40478 40.778 5.45159 40.6935C5.57311 40.4725 5.69794 40.2574 5.82609 40.0482C5.86935 39.9772 5.91262 39.9063 5.95588 39.841C6.04383 39.7037 6.13273 39.5691 6.22257 39.437C6.26797 39.371 6.31336 39.3057 6.35946 39.2411C6.58927 38.9169 6.82759 38.6076 7.07441 38.3133C7.12406 38.2544 7.17371 38.1954 7.22336 38.1379C7.42338 37.9065 7.62765 37.6843 7.83618 37.4713L7.99364 37.313C8.69558 36.6186 9.46251 35.9931 10.2839 35.4453C10.5572 35.2622 10.8319 35.0897 11.1081 34.9278C13.165 33.716 15.2928 33.0445 17.0071 32.6562C17.0575 32.6441 17.1071 32.6335 17.1561 32.6228C17.7029 32.5021 18.2065 32.4099 18.6498 32.3389C20.1428 35.9394 21.4805 42.9027 21.8224 44.7619C21.8784 45.0664 21.9093 45.3751 21.9146 45.6847L21.9855 49.3229L21.9912 49.636L22.4352 73.5251Z" fill="#EF9143"/>
<path d="M51.4275 73.167L48.7578 73.2004L44.7476 73.25L43.9972 73.2593L42.7914 73.2742L42.2892 73.2799L35.2348 73.3672L34.4475 48.6574L34.4375 48.3344L34.3822 46.5952C34.3646 46.0399 34.375 45.4841 34.4134 44.9298L35.2192 33.2997L35.2738 32.5132L35.3369 32.5302C35.4915 32.5714 35.6504 32.6147 35.8121 32.6601L36.0334 32.724L36.1965 32.7723L36.4029 32.8348C36.6866 32.9204 36.9777 33.0139 37.2761 33.1152C37.447 33.1727 37.6208 33.233 37.7952 33.2962L37.8555 33.3182L38.0144 33.3764C38.117 33.4138 38.2206 33.4526 38.3251 33.4928C38.5029 33.561 38.6823 33.632 38.8634 33.7058C39.2216 33.8478 39.5848 34.0061 39.9486 34.1722C40.1151 34.2474 40.2806 34.3255 40.4451 34.4065L40.6316 34.4973C41.0281 34.6918 41.4253 34.9005 41.819 35.1227L42.0154 35.2349L42.1417 35.3059C42.1928 35.335 42.2438 35.3655 42.2942 35.396C42.3445 35.4266 42.4055 35.4621 42.4609 35.4961L42.6027 35.5827C42.6916 35.6376 42.7798 35.693 42.8673 35.7488L42.8829 35.7588L42.99 35.8298L43.1382 35.9277C43.2092 35.9739 43.2801 36.02 43.346 36.0697C43.4297 36.1265 43.5127 36.1833 43.595 36.2422L43.7184 36.3302C43.8021 36.3894 43.8851 36.4497 43.9674 36.5113C44.0227 36.5515 44.0773 36.5927 44.1312 36.6348C44.2731 36.7427 44.4149 36.8541 44.5568 36.9684C44.622 37.021 44.6873 37.0742 44.7518 37.1282L44.9448 37.2914C45.1887 37.5006 45.4266 37.7178 45.6583 37.9431L45.7739 38.0567C45.7768 38.0589 45.7795 38.0616 45.7817 38.0645L45.8618 38.1447C45.9129 38.1965 45.964 38.2484 46.0143 38.3009L46.1321 38.4244C46.3647 38.6729 46.5889 38.9296 46.8045 39.1946C46.8435 39.2429 46.8832 39.2926 46.9215 39.3416L46.9634 39.3948C47.0009 39.4431 47.0378 39.4914 47.0747 39.5368C47.1229 39.6007 47.1705 39.6646 47.2166 39.7292C47.2627 39.7938 47.3102 39.8598 47.3584 39.9251C47.4067 39.9904 47.4499 40.0572 47.4946 40.1239C47.584 40.2573 47.671 40.3929 47.7556 40.5306C47.7975 40.6016 47.8393 40.6684 47.8804 40.7386C47.9216 40.8089 47.9613 40.8806 48.001 40.9516C48.0407 41.0226 48.0798 41.0936 48.1181 41.1646C48.1422 41.2093 48.1656 41.2533 48.189 41.298C48.2124 41.3428 48.2351 41.3882 48.2599 41.4329C48.3053 41.5231 48.3493 41.6139 48.3925 41.7062C48.4145 41.7531 48.4358 41.7999 48.4571 41.8482C48.4706 41.8773 48.484 41.9071 48.4968 41.9369C48.4971 41.9398 48.4971 41.9426 48.4968 41.9455C48.5195 41.9959 48.5415 42.0463 48.5628 42.0974C48.5841 42.1485 48.6146 42.2202 48.6394 42.2819L48.6479 42.3025C48.6734 42.3671 48.699 42.4317 48.7231 42.4963C48.7472 42.5609 48.7741 42.6319 48.7983 42.7001C48.8472 42.8364 48.894 42.9748 48.9401 43.1139C48.9621 43.1849 48.9827 43.2502 49.0032 43.3191C49.0029 43.321 49.0029 43.3229 49.0032 43.3248C49.0238 43.3957 49.0444 43.4667 49.0635 43.5377C49.0798 43.5966 49.0954 43.6556 49.111 43.7152L49.1281 43.7826C49.1437 43.8451 49.1593 43.9076 49.1735 43.9708C49.1855 44.0204 49.1969 44.0701 49.2075 44.1205C49.2075 44.1312 49.2125 44.1411 49.2139 44.1518C49.2203 44.1773 49.2252 44.2029 49.2309 44.2292C49.2437 44.2909 49.2557 44.3527 49.2678 44.4137C49.2799 44.4748 49.2933 44.55 49.3054 44.6189C49.3174 44.6877 49.3295 44.7609 49.3409 44.8318C49.3451 44.861 49.3501 44.8901 49.3543 44.9192C49.3628 44.9781 49.3713 45.037 49.3792 45.0966C49.4501 45.6518 49.5267 46.2708 49.6004 46.9423C49.6068 47.0084 49.6146 47.0751 49.6217 47.1418C49.6317 47.232 49.6409 47.3228 49.6508 47.4144C49.6702 47.599 49.6893 47.7871 49.7083 47.9788C49.7246 48.1378 49.7409 48.2996 49.7565 48.4629C49.765 48.5453 49.7728 48.6276 49.7806 48.71C49.7884 48.7923 49.7969 48.8768 49.8047 48.9606C49.8307 49.2374 49.857 49.5195 49.8834 49.8067C49.8991 49.9771 49.9144 50.1491 49.9296 50.3228C49.9764 50.8489 50.0225 51.3877 50.0714 51.9414C50.087 52.125 50.1021 52.31 50.1168 52.4965C50.1246 52.5895 50.1324 52.6832 50.1395 52.7769C50.1438 52.8323 50.1487 52.8869 50.153 52.9423C50.1526 52.9439 50.1526 52.9456 50.153 52.9473L50.1615 53.0587C50.1615 53.0822 50.1615 53.1063 50.1672 53.1297C50.1757 53.2348 50.1835 53.3427 50.192 53.4449C50.2005 53.5471 50.2083 53.6579 50.2168 53.7622C50.231 53.9504 50.2459 54.1392 50.2601 54.3301C50.331 55.2821 50.4019 56.2511 50.4729 57.2222C50.4899 57.465 50.5067 57.7078 50.5232 57.9506C50.5232 57.9669 50.5232 57.9832 50.5268 57.9995L50.5651 58.554C50.5788 58.7613 50.5927 58.9678 50.6069 59.1737C50.6183 59.3412 50.6289 59.5088 50.6402 59.6763L50.67 60.1271C50.6821 60.3166 50.6949 60.5062 50.7069 60.695C50.7154 60.8235 50.7232 60.952 50.7317 61.0805C50.7469 61.3138 50.7618 61.5464 50.7764 61.7783C50.7882 61.9676 50.8001 62.1569 50.8119 62.3462C50.8237 62.5355 50.8351 62.7184 50.8459 62.8949C50.8459 62.9212 50.8459 62.9475 50.8509 62.9737C50.8665 63.2217 50.8816 63.4673 50.8963 63.7106C50.8963 63.7184 50.8963 63.7255 50.8963 63.7333C50.918 64.0901 50.9393 64.442 50.9601 64.7889C50.9871 65.2352 51.0131 65.6713 51.0381 66.0972C51.0457 66.2321 51.0535 66.3656 51.0616 66.4976C51.0616 66.5295 51.0651 66.5622 51.0672 66.5941C51.0757 66.7527 51.0847 66.9086 51.0942 67.062C51.0942 67.1067 51.0991 67.1514 51.102 67.1954C51.107 67.2834 51.1119 67.3715 51.1169 67.4581C51.1218 67.5447 51.1268 67.6334 51.1318 67.72C51.1367 67.8066 51.1424 67.911 51.1481 68.004L51.1545 68.1154C51.1587 68.1942 51.163 68.273 51.1672 68.3504C51.1743 68.4739 51.1814 68.596 51.1878 68.7153C51.1878 68.7692 51.1942 68.8225 51.197 68.8757C51.2084 69.0863 51.2197 69.2908 51.2311 69.4891C51.2311 69.5373 51.236 69.5856 51.2389 69.631C51.2389 69.6672 51.2424 69.702 51.2446 69.7397C51.2446 69.8064 51.2516 69.8731 51.2559 69.9384C51.2602 70.0037 51.263 70.0804 51.2672 70.1514C51.2672 70.1819 51.2672 70.2124 51.2722 70.2423L51.2786 70.3608C51.2786 70.4105 51.2836 70.4595 51.2864 70.5077C51.2892 70.556 51.2928 70.6228 51.2956 70.6788C51.3006 70.7633 51.3048 70.8457 51.3091 70.9266C51.3091 70.9578 51.3126 70.9891 51.3141 71.0203C51.3141 71.0799 51.3204 71.1381 51.3233 71.1949C51.3233 71.2356 51.3254 71.2754 51.3297 71.3142C51.3346 71.4136 51.3403 71.5101 51.3446 71.6024C51.3446 71.6386 51.3488 71.6734 51.3502 71.7089C51.3517 71.7444 51.3502 71.7714 51.3552 71.8012C51.3602 71.831 51.3552 71.8438 51.3587 71.8651C51.3587 71.9076 51.363 71.9488 51.3651 71.9893C51.3673 72.0297 51.3694 72.0645 51.3708 72.1007C51.3751 72.1873 51.3793 72.2697 51.3836 72.3464C51.3836 72.3655 51.3836 72.3847 51.3836 72.4031C51.3836 72.4216 51.3836 72.4394 51.3836 72.4578C51.3836 72.4763 51.3836 72.4933 51.3836 72.5103C51.3836 72.5274 51.3836 72.5565 51.3836 72.5813C51.3836 72.6246 51.3878 72.6658 51.39 72.7041C51.3921 72.7425 51.39 72.7616 51.3942 72.7879C51.3985 72.8142 51.3942 72.8397 51.3978 72.8639C51.3978 72.8639 51.3978 72.8703 51.3978 72.8731C51.3978 72.9043 51.3978 72.9334 51.4027 72.9597V72.9689C51.4027 72.9767 51.4027 72.9845 51.4027 72.9924C51.4247 73.1081 51.4275 73.167 51.4275 73.167Z" fill="#EF9143"/>
<path d="M38.8733 38.7873L38.8556 38.8264L34.4474 48.6569L34.4375 48.3339L38.7088 38.8079L36.8405 36.4348L38.3555 35.568L37.8591 33.3184L38.0179 33.3766L38.5201 35.639L37.0561 36.4759L38.8733 38.7873Z" fill="#AD551A"/>
<path d="M16.3688 39.0268L18.0462 36.5805L16.5184 35.8351L17.0078 32.6584C17.0582 32.6463 17.1078 32.6356 17.1568 32.625L16.6745 35.7556L18.2562 36.5272L16.5369 39.036L21.9862 49.3222L21.9919 49.6353L16.3688 39.0268Z" fill="#AD551A"/>
<path d="M44.7476 73.2493L43.9972 73.2586L41.8013 45.5488L44.7476 73.2493Z" fill="#D3722A"/>
<path d="M11.3414 73.6636L10.1973 73.6778C10.0931 66.579 10.3108 47.7861 10.3108 47.7861L11.3414 73.6636Z" fill="#D3722A"/>
<path d="M50.1566 52.9436C50.1563 52.9422 50.1563 52.9408 50.1566 52.9394C48.4167 38.7218 40.0849 34.241 39.9543 34.1714C40.1208 34.2466 40.2863 34.3247 40.4508 34.4057L40.6374 34.4965C41.0339 34.691 41.4311 34.8997 41.8247 35.1219L42.0212 35.2341L42.1474 35.3051C42.1985 35.3342 42.2496 35.3647 42.2999 35.3952C42.3503 35.4258 42.4113 35.4613 42.4666 35.4953L42.6085 35.5819C42.6974 35.6368 42.7855 35.6922 42.873 35.748L42.8886 35.758L42.9957 35.829L43.144 35.9269C43.2149 35.9731 43.2858 36.0192 43.3518 36.0689C43.4355 36.1257 43.5185 36.1825 43.6007 36.2414L43.7242 36.3294C43.8078 36.3886 43.8908 36.4489 43.9731 36.5105C44.0284 36.5507 44.083 36.5919 44.137 36.634C44.2788 36.7419 44.4207 36.8533 44.5625 36.9676C44.6278 37.0202 44.693 37.0734 44.7576 37.1274L44.9505 37.2906C45.1945 37.4998 45.4323 37.717 45.664 37.9423L45.7796 38.0559C45.7826 38.0581 45.7852 38.0608 45.7874 38.0637L45.8676 38.1439C45.9187 38.1957 45.9697 38.2476 46.0201 38.3001L46.1378 38.4236C46.3705 38.6721 46.5946 38.9288 46.8102 39.1938C46.8492 39.2421 46.8889 39.2918 46.9272 39.3408L46.9691 39.394C47.0067 39.4423 47.0436 39.4906 47.0805 39.536C47.1287 39.5999 47.1762 39.6638 47.2223 39.7284C47.2684 39.793 47.3159 39.859 47.3642 39.9243C47.4124 39.9896 47.4557 40.0564 47.5003 40.1231C47.5897 40.2565 47.6767 40.3921 47.7614 40.5298C47.8032 40.6008 47.8451 40.6676 47.8862 40.7378C47.9273 40.8081 47.9671 40.8798 48.0068 40.9508C48.0465 41.0218 48.0855 41.0928 48.1238 41.1638C48.1479 41.2085 48.1713 41.2525 48.1947 41.2972C48.2181 41.342 48.2408 41.3874 48.2657 41.4321C48.3111 41.5223 48.355 41.6131 48.3983 41.7054C48.4203 41.7523 48.4416 41.7991 48.4628 41.8474C48.4763 41.8765 48.4898 41.9063 48.5026 41.9361C48.5028 41.939 48.5028 41.9418 48.5026 41.9446C48.5253 41.9951 48.5472 42.0455 48.5685 42.0966C48.5898 42.1477 48.6203 42.2194 48.6451 42.2811L48.6536 42.3017C48.6792 42.3663 48.7047 42.4309 48.7288 42.4955C48.7529 42.5601 48.7799 42.6311 48.804 42.6993C48.8536 42.8356 48.8997 42.974 48.9459 43.1131C48.9678 43.1841 48.9884 43.2494 49.009 43.3183C49.0087 43.3202 49.0087 43.3221 49.009 43.324C49.0295 43.3949 49.0501 43.4659 49.0693 43.5369C49.0856 43.5958 49.1012 43.6548 49.1168 43.7144L49.1338 43.7818C49.1494 43.8443 49.165 43.9068 49.1792 43.97C49.1913 44.0197 49.2026 44.0693 49.2133 44.1197C49.2133 44.1304 49.2182 44.1403 49.2196 44.151C49.226 44.1765 49.231 44.2021 49.2367 44.2284C49.2494 44.2901 49.2615 44.3519 49.2735 44.4129C49.2856 44.474 49.2991 44.5492 49.3111 44.6181C49.3232 44.6869 49.3352 44.7601 49.3466 44.8311C49.3509 44.8602 49.3558 44.8893 49.3601 44.9184C49.3686 44.9773 49.3771 45.0362 49.3849 45.0958C49.4558 45.651 49.5324 46.27 49.6062 46.9415C49.6126 47.0076 49.6204 47.0743 49.6275 47.141C49.6374 47.2312 49.6466 47.322 49.6565 47.4136C49.6759 47.5982 49.6951 47.7863 49.714 47.978C49.7305 48.137 49.7466 48.2984 49.7622 48.4621C49.7707 48.5445 49.7785 48.6268 49.7863 48.7092C49.7941 48.7915 49.8027 48.876 49.8105 48.9598C49.8365 49.2366 49.8627 49.5187 49.8892 49.8059C49.9048 49.9763 49.9202 50.1483 49.9353 50.322C49.9821 50.8481 50.0282 51.3869 50.0771 51.9406C50.0928 52.1242 50.1079 52.3092 50.1225 52.4957C50.1303 52.5887 50.1381 52.6824 50.1452 52.7761C50.1452 52.8336 50.1502 52.8883 50.1566 52.9436Z" fill="#120283"/>
<path d="M34.9134 13.8569C35.0553 15.4655 34.3276 16.7674 34.3276 16.7674C32.5586 17.2381 32.0444 14.4291 31.6543 13.1378C31.0422 11.1146 30.0003 12.3924 30.0003 12.3924C28.2051 11.2388 27.8682 13.1023 26.6269 15.09C25.3857 17.0777 23.3692 16.5147 23.3692 16.5147L20.6172 12.7119C20.281 10.6177 20.5981 8.0266 22.3713 7.79589C24.1445 7.56518 24.9601 7.24573 27.1866 6.32287C29.413 5.40002 30.3783 6.74881 30.3783 6.74881C33.3722 5.75496 34.8872 8.45608 35.2723 10.174C35.6872 12.9937 34.9134 13.8569 34.9134 13.8569Z" fill="#120283"/>
<path d="M30.0004 12.3896C30.0004 12.3896 29.0868 11.7266 28.6904 12.3896C28.2939 13.0527 27.0881 18.8255 24.5581 17.4057C24.5581 17.4057 25.5603 17.6527 26.3313 15.959C27.1023 14.2652 27.3867 12.2235 28.3485 11.8217C29.3103 11.4199 29.7677 11.6322 30.0004 12.3896Z" fill="#120283"/>
</g>
</svg>
