<svg width="54" height="54" viewBox="0 0 54 54" fill="none" xmlns="http://www.w3.org/2000/svg">
<path d="M27.0781 53.0456C41.7137 53.0456 53.5781 41.1709 53.5781 26.5228C53.5781 11.8747 41.7137 0 27.0781 0C12.4426 0 0.578125 11.8747 0.578125 26.5228C0.578125 41.1709 12.4426 53.0456 27.0781 53.0456Z" fill="#FFC7C7"/>
<mask id="mask0_259_204" style="mask-type:alpha" maskUnits="userSpaceOnUse" x="0" y="0" width="54" height="54">
<path d="M27.0781 53.0456C41.7137 53.0456 53.5781 41.1709 53.5781 26.5228C53.5781 11.8747 41.7137 0 27.0781 0C12.4426 0 0.578125 11.8747 0.578125 26.5228C0.578125 41.1709 12.4426 53.0456 27.0781 53.0456Z" fill="#FFC7C7"/>
</mask>
<g mask="url(#mask0_259_204)">
<path d="M24.2516 10.167C24.2516 10.167 22.3955 8.61446 21.1897 10.4957C19.9839 12.3769 21.001 14.7905 21.3613 15.7488C21.7216 16.7072 22.7856 21.479 22.7856 21.479C22.7856 21.479 22.9983 22.2798 24.5588 23.3446C26.1192 24.4094 25.8355 21.4123 25.8355 21.4123L24.2516 10.167Z" fill="#120283"/>
<path d="M51.4276 73.8278L48.7579 73.8612L44.7476 73.9109L43.9972 73.9201L42.7914 73.935L42.2893 73.9407L35.2348 74.028L30.7181 74.0841L22.4373 74.187L15.0991 74.2779L14.1324 74.29L12.2883 74.3127L11.3442 74.324L10.2002 74.3382L6.58286 74.3829L0.580962 74.4539H0.578125C0.578125 74.4539 0.578125 74.405 0.584508 74.312C0.584508 74.2843 0.584508 74.2516 0.588055 74.2154C0.588055 74.1913 0.588055 74.165 0.588055 74.1366C0.588757 74.1345 0.588757 74.1323 0.588055 74.1302C0.595857 73.9485 0.607915 73.6915 0.623519 73.3678V73.3273C0.627774 73.2521 0.631321 73.1726 0.635576 73.0902C0.635576 73.0384 0.640541 72.9845 0.643378 72.9291C0.643378 72.8979 0.646925 72.8659 0.648343 72.8333C0.656855 72.6672 0.666312 72.4897 0.676714 72.3009C0.681679 72.2185 0.685935 72.134 0.6909 72.0474C0.695865 71.9608 0.70083 71.8721 0.705795 71.7812C0.715725 71.5995 0.726837 71.4102 0.739131 71.2133C0.739131 71.1714 0.744096 71.1288 0.746933 71.0855C0.754735 70.957 0.762537 70.825 0.771048 70.6894C0.775304 70.6298 0.77885 70.5687 0.782397 70.5077C0.787362 70.431 0.792327 70.3536 0.797292 70.2748C0.807221 70.1187 0.817151 69.9575 0.8285 69.7935C0.849778 69.4656 0.873421 69.1239 0.899427 68.7685C0.905811 68.6797 0.912194 68.5896 0.918578 68.4994C0.928981 68.3546 0.93962 68.2079 0.950495 68.0593C0.961844 67.9102 0.972483 67.7597 0.983831 67.6071C0.983831 67.5751 0.988796 67.5425 0.991633 67.5098C1.00014 67.3891 1.01007 67.2671 1.0193 67.1435C1.02426 67.0775 1.02923 67.0108 1.0349 66.9441C1.04199 66.8532 1.04908 66.7616 1.05618 66.6693C1.06894 66.5098 1.08171 66.3482 1.09448 66.1845C1.10725 66.0207 1.12072 65.8551 1.13491 65.6876C1.19378 64.9777 1.25761 64.2451 1.32712 63.4869C1.34509 63.2976 1.36306 63.1059 1.38103 62.9119C1.39876 62.7195 1.41791 62.525 1.43635 62.3291C1.45479 62.1331 1.47465 61.9365 1.49451 61.7377C1.51437 61.539 1.53423 61.3402 1.5548 61.1393C1.57395 60.9526 1.5931 60.7645 1.61367 60.5714C1.65008 60.2226 1.68767 59.871 1.72644 59.5165C1.79122 58.9259 1.85955 58.3277 1.93143 57.7219C1.94632 57.5941 1.96192 57.4663 1.97682 57.3386C2.00235 57.132 2.02718 56.9247 2.05271 56.7167C2.08676 56.4418 2.12151 56.1663 2.15698 55.8904C2.18866 55.6438 2.22081 55.397 2.25344 55.15C2.26975 55.0265 2.28606 54.9029 2.30309 54.7787C2.32791 54.5913 2.35415 54.4039 2.3804 54.2158C2.4083 54.0128 2.43667 53.8095 2.46551 53.606C2.49246 53.4157 2.51942 53.2248 2.54779 53.0338C2.56765 52.8918 2.58822 52.7513 2.60949 52.6121C2.71305 51.9023 2.82228 51.1973 2.9386 50.4917C2.97122 50.2873 3.00456 50.0835 3.03932 49.8791C3.07904 49.6391 3.12017 49.3985 3.16202 49.1593C3.19961 48.9392 3.23862 48.7191 3.27763 48.5005L3.28827 48.4409L3.29891 48.3819C3.3287 48.2144 3.3592 48.0462 3.39041 47.8786C3.45566 47.5218 3.52257 47.1668 3.59113 46.8138C3.62518 46.6382 3.65946 46.4633 3.69398 46.2892C3.79328 45.788 3.90842 45.3055 4.0394 44.8417C4.09141 44.6557 4.14579 44.4731 4.20253 44.2937C4.25927 44.1143 4.31814 43.9373 4.37914 43.7627C4.47064 43.5015 4.56781 43.2466 4.66852 42.9974C4.70186 42.9144 4.73945 42.832 4.77137 42.7511C4.79974 42.6801 4.82882 42.6169 4.85861 42.5502C4.8884 42.4835 4.91322 42.4267 4.9416 42.3656C4.96997 42.3046 5.00543 42.2279 5.03735 42.1605C5.0565 42.1186 5.07707 42.0767 5.09693 42.0348C5.13168 41.9638 5.16785 41.8929 5.20261 41.8219C5.23736 41.7509 5.27354 41.6799 5.31113 41.6089L5.35794 41.5195C5.38773 41.4634 5.41752 41.408 5.44802 41.3526C5.56954 41.1316 5.69438 40.9165 5.82252 40.7073C5.86578 40.6364 5.90905 40.5654 5.95232 40.5001C6.03979 40.3628 6.12869 40.2282 6.219 40.0961C6.2644 40.0301 6.30979 39.9648 6.35589 39.9002C6.41335 39.8193 6.47151 39.7391 6.52967 39.6596C6.58783 39.58 6.64741 39.5027 6.70699 39.4253C6.79635 39.3089 6.88691 39.1951 6.97864 39.0838C7.00914 39.0462 7.04035 39.0128 7.07084 38.9724C7.12049 38.9135 7.17014 38.8545 7.21979 38.797C7.41934 38.5656 7.62361 38.3434 7.83261 38.1305L7.99007 37.9722C8.03546 37.9274 8.08085 37.8827 8.12696 37.8387C8.21775 37.7502 8.30995 37.6631 8.40358 37.5775C8.44968 37.5349 8.49649 37.493 8.54543 37.4511C8.68729 37.3257 8.82914 37.2036 8.971 37.0848C9.01497 37.0479 9.05824 37.0138 9.10221 36.9769C9.11782 36.9634 9.13413 36.9506 9.15044 36.9378C9.22894 36.874 9.30838 36.811 9.38876 36.749C9.44125 36.7086 9.49444 36.6674 9.54835 36.6276C9.64528 36.5547 9.74269 36.4838 9.84057 36.4147L9.9881 36.3096L10.1144 36.2216C10.1711 36.1825 10.2271 36.1442 10.2839 36.1066L10.2895 36.103L10.4456 35.9994L10.5321 35.9433L10.6882 35.8439L10.9009 35.7126L11.0995 35.594L11.108 35.5891L11.2499 35.5067L11.3343 35.4584L11.3705 35.4379L11.5336 35.347L11.6322 35.293L11.7223 35.2441C11.8239 35.1901 11.9249 35.1373 12.0251 35.0858L12.0769 35.0595L12.2706 34.9629L12.2876 34.9544L12.4181 34.8905L12.5443 34.8302L12.5805 34.8139L12.6578 34.7777C12.6649 34.7734 12.6727 34.7706 12.6798 34.767L12.8103 34.7074L12.8515 34.6889C12.9403 34.6492 13.029 34.6101 13.1174 34.5718L13.2125 34.5299L13.3309 34.4802L13.3799 34.4603C13.4508 34.4305 13.5217 34.4021 13.5926 34.3737C13.6636 34.3453 13.7388 34.3148 13.8118 34.2871L13.9778 34.2232L14.0012 34.2147L14.1317 34.1657L14.2324 34.1288L14.314 34.099L14.3594 34.0827L14.4856 34.038L14.6112 33.9947L14.7367 33.9521L14.7913 33.9336L14.9098 33.8946L14.9686 33.8761L15.1155 33.8285L15.2602 33.7902L15.4375 33.7355L15.463 33.7277L15.6531 33.6724L15.8311 33.6205L16.0028 33.5737L16.1567 33.5318L16.1964 33.5212L16.4134 33.4651L16.4922 33.4452L16.5276 33.4367L16.6099 33.4168L16.8121 33.3678L17.0206 33.3196L17.0596 33.311L17.0809 33.3061L17.1213 33.2968L17.1546 33.2897L17.1866 33.2826L17.3242 33.2528L17.3951 33.2372L17.5192 33.2109L17.7036 33.174L17.7476 33.1655L17.9377 33.1286L17.9958 33.1179L18.0668 33.1052L18.1944 33.0817L18.2178 33.0775L18.2888 33.0654L18.3597 33.0533L18.4462 33.0384L18.6157 33.01L18.6505 33.0044L18.8257 32.9767L18.9115 32.9632L18.9378 32.9589L19.0796 32.9376H19.0924L19.3094 32.9064L19.5768 32.8688L19.7329 32.8475L19.8747 32.829L19.9705 32.8162L20.0286 32.8084L20.0797 32.8013L20.1315 32.7942L20.2137 32.7822C20.3556 32.7623 20.4599 32.7445 20.5308 32.7275L20.5698 32.7176C20.5939 32.7112 20.6187 32.7048 20.6407 32.697L20.7031 32.6785L20.7663 32.6579L20.8301 32.6359L20.8932 32.6118L20.9571 32.5862C20.9769 32.5784 20.9975 32.5699 21.0174 32.5607C21.2462 32.4604 21.4637 32.3362 21.6663 32.1901C21.7018 32.1646 21.7373 32.1383 21.7727 32.1106L21.838 32.0595C21.8813 32.0247 21.9245 31.9885 21.9671 31.9516C21.9884 31.9331 22.0096 31.9147 22.0309 31.8948L22.0933 31.8373L22.1579 31.7748C22.1784 31.7543 22.1997 31.7337 22.2203 31.7124L22.2827 31.6471C22.304 31.6251 22.3238 31.603 22.3437 31.5803L22.4047 31.5093C22.4253 31.4859 22.4451 31.4625 22.465 31.4384C22.4848 31.4142 22.5047 31.3901 22.5239 31.3674L22.5806 31.2964C23.126 30.5829 23.5644 29.5969 23.7452 28.3007C23.7452 28.2886 23.7495 28.2758 23.7509 28.263C23.9374 26.888 23.9353 24.7072 23.8864 22.8459C23.8701 22.2524 23.8495 21.6902 23.8282 21.1982C23.7807 20.0944 23.7318 19.3369 23.7318 19.3369H23.736L23.7729 19.3589L25.7064 20.4947L25.9943 20.6644L30.3756 23.2427C30.3387 24.1862 30.3131 25.0302 30.3089 25.7884C30.306 26.1632 30.3086 26.5181 30.3167 26.8532C30.3167 26.9803 30.3238 27.1038 30.3287 27.2252C30.3337 27.3466 30.3387 27.4644 30.3458 27.5801C30.3678 27.9564 30.399 28.3042 30.4429 28.6272C30.6167 29.9277 30.9799 30.8186 31.6487 31.4866C31.7097 31.5484 31.7735 31.608 31.8395 31.6648C31.8721 31.6946 31.9062 31.723 31.9402 31.75C31.9743 31.777 32.0111 31.8061 32.0452 31.8331C32.0792 31.86 32.1161 31.8877 32.1544 31.9133C32.1927 31.9388 32.2296 31.9665 32.2679 31.9914C32.4172 32.0913 32.5718 32.183 32.7311 32.2661C32.7859 32.295 32.8419 32.3233 32.8992 32.3513H32.9027L32.9396 32.369L33.0389 32.4159C33.0864 32.4386 33.1346 32.4606 33.1807 32.4812C33.2268 32.5018 33.2793 32.5245 33.3297 32.5451C33.3772 32.5657 33.4247 32.5855 33.4715 32.6047L33.6361 32.6686C33.7486 32.7112 33.8654 32.7531 33.9865 32.7942C34.0297 32.8099 34.0737 32.8241 34.1184 32.839C34.2603 32.8858 34.4078 32.9327 34.5596 32.9809L34.5773 32.9859L34.7007 33.0221L34.7539 33.0377L34.9795 33.1023L35.2681 33.1804L35.3313 33.1975C35.4859 33.2386 35.6448 33.2819 35.8065 33.3274L36.0278 33.3913L36.1909 33.4395L36.3973 33.502C36.681 33.5877 36.9721 33.6811 37.2704 33.7824C37.4414 33.8399 37.6151 33.9002 37.7896 33.9634L37.8499 33.9854L38.0088 34.0436C38.1114 34.081 38.215 34.1198 38.3195 34.1601C38.4972 34.2282 38.6767 34.2992 38.8578 34.373C39.216 34.515 39.5791 34.6733 39.943 34.8394C40.1094 34.9147 40.2749 34.9928 40.4395 35.0737L40.626 35.1645C41.0225 35.3591 41.4197 35.5678 41.8133 35.79L42.0098 35.9021L42.1361 35.9731C42.1871 36.0022 42.2382 36.0327 42.2886 36.0633C42.3389 36.0938 42.3999 36.1293 42.4552 36.1634L42.5971 36.25C42.686 36.3049 42.7742 36.3602 42.8617 36.4161L42.8773 36.426L42.9844 36.497L43.1326 36.595C43.2035 36.6411 43.2745 36.6873 43.3404 36.7369C43.4241 36.7937 43.5071 36.8505 43.5894 36.9095L43.7128 36.9975C43.7965 37.0566 43.8795 37.117 43.9617 37.1785C44.0171 37.2187 44.0717 37.2599 44.1256 37.302C44.2674 37.4099 44.4093 37.5214 44.5512 37.6357C44.6164 37.6882 44.6817 37.7414 44.7462 37.7954L44.9391 37.9587C45.1831 38.1678 45.421 38.3851 45.6527 38.6103L45.7683 38.7239C45.7712 38.7262 45.7738 38.7288 45.7761 38.7317L45.8562 38.8119C45.9073 38.8638 45.9584 38.9156 46.0087 38.9681L46.1265 39.0916C46.3591 39.3401 46.5832 39.5968 46.7989 39.8619C46.8379 39.9101 46.8776 39.9598 46.9159 40.0088L46.9577 40.0621C46.9953 40.1103 47.0322 40.1586 47.0691 40.204C47.1173 40.2679 47.1648 40.3318 47.2109 40.3964C47.257 40.461 47.3046 40.527 47.3528 40.5923C47.401 40.6577 47.4443 40.7244 47.489 40.7911C47.5784 40.9246 47.6654 41.0602 47.75 41.1979C47.7918 41.2689 47.8337 41.3356 47.8748 41.4059C47.916 41.4762 47.9557 41.5479 47.9954 41.6188C48.0351 41.6898 48.0741 41.7608 48.1124 41.8318C48.1366 41.8765 48.16 41.9205 48.1834 41.9653C48.2068 42.01 48.2295 42.0554 48.2543 42.1001C48.2997 42.1903 48.3437 42.2812 48.3869 42.3734C48.4089 42.4203 48.4302 42.4672 48.4515 42.5154C48.4649 42.5445 48.4784 42.5743 48.4912 42.6042C48.4915 42.607 48.4915 42.6099 48.4912 42.6127C48.5139 42.6631 48.5359 42.7135 48.5572 42.7646C48.5784 42.8157 48.6089 42.8874 48.6338 42.9492L48.6423 42.9698C48.6678 43.0344 48.6933 43.099 48.7175 43.1636C48.7416 43.2282 48.7685 43.2991 48.7926 43.3673C48.8423 43.5036 48.8884 43.642 48.9345 43.7812C48.9565 43.8521 48.977 43.9175 48.9976 43.9863C48.9973 43.9882 48.9973 43.9901 48.9976 43.992C49.0182 44.063 49.0388 44.134 49.0579 44.205C49.0742 44.2639 49.0898 44.3228 49.1054 44.3824L49.1224 44.4499C49.1381 44.5123 49.1537 44.5748 49.1678 44.638C49.1799 44.6877 49.1912 44.7374 49.2019 44.7878C49.2019 44.7984 49.2069 44.8084 49.2083 44.819C49.2147 44.8446 49.2196 44.8701 49.2253 44.8964C49.2381 44.9581 49.2501 45.0199 49.2622 45.081C49.2742 45.142 49.2877 45.2173 49.2998 45.2861C49.3118 45.355 49.3239 45.4281 49.3352 45.4991C49.3395 45.5282 49.3445 45.5573 49.3487 45.5864C49.3572 45.6453 49.3657 45.7042 49.3735 45.7639C49.4445 46.319 49.5211 46.938 49.5948 47.6096C49.6012 47.6756 49.609 47.7423 49.6161 47.8091C49.626 47.8992 49.6353 47.9901 49.6452 48.0817C49.6646 48.2662 49.6837 48.4543 49.7026 48.646C49.7192 48.805 49.7353 48.9664 49.7509 49.1302C49.7594 49.2125 49.7672 49.2948 49.775 49.3772C49.7828 49.4595 49.7913 49.544 49.7991 49.6278C49.8251 49.9046 49.8513 50.1867 49.8778 50.474C49.8934 50.6443 49.9083 50.8161 49.9239 50.9901C49.9707 51.5161 50.0168 52.0549 50.0658 52.6086C50.0814 52.7922 50.0965 52.9773 50.1112 53.1637C50.119 53.2567 50.1268 53.3504 50.1339 53.4441L50.1466 53.6053C50.1463 53.6067 50.1463 53.6081 50.1466 53.6095C50.1466 53.6479 50.1523 53.6869 50.1559 53.726C50.1559 53.7494 50.1559 53.7735 50.1615 53.7969C50.1693 53.9013 50.1779 54.0099 50.1864 54.1121C50.1949 54.2144 50.2027 54.3251 50.2112 54.4295C50.2254 54.6176 50.2403 54.8064 50.2545 54.9974C50.3254 55.9493 50.3963 56.9183 50.4672 57.8894C50.4843 58.1322 50.501 58.375 50.5176 58.6178C50.5176 58.6341 50.5176 58.6504 50.5211 58.6668L50.5594 59.2212C50.5732 59.4285 50.5871 59.6351 50.6013 59.8409C50.6126 60.0085 50.6233 60.176 50.6346 60.3435L50.6644 60.7943C50.6765 60.9838 50.6892 61.1734 50.7013 61.3622C50.7098 61.4907 50.7176 61.6192 50.7261 61.7477C50.7413 61.981 50.7561 62.2136 50.7708 62.4455C50.7826 62.6348 50.7944 62.8241 50.8063 63.0134C50.8181 63.2027 50.8294 63.3856 50.8403 63.5621C50.8403 63.5884 50.8403 63.6147 50.8453 63.6409C50.8609 63.8887 50.8758 64.1379 50.8907 64.3778C50.8907 64.3856 50.8907 64.3927 50.8907 64.4005C50.9124 64.7574 50.9337 65.1092 50.9545 65.4561C50.9815 65.9024 51.0075 66.3385 51.0325 66.7644C51.0401 66.8993 51.0479 67.0328 51.0559 67.1648C51.0559 67.1968 51.0595 67.2294 51.0616 67.2614C51.0708 67.419 51.0793 67.5751 51.0886 67.7292C51.0886 67.7739 51.0935 67.8186 51.0964 67.8626C51.1013 67.9514 51.1063 68.0387 51.1113 68.1253C51.1162 68.2119 51.1212 68.3006 51.1262 68.3872C51.1311 68.4739 51.1368 68.5782 51.1425 68.6712L51.1489 68.7827C51.1531 68.8622 51.1574 68.9402 51.1616 69.0176C51.1687 69.1411 51.1758 69.2632 51.1822 69.3825C51.1822 69.4365 51.1886 69.4897 51.1914 69.5429C51.2028 69.7535 51.2141 69.958 51.2255 70.1563C51.2255 70.2046 51.2304 70.2528 51.2333 70.2983C51.2333 70.3345 51.2368 70.3693 51.2389 70.4069C51.2389 70.4779 51.2467 70.5403 51.2503 70.6056C51.2538 70.671 51.2574 70.7476 51.2616 70.8186C51.2616 70.8491 51.2616 70.8797 51.2666 70.9095L51.273 71.028C51.273 71.0777 51.2779 71.1267 51.2808 71.175C51.2836 71.2232 51.2872 71.29 51.29 71.3461C51.295 71.4305 51.2992 71.5129 51.3035 71.5938C51.3035 71.625 51.307 71.6563 51.3084 71.6875C51.3084 71.7471 51.3148 71.8054 51.3177 71.8621C51.3177 71.9028 51.3198 71.9426 51.324 71.9814C51.329 72.0808 51.3347 72.1773 51.3389 72.2696C51.3389 72.3058 51.3432 72.3406 51.3446 72.3761C51.346 72.4116 51.3446 72.4379 51.3496 72.4684C51.3545 72.4989 51.3496 72.511 51.3531 72.5323C51.3531 72.5749 51.3574 72.616 51.3595 72.6565C51.3616 72.697 51.3638 72.7318 51.3652 72.768C51.3694 72.8546 51.3737 72.9369 51.3779 73.0136C51.3779 73.0328 51.3779 73.0519 51.3779 73.0704C51.3779 73.0888 51.3779 73.1066 51.3779 73.125C51.3779 73.1435 51.3779 73.1605 51.3779 73.1776C51.3779 73.1946 51.3779 73.2237 51.3779 73.2486C51.3779 73.2919 51.3822 73.333 51.3843 73.3714C51.3865 73.4097 51.3843 73.4289 51.3886 73.4551C51.3928 73.4814 51.3886 73.5077 51.3921 73.5311C51.3921 73.5311 51.3921 73.5375 51.3921 73.5403C51.3921 73.5715 51.3921 73.6007 51.3971 73.6269V73.6362C51.3971 73.6447 51.3971 73.6518 51.3971 73.6596C51.4248 73.7689 51.4276 73.8278 51.4276 73.8278Z" fill="#FFE6E6"/>
<path d="M51.4275 73.8282L48.7578 73.8616L44.7476 73.9113L43.9972 73.9205L42.7914 73.9354L42.2892 73.9411L35.2348 74.0284L30.7181 74.0845L22.987 74.1803L22.4366 74.1875L15.0984 74.2783L14.1316 74.2904L12.2875 74.3131L11.3435 74.3245L10.1994 74.3386L6.5821 74.3834L0.5802 74.4544C0.5802 74.4544 0.5802 74.4054 0.585874 74.3124C0.585874 74.2847 0.585874 74.252 0.589421 74.2158C0.589421 74.1917 0.589421 74.1654 0.589421 74.137C0.590123 74.135 0.590123 74.1327 0.589421 74.1307C0.589421 74.0597 0.596514 73.9844 0.600769 73.8957C0.607153 73.748 0.615664 73.5713 0.624885 73.3682V73.3278C0.62914 73.2525 0.632687 73.173 0.636942 73.0907C0.636942 73.0388 0.641907 72.9849 0.644744 72.9295C0.644744 72.8983 0.648291 72.8663 0.649709 72.8337C0.658693 72.6676 0.668151 72.4901 0.67808 72.3013C0.683045 72.2189 0.687301 72.1344 0.692266 72.0478C0.697231 71.9612 0.702196 71.8725 0.707161 71.7816C0.7178 71.5999 0.728439 71.4104 0.740497 71.2137C0.740497 71.1718 0.745462 71.1293 0.748299 71.0859C0.75681 70.9575 0.764612 70.8254 0.772414 70.6898C0.77667 70.6302 0.780216 70.5692 0.783763 70.5081C0.788728 70.4314 0.793693 70.3541 0.798657 70.2753C0.808587 70.1191 0.819226 69.9579 0.829866 69.794C0.85209 69.466 0.875732 69.1243 0.900793 68.7689C0.907177 68.6801 0.91356 68.59 0.919944 68.4998C0.930347 68.355 0.940986 68.2083 0.951861 68.0597C0.96321 67.9106 0.973849 67.7601 0.985197 67.6075C0.985197 67.5756 0.990162 67.5429 0.992999 67.5102C1.00151 67.3896 1.01144 67.2675 1.02066 67.1439C1.02563 67.0779 1.03059 67.0112 1.03627 66.9445C1.04336 66.8536 1.05045 66.762 1.05754 66.6697C1.07031 66.5103 1.08308 66.3486 1.09584 66.1849C1.10861 66.0211 1.12209 65.8555 1.13627 65.688C1.19514 64.9781 1.25898 64.2455 1.32849 63.4873C1.34646 63.298 1.36442 63.1063 1.38239 62.9123C1.40012 62.7199 1.41927 62.5254 1.43772 62.3295C1.45616 62.1336 1.47602 61.9369 1.49588 61.7382C1.51574 61.5394 1.5356 61.3406 1.55617 61.1397C1.57532 60.953 1.59447 60.7649 1.61504 60.5718C1.65144 60.223 1.68904 59.8714 1.72781 59.5169C1.79306 58.9263 1.86139 58.3281 1.93279 57.7223C1.94769 57.5945 1.96329 57.4668 1.97818 57.339C2.00372 57.1324 2.02854 56.9251 2.05408 56.7171C2.08812 56.4422 2.12288 56.1667 2.15834 55.8908C2.19002 55.6443 2.22218 55.3974 2.2548 55.1504C2.27112 55.0269 2.28743 54.9034 2.30445 54.7791C2.32928 54.5917 2.35552 54.4043 2.38176 54.2162C2.40966 54.0132 2.43803 53.8099 2.46688 53.6064C2.49383 53.4162 2.52078 53.2252 2.54915 53.0342C2.56901 52.8923 2.58958 52.7517 2.61086 52.6126C2.71441 51.9027 2.82364 51.1978 2.93996 50.4921C2.97259 50.2877 3.00593 50.0839 3.04068 49.8795C3.0804 49.6396 3.12154 49.3989 3.16339 49.1597C3.20098 48.9396 3.23999 48.7195 3.279 48.5009L3.28964 48.4413L3.30028 48.3823C3.33007 48.2148 3.36057 48.0466 3.39177 47.879C3.45703 47.5222 3.52394 47.1673 3.5925 46.8142C3.62654 46.6386 3.66083 46.4638 3.69534 46.2896C3.79464 45.7884 3.90978 45.3059 4.04076 44.8421C4.09278 44.6561 4.14715 44.4735 4.2039 44.2941C4.26064 44.1147 4.31951 43.9377 4.38051 43.7631C4.472 43.5019 4.56917 43.247 4.66989 42.9979C4.70323 42.9148 4.74082 42.8324 4.77274 42.7515C4.80111 42.6805 4.83019 42.6174 4.85998 42.5506C4.88977 42.4839 4.91459 42.4271 4.94296 42.3661C4.97133 42.305 5.0068 42.2283 5.03871 42.1609C5.05786 42.119 5.07843 42.0771 5.09829 42.0352C5.13305 41.9643 5.16922 41.8933 5.20398 41.8223C5.23873 41.7513 5.2749 41.6803 5.3125 41.6093L5.35931 41.5199C5.3891 41.4638 5.41889 41.4084 5.44939 41.353C5.57091 41.132 5.69574 40.9169 5.82388 40.7078C5.86715 40.6368 5.91042 40.5658 5.95368 40.5005C6.04163 40.3632 6.13053 40.2286 6.22037 40.0965C6.26576 40.0305 6.31116 39.9652 6.35726 39.9006C6.41471 39.8197 6.47287 39.7395 6.53103 39.66C6.58919 39.5805 6.64877 39.5031 6.70835 39.4257C6.79772 39.3093 6.88827 39.1955 6.98 39.0842C7.0105 39.0466 7.04171 39.0133 7.07221 38.9728C7.12186 38.9139 7.17151 38.855 7.22116 38.7975C7.42118 38.566 7.62545 38.3438 7.83397 38.1309L7.99143 37.9726C8.03683 37.9278 8.08222 37.8831 8.12832 37.8391C8.21911 37.7506 8.31132 37.6635 8.40494 37.5779C8.45104 37.5353 8.49786 37.4934 8.5468 37.4515C8.68865 37.3261 8.83051 37.204 8.97236 37.0852C9.01634 37.0483 9.0596 37.0142 9.10358 36.9773C9.11918 36.9638 9.1355 36.951 9.15181 36.9383C9.23054 36.8744 9.31069 36.8119 9.39013 36.7494C9.44261 36.709 9.49581 36.6678 9.54971 36.628C9.64665 36.5552 9.74406 36.4842 9.84194 36.4151L9.98947 36.31L10.1157 36.222C10.1725 36.1829 10.2285 36.1446 10.2852 36.107L10.2909 36.1034L10.4469 35.9998L10.5335 35.9437L10.6895 35.8443L10.9023 35.713L11.1009 35.5944L11.1094 35.5895L11.2513 35.5071L11.3357 35.4589L11.3718 35.4383L11.535 35.3474L11.6336 35.2935L11.691 35.2629L11.7236 35.2445C11.8253 35.1905 11.9263 35.1377 12.0265 35.0862L12.0783 35.0599L12.2719 34.9634L12.2889 34.9548L12.4194 34.8909L12.4663 34.8689L12.5457 34.8306L12.5819 34.8143L12.6592 34.7781C12.6663 34.7738 12.6741 34.771 12.6812 34.7674L12.8117 34.7078L12.8528 34.6893C12.9417 34.6496 13.0304 34.6105 13.1188 34.5722L13.2138 34.5303L13.2372 34.5211C13.2692 34.5069 13.3004 34.4934 13.3323 34.4806L13.3812 34.4608C13.4522 34.4309 13.5231 34.4025 13.594 34.3741L13.6231 34.3628L13.8132 34.2875L13.9791 34.2237L14.0026 34.2151L14.1331 34.1661L14.2338 34.1292L14.3153 34.0994L14.3607 34.0831L14.487 34.0384L14.5579 34.0142L14.6125 33.9951L14.7381 33.9525L14.7501 33.9489L14.7927 33.934L14.9111 33.895L14.9345 33.8879L15.1168 33.829C15.2339 33.792 15.3509 33.758 15.4658 33.7218L15.6559 33.6664L15.8339 33.6146L16.0056 33.5677L16.1595 33.5258L16.1992 33.5152L16.302 33.4889L16.3488 33.4768L16.4162 33.4591L16.495 33.4392L16.5176 33.4343H16.5304L16.6127 33.4144L16.8148 33.3654L16.8482 33.3583L17.0106 33.3207L17.0234 33.3171L17.0624 33.3086L17.0837 33.3036L17.1262 33.2944L17.1595 33.2873L17.1915 33.2802L17.3291 33.2504L17.4 33.2348L17.5241 33.2085L17.5582 33.2021L17.7085 33.1716L17.7525 33.1631L17.9426 33.1262L18.0057 33.1141L18.0695 33.1027L18.1972 33.0793L18.2206 33.0751L18.2916 33.063L18.3625 33.0509L18.449 33.036L18.6185 33.0076L18.6533 33.0019L18.8285 32.9742L18.9143 32.9608L18.9405 32.9565L19.0824 32.9352H19.0952L19.3122 32.904L19.5796 32.8663L19.7356 32.845L19.8775 32.8266L19.9732 32.8138L20.0314 32.806L20.0825 32.7989L20.1343 32.7918L20.2165 32.7797C20.3584 32.7599 20.4626 32.7421 20.5336 32.7251C20.5463 32.7251 20.5591 32.7194 20.5726 32.7151L20.5832 32.7116L20.6456 32.6946L20.7081 32.6761L20.7712 32.6555L20.835 32.6335L20.8981 32.6094L20.962 32.5838C20.9818 32.576 21.0024 32.5675 21.0223 32.5583C21.2511 32.458 21.4686 32.3338 21.6713 32.1877C21.7067 32.1621 21.7422 32.1359 21.7776 32.1082L21.8429 32.0571C21.8862 32.023 21.9294 31.9861 21.972 31.9492C21.9933 31.9307 22.0145 31.9123 22.0358 31.8924L22.0982 31.8349L22.1628 31.7724C22.1834 31.7518 22.2046 31.7312 22.2252 31.7099C22.2458 31.6886 22.267 31.6666 22.2876 31.6446C22.3082 31.6226 22.3288 31.6006 22.3486 31.5779L22.4096 31.5069C22.4302 31.4835 22.45 31.4601 22.4699 31.4359C22.4898 31.4118 22.5096 31.3877 22.5288 31.3649L22.5862 31.2939C27.9136 33.572 30.7465 32.1359 31.6508 31.487C31.7118 31.5481 31.7756 31.6077 31.8416 31.6652C31.8742 31.695 31.9082 31.7234 31.9423 31.7504C31.9763 31.7774 32.0132 31.8065 32.0473 31.8335C32.0813 31.8604 32.1182 31.8874 32.1565 31.9137C32.1948 31.9399 32.2317 31.9662 32.27 31.9918C32.4197 32.0911 32.5742 32.1828 32.7331 32.2665C32.7885 32.2949 32.8438 32.3233 32.9012 32.3517H32.9048L32.9417 32.3694L33.041 32.4163C33.0885 32.439 33.1367 32.461 33.1828 32.4816C33.2289 32.5022 33.2814 32.5249 33.3318 32.5455C33.3791 32.5663 33.4263 32.5862 33.4736 32.6051L33.6382 32.669C33.7507 32.7116 33.8675 32.7535 33.9886 32.7946C34.0318 32.8103 34.0758 32.8245 34.1205 32.8394C34.2623 32.8862 34.4099 32.9331 34.5617 32.9813L34.5794 32.9863L34.7028 33.0225L34.756 33.0381L34.9815 33.1027L35.2702 33.1808L35.3333 33.1979C35.488 33.239 35.6468 33.2823 35.8086 33.3278L36.0299 33.3917L36.193 33.4399L36.3994 33.5024C36.6831 33.5881 36.9741 33.6815 37.2725 33.7828C37.4434 33.8403 37.6172 33.9007 37.7917 33.9638L37.852 33.9858L38.0109 34.044C38.1135 34.0814 38.217 34.1202 38.3215 34.1605C38.4993 34.2286 38.6788 34.2996 38.8599 34.3734C39.2181 34.5154 39.5812 34.6737 39.9451 34.8398C40.1115 34.9151 40.277 34.9932 40.4416 35.0741L40.6281 35.165C41.0246 35.3595 41.4218 35.5682 41.8154 35.7904L42.0119 35.9025L42.1381 35.9735C42.1892 36.0026 42.2403 36.0332 42.2906 36.0637C42.341 36.0942 42.402 36.1297 42.4573 36.1638L42.5992 36.2504C42.6881 36.3053 42.7763 36.3606 42.8637 36.4165L42.8793 36.4264L42.9864 36.4974L43.1347 36.5954C43.2056 36.6415 43.2765 36.6877 43.3425 36.7374C43.4262 36.7942 43.5092 36.8509 43.5915 36.9099L43.7149 36.9979C43.7986 37.057 43.8815 37.1174 43.9638 37.1789C44.0191 37.2191 44.0738 37.2603 44.1277 37.3024C44.2695 37.4103 44.4114 37.5218 44.5532 37.6361C44.6185 37.6886 44.6837 37.7418 44.7483 37.7958L44.9412 37.9591C45.1852 38.1683 45.423 38.3855 45.6547 38.6108L45.7703 38.7243C45.7733 38.7266 45.7759 38.7292 45.7782 38.7321L45.8583 38.8124C45.9094 38.8642 45.9604 38.916 46.0108 38.9685L46.1285 39.0921C46.3612 39.3405 46.5853 39.5973 46.8009 39.8623C46.8399 39.9106 46.8797 39.9602 46.918 40.0092L46.9598 40.0625C46.9974 40.1107 47.0343 40.159 47.0712 40.2044C47.1194 40.2683 47.1669 40.3322 47.213 40.3968C47.2591 40.4614 47.3066 40.5274 47.3549 40.5928C47.4031 40.6581 47.4464 40.7248 47.4911 40.7915C47.5804 40.925 47.6674 41.0606 47.7521 41.1983C47.7939 41.2693 47.8358 41.336 47.8769 41.4063C47.918 41.4766 47.9578 41.5483 47.9975 41.6193C48.0372 41.6902 48.0762 41.7612 48.1145 41.8322C48.1386 41.8769 48.162 41.921 48.1854 41.9657C48.2088 42.0104 48.2315 42.0558 48.2564 42.1006C48.3018 42.1907 48.3457 42.2816 48.389 42.3739C48.411 42.4207 48.4323 42.4676 48.4535 42.5158C48.467 42.5449 48.4805 42.5748 48.4933 42.6046C48.4935 42.6074 48.4935 42.6103 48.4933 42.6131C48.516 42.6635 48.5379 42.7139 48.5592 42.765C48.5805 42.8161 48.611 42.8878 48.6358 42.9496L48.6443 42.9702C48.6699 43.0348 48.6954 43.0994 48.7195 43.164C48.7436 43.2286 48.7706 43.2996 48.7947 43.3677C48.8436 43.504 48.8905 43.6424 48.9366 43.7816C48.9585 43.8526 48.9791 43.9179 48.9997 43.9867C48.9994 43.9886 48.9994 43.9905 48.9997 43.9924C49.0203 44.0634 49.0408 44.1344 49.06 44.2054C49.0763 44.2643 49.0919 44.3232 49.1075 44.3828L49.1245 44.4503C49.1401 44.5127 49.1557 44.5752 49.1699 44.6384C49.182 44.6881 49.1933 44.7378 49.204 44.7882C49.204 44.7988 49.2089 44.8088 49.2103 44.8194C49.2167 44.845 49.2217 44.8705 49.2274 44.8968C49.2401 44.9586 49.2522 45.0203 49.2642 45.0814C49.2763 45.1424 49.2898 45.2177 49.3018 45.2865C49.3139 45.3554 49.326 45.4285 49.3373 45.4995C49.3416 45.5286 49.3465 45.5577 49.3508 45.5868C49.3593 45.6457 49.3678 45.7046 49.3756 45.7643C49.4465 46.3194 49.5231 46.9384 49.5969 47.61C49.6033 47.676 49.6111 47.7427 49.6182 47.8095C49.6281 47.8996 49.6373 47.9905 49.6473 48.0821C49.6666 48.2666 49.6858 48.4548 49.7047 48.6464C49.721 48.8054 49.7373 48.9673 49.7529 49.1306C49.7615 49.2129 49.7693 49.2953 49.7771 49.3776C49.7849 49.46 49.7934 49.5444 49.8012 49.6282C49.8272 49.9051 49.8534 50.1871 49.8799 50.4744C49.8955 50.6448 49.9109 50.8168 49.926 50.9905C49.9728 51.5165 50.0189 52.0553 50.0679 52.609C50.0835 52.7926 50.0986 52.9777 50.1133 53.1641C50.1211 53.2571 50.1289 53.3508 50.136 53.4445C50.1402 53.4999 50.1452 53.5546 50.1494 53.61C50.1491 53.6116 50.1491 53.6133 50.1494 53.6149L50.1579 53.7264C50.1579 53.7498 50.1579 53.7739 50.1636 53.7974C50.1721 53.9024 50.1799 54.0103 50.1884 54.1126C50.1969 54.2148 50.2047 54.3255 50.2133 54.4299C50.2274 54.618 50.2423 54.8068 50.2565 54.9978C50.3275 55.9497 50.3984 56.9187 50.4693 57.8899C50.4863 58.1326 50.5031 58.3754 50.5197 58.6182C50.5197 58.6345 50.5197 58.6509 50.5232 58.6672L50.5615 59.2216C50.5752 59.4289 50.5892 59.6355 50.6034 59.8413C50.6147 60.0089 50.6254 60.1764 50.6367 60.3439L50.6665 60.7947C50.6785 60.9843 50.6913 61.1738 50.7034 61.3626C50.7119 61.4911 50.7197 61.6196 50.7282 61.7481C50.7433 61.9814 50.7582 62.214 50.7729 62.4459C50.7847 62.6352 50.7965 62.8245 50.8083 63.0138C50.8202 63.2031 50.8315 63.386 50.8424 63.5626C50.8424 63.5888 50.8424 63.6151 50.8474 63.6414C50.863 63.8894 50.8781 64.135 50.8927 64.3782C50.8927 64.386 50.8927 64.3931 50.8927 64.4009C50.9145 64.7578 50.9358 65.1096 50.9566 65.4565C50.9835 65.9028 51.0095 66.3389 51.0346 66.7649C51.0422 66.8997 51.05 67.0332 51.058 67.1652C51.058 67.1972 51.0616 67.2298 51.0637 67.2618C51.0722 67.4203 51.0812 67.5763 51.0906 67.7296C51.0906 67.7743 51.0956 67.819 51.0984 67.8631C51.1034 67.9511 51.1084 68.0391 51.1133 68.1257C51.1183 68.2123 51.1233 68.3011 51.1282 68.3877C51.1332 68.4743 51.1389 68.5786 51.1445 68.6716L51.1509 68.7831C51.1552 68.8619 51.1594 68.9407 51.1637 69.018C51.1708 69.1416 51.1779 69.2637 51.1843 69.3829C51.1843 69.4369 51.1906 69.4901 51.1935 69.5434C51.2048 69.754 51.2162 69.9584 51.2275 70.1567C51.2275 70.205 51.2325 70.2533 51.2353 70.2987C51.2353 70.3349 51.2389 70.3697 51.241 70.4073C51.241 70.474 51.2481 70.5408 51.2524 70.6061C51.2566 70.6714 51.2594 70.748 51.2637 70.819C51.2637 70.8496 51.2637 70.8801 51.2687 70.9099L51.275 71.0284C51.275 71.0781 51.28 71.1271 51.2829 71.1754C51.2857 71.2237 51.2892 71.2904 51.2921 71.3465C51.297 71.4309 51.3013 71.5133 51.3055 71.5942C51.3055 71.6255 51.3091 71.6567 51.3105 71.6879C51.3105 71.7476 51.3169 71.8058 51.3197 71.8626C51.3197 71.9033 51.3219 71.943 51.3261 71.9818C51.3311 72.0812 51.3368 72.1778 51.341 72.27C51.341 72.3062 51.3453 72.341 51.3467 72.3765C51.3481 72.412 51.3467 72.439 51.3516 72.4688C51.3566 72.4986 51.3517 72.5114 51.3552 72.5327C51.3552 72.5753 51.3595 72.6165 51.3616 72.6569C51.3637 72.6974 51.3658 72.7322 51.3673 72.7684C51.3715 72.855 51.3758 72.9373 51.38 73.014C51.38 73.0332 51.38 73.0523 51.38 73.0708C51.38 73.0892 51.38 73.107 51.38 73.1255C51.38 73.1439 51.38 73.1609 51.38 73.178C51.38 73.195 51.38 73.2241 51.38 73.249C51.38 73.2923 51.3843 73.3334 51.3864 73.3718C51.3885 73.4101 51.3864 73.4293 51.3907 73.4556C51.3949 73.4818 51.3907 73.5074 51.3942 73.5315C51.3942 73.5315 51.3942 73.5379 51.3942 73.5407C51.3942 73.572 51.3942 73.6011 51.3992 73.6273V73.6366C51.3992 73.6444 51.3992 73.6522 51.3992 73.66C51.4247 73.7693 51.4275 73.8282 51.4275 73.8282Z" fill="#5661E1"/>
<path d="M22.9856 74.1831L22.4352 74.1902L15.097 74.2811L14.1303 74.2932L12.2862 74.3159L11.3421 74.3272L10.1981 74.3414L6.58076 74.3862L0.578857 74.4572C0.578857 74.4572 0.578857 74.4082 0.584532 74.3152C0.584532 74.2875 0.584532 74.2548 0.588078 74.2186C0.588078 74.1945 0.588078 74.1682 0.588078 74.1398C0.588781 74.1378 0.588781 74.1355 0.588078 74.1335C0.588078 74.0625 0.595171 73.9872 0.599426 73.8985C0.60581 73.7508 0.614321 73.5741 0.623542 73.371V73.3306C0.627798 73.2553 0.631344 73.1758 0.6356 73.0935C0.6356 73.0416 0.640564 72.9877 0.643402 72.9323C0.643402 72.9011 0.646948 72.8691 0.648367 72.8365C0.657351 72.6704 0.666808 72.4929 0.676738 72.3041C0.681703 72.2217 0.685958 72.1373 0.690923 72.0506C0.695888 71.964 0.700853 71.8753 0.705818 71.7844C0.716457 71.6027 0.727096 71.4132 0.739154 71.2165C0.739154 71.1746 0.744119 71.132 0.746956 71.0887C0.755467 70.9603 0.763269 70.8282 0.771071 70.6926C0.775327 70.633 0.778873 70.5719 0.78242 70.5109C0.787385 70.4342 0.79235 70.3568 0.797315 70.2781C0.807245 70.1219 0.817884 69.9607 0.828523 69.7968C0.850747 69.4688 0.874389 69.1271 0.89945 68.7717C0.905834 68.6829 0.912217 68.5928 0.918601 68.5026C0.929004 68.3578 0.939643 68.2111 0.950518 68.0625C0.961867 67.9134 0.972506 67.7629 0.983854 67.6103C0.983854 67.5784 0.988819 67.5457 0.991656 67.513C1.00017 67.3924 1.0101 67.2703 1.01932 67.1467C1.02428 67.0807 1.02925 67.014 1.03492 66.9473C1.04202 66.8564 1.04911 66.7648 1.0562 66.6725C1.06897 66.5131 1.08173 66.3514 1.0945 66.1877C1.10727 66.0239 1.12074 65.8583 1.13493 65.6908C1.1938 64.9809 1.25764 64.2483 1.32714 63.4901C1.34511 63.3008 1.36308 63.1091 1.38105 62.9151C1.39878 62.7227 1.41793 62.5282 1.43637 62.3323C1.45481 62.1364 1.47467 61.9397 1.49453 61.741C1.51439 61.5422 1.53425 61.3434 1.55482 61.1425C1.57397 60.9558 1.59312 60.7677 1.61369 60.5746C1.6501 60.2258 1.68769 59.8742 1.72647 59.5197C1.79172 58.9291 1.86005 58.3309 1.93145 57.7251C1.94634 57.5973 1.96195 57.4696 1.97684 57.3418C2.00238 57.1352 2.0272 56.9279 2.05273 56.7199C2.08678 56.445 2.12153 56.1695 2.157 55.8936C2.18868 55.647 2.22083 55.4002 2.25346 55.1532C2.26977 55.0297 2.28609 54.9062 2.30311 54.7819C2.32793 54.5945 2.35418 54.4071 2.38042 54.219C2.40832 54.016 2.43669 53.8127 2.46553 53.6092C2.49249 53.419 2.51944 53.228 2.54781 53.037C2.56767 52.8951 2.58824 52.7545 2.60952 52.6154C2.71307 51.9055 2.8223 51.2006 2.93862 50.4949C2.97125 50.2905 3.00458 50.0867 3.03934 49.8823C3.07906 49.6424 3.1202 49.4017 3.16204 49.1625C3.19964 48.9424 3.23865 48.7223 3.27766 48.5037L3.28829 48.4441L3.29893 48.3851C3.32872 48.2176 3.35922 48.0494 3.39043 47.8818C3.45568 47.525 3.52259 47.1701 3.59116 46.817C3.6252 46.6414 3.65948 46.4666 3.694 46.2924C3.7933 45.7912 3.90844 45.3087 4.03942 44.8449C4.09143 44.6589 4.14581 44.4763 4.20255 44.2969C4.25929 44.1175 4.31816 43.9405 4.37916 43.7659C4.47066 43.5047 4.56783 43.2498 4.66855 43.0007C4.70188 42.9176 4.73947 42.8353 4.77139 42.7543C4.79976 42.6833 4.82884 42.6202 4.85863 42.5534C4.88842 42.4867 4.91325 42.4299 4.94162 42.3689C4.96999 42.3078 5.00545 42.2311 5.03737 42.1637C5.05652 42.1218 5.07709 42.0799 5.09695 42.038C5.1317 41.9671 5.16788 41.8961 5.20263 41.8251C5.23739 41.7541 5.27356 41.6831 5.31115 41.6121L5.35796 41.5227C5.38775 41.4666 5.41754 41.4112 5.44804 41.3558C5.56956 41.1348 5.6944 40.9197 5.82254 40.7106C5.86581 40.6396 5.90907 40.5686 5.95234 40.5033C6.04029 40.366 6.12918 40.2314 6.21903 40.0993C6.26442 40.0333 6.30981 39.968 6.35592 39.9034C6.41337 39.8225 6.47153 39.7423 6.52969 39.6628C6.58785 39.5833 6.64743 39.5059 6.70701 39.4285C6.79638 39.3121 6.88693 39.1983 6.97866 39.087C7.00916 39.0494 7.04037 39.0161 7.07087 38.9756C7.12052 38.9167 7.17017 38.8578 7.21982 38.8003C7.41983 38.5688 7.6241 38.3466 7.83263 38.1337L7.99009 37.9754C8.03548 37.9306 8.08088 37.8859 8.12698 37.8419C8.21777 37.7534 8.30997 37.6663 8.4036 37.5807C8.4497 37.5381 8.49651 37.4962 8.54545 37.4543C8.68731 37.3289 8.82916 37.2068 8.97102 37.088C9.01499 37.0511 9.05826 37.017 9.10224 36.9801C9.11784 36.9666 9.13415 36.9538 9.15047 36.9411C9.2292 36.8772 9.30934 36.8147 9.38878 36.7522C9.44127 36.7118 9.49447 36.6706 9.54837 36.6308C9.64531 36.558 9.74271 36.487 9.84059 36.4179L9.98812 36.3128L10.1144 36.2248C10.1711 36.1857 10.2271 36.1474 10.2839 36.1098L10.2896 36.1062L10.4456 36.0026L10.5321 35.9465L10.6882 35.8471L10.901 35.7158L11.0996 35.5972L11.1081 35.5923L11.2499 35.5099L11.3343 35.4617L11.3705 35.4411L11.5336 35.3502L11.6322 35.2962L11.6897 35.2657L11.7223 35.2473C11.824 35.1933 11.9249 35.1405 12.0252 35.089L12.0769 35.0627L12.2706 34.9662L12.2876 34.9576L12.4181 34.8937L12.4649 34.8717L12.5444 34.8334L12.5805 34.8171L12.6578 34.7809C12.6649 34.7766 12.6727 34.7738 12.6798 34.7702L12.8103 34.7106L12.8515 34.6921C12.9404 34.6524 13.029 34.6133 13.1175 34.575L13.2125 34.5331L13.2359 34.5239C13.2678 34.5097 13.299 34.4962 13.3309 34.4834L13.3799 34.4636C13.4508 34.4337 13.5217 34.4053 13.5927 34.3769L13.6217 34.3656L13.8118 34.2903L13.9778 34.2265L14.0012 34.2179L14.1317 34.1689L14.2324 34.132L14.314 34.1022L14.3594 34.0859L14.4856 34.0412L14.5566 34.017L14.6112 33.9979L14.7367 33.9553L14.7488 33.9517L14.7913 33.9368L14.9098 33.8978L14.9332 33.8907L15.1155 33.8318C15.2325 33.7948 15.3495 33.7608 15.4644 33.7246L15.6545 33.6692L15.8326 33.6174L16.0042 33.5705L16.1581 33.5286L16.1978 33.518L16.3007 33.4917L16.3475 33.4796L16.4149 33.4619L16.4936 33.442L16.5163 33.4371H16.5291L16.6113 33.4172L16.8135 33.3682L16.8468 33.3611L17.0093 33.3235L17.022 33.3199L17.061 33.3114L17.0823 33.3064L17.1249 33.2972L17.1582 33.2901L17.1901 33.283L17.3277 33.2532L17.3986 33.2376L17.5228 33.2113L17.5568 33.2049L17.7072 33.1744L17.7512 33.1659L17.9412 33.129L18.0044 33.1169L18.0682 33.1055L18.1959 33.0821L18.2193 33.0779L18.2902 33.0658L18.3611 33.0537L18.4477 33.0388L18.6172 33.0104L18.6519 33.0047L18.8271 32.9771C18.8271 32.9771 22.1104 42.7281 22.4366 45.6386C22.6721 47.7462 22.8863 64.912 22.9856 74.1831Z" fill="#120283"/>
<path d="M51.4276 73.8281L48.7579 73.8615L44.7476 73.9112L43.9972 73.9204L42.7914 73.9353L42.2893 73.941L35.2348 74.0283L30.7181 74.0844C33.9702 64.8999 33.6794 47.935 33.6155 46.3455C33.5446 44.5708 35.2213 33.9616 35.2213 33.9616L36.1966 33.4355L36.403 33.498C36.6867 33.5837 36.9777 33.6771 37.2761 33.7784C37.4471 33.8359 37.6208 33.8963 37.7953 33.9594L37.8556 33.9815L38.0145 34.0397C38.1171 34.077 38.2206 34.1159 38.3251 34.1561C38.5029 34.2242 38.6824 34.2952 38.8635 34.369C39.2217 34.511 39.5848 34.6693 39.9487 34.8354C40.1151 34.9107 40.2806 34.9888 40.4452 35.0697L40.6317 35.1606C41.0282 35.3551 41.4254 35.5638 41.819 35.786L42.0155 35.8981L42.1418 35.9691C42.1928 35.9982 42.2439 36.0288 42.2943 36.0593C42.3446 36.0898 42.4056 36.1253 42.4609 36.1594L42.6028 36.246C42.6917 36.3009 42.7799 36.3563 42.8673 36.4121L42.8829 36.422L42.9901 36.493L43.1383 36.591C43.2092 36.6371 43.2801 36.6833 43.3461 36.733C43.4298 36.7898 43.5128 36.8466 43.5951 36.9055L43.7185 36.9935C43.8022 37.0527 43.8852 37.113 43.9674 37.1745C44.0228 37.2147 44.0774 37.2559 44.1313 37.298C44.2731 37.4059 44.415 37.5174 44.5568 37.6317C44.6221 37.6842 44.6873 37.7375 44.7519 37.7914L44.9448 37.9547C45.1888 38.1639 45.4267 38.3811 45.6584 38.6064L45.774 38.7199C45.7769 38.7222 45.7795 38.7248 45.7818 38.7278L45.8619 38.808C45.913 38.8598 45.964 38.9116 46.0144 38.9641L46.1321 39.0877C46.3648 39.3361 46.5889 39.5929 46.8045 39.8579C46.8436 39.9062 46.8833 39.9559 46.9216 40.0048L46.9634 40.0581C47.001 40.1064 47.0379 40.1546 47.0748 40.2001C47.123 40.2639 47.1705 40.3278 47.2166 40.3924C47.2627 40.457 47.3103 40.5231 47.3585 40.5884C47.4067 40.6537 47.45 40.7204 47.4947 40.7871C47.584 40.9206 47.671 41.0562 47.7557 41.1939C47.7975 41.2649 47.8394 41.3316 47.8805 41.4019C47.9216 41.4722 47.9614 41.5439 48.0011 41.6149C48.0408 41.6858 48.0798 41.7568 48.1181 41.8278C48.1422 41.8725 48.1656 41.9166 48.189 41.9613C48.2125 42.006 48.2352 42.0514 48.26 42.0962C48.3054 42.1863 48.3493 42.2772 48.3926 42.3695C48.4146 42.4163 48.4359 42.4632 48.4572 42.5114C48.4706 42.5406 48.4841 42.5704 48.4969 42.6002C48.4972 42.603 48.4972 42.6059 48.4969 42.6087C48.5196 42.6591 48.5416 42.7095 48.5628 42.7606C48.5841 42.8117 48.6146 42.8834 48.6394 42.9452L48.6479 42.9658C48.6735 43.0304 48.699 43.095 48.7231 43.1596C48.7472 43.2242 48.7742 43.2952 48.7983 43.3633C48.8473 43.4996 48.8941 43.638 48.9402 43.7772C48.9622 43.8482 48.9827 43.9135 49.0033 43.9823C49.003 43.9842 49.003 43.9861 49.0033 43.988C49.0239 44.059 49.0444 44.13 49.0636 44.201C49.0799 44.2599 49.0955 44.3188 49.1111 44.3785L49.1281 44.4459C49.1437 44.5084 49.1593 44.5708 49.1735 44.634C49.1856 44.6837 49.1969 44.7334 49.2076 44.7838C49.2076 44.7944 49.2125 44.8044 49.214 44.815C49.2203 44.8406 49.2253 44.8661 49.231 44.8924C49.2437 44.9542 49.2558 45.0159 49.2679 45.077C49.2799 45.138 49.2934 45.2133 49.3055 45.2821C49.3175 45.351 49.3296 45.4241 49.3409 45.4951C49.3452 45.5242 49.3501 45.5533 49.3544 45.5824C49.3629 45.6413 49.3714 45.7003 49.3792 45.7599C49.4501 46.315 49.5267 46.934 49.6005 47.6056C49.6069 47.6716 49.6147 47.7383 49.6218 47.8051C49.6317 47.8952 49.6409 47.9861 49.6509 48.0777C49.6703 48.2622 49.6894 48.4504 49.7083 48.642C49.7246 48.801 49.7409 48.9629 49.7566 49.1262C49.7651 49.2085 49.7729 49.2909 49.7807 49.3732C49.7885 49.4556 49.797 49.54 49.8048 49.6238C49.8308 49.9007 49.857 50.1827 49.8835 50.47C49.8991 50.6404 49.9145 50.8124 49.9296 50.9861C49.9764 51.5121 50.0225 52.0509 50.0715 52.6046C50.0871 52.7882 50.1022 52.9733 50.1169 53.1598C50.1247 53.2527 50.1325 53.3465 50.1396 53.4402C50.1438 53.4955 50.1488 53.5502 50.153 53.6056C50.1527 53.6072 50.1527 53.6089 50.153 53.6105L50.1615 53.722C50.1615 53.7454 50.1616 53.7695 50.1672 53.793C50.1757 53.898 50.1835 54.0059 50.192 54.1082C50.2006 54.2104 50.2084 54.3211 50.2169 54.4255C50.2311 54.6136 50.246 54.8024 50.2601 54.9934C50.3311 55.9453 50.402 56.9143 50.4729 57.8855C50.4899 58.1282 50.5067 58.371 50.5233 58.6138C50.5233 58.6301 50.5233 58.6465 50.5268 58.6628L50.5651 59.2172C50.5788 59.4245 50.5928 59.6311 50.607 59.8369C50.6183 60.0045 50.629 60.172 50.6403 60.3395L50.6701 60.7903C50.6822 60.9799 50.6949 61.1694 50.707 61.3582C50.7155 61.4867 50.7233 61.6152 50.7318 61.7437C50.7469 61.977 50.7618 62.2096 50.7765 62.4415C50.7883 62.6308 50.8001 62.8201 50.812 63.0094C50.8238 63.1987 50.8351 63.3817 50.846 63.5582C50.846 63.5844 50.846 63.6107 50.851 63.637C50.8666 63.885 50.8817 64.1306 50.8964 64.3738C50.8964 64.3816 50.8964 64.3887 50.8964 64.3966C50.9181 64.7534 50.9394 65.1053 50.9602 65.4522C50.9871 65.8984 51.0132 66.3345 51.0382 66.7605C51.0458 66.8954 51.0536 67.0288 51.0616 67.1609C51.0616 67.1928 51.0652 67.2255 51.0673 67.2574C51.0758 67.4159 51.0848 67.5719 51.0942 67.7252C51.0942 67.7699 51.0992 67.8147 51.1021 67.8587C51.107 67.9467 51.112 68.0347 51.1169 68.1213C51.1219 68.2079 51.1269 68.2967 51.1318 68.3833C51.1368 68.4699 51.1425 68.5742 51.1482 68.6672L51.1545 68.7787C51.1588 68.8575 51.163 68.9363 51.1673 69.0137C51.1744 69.1372 51.1815 69.2593 51.1879 69.3785C51.1879 69.4325 51.1943 69.4857 51.1971 69.539C51.2084 69.7496 51.2198 69.954 51.2311 70.1523C51.2311 70.2006 51.2361 70.2489 51.2389 70.2943C51.2389 70.3305 51.2425 70.3653 51.2446 70.4029C51.2446 70.4696 51.2517 70.5364 51.256 70.6017C51.2602 70.667 51.2631 70.7436 51.2673 70.8146C51.2673 70.8452 51.2673 70.8757 51.2723 70.9055L51.2787 71.0241C51.2787 71.0737 51.2836 71.1227 51.2865 71.171C51.2893 71.2193 51.2928 71.286 51.2957 71.3421C51.3006 71.4266 51.3049 71.5089 51.3092 71.5898C51.3092 71.6211 51.3127 71.6523 51.3141 71.6835C51.3141 71.7432 51.3205 71.8014 51.3233 71.8582C51.3233 71.8989 51.3255 71.9386 51.3297 71.9774C51.3347 72.0768 51.3404 72.1734 51.3446 72.2656C51.3446 72.3019 51.3489 72.3366 51.3503 72.3721C51.3517 72.4076 51.3503 72.4346 51.3553 72.4644C51.3602 72.4942 51.3553 72.507 51.3588 72.5283C51.3588 72.5709 51.3631 72.6121 51.3652 72.6525C51.3673 72.693 51.3694 72.7278 51.3709 72.764C51.3751 72.8506 51.3794 72.9329 51.3836 73.0096C51.3836 73.0288 51.3836 73.0479 51.3836 73.0664C51.3836 73.0849 51.3836 73.1026 51.3836 73.1211C51.3836 73.1395 51.3836 73.1566 51.3836 73.1736C51.3836 73.1906 51.3836 73.2197 51.3836 73.2446C51.3836 73.2879 51.3879 73.3291 51.39 73.3674C51.3921 73.4057 51.39 73.4249 51.3943 73.4512C51.3985 73.4774 51.3943 73.503 51.3978 73.5271C51.3978 73.5271 51.3978 73.5335 51.3978 73.5363C51.3978 73.5676 51.3978 73.5967 51.4028 73.623V73.6322C51.4028 73.64 51.4028 73.6478 51.4028 73.6556C51.4248 73.7692 51.4276 73.8281 51.4276 73.8281Z" fill="#120283"/>
<path d="M23.9978 20.4014C23.9978 20.4014 24.1872 23.4787 26.4093 26.324C27.8612 28.1846 29.4344 27.9567 30.3487 27.5734C30.2813 26.4198 30.3082 25.0014 30.3777 23.2374L25.9937 20.6576L23.9978 20.4014Z" fill="#120283"/>
<path d="M22.2479 17.2567C22.7976 17.1857 23.1579 17.3277 23.3714 17.4739C23.3374 14.5918 23.6225 11.085 23.6225 11.085H34.356L34.3276 17.4278C34.3276 17.4278 34.3077 17.7416 34.3276 19.7314C34.3517 22.1485 32.387 25.84 29.7556 25.84C25.7078 25.84 24.2232 22.8648 23.6558 20.5634C23.0175 20.7053 22.0167 20.7877 21.6698 20.0487C21.1471 18.9292 21.2521 17.3859 22.2479 17.2567Z" fill="#FFE6E6"/>
<path d="M28.1354 19.5174C28.31 19.5174 28.4515 19.3758 28.4515 19.2011C28.4515 19.0264 28.31 18.8848 28.1354 18.8848C27.9608 18.8848 27.8193 19.0264 27.8193 19.2011C27.8193 19.3758 27.9608 19.5174 28.1354 19.5174Z" fill="#120283"/>
<path d="M31.4413 19.5174C31.6159 19.5174 31.7574 19.3758 31.7574 19.2011C31.7574 19.0264 31.6159 18.8848 31.4413 18.8848C31.2668 18.8848 31.1252 19.0264 31.1252 19.2011C31.1252 19.3758 31.2668 19.5174 31.4413 19.5174Z" fill="#120283"/>
<path d="M29.4493 17.0837C29.4493 17.0837 29.2535 17.1362 28.3747 17.1362C27.496 17.1362 27.1051 17.2214 27.1215 17.1362C27.1924 16.7699 28.757 16.5867 29.0195 16.6258C29.2819 16.6648 29.5578 16.848 29.4493 17.0837Z" fill="#120283"/>
<path d="M30.8309 17.0837C30.8309 17.0837 31.0266 17.1362 31.9054 17.1362C32.7842 17.1362 33.175 17.2214 33.1587 17.1362C33.0878 16.7699 31.5231 16.5867 31.2607 16.6258C30.9983 16.6648 30.7224 16.848 30.8309 17.0837Z" fill="#120283"/>
<path d="M23.1189 17.1744L23.7714 19.451C23.7714 19.451 23.8197 16.7258 24.1332 14.9894C24.4467 13.253 25.4099 12.8193 26.3858 12.6503C26.418 12.6453 26.4508 12.6453 26.483 12.6503H33.5297C33.5297 12.6503 35.5731 11.9809 33.5623 9.70073C33.3616 9.59851 32.1991 9.37632 31.9721 9.31456C29.2123 8.56705 25.0013 7.48731 24.2538 10.1664C24.2538 10.1664 23.1189 9.18536 22.7359 11.4371C22.3529 13.6889 23.1189 17.1744 23.1189 17.1744Z" fill="#120283"/>
<path d="M30.0536 21.4126C30.1072 21.3973 30.162 21.3861 30.2174 21.3792C30.4415 21.3423 30.721 21.2962 30.765 21.1386C30.7891 21.0534 30.7401 20.9604 30.616 20.8546C30.1536 20.4578 30.2344 19.5839 30.2358 19.5768L30.1401 19.5669C30.1358 19.6052 30.0536 20.4997 30.5529 20.9292C30.6423 21.0058 30.6848 21.0711 30.6721 21.1144C30.6444 21.2131 30.3564 21.2607 30.2018 21.2862C30.1325 21.2912 30.0644 21.3075 30.0004 21.3345L30.0536 21.4126Z" fill="#120283"/>
<path d="M30.0698 21.8943C30.0698 21.8943 29.2513 21.8127 28.6903 21.479C28.6903 21.479 28.8272 22.4665 30.0698 21.8943Z" fill="#120283"/>
<path d="M32.9368 32.3645C31.5076 33.7133 28.2215 35.0294 20.8273 32.6307L20.8904 32.6066L20.9542 32.581C20.9741 32.5732 20.9947 32.5647 21.0145 32.5554C21.2433 32.4552 21.4609 32.331 21.6635 32.1849C21.699 32.1593 21.7344 32.1331 21.7699 32.1054L21.8352 32.0543C21.8784 32.0195 21.9217 31.9833 21.9642 31.9464C21.9855 31.9279 22.0068 31.9094 22.0281 31.8896L22.0905 31.8321L22.155 31.7696C22.1969 31.7284 22.238 31.6858 22.2799 31.6418C22.3011 31.6198 22.321 31.5978 22.3409 31.5751L22.4019 31.5041C22.4224 31.4807 22.4423 31.4572 22.4622 31.4331C22.482 31.409 22.5019 31.3848 22.521 31.3621L22.5778 31.2911C23.1232 30.5777 23.5615 29.5917 23.7424 28.2954C25.1773 28.7923 27.7988 29.4199 30.4401 28.6248C30.6139 29.9253 30.977 30.8162 31.6459 31.4842C31.7069 31.546 31.7707 31.6056 31.8367 31.6624C31.8693 31.6922 31.9033 31.7206 31.9374 31.7476C31.9714 31.7746 32.0083 31.8037 32.0424 31.8306C32.0764 31.8576 32.1133 31.8853 32.1516 31.9109C32.1899 31.9364 32.2268 31.9641 32.2651 31.989C32.4669 32.1234 32.6778 32.2437 32.8963 32.3489H32.8999L32.9368 32.3645Z" fill="#120283"/>
<path d="M22.4352 74.1867L15.097 74.2776L14.1303 74.2896L12.2862 74.3123L11.3421 74.3237L10.1981 74.3379L6.58076 74.3826L0.578857 74.4536C0.578857 74.4536 0.58595 74.2584 0.602973 73.8935C0.610066 73.7359 0.618577 73.5457 0.629216 73.3256C0.637018 73.1744 0.64482 73.0097 0.654041 72.8287C0.663025 72.6626 0.672482 72.4851 0.682412 72.2963C0.700853 71.9669 0.721422 71.6027 0.744828 71.208C0.755704 71.0391 0.766343 70.8644 0.776746 70.6841C0.781001 70.6245 0.784548 70.5634 0.788094 70.5024C0.827104 69.8898 0.871789 69.2175 0.922857 68.4941C0.933259 68.3493 0.943899 68.2026 0.954774 68.054C0.966123 67.9049 0.976762 67.7544 0.98811 67.6018C0.98811 67.5698 0.993075 67.5372 0.995912 67.5045C1.00442 67.3839 1.01435 67.2618 1.02357 67.1382C1.02854 67.0722 1.0335 67.0055 1.03918 66.9388C1.04627 66.8479 1.05336 66.7563 1.06046 66.664C1.07322 66.5045 1.08599 66.3429 1.09876 66.1792C1.11152 66.0154 1.125 65.8498 1.13919 65.6823C1.25622 64.2689 1.39523 62.7384 1.55908 61.1319C1.57823 60.9452 1.59738 60.7571 1.61795 60.564C1.81229 58.7055 2.04351 56.754 2.30736 54.7713C2.33219 54.5839 2.35843 54.3965 2.38468 54.2084C2.64853 52.2917 2.9521 50.3444 3.29255 48.4334C3.32565 48.2441 3.3597 48.0567 3.39469 47.8712C3.49257 47.3449 3.59399 46.8184 3.69897 46.2917C3.79826 45.7905 3.9134 45.308 4.04438 44.8442C4.0964 44.6583 4.15078 44.4756 4.20752 44.2962C4.26426 44.1168 4.32313 43.9398 4.38413 43.7652C4.47562 43.504 4.5728 43.2491 4.67351 43C4.78983 42.7132 4.91278 42.4342 5.04234 42.163C5.06149 42.1211 5.08206 42.0792 5.10192 42.0373C5.17284 41.8954 5.24377 41.7534 5.3147 41.6114C5.35938 41.5248 5.40478 41.4396 5.45159 41.3551C5.57311 41.1341 5.69794 40.919 5.82609 40.7099C5.86935 40.6389 5.91262 40.5679 5.95588 40.5026C6.04383 40.3653 6.13273 40.2307 6.22257 40.0986C6.26797 40.0326 6.31336 39.9673 6.35946 39.9027C6.58927 39.5785 6.82759 39.2693 7.07441 38.9749C7.12406 38.916 7.17371 38.8571 7.22336 38.7996C7.42338 38.5681 7.62765 38.3459 7.83618 38.133L7.99364 37.9747C8.69558 37.2802 9.46251 36.6547 10.2839 36.107C10.5572 35.9238 10.8319 35.7513 11.1081 35.5894C13.165 34.3777 15.2928 33.7061 17.0071 33.3178C17.0575 33.3057 17.1071 33.2951 17.1561 33.2844C17.7029 33.1638 18.2065 33.0715 18.6498 33.0005C20.1428 36.601 21.4805 43.5643 21.8224 45.4235C21.8784 45.7281 21.9093 46.0367 21.9146 46.3464L21.9855 49.9845L21.9912 50.2976L22.4352 74.1867Z" fill="#EF9143"/>
<path d="M51.4275 73.8286L48.7578 73.862L44.7476 73.9117L43.9972 73.9209L42.7914 73.9358L42.2892 73.9415L35.2348 74.0288L34.4475 49.3191L34.4375 48.9961L34.3822 47.2568C34.3646 46.7015 34.375 46.1457 34.4134 45.5914L35.2192 33.9614L35.2738 33.1748L35.3369 33.1918C35.4915 33.233 35.6504 33.2763 35.8121 33.3218L36.0334 33.3856L36.1965 33.4339L36.4029 33.4964C36.6866 33.582 36.9777 33.6755 37.2761 33.7768C37.447 33.8343 37.6208 33.8946 37.7952 33.9578L37.8555 33.9798L38.0144 34.038C38.117 34.0754 38.2206 34.1142 38.3251 34.1544C38.5029 34.2226 38.6823 34.2936 38.8634 34.3674C39.2216 34.5094 39.5848 34.6677 39.9486 34.8338C40.1151 34.9091 40.2806 34.9871 40.4451 35.0681L40.6316 35.1589C41.0281 35.3534 41.4253 35.5622 41.819 35.7843L42.0154 35.8965L42.1417 35.9675C42.1928 35.9966 42.2438 36.0271 42.2942 36.0577C42.3445 36.0882 42.4055 36.1237 42.4609 36.1577L42.6027 36.2444C42.6916 36.2993 42.7798 36.3546 42.8673 36.4105L42.8829 36.4204L42.99 36.4914L43.1382 36.5894C43.2092 36.6355 43.2801 36.6816 43.346 36.7313C43.4297 36.7881 43.5127 36.8449 43.595 36.9038L43.7184 36.9919C43.8021 37.051 43.8851 37.1114 43.9674 37.1729C44.0227 37.2131 44.0773 37.2543 44.1312 37.2964C44.2731 37.4043 44.4149 37.5158 44.5568 37.6301C44.622 37.6826 44.6873 37.7358 44.7518 37.7898L44.9448 37.9531C45.1887 38.1622 45.4266 38.3795 45.6583 38.6047L45.7739 38.7183C45.7768 38.7205 45.7795 38.7232 45.7817 38.7261L45.8618 38.8063C45.9129 38.8582 45.964 38.91 46.0143 38.9625L46.1321 39.086C46.3647 39.3345 46.5889 39.5912 46.8045 39.8563C46.8435 39.9045 46.8832 39.9542 46.9215 40.0032L46.9634 40.0564C47.0009 40.1047 47.0378 40.153 47.0747 40.1984C47.1229 40.2623 47.1705 40.3262 47.2166 40.3908C47.2627 40.4554 47.3102 40.5214 47.3584 40.5867C47.4067 40.652 47.4499 40.7188 47.4946 40.7855C47.584 40.919 47.671 41.0545 47.7556 41.1923C47.7975 41.2633 47.8393 41.33 47.8804 41.4003C47.9216 41.4705 47.9613 41.5422 48.001 41.6132C48.0407 41.6842 48.0798 41.7552 48.1181 41.8262C48.1422 41.8709 48.1656 41.9149 48.189 41.9597C48.2124 42.0044 48.2351 42.0498 48.2599 42.0945C48.3053 42.1847 48.3493 42.2756 48.3925 42.3678C48.4145 42.4147 48.4358 42.4615 48.4571 42.5098C48.4706 42.5389 48.484 42.5687 48.4968 42.5986C48.4971 42.6014 48.4971 42.6042 48.4968 42.6071C48.5195 42.6575 48.5415 42.7079 48.5628 42.759C48.5841 42.8101 48.6146 42.8818 48.6394 42.9436L48.6479 42.9641C48.6734 43.0287 48.699 43.0933 48.7231 43.1579C48.7472 43.2225 48.7741 43.2935 48.7983 43.3617C48.8472 43.498 48.894 43.6364 48.9401 43.7755C48.9621 43.8465 48.9827 43.9118 49.0032 43.9807C49.0029 43.9826 49.0029 43.9845 49.0032 43.9864C49.0238 44.0574 49.0444 44.1284 49.0635 44.1993C49.0798 44.2583 49.0954 44.3172 49.111 44.3768L49.1281 44.4443C49.1437 44.5067 49.1593 44.5692 49.1735 44.6324C49.1855 44.6821 49.1969 44.7318 49.2075 44.7822C49.2075 44.7928 49.2125 44.8028 49.2139 44.8134C49.2203 44.839 49.2252 44.8645 49.2309 44.8908C49.2437 44.9525 49.2557 45.0143 49.2678 45.0754C49.2799 45.1364 49.2933 45.2116 49.3054 45.2805C49.3174 45.3494 49.3295 45.4225 49.3409 45.4935C49.3451 45.5226 49.3501 45.5517 49.3543 45.5808C49.3628 45.6397 49.3713 45.6986 49.3792 45.7583C49.4501 46.3134 49.5267 46.9324 49.6004 47.604C49.6068 47.67 49.6146 47.7367 49.6217 47.8034C49.6317 47.8936 49.6409 47.9845 49.6508 48.076C49.6702 48.2606 49.6893 48.4487 49.7083 48.6404C49.7246 48.7994 49.7409 48.9613 49.7565 49.1245C49.765 49.2069 49.7728 49.2892 49.7806 49.3716C49.7884 49.4539 49.7969 49.5384 49.8047 49.6222C49.8307 49.899 49.857 50.1811 49.8834 50.4684C49.8991 50.6387 49.9144 50.8108 49.9296 50.9844C49.9764 51.5105 50.0225 52.0493 50.0714 52.603C50.087 52.7866 50.1021 52.9717 50.1168 53.1581C50.1246 53.2511 50.1324 53.3448 50.1395 53.4385C50.1438 53.4939 50.1487 53.5486 50.153 53.6039C50.1526 53.6056 50.1526 53.6073 50.153 53.6089L50.1615 53.7204C50.1615 53.7438 50.1615 53.7679 50.1672 53.7913C50.1757 53.8964 50.1835 54.0043 50.192 54.1065C50.2005 54.2088 50.2083 54.3195 50.2168 54.4239C50.231 54.612 50.2459 54.8008 50.2601 54.9918C50.331 55.9437 50.4019 56.9127 50.4729 57.8838C50.4899 58.1266 50.5067 58.3694 50.5232 58.6122C50.5232 58.6285 50.5232 58.6448 50.5268 58.6612L50.5651 59.2156C50.5788 59.4229 50.5927 59.6295 50.6069 59.8353C50.6183 60.0029 50.6289 60.1704 50.6402 60.3379L50.67 60.7887C50.6821 60.9782 50.6949 61.1678 50.7069 61.3566C50.7154 61.4851 50.7232 61.6136 50.7317 61.7421C50.7469 61.9754 50.7618 62.208 50.7764 62.4399C50.7882 62.6292 50.8001 62.8185 50.8119 63.0078C50.8237 63.1971 50.8351 63.38 50.8459 63.5565C50.8459 63.5828 50.8459 63.6091 50.8509 63.6353C50.8665 63.8833 50.8816 64.1289 50.8963 64.3722C50.8963 64.38 50.8963 64.3871 50.8963 64.3949C50.918 64.7518 50.9393 65.1036 50.9601 65.4505C50.9871 65.8968 51.0131 66.3329 51.0381 66.7588C51.0457 66.8937 51.0535 67.0272 51.0616 67.1592C51.0616 67.1912 51.0651 67.2238 51.0672 67.2558C51.0757 67.4143 51.0847 67.5702 51.0942 67.7236C51.0942 67.7683 51.0991 67.813 51.102 67.857C51.107 67.9451 51.1119 68.0331 51.1169 68.1197C51.1218 68.2063 51.1268 68.295 51.1318 68.3816C51.1367 68.4683 51.1424 68.5726 51.1481 68.6656L51.1545 68.7771C51.1587 68.8559 51.163 68.9346 51.1672 69.012C51.1743 69.1355 51.1814 69.2576 51.1878 69.3769C51.1878 69.4309 51.1942 69.4841 51.197 69.5373C51.2084 69.7479 51.2197 69.9524 51.2311 70.1507C51.2311 70.199 51.236 70.2472 51.2389 70.2927C51.2389 70.3289 51.2424 70.3636 51.2446 70.4013C51.2446 70.468 51.2516 70.5347 51.2559 70.6C51.2602 70.6654 51.263 70.742 51.2672 70.813C51.2672 70.8435 51.2672 70.8741 51.2722 70.9039L51.2786 71.0224C51.2786 71.0721 51.2836 71.1211 51.2864 71.1694C51.2892 71.2176 51.2928 71.2844 51.2956 71.3405C51.3006 71.4249 51.3048 71.5073 51.3091 71.5882C51.3091 71.6194 51.3126 71.6507 51.3141 71.6819C51.3141 71.7415 51.3204 71.7997 51.3233 71.8565C51.3233 71.8972 51.3254 71.937 51.3297 71.9758C51.3346 72.0752 51.3403 72.1717 51.3446 72.264C51.3446 72.3002 51.3488 72.335 51.3502 72.3705C51.3517 72.406 51.3502 72.433 51.3552 72.4628C51.3602 72.4926 51.3552 72.5054 51.3587 72.5267C51.3587 72.5693 51.363 72.6104 51.3651 72.6509C51.3673 72.6914 51.3694 72.7262 51.3708 72.7624C51.3751 72.849 51.3793 72.9313 51.3836 73.008C51.3836 73.0271 51.3836 73.0463 51.3836 73.0648C51.3836 73.0832 51.3836 73.101 51.3836 73.1194C51.3836 73.1379 51.3836 73.1549 51.3836 73.172C51.3836 73.189 51.3836 73.2181 51.3836 73.243C51.3836 73.2863 51.3878 73.3274 51.39 73.3658C51.3921 73.4041 51.39 73.4233 51.3942 73.4495C51.3985 73.4758 51.3942 73.5013 51.3978 73.5255C51.3978 73.5255 51.3978 73.5319 51.3978 73.5347C51.3978 73.5659 51.3978 73.5951 51.4027 73.6213V73.6305C51.4027 73.6384 51.4027 73.6462 51.4027 73.654C51.4247 73.7697 51.4275 73.8286 51.4275 73.8286Z" fill="#EF9143"/>
<path d="M38.8733 39.4489L38.8556 39.488L34.4474 49.3185L34.4375 48.9955L38.7088 39.4695L36.8405 37.0964L38.3555 36.2296L37.8591 33.98L38.0179 34.0382L38.5201 36.3006L37.0561 37.1376L38.8733 39.4489Z" fill="#AD551A"/>
<path d="M16.3688 39.6884L18.0462 37.2421L16.5184 36.4967L17.0078 33.32C17.0582 33.3079 17.1078 33.2973 17.1568 33.2866L16.6745 36.4172L18.2562 37.1889L16.5369 39.6976L21.9862 49.9839L21.9919 50.2969L16.3688 39.6884Z" fill="#AD551A"/>
<path d="M44.7476 73.9109L43.9972 73.9202L41.8013 46.2104L44.7476 73.9109Z" fill="#D3722A"/>
<path d="M11.3414 74.3253L10.1973 74.3395C10.0931 67.2406 10.3108 48.4478 10.3108 48.4478L11.3414 74.3253Z" fill="#D3722A"/>
<path d="M50.1566 53.6053C50.1563 53.6039 50.1563 53.6024 50.1566 53.601C48.4167 39.3834 40.0849 34.9026 39.9543 34.833C40.1208 34.9083 40.2863 34.9863 40.4508 35.0673L40.6374 35.1581C41.0339 35.3526 41.4311 35.5614 41.8247 35.7835L42.0212 35.8957L42.1474 35.9667C42.1985 35.9958 42.2496 36.0263 42.2999 36.0569C42.3503 36.0874 42.4113 36.1229 42.4666 36.1569L42.6085 36.2436C42.6974 36.2985 42.7855 36.3538 42.873 36.4097L42.8886 36.4196L42.9957 36.4906L43.144 36.5886C43.2149 36.6347 43.2858 36.6808 43.3518 36.7305C43.4355 36.7873 43.5185 36.8441 43.6007 36.903L43.7242 36.9911C43.8078 37.0502 43.8908 37.1106 43.9731 37.1721C44.0284 37.2123 44.083 37.2535 44.137 37.2956C44.2788 37.4035 44.4207 37.515 44.5625 37.6293C44.6278 37.6818 44.693 37.735 44.7576 37.789L44.9505 37.9523C45.1945 38.1614 45.4323 38.3787 45.664 38.6039L45.7796 38.7175C45.7826 38.7197 45.7852 38.7224 45.7874 38.7253L45.8676 38.8055C45.9187 38.8574 45.9697 38.9092 46.0201 38.9617L46.1378 39.0852C46.3705 39.3337 46.5946 39.5904 46.8102 39.8555C46.8492 39.9037 46.8889 39.9534 46.9272 40.0024L46.9691 40.0556C47.0067 40.1039 47.0436 40.1522 47.0805 40.1976C47.1287 40.2615 47.1762 40.3254 47.2223 40.39C47.2684 40.4546 47.3159 40.5206 47.3642 40.5859C47.4124 40.6512 47.4557 40.718 47.5003 40.7847C47.5897 40.9182 47.6767 41.0537 47.7614 41.1915C47.8032 41.2625 47.8451 41.3292 47.8862 41.3995C47.9273 41.4697 47.9671 41.5414 48.0068 41.6124C48.0465 41.6834 48.0855 41.7544 48.1238 41.8254C48.1479 41.8701 48.1713 41.9141 48.1947 41.9589C48.2181 42.0036 48.2408 42.049 48.2657 42.0937C48.3111 42.1839 48.355 42.2748 48.3983 42.367C48.4203 42.4139 48.4416 42.4607 48.4628 42.509C48.4763 42.5381 48.4898 42.5679 48.5026 42.5978C48.5028 42.6006 48.5028 42.6034 48.5026 42.6063C48.5253 42.6567 48.5472 42.7071 48.5685 42.7582C48.5898 42.8093 48.6203 42.881 48.6451 42.9428L48.6536 42.9633C48.6792 43.0279 48.7047 43.0925 48.7288 43.1571C48.7529 43.2217 48.7799 43.2927 48.804 43.3609C48.8536 43.4972 48.8997 43.6356 48.9459 43.7747C48.9678 43.8457 48.9884 43.911 49.009 43.9799C49.0087 43.9818 49.0087 43.9837 49.009 43.9856C49.0295 44.0566 49.0501 44.1276 49.0693 44.1985C49.0856 44.2575 49.1012 44.3164 49.1168 44.376L49.1338 44.4435C49.1494 44.5059 49.165 44.5684 49.1792 44.6316C49.1913 44.6813 49.2026 44.731 49.2133 44.7814C49.2133 44.792 49.2182 44.802 49.2196 44.8126C49.226 44.8382 49.231 44.8637 49.2367 44.89C49.2494 44.9517 49.2615 45.0135 49.2735 45.0745C49.2856 45.1356 49.2991 45.2108 49.3111 45.2797C49.3232 45.3486 49.3352 45.4217 49.3466 45.4927C49.3509 45.5218 49.3558 45.5509 49.3601 45.58C49.3686 45.6389 49.3771 45.6978 49.3849 45.7575C49.4558 46.3126 49.5324 46.9316 49.6062 47.6032C49.6126 47.6692 49.6204 47.7359 49.6275 47.8026C49.6374 47.8928 49.6466 47.9837 49.6565 48.0752C49.6759 48.2598 49.6951 48.4479 49.714 48.6396C49.7305 48.7986 49.7466 48.96 49.7622 49.1237C49.7707 49.2061 49.7785 49.2884 49.7863 49.3708C49.7941 49.4531 49.8027 49.5376 49.8105 49.6214C49.8365 49.8982 49.8627 50.1803 49.8892 50.4676C49.9048 50.6379 49.9202 50.81 49.9353 50.9836C49.9821 51.5097 50.0282 52.0485 50.0771 52.6022C50.0928 52.7858 50.1079 52.9709 50.1225 53.1573C50.1303 53.2503 50.1381 53.344 50.1452 53.4377C50.1452 53.4952 50.1502 53.5499 50.1566 53.6053Z" fill="#120283"/>
<path d="M34.9134 14.5185C35.0553 16.1271 34.3276 17.4291 34.3276 17.4291C32.5586 17.8997 32.0444 15.0907 31.6543 13.7994C31.0422 11.7762 30.0003 13.054 30.0003 13.054C28.2051 11.9005 27.8682 13.7639 26.6269 15.7516C25.3857 17.7393 23.3692 17.1763 23.3692 17.1763L20.6172 13.3735C20.281 11.2793 20.5981 8.68822 22.3713 8.45751C24.1445 8.2268 24.9601 7.90735 27.1866 6.9845C29.413 6.06164 30.3783 7.41043 30.3783 7.41043C33.3722 6.41659 34.8872 9.11771 35.2723 10.8356C35.6872 13.6553 34.9134 14.5185 34.9134 14.5185Z" fill="#120283"/>
<path d="M30.0004 13.0513C30.0004 13.0513 29.0868 12.3882 28.6904 13.0513C28.2939 13.7143 27.0881 19.4871 24.5581 18.0673C24.5581 18.0673 25.5603 18.3144 26.3313 16.6206C27.1023 14.9268 27.3867 12.8851 28.3485 12.4834C29.3103 12.0816 29.7677 12.2938 30.0004 13.0513Z" fill="#120283"/>
</g>
</svg>
