<svg width="54" height="54" viewBox="0 0 54 54" fill="none" xmlns="http://www.w3.org/2000/svg">
<path d="M26.963 53.0456C41.5986 53.0456 53.463 41.1709 53.463 26.5228C53.463 11.8747 41.5986 0 26.963 0C12.3275 0 0.463013 11.8747 0.463013 26.5228C0.463013 41.1709 12.3275 53.0456 26.963 53.0456Z" fill="#FFC28F"/>
<mask id="mask0_259_200" style="mask-type:alpha" maskUnits="userSpaceOnUse" x="0" y="0" width="54" height="54">
<path d="M26.963 53.0456C41.5986 53.0456 53.463 41.1709 53.463 26.5228C53.463 11.8747 41.5986 0 26.963 0C12.3275 0 0.463013 11.8747 0.463013 26.5228C0.463013 41.1709 12.3275 53.0456 26.963 53.0456Z" fill="#FFC28F"/>
</mask>
<g mask="url(#mask0_259_200)">
<path d="M32.7805 18.5094C32.7805 18.5094 36.6816 19.5437 36.727 24.2758C36.7724 29.008 44.907 25.6488 42.8736 33.7415C40.8401 41.8342 32.3294 39.3276 30.5797 38.3792C28.8299 37.4308 18.2616 35.8711 18.2616 35.8711C18.2616 35.8711 17.7432 31.8447 19.4922 28.2044C21.2413 24.5641 23.2862 24.278 21.9676 20.1606C20.6491 16.0433 32.7805 18.5094 32.7805 18.5094Z" fill="#120283"/>
<path d="M29.3973 23.1871C29.3973 23.1871 31.2797 23.0394 32.3954 19.7292C33.5111 16.419 34.9297 10.6426 30.8967 7.99548C27.5078 5.76857 19.0256 6.33931 18.839 12.6807C18.6525 19.0222 20.1327 19.7292 20.1327 19.7292L29.3973 23.1871Z" fill="#120283"/>
<path d="M53.3595 74.4566L2.51074 73.8277C2.51074 73.8277 3.51295 53.5704 4.55488 45.7573C5.59681 37.9443 13.8017 34.463 18.5986 33.1923C20.3498 32.7274 21.5215 32.2539 22.2868 31.4815C23.1188 30.6474 23.4784 29.4654 23.5869 27.5771C23.6536 26.4236 23.6273 25.0052 23.5571 23.2412L27.944 20.6572L30.2073 19.3247C30.2073 19.3247 29.8094 25.4539 30.1881 28.2515C30.3662 29.5662 30.8073 30.5643 31.3577 31.2849C31.9784 32.0963 32.7373 32.5563 33.4146 32.7203C34.6913 33.0298 47.6917 33.46 50.2422 46.289C52.7928 59.1181 53.3595 74.4566 53.3595 74.4566Z" fill="#FFE6E6"/>
<path d="M53.3595 74.4565L42.1267 74.3145L36.9199 74.2535L13.4712 73.9624L12.0285 73.9447L2.51001 73.8275C2.51001 73.8275 3.51293 53.5702 4.55415 45.7572C5.53862 38.3552 12.9584 34.8412 17.8176 33.4101C18.0871 33.3306 18.3484 33.2575 18.6014 33.1908C19.1751 33.0437 19.7411 32.8679 20.2973 32.664C21.1548 32.3396 21.8052 31.9698 22.2932 31.4792C23.1961 32.1273 26.0296 33.5649 31.3584 31.2861C31.9634 32.0777 32.7004 32.5348 33.3628 32.7059C33.3793 32.7114 33.3962 32.7159 33.4132 32.7194C33.7983 32.8131 35.2573 32.9175 37.1724 33.3725C41.5947 34.4224 48.4633 37.3372 50.2422 46.2924C52.7906 59.1201 53.3595 74.4565 53.3595 74.4565Z" fill="#EF7373"/>
<path d="M29.9399 20.4009C29.9399 20.4009 29.7512 23.4782 27.5284 26.3235C27.0042 26.995 26.4644 27.3947 25.946 27.6126C24.8423 28.0762 23.6281 27.2541 23.6281 26.0565C23.6281 25.2295 23.6025 24.2953 23.5607 23.2369L27.944 20.6571L29.9399 20.4009Z" fill="#120283"/>
<path d="M31.9599 19.5435C31.6159 20.2817 30.9237 20.7034 30.2853 20.5621C29.7179 22.8636 28.2284 25.838 24.1856 25.838C21.5541 25.838 19.5894 22.1466 19.6136 19.733C19.6334 17.7453 19.6136 17.4287 19.6136 17.4287L19.5958 13.5293H30.4712C30.5307 14.7127 30.5818 16.1601 30.5662 17.4763C30.779 17.3343 31.1407 17.1888 31.6897 17.2598C32.6855 17.3854 32.4805 18.4247 31.9599 19.5435Z" fill="#FFE6E6"/>
<path d="M25.7315 19.5878C25.906 19.5878 26.0475 19.4461 26.0475 19.2714C26.0475 19.0967 25.906 18.9551 25.7315 18.9551C25.5569 18.9551 25.4154 19.0967 25.4154 19.2714C25.4154 19.4461 25.5569 19.5878 25.7315 19.5878Z" fill="#120283"/>
<path d="M22.4256 19.5878C22.6001 19.5878 22.7416 19.4461 22.7416 19.2714C22.7416 19.0967 22.6001 18.9551 22.4256 18.9551C22.251 18.9551 22.1095 19.0967 22.1095 19.2714C22.1095 19.4461 22.251 19.5878 22.4256 19.5878Z" fill="#120283"/>
<path d="M23.8691 21.8938C23.8691 21.8938 24.6884 21.8122 25.2494 21.4785C25.248 21.4785 25.1104 22.466 23.8691 21.8938Z" fill="#120283"/>
<path d="M23.7801 21.3056C23.6114 21.3114 23.4463 21.256 23.3152 21.1495C23.2839 21.1238 23.2606 21.0896 23.248 21.051C23.2354 21.0125 23.2342 20.9711 23.2443 20.9318C23.306 20.7382 23.5115 20.1644 23.5136 20.1587L23.6135 20.1949C23.6135 20.2005 23.4066 20.7722 23.3457 20.9644C23.3423 20.9846 23.3446 21.0054 23.3522 21.0244C23.3599 21.0434 23.3725 21.0599 23.3889 21.0722C23.5058 21.1836 23.7843 21.2467 24.0267 21.1552L24.0643 21.2552C23.9732 21.2884 23.877 21.3054 23.7801 21.3056Z" fill="#120283"/>
<path d="M26.7702 16.9911C26.7702 16.9911 24.8814 17.1508 24.4828 17.0529C24.4828 17.0529 24.4998 16.8456 24.8459 16.7426C25.1921 16.6397 26.2028 16.7533 26.7702 16.9911Z" fill="#120283"/>
<path d="M20.8123 16.9911C20.8123 16.9911 22.7004 17.1508 23.0997 17.0529C23.0997 17.0529 23.0827 16.8456 22.7358 16.7426C22.389 16.6397 21.3797 16.7533 20.8123 16.9911Z" fill="#120283"/>
<path d="M30.2428 17.3568C30.2428 17.3568 28.725 16.5759 27.9348 14.2098C27.9348 14.2098 25.0076 13.9969 24.0671 15.2513C23.1266 16.5056 22.5259 18.2562 19.4923 17.9957V13.145H30.3372L30.2428 17.3568Z" fill="#120283"/>
<path d="M31.3094 13.1452C31.2726 15.1187 30.8186 17.1738 30.8186 17.1738L30.7186 17.5238C30.0994 19.7621 30.4349 22.2666 30.4533 22.3929C30.4221 22.2872 29.9122 20.5309 29.9398 19.0969C29.9576 18.1613 29.9526 16.8253 29.9469 15.9656C29.9072 15.6235 29.8611 15.2919 29.8051 14.9902C29.6341 14.0447 29.271 13.4853 28.8177 13.1445L31.3094 13.1452Z" fill="#120283"/>
<path d="M28.8192 7.97236C28.7235 7.58192 28.754 4.77787 31.3095 4.95534C33.865 5.13281 35.9198 8.11433 33.7593 9.92455C31.5989 11.7348 30.0647 10.9539 30.0647 10.9539L28.8192 7.97236Z" fill="#120283"/>
<path d="M37.1696 33.3746C34.6411 36.4307 30.2705 39.54 25.6262 39.4995C20.2569 39.4498 18.366 35.1628 17.817 33.4101C18.0865 33.3306 18.3478 33.2575 18.6008 33.1908C19.1745 33.0437 19.7405 32.8679 20.2966 32.664C21.1542 32.3396 21.8046 31.9698 22.2926 31.4792C23.1955 32.1273 26.029 33.5649 31.3578 31.2861C31.9628 32.0777 32.6998 32.5348 33.3622 32.7059C33.3787 32.7114 33.3956 32.7159 33.4126 32.7194C33.7992 32.8152 35.2539 32.9196 37.1696 33.3746Z" fill="#FFE6E6"/>
<path d="M12.0286 73.9451L13.4712 43.0444V73.9628L12.0286 73.9451Z" fill="#DD5454"/>
<path d="M42.1267 74.3177L36.9199 74.2538C38.6378 68.2908 41.4635 56.2106 40.3904 44.0957C40.3869 44.095 42.4998 58.911 42.1267 74.3177Z" fill="#DD5454"/>
</g>
</svg>
