<svg width="53" height="54" viewBox="0 0 53 54" fill="none" xmlns="http://www.w3.org/2000/svg">
<path d="M26.5 53.0456C41.1355 53.0456 53 41.1709 53 26.5228C53 11.8747 41.1355 0 26.5 0C11.8645 0 0 11.8747 0 26.5228C0 41.1709 11.8645 53.0456 26.5 53.0456Z" fill="#FFC28F"/>
<mask id="mask0_259_196" style="mask-type:alpha" maskUnits="userSpaceOnUse" x="0" y="0" width="53" height="54">
<path d="M26.5 53.0456C41.1355 53.0456 53 41.1709 53 26.5228C53 11.8747 41.1355 0 26.5 0C11.8645 0 0 11.8747 0 26.5228C0 41.1709 11.8645 53.0456 26.5 53.0456Z" fill="#FFC28F"/>
</mask>
<g mask="url(#mask0_259_196)">
<path d="M23.6735 10.1675C23.6735 10.1675 21.8173 8.61495 20.6116 10.4961C19.4058 12.3773 20.4229 14.791 20.7832 15.7493C21.1435 16.7077 22.2074 21.4795 22.2074 21.4795C22.2074 21.4795 22.4202 22.2803 23.9806 23.3451C25.541 24.4099 25.2573 21.4128 25.2573 21.4128L23.6735 10.1675Z" fill="#120283"/>
<path d="M50.8495 73.8285L42.2112 73.9356L41.709 73.9413L14.5189 74.2785L11.7073 74.3133L0.00425566 74.4553H0C0 74.4553 0.0219876 73.8703 0.0758926 72.8332C0.0844039 72.6671 0.093861 72.4896 0.104264 72.3008C0.121996 71.9714 0.142565 71.6072 0.16668 71.2125C0.17661 71.0436 0.187249 70.8689 0.198597 70.6886C0.202853 70.629 0.2064 70.5679 0.209946 70.5069C0.248247 69.8943 0.292931 69.222 0.344709 68.4986C0.355111 68.3538 0.36575 68.2071 0.376626 68.0585C0.387974 67.9094 0.398614 67.7589 0.409962 67.6063C0.42131 67.4537 0.433368 67.2996 0.445426 67.1427C0.457484 66.9859 0.469541 66.8283 0.482308 66.6685C0.495075 66.5088 0.507842 66.347 0.520609 66.1837C0.533376 66.0204 0.547562 65.855 0.561038 65.6868C1.01639 60.1887 1.8044 52.9067 3.12082 46.2919C3.22012 45.7908 3.33526 45.3083 3.46624 44.8445C3.51825 44.6585 3.57263 44.4758 3.62937 44.2964C3.68611 44.1171 3.74498 43.9401 3.80598 43.7655C3.89724 43.5042 3.9937 43.2491 4.09536 43.0002C4.23013 42.6689 4.37198 42.348 4.52093 42.0376C4.63347 41.8057 4.7505 41.5792 4.87202 41.3582C4.99355 41.1372 5.11909 40.9221 5.24865 40.7129C5.29191 40.642 5.33518 40.571 5.37845 40.5057C5.46592 40.3684 5.55482 40.2338 5.64513 40.1017C5.69053 40.0357 5.73592 39.9704 5.78202 39.9058C6.01136 39.5816 6.24967 39.2723 6.49698 38.978C6.54662 38.9191 6.59627 38.8601 6.64592 38.8026C6.84547 38.5712 7.04974 38.349 7.25874 38.1361L7.4162 37.9777C12.2081 33.2215 19.0412 32.9425 19.9477 32.7246L19.9867 32.7146C20.0314 32.7033 20.0768 32.6898 20.1222 32.6756L20.1853 32.655L20.2491 32.633L20.3123 32.6089L20.3761 32.5833C20.396 32.5755 20.4165 32.567 20.4364 32.5578C20.6652 32.4575 20.8827 32.3333 21.0854 32.1872C21.1208 32.1616 21.1563 32.1354 21.1918 32.1077L21.257 32.0566C21.3003 32.0218 21.3436 31.9856 21.3861 31.9487C21.4074 31.9302 21.4287 31.9118 21.4499 31.8919L21.5124 31.8344L21.5769 31.7719C21.6188 31.7307 21.6599 31.6881 21.7017 31.6441C21.723 31.6221 21.7429 31.6001 21.7627 31.5774L21.8237 31.5064C21.8443 31.483 21.8642 31.4596 21.884 31.4354C21.9039 31.4113 21.9237 31.3872 21.9429 31.3644L21.9996 31.2934C22.55 30.5729 22.9926 29.5748 23.1699 28.2601C23.5487 25.4624 23.1508 19.334 23.1508 19.334L25.4155 20.6579L29.7967 23.2362C29.7258 25.0003 29.7003 26.4187 29.7669 27.5722C29.8762 29.4627 30.2358 30.6446 31.067 31.4766C31.128 31.5384 31.1919 31.598 31.2578 31.6548C31.2905 31.6846 31.3245 31.713 31.3585 31.74C31.3926 31.7669 31.4295 31.796 31.4635 31.823C31.4976 31.85 31.5344 31.8777 31.5727 31.9032C31.611 31.9288 31.6479 31.9565 31.6862 31.9813C31.8881 32.1158 32.099 32.2361 32.3175 32.3412H32.321C32.3657 32.3632 32.4111 32.3853 32.4572 32.4058C32.5033 32.4264 32.553 32.4506 32.5991 32.4712C32.6452 32.4917 32.6977 32.5145 32.748 32.535C32.7984 32.5556 32.8452 32.5755 32.8955 32.5954L33.0601 32.6593C33.1726 32.7019 33.2894 32.7437 33.4105 32.7849C33.4537 32.8005 33.4977 32.8147 33.5424 32.8296C33.6843 32.8765 33.8318 32.9233 33.9836 32.9716L34.1254 33.0128L34.1786 33.0284L34.4042 33.093L34.7588 33.1881C35.3589 33.3472 36.0121 33.5431 36.698 33.7731C36.8687 33.8313 37.0417 33.8916 37.2172 33.9541C37.3926 34.017 37.5692 34.0826 37.747 34.1507C37.9248 34.2189 38.1042 34.2899 38.2853 34.3637C42.8041 36.1917 47.9918 39.6517 48.8039 45.756C49.8444 53.5711 50.8495 73.8285 50.8495 73.8285Z" fill="#FFE6E6"/>
<path d="M50.8494 73.8285L48.1797 73.8619L42.2111 73.9329L41.709 73.9386L30.857 74.0735L28.1058 74.1075L14.516 74.2758L13.5493 74.2878L11.7051 74.3106L6.00043 74.3815L-0.00146484 74.4525C-0.00146484 74.4525 0.00562792 74.2573 0.0226506 73.8924C0.0297433 73.7348 0.0382547 73.5446 0.0488938 73.3245C0.0566958 73.1733 0.0644979 73.0086 0.0737185 72.8276C0.0827027 72.6615 0.0921597 72.484 0.10209 72.2952C0.120531 71.9658 0.1411 71.6016 0.164506 71.2069C0.175381 71.038 0.186021 70.8633 0.196423 70.683C0.200679 70.6234 0.204225 70.5624 0.207772 70.5013C0.246782 69.8887 0.291466 69.2164 0.342534 68.493C0.352937 68.3482 0.363576 68.2015 0.374452 68.0529C0.3858 67.9038 0.396439 67.7533 0.407788 67.6007C0.407788 67.5688 0.412753 67.5361 0.41559 67.5035C0.424101 67.3828 0.434031 67.2607 0.443252 67.1371C0.448217 67.0711 0.453182 67.0044 0.458856 66.9377C0.465948 66.8468 0.473041 66.7552 0.480134 66.6629C0.492901 66.5035 0.505668 66.3418 0.518435 66.1781C0.531202 66.0143 0.544678 65.8487 0.558864 65.6812C0.675894 64.2678 0.814913 62.7373 0.978756 61.1308C0.997906 60.9441 1.01706 60.756 1.03763 60.5629C1.23197 58.7044 1.46319 56.7529 1.72704 54.7702C1.75187 54.5828 1.77811 54.3954 1.80435 54.2073C2.0682 52.2906 2.37178 50.3434 2.71223 48.4323C2.74533 48.243 2.77937 48.0556 2.81436 47.8701C2.91366 47.3448 3.0158 46.8188 3.12077 46.292C3.22007 45.7909 3.33521 45.3084 3.46619 44.8446C3.5182 44.6586 3.57258 44.4759 3.62932 44.2965C3.68606 44.1172 3.74493 43.9402 3.80593 43.7655C3.89743 43.5043 3.9946 43.2495 4.09532 43.0003C4.21164 42.7135 4.33458 42.4345 4.46414 42.1633C4.48329 42.1214 4.50386 42.0796 4.52372 42.0377C4.59465 41.8957 4.66558 41.7537 4.7365 41.6117C4.78119 41.5251 4.82658 41.44 4.87339 41.3555C4.99492 41.1345 5.11975 40.9194 5.24789 40.7102C5.29116 40.6392 5.33442 40.5682 5.37769 40.5029C5.46564 40.3657 5.55454 40.231 5.64438 40.099C5.68977 40.033 5.73517 39.9676 5.78127 39.903C6.01107 39.5789 6.24939 39.2696 6.49622 38.9752C6.54587 38.9163 6.59552 38.8574 6.64517 38.7999C6.84518 38.5685 7.04945 38.3463 7.25798 38.1333L7.41544 37.975C8.11738 37.2805 8.88432 36.6551 9.7057 36.1073C9.979 35.9241 10.2537 35.7516 10.5299 35.5898C14.7451 33.1087 19.2249 32.8922 19.9469 32.7197C19.9597 32.7197 19.9725 32.714 19.986 32.7098L19.9966 32.7062C20.0377 32.6956 20.0796 32.6835 20.1214 32.6707L20.1845 32.6501L20.2484 32.6281L20.3115 32.604L20.3753 32.5784C20.3959 32.5706 20.4158 32.5621 20.4356 32.5529C20.4931 32.528 20.5512 32.5004 20.6094 32.4712C20.7749 32.3872 20.9338 32.2906 21.0846 32.1823C21.1201 32.1568 21.1555 32.1305 21.191 32.1028L21.2563 32.0517C21.2995 32.0176 21.3428 31.9807 21.3854 31.9438C21.4066 31.9253 21.4279 31.9069 21.4492 31.887C21.4705 31.8671 21.491 31.8494 21.5116 31.8295L21.5762 31.767C21.6187 31.7259 21.6606 31.6833 21.701 31.6393C21.7223 31.6173 21.7421 31.5952 21.762 31.5725C21.7818 31.5498 21.8031 31.5271 21.823 31.5015C21.8428 31.476 21.8634 31.4547 21.8833 31.4306C21.9031 31.4064 21.923 31.3823 21.9421 31.3596L21.9996 31.2886C27.327 33.5666 30.1598 32.1305 31.0641 31.4817C31.1251 31.5427 31.189 31.6023 31.2549 31.6598C31.2876 31.689 31.3216 31.7173 31.3557 31.745C31.3897 31.7727 31.4266 31.8004 31.4606 31.8281C31.4947 31.8558 31.5316 31.882 31.5699 31.9083C31.6082 31.9346 31.645 31.9608 31.6833 31.9864C31.8857 32.12 32.0966 32.2403 32.3146 32.3463H32.3181C32.3628 32.3683 32.4082 32.3896 32.4543 32.4109C32.5004 32.4322 32.5501 32.4556 32.5962 32.4762C32.6423 32.4968 32.6948 32.5195 32.7451 32.5401C32.782 32.5564 32.8196 32.572 32.8579 32.5862L32.8898 32.5997L33.0544 32.6636C33.1669 32.7062 33.2837 32.7481 33.4048 32.7893C33.448 32.8049 33.492 32.8191 33.5367 32.834C33.6785 32.8808 33.8261 32.9277 33.9779 32.976L33.9956 32.9809L34.119 33.0171L34.1722 33.0328L34.3977 33.0974L34.7524 33.1925C35.3524 33.3515 36.0057 33.5474 36.6915 33.7774C36.8625 33.8349 37.0363 33.8953 37.2107 33.9585C37.3862 34.0214 37.5628 34.0869 37.7406 34.1551C37.9184 34.2232 38.0978 34.2942 38.2789 34.3681C39.3654 34.8041 40.4203 35.3153 41.4359 35.8979C41.7196 36.0621 42.0033 36.2341 42.287 36.414C44.3879 37.7627 46.3115 39.5289 47.5357 41.8276C47.6303 42.005 47.7208 42.1856 47.8073 42.3692C48.3105 43.4418 48.6455 44.5856 48.8003 45.7603C48.8911 46.4439 48.9819 47.2234 49.072 48.076C49.0914 48.2605 49.1105 48.4487 49.1294 48.6403C49.1621 48.9593 49.1942 49.2866 49.2259 49.6221C49.3677 51.0987 49.5032 52.7286 49.6351 54.4238C49.6493 54.6119 49.6642 54.8007 49.6784 54.9917C49.8203 56.8956 49.9621 58.8684 50.0869 60.7886C50.099 60.9782 50.1118 61.1677 50.1238 61.3565C50.2572 63.4152 50.3778 65.4029 50.4785 67.1577C50.4891 67.3501 50.5005 67.5397 50.5111 67.7256C50.6757 70.59 50.7884 72.7658 50.8267 73.5304C50.8445 73.7242 50.8494 73.8285 50.8494 73.8285Z" fill="#3547C9"/>
<path d="M30.8598 74.0755L28.1086 74.1096L26.8567 35.0815L27.9575 33.4253L29.4824 35.5777L30.8598 74.0755Z" fill="#4F66DB"/>
<path d="M23.4196 20.4019C23.4196 20.4019 23.6089 23.4792 25.8311 26.3244C27.283 28.1851 28.8562 27.9572 29.7704 27.5738C29.703 26.4203 29.73 25.0019 29.7995 23.2379L25.4155 20.6581L23.4196 20.4019Z" fill="#120283"/>
<path d="M21.6698 17.2567C22.2195 17.1857 22.5798 17.3277 22.7933 17.4739C22.7592 14.5918 23.0444 11.085 23.0444 11.085H33.7778L33.7495 17.4278C33.7495 17.4278 33.7296 17.7416 33.7495 19.7314C33.7736 22.1485 31.8089 25.84 29.1775 25.84C25.1296 25.84 23.6451 22.8648 23.0777 20.5634C22.4393 20.7053 21.4386 20.7877 21.0917 20.0487C20.569 18.9292 20.674 17.3859 21.6698 17.2567Z" fill="#FFE6E6"/>
<path d="M27.5573 19.5174C27.7318 19.5174 27.8733 19.3758 27.8733 19.2011C27.8733 19.0264 27.7318 18.8848 27.5573 18.8848C27.3827 18.8848 27.2412 19.0264 27.2412 19.2011C27.2412 19.3758 27.3827 19.5174 27.5573 19.5174Z" fill="#120283"/>
<path d="M30.8632 19.5174C31.0377 19.5174 31.1792 19.3758 31.1792 19.2011C31.1792 19.0264 31.0377 18.8848 30.8632 18.8848C30.6886 18.8848 30.5471 19.0264 30.5471 19.2011C30.5471 19.3758 30.6886 19.5174 30.8632 19.5174Z" fill="#120283"/>
<path d="M28.8711 17.0837C28.8711 17.0837 28.6753 17.1362 27.7965 17.1362C26.9177 17.1362 26.5269 17.2214 26.5432 17.1362C26.6141 16.7699 28.1788 16.5867 28.4412 16.6258C28.7037 16.6648 28.9796 16.848 28.8711 17.0837Z" fill="#120283"/>
<path d="M30.2528 17.0837C30.2528 17.0837 30.4485 17.1362 31.3273 17.1362C32.2061 17.1362 32.5969 17.2214 32.5806 17.1362C32.5097 16.7699 30.945 16.5867 30.6826 16.6258C30.4201 16.6648 30.1442 16.848 30.2528 17.0837Z" fill="#120283"/>
<path d="M22.5408 17.1744L23.1933 19.451C23.1933 19.451 23.2416 16.7258 23.5551 14.9894C23.8686 13.253 24.8318 12.8193 25.8077 12.6503C25.8399 12.6453 25.8727 12.6453 25.9049 12.6503H32.9516C32.9516 12.6503 34.995 11.9809 32.9842 9.70073C32.7835 9.59851 31.621 9.37632 31.394 9.31456C28.6342 8.56705 24.4232 7.48731 23.6756 10.1664C23.6756 10.1664 22.5408 9.18536 22.1578 11.4371C21.7748 13.6889 22.5408 17.1744 22.5408 17.1744Z" fill="#120283"/>
<path d="M29.4753 21.4121C29.529 21.3968 29.5838 21.3856 29.6392 21.3787C29.8633 21.3418 30.1427 21.2957 30.1867 21.1381C30.2108 21.0529 30.1619 20.9599 30.0378 20.8541C29.5753 20.4573 29.6562 19.5834 29.6576 19.5763L29.5618 19.5664C29.5576 19.6047 29.4753 20.4992 29.9746 20.9287C30.064 21.0053 30.1066 21.0707 30.0938 21.114C30.0661 21.2126 29.7782 21.2602 29.6236 21.2858C29.5542 21.2907 29.4862 21.307 29.4221 21.334L29.4753 21.4121Z" fill="#120283"/>
<path d="M29.4917 21.8948C29.4917 21.8948 28.6732 21.8131 28.1122 21.4795C28.1122 21.4795 28.2491 22.4669 29.4917 21.8948Z" fill="#120283"/>
<path d="M33.7778 16.621C33.7778 16.621 33.4636 14.5886 32.3068 13.4315C32.3068 13.4315 29.4555 12.4021 28.0866 15.7784C26.7177 19.1546 22.5408 17.1747 22.5408 17.1747L23.0869 16.8971C23.0869 16.8971 26.2077 18.0287 27.2802 15.843C27.2802 15.843 25.902 17.7206 22.7919 16.6238L23.4196 11.3117L34.024 10.6729C34.024 10.6729 34.9914 12.8011 33.7778 16.621Z" fill="#120283"/>
<path d="M22.4435 10.4745C22.4435 10.4745 21.2144 8.40161 22.9876 7.12381C24.7608 5.84601 28.2362 6.52041 29.2647 7.12381C30.2931 7.72721 32.2975 5.84601 33.7778 7.44326C35.258 9.0405 33.6267 12.022 33.6267 12.022L22.4435 10.4745Z" fill="#120283"/>
<path d="M32.3068 13.4316C32.3068 13.4316 31.7678 16.8433 33.8672 17.7513C33.8672 17.7513 35.3666 14.013 34.024 10.6694L32.3068 13.4316Z" fill="#120283"/>
<path d="M14.5188 74.2778L11.7073 74.3126C12.53 65.5937 15.1409 42.6076 15.2026 42.0674C15.1657 42.6041 13.6684 64.607 14.5188 74.2778Z" fill="#120283"/>
<path d="M42.2111 73.9349L41.7089 73.9406L39.1073 42.5898L42.2111 73.9349Z" fill="#120283"/>
<path d="M49.2308 49.6212C47.4902 39.0765 37.5469 34.348 34.0048 32.9814L34.1282 33.0176L34.1814 33.0333L34.4069 33.0979L34.7616 33.193C35.3616 33.352 36.0149 33.5479 36.7007 33.7779C36.8717 33.8354 37.0454 33.8958 37.2199 33.959C37.3953 34.0219 37.5719 34.0874 37.7497 34.1556C37.9275 34.2237 38.107 34.2947 38.2881 34.3686C39.3746 34.8046 40.4295 35.3158 41.4451 35.8984C41.7288 36.0626 42.0125 36.2346 42.2962 36.4145C44.3971 37.7632 46.3206 39.5294 47.5449 41.8281C47.6394 42.0055 47.73 42.1861 47.8165 42.3697C48.3197 43.4423 48.6546 44.5861 48.8095 45.7608C48.9003 46.4444 48.9911 47.2239 49.0811 48.0765C49.1005 48.261 49.1197 48.4492 49.1386 48.6408C49.1684 48.9579 49.1991 49.2847 49.2308 49.6212Z" fill="#120283"/>
<path d="M32.8671 32.5878L30.4216 36.0804C30.3954 36.1178 30.3608 36.1485 30.3205 36.1699C30.2802 36.1913 30.2354 36.2029 30.1898 36.2037C30.1442 36.2044 30.0991 36.1944 30.0581 36.1743C30.0172 36.1542 29.9815 36.1247 29.9541 36.0882L27.9575 33.4254L26.1723 36.1528C26.1508 36.1855 26.123 36.2136 26.0904 36.2352C26.0578 36.2569 26.0212 36.2717 25.9827 36.2787C25.9442 36.2857 25.9047 36.2849 25.8666 36.2762C25.8285 36.2675 25.7925 36.2511 25.7609 36.2281L20.6108 32.4742C20.7764 32.3901 20.9352 32.2935 21.0861 32.1853C21.1215 32.1597 21.157 32.1334 21.1924 32.1057L21.2577 32.0546C21.301 32.0206 21.3442 31.9836 21.3868 31.9467C21.4081 31.9283 21.4293 31.9098 21.4506 31.8899C21.4719 31.8701 21.4925 31.8523 21.513 31.8324L21.5776 31.77C21.6201 31.7288 21.662 31.6862 21.7024 31.6422C21.7237 31.6202 21.7436 31.5982 21.7634 31.5755C21.7833 31.5527 21.8046 31.53 21.8244 31.5045C21.8443 31.4789 21.8648 31.4576 21.8847 31.4335C21.9046 31.4093 21.9244 31.3852 21.9436 31.3625L22.001 31.2915C27.3284 33.5695 30.1613 32.1334 31.0656 31.4846C31.1266 31.5456 31.1904 31.6053 31.2564 31.6628C31.289 31.6919 31.323 31.7203 31.3571 31.748C31.3911 31.7756 31.428 31.8033 31.4621 31.831C31.4961 31.8587 31.533 31.885 31.5713 31.9112C31.6096 31.9375 31.6465 31.9638 31.6848 31.9893C31.8871 32.123 32.098 32.2432 32.316 32.3492H32.3196C32.3643 32.3712 32.4097 32.3925 32.4558 32.4138C32.5019 32.4351 32.5515 32.4586 32.5976 32.4791C32.6437 32.4997 32.6962 32.5224 32.7466 32.543C32.7913 32.5579 32.8288 32.5736 32.8671 32.5878Z" fill="#3547C9"/>
<path d="M32.8863 32.6842L30.4797 36.1207C30.4472 36.1675 30.4041 36.2059 30.354 36.2327C30.3038 36.2595 30.248 36.274 30.1911 36.2749C30.1342 36.2759 30.0779 36.2633 30.0269 36.2383C29.9758 36.2132 29.9314 36.1763 29.8974 36.1307L27.9618 33.5488L26.9858 35.0396L26.7822 35.3527L26.2311 36.1939C26.2044 36.2346 26.1696 36.2695 26.129 36.2964C26.0884 36.3234 26.0427 36.3418 25.9948 36.3505C25.9468 36.3593 25.8976 36.3582 25.8501 36.3474C25.8026 36.3366 25.7577 36.3162 25.7183 36.2876L20.569 32.5337C20.6306 32.5411 20.6927 32.5448 20.7548 32.545H20.8257L25.802 36.1719C25.8258 36.1893 25.8529 36.2017 25.8817 36.2082C25.9104 36.2148 25.9402 36.2155 25.9692 36.2102C25.9982 36.2049 26.0258 36.1937 26.0504 36.1773C26.0749 36.161 26.0959 36.1398 26.112 36.1151L26.7751 35.1028L26.9787 34.7918L27.9533 33.3011L30.0102 36.0448C30.0307 36.0728 30.0577 36.0954 30.0888 36.1108C30.1199 36.1262 30.1542 36.134 30.1889 36.1334C30.2236 36.1329 30.2577 36.124 30.2883 36.1076C30.3189 36.0912 30.3451 36.0677 30.3648 36.0391L32.6976 32.7076C32.7609 32.7037 32.8239 32.6959 32.8863 32.6842V32.6842Z" fill="#120283"/>
<path d="M28.13 73.7905L27.9179 73.7969L26.7824 35.3501L26.7753 35.101L26.9788 34.79L26.9859 35.0385L28.13 73.7905Z" fill="#120283"/>
<path d="M28.8147 53.3812C29.0104 53.3812 29.169 53.2224 29.169 53.0265C29.169 52.8307 29.0104 52.6719 28.8147 52.6719C28.619 52.6719 28.4603 52.8307 28.4603 53.0265C28.4603 53.2224 28.619 53.3812 28.8147 53.3812Z" fill="#120283"/>
<path d="M28.5531 45.1868C28.7488 45.1868 28.9074 45.028 28.9074 44.8322C28.9074 44.6363 28.7488 44.4775 28.5531 44.4775C28.3574 44.4775 28.1987 44.6363 28.1987 44.8322C28.1987 45.028 28.3574 45.1868 28.5531 45.1868Z" fill="#120283"/>
<path d="M28.2906 36.9925C28.4863 36.9925 28.6449 36.8337 28.6449 36.6378C28.6449 36.442 28.4863 36.2832 28.2906 36.2832C28.0949 36.2832 27.9363 36.442 27.9363 36.6378C27.9363 36.8337 28.0949 36.9925 28.2906 36.9925Z" fill="#120283"/>
</g>
</svg>
