<svg width="53" height="53" viewBox="0 0 53 53" fill="none" xmlns="http://www.w3.org/2000/svg">
<path d="M26.5 52.8858C41.1355 52.8858 53 41.0469 53 26.4429C53 11.8389 41.1355 0 26.5 0C11.8645 0 0 11.8389 0 26.4429C0 41.0469 11.8645 52.8858 26.5 52.8858Z" fill="#FFC7C7"/>
<mask id="mask0_259_249" style="mask-type:alpha" maskUnits="userSpaceOnUse" x="0" y="0" width="53" height="53">
<path d="M26.5 52.8858C41.1355 52.8858 53 41.0469 53 26.4429C53 11.8389 41.1355 0 26.5 0C11.8645 0 0 11.8389 0 26.4429C0 41.0469 11.8645 52.8858 26.5 52.8858Z" fill="#FFC7C7"/>
</mask>
<g mask="url(#mask0_259_249)">
<path d="M27.8369 6.61032C27.8369 6.61032 26.1063 4.91172 22.1535 7.6953C18.2007 10.4789 18.4851 17.4176 17.7319 21.7101C16.9786 26.0026 12.7286 35.3456 14.0997 37.3273C15.4707 39.309 16.3133 38.6013 16.3133 38.6013L37.4973 37.6578C37.4973 37.6578 35.2276 31.7595 35.6056 28.0792C35.9837 24.3989 37.4973 25.8384 37.2136 21.415C36.9299 16.9916 35.0382 8.98836 32.9104 7.23102C30.7826 5.47368 27.8369 6.61032 27.8369 6.61032Z" fill="#120283"/>
<path d="M24.0657 23.1181C24.0657 23.1181 22.184 22.9709 21.0683 19.6707C19.9526 16.3704 18.8965 11.2343 22.9295 8.59229C26.3184 6.36996 34.4382 6.32112 34.6276 12.6434C34.8169 18.9658 33.336 19.6707 33.336 19.6707L24.0657 23.1181Z" fill="#120283"/>
<path d="M0.104248 74.233L50.953 73.6059C50.953 73.6059 49.948 53.4103 48.9089 45.6208C47.8698 37.8313 39.6613 34.3605 34.8652 33.0937C33.114 32.6301 31.9416 32.158 31.177 31.388C30.3457 30.5564 29.9861 29.378 29.8769 27.4954C29.8109 26.3453 29.8364 24.9312 29.9074 23.1724L25.5191 20.5955L23.2565 19.2671C23.2565 19.2671 23.6544 25.3778 23.2756 28.167C23.0976 29.4778 22.6557 30.4729 22.106 31.1912C21.4854 32.0002 20.7265 32.4588 20.0491 32.6223C18.7724 32.9309 5.77137 33.3598 3.22152 46.1502C0.671669 58.9406 0.104248 74.233 0.104248 74.233Z" fill="#FFE6E6"/>
<path d="M50.953 73.6057L41.4346 73.7232L39.9919 73.7409L34.5078 73.8117L21.2443 73.9752L16.5446 74.0332L11.3343 74.0976L0.10144 74.2392C0.10144 74.2392 0.668862 58.9518 3.22226 46.1585C5.00113 37.2338 11.8698 34.3278 16.2921 33.2775C16.8042 33.1565 17.2851 33.0602 17.717 32.9831C18.5114 32.8415 19.1569 32.7601 19.5824 32.7C19.7952 32.671 19.9548 32.6469 20.0491 32.6243C20.0662 32.6208 20.083 32.6163 20.0995 32.6108C20.762 32.4381 21.4989 31.9823 22.1039 31.1953C27.4327 33.4672 30.2663 32.034 31.1692 31.3878C31.6572 31.8769 32.304 32.2456 33.1651 32.5691C33.2651 32.6066 33.3679 32.6434 33.4736 32.6802C33.8893 32.8217 34.3503 32.959 34.861 33.0942C34.9709 33.1232 35.0823 33.1529 35.195 33.1848C35.3426 33.2251 35.4922 33.2683 35.6447 33.3129C40.5033 34.7397 47.923 38.2431 48.9082 45.6228C49.948 53.4094 50.953 73.6057 50.953 73.6057Z" fill="#120283"/>
<path d="M50.953 73.6059L41.4345 73.7234L39.9918 73.7411L34.5077 73.8118C34.4871 72.7191 34.4722 71.5838 34.463 70.4146C34.4592 69.9348 34.4564 69.4495 34.4545 68.9588C34.4488 67.5433 34.4502 66.0861 34.458 64.6083C34.458 64.3959 34.4592 64.1836 34.4616 63.9713C34.4616 63.7175 34.4632 63.4629 34.4666 63.2076C34.4666 62.9779 34.4684 62.7471 34.4722 62.5155C34.4864 60.86 34.507 59.189 34.5325 57.5237C34.5406 57.0377 34.5486 56.5524 34.5566 56.0679C34.5857 54.3806 34.6198 52.7082 34.6559 51.0754C34.6673 50.5856 34.6786 50.0999 34.69 49.6182C34.7318 47.8884 34.7758 46.2139 34.8205 44.6257C34.8347 44.1307 34.8489 43.6448 34.863 43.1677C34.9162 41.3502 34.9694 39.6686 35.0198 38.1746C35.0368 37.6664 35.0531 37.1806 35.0687 36.7173C35.1184 35.2962 35.1624 34.0986 35.1964 33.1885C35.3439 33.2288 35.4936 33.272 35.6461 33.3166C36.8157 33.657 37.9629 34.0697 39.0811 34.5523C39.1478 34.5813 39.2152 34.6103 39.2818 34.6408C40.4634 35.1612 41.5998 35.7783 42.6793 36.4859C43.3189 36.9062 43.931 37.3667 44.5121 37.8646C46.0228 39.1661 47.3101 40.755 48.1166 42.6815C48.3123 43.1474 48.4763 43.626 48.6074 44.114C48.7408 44.6079 48.8415 45.1101 48.9089 45.6173C49.0387 46.5932 49.1685 47.7646 49.2954 49.0661C49.3427 49.5337 49.3881 50.0171 49.4316 50.5163C49.5735 52.067 49.7082 53.7521 49.8373 55.4819C49.8732 55.9631 49.9089 56.4475 49.9444 56.9349C50.0636 58.5988 50.1763 60.2804 50.2806 61.9033C50.3118 62.3937 50.343 62.8792 50.3721 63.357C50.4849 65.1596 50.5849 66.8554 50.6686 68.3282C50.6977 68.8413 50.7246 69.3275 50.7494 69.7819C50.8785 72.1139 50.953 73.6059 50.953 73.6059Z" fill="#C6C6C6"/>
<path d="M44.5121 37.8645C42.5805 37.948 40.6489 38.0188 38.7173 38.0769L38.5002 38.0832L38.74 36.6196L38.9528 36.6132C40.194 36.5764 41.4352 36.534 42.6765 36.4858C43.317 36.9061 43.9302 37.3666 44.5121 37.8645V37.8645Z" fill="#AFAFAF"/>
<path d="M48.6074 44.1166C44.9632 44.3105 41.3172 44.4558 37.6697 44.5525L37.4526 44.5582C37.5321 44.0623 37.6106 43.5747 37.6881 43.0953L37.9059 43.0896C41.3104 42.9953 44.7149 42.8601 48.1195 42.6841C48.3142 43.1501 48.4773 43.6287 48.6074 44.1166V44.1166Z" fill="#AFAFAF"/>
<path d="M49.4316 50.5192C45.166 50.7552 40.8985 50.9243 36.6291 51.0267L36.4121 51.0317C36.4911 50.5433 36.5696 50.0557 36.6476 49.5687L36.8604 49.5638C41.0063 49.4614 45.1502 49.2963 49.2919 49.0684C49.341 49.5364 49.3876 50.02 49.4316 50.5192Z" fill="#AFAFAF"/>
<path d="M21.2464 73.9719L16.5467 74.0299L11.3363 74.0943L0.103516 74.2358C0.103516 74.2358 0.168769 72.4806 0.3546 69.6617C0.385099 69.2045 0.417725 68.7189 0.454608 68.2087C0.56029 66.7387 0.693634 65.0613 0.862442 63.2466C0.905471 62.7715 0.951574 62.2879 1.00075 61.7957C1.15679 60.2139 1.33766 58.5486 1.54689 56.8415C1.606 56.3617 1.66723 55.879 1.7306 55.3935C1.94338 53.76 2.18312 52.1003 2.45122 50.4484C2.52924 49.9657 2.6101 49.4842 2.6938 49.0039C2.85977 48.0456 3.03638 47.093 3.22363 46.1552C3.36166 45.4514 3.54046 44.7562 3.75913 44.073C3.91895 43.5748 4.09604 43.0984 4.29038 42.6441C5.05029 40.8351 6.16295 39.1948 7.56369 37.8186C8.07404 37.3187 8.61917 36.8554 9.19503 36.4322C10.3957 35.5564 11.7023 34.8354 13.084 34.2863C13.1507 34.2587 13.2173 34.2325 13.2833 34.207C14.263 33.8262 15.2684 33.5147 16.2921 33.2749C16.8041 33.1539 17.285 33.0576 17.717 32.9805C17.8553 33.9855 18.022 35.2375 18.2071 36.7131C18.2662 37.1779 18.3265 37.6643 18.388 38.1725C18.5688 39.663 18.7639 41.3369 18.9639 43.1742C19.0159 43.6498 19.0682 44.1362 19.1206 44.6336C19.2859 46.1984 19.4533 47.868 19.6171 49.6324C19.6644 50.1113 19.7096 50.5978 19.7526 51.0918C19.8973 52.6884 20.0392 54.354 20.1782 56.0885C20.2165 56.5688 20.2543 57.0545 20.2917 57.5457C20.4151 59.1542 20.5333 60.812 20.6463 62.5191C20.6463 62.5269 20.6463 62.5339 20.6463 62.5417C20.6697 62.9055 20.6938 63.2728 20.7172 63.6416C20.725 63.7605 20.7321 63.8794 20.7392 63.9954C20.8409 65.6228 20.9355 67.2876 21.0229 68.99C21.0475 69.4727 21.0712 69.9582 21.0939 70.4466C21.1497 71.6092 21.2005 72.7843 21.2464 73.9719Z" fill="#C6C6C6"/>
<path d="M14.2899 38.0713L14.0679 38.0649C11.9003 37.9998 9.733 37.9177 7.56592 37.8186C8.07626 37.3187 8.6214 36.8553 9.19725 36.4321C10.6938 36.4954 12.1904 36.5501 13.687 36.5963L13.909 36.6034L14.2899 38.0713Z" fill="#AFAFAF"/>
<path d="M15.9786 44.5649L15.7574 44.5592C11.757 44.4549 7.75836 44.2929 3.76135 44.073C3.92118 43.5747 4.09826 43.0984 4.2926 42.644C7.9851 42.8432 11.6795 42.9925 15.3758 43.092L15.5971 43.0977L15.9786 44.5649Z" fill="#AFAFAF"/>
<path d="M17.666 51.052L17.4447 51.0471C12.4443 50.9367 7.44649 50.7361 2.45129 50.4455C2.52931 49.9628 2.61017 49.4813 2.69387 49.001C7.48101 49.2775 12.2708 49.4707 17.0631 49.5806C17.1376 49.5806 17.2113 49.5849 17.2851 49.5863L17.666 51.052Z" fill="#AFAFAF"/>
<path d="M23.5239 20.3398C23.5239 20.3398 23.7126 23.4079 25.9355 26.2446C26.4589 26.9141 26.9994 27.3126 27.5179 27.5299C28.6215 27.992 29.8358 27.1724 29.8351 25.9785C29.8351 25.1539 29.8613 24.2226 29.906 23.1673L25.5198 20.5953L23.5239 20.3398Z" fill="#120283"/>
<path d="M21.5031 19.4852C21.8471 20.2213 22.5394 20.6417 23.1777 20.5009C23.7452 22.7954 25.2346 25.7609 29.2811 25.7609C31.9125 25.7609 33.8772 22.0806 33.8531 19.6742C33.8332 17.6925 33.8531 17.3769 33.8531 17.3769L33.8708 11.1904H22.9919C22.9323 12.3702 22.8813 16.1121 22.8969 17.4243C22.6841 17.2827 22.3224 17.1376 21.7734 17.2084C20.7776 17.3337 20.9825 18.3698 21.5031 19.4852Z" fill="#FFE6E6"/>
<path d="M27.732 19.5297C27.9067 19.5297 28.0483 19.3884 28.0483 19.2141C28.0483 19.0398 27.9067 18.8984 27.732 18.8984C27.5573 18.8984 27.4156 19.0398 27.4156 19.2141C27.4156 19.3884 27.5573 19.5297 27.732 19.5297Z" fill="#120283"/>
<path d="M31.038 19.5297C31.2127 19.5297 31.3544 19.3884 31.3544 19.2141C31.3544 19.0398 31.2127 18.8984 31.038 18.8984C30.8633 18.8984 30.7217 19.0398 30.7217 19.2141C30.7217 19.3884 30.8633 19.5297 31.038 19.5297Z" fill="#120283"/>
<path d="M29.596 21.8286C29.596 21.8286 28.7767 21.7472 28.2157 21.4146C28.2157 21.4146 28.3526 22.399 29.596 21.8286Z" fill="#120283"/>
<path d="M29.6832 21.2426C29.8521 21.2484 30.0174 21.1931 30.1485 21.0869C30.1804 21.0616 30.2041 21.0275 30.2167 20.9889C30.2293 20.9502 30.2303 20.9088 30.2195 20.8696C30.1578 20.6764 29.9528 20.1038 29.9506 20.0981L29.8506 20.1342C29.8506 20.1399 30.057 20.7103 30.118 20.9021C30.1215 20.9223 30.1193 20.9431 30.1117 20.9621C30.1041 20.9811 30.0913 20.9976 30.0748 21.0097C29.9584 21.1208 29.6797 21.1838 29.4364 21.0925L29.3995 21.1923C29.4905 21.2254 29.5865 21.2424 29.6832 21.2426V21.2426Z" fill="#120283"/>
<path d="M26.6936 16.9399C26.6936 16.9399 28.5817 17.0992 28.981 17.0015C28.981 17.0015 28.964 16.7949 28.6172 16.6922C28.2703 16.5896 27.261 16.7028 26.6936 16.9399Z" fill="#120283"/>
<path d="M32.6516 16.9399C32.6516 16.9399 30.7627 17.0992 30.3641 17.0015C30.3641 17.0015 30.3812 16.7949 30.7273 16.6922C31.0734 16.5896 32.0841 16.7028 32.6516 16.9399Z" fill="#120283"/>
<path d="M22.1536 13.1062C22.1904 15.0737 22.6444 17.1227 22.6444 17.1227L22.7444 17.4716C23.3636 19.7031 23.0281 22.2 23.0097 22.326C23.0409 22.2206 23.5508 20.4696 23.5232 19.0399C23.5054 18.1071 23.5104 16.7751 23.5161 15.9181C23.5558 15.5769 23.6019 15.2464 23.6579 14.9456C23.8289 14.0029 24.192 13.4452 24.6453 13.1055L22.1536 13.1062Z" fill="#120283"/>
<path d="M41.4345 73.7226L39.9918 42.915V73.7403L41.4345 73.7226Z" fill="#A0A0A0"/>
<path d="M11.3364 74.0941L16.5468 74.0297C14.8289 68.0846 12.0031 56.0408 13.0763 43.9624C13.0763 43.9624 10.9633 58.7338 11.3364 74.0941Z" fill="#A0A0A0"/>
<path d="M33.4779 32.6775C26.9362 36.4116 21.54 33.9012 19.5839 32.698C19.7966 32.669 19.9562 32.645 20.0506 32.6223C20.0676 32.6188 20.0844 32.6143 20.1009 32.6089C20.7634 32.4362 21.5003 31.9804 22.1053 31.1934C27.4341 33.4652 30.2677 32.032 31.1706 31.3859C31.6586 31.8749 32.3055 32.2437 33.1665 32.5671C33.2651 32.6039 33.3694 32.6407 33.4779 32.6775Z" fill="#FFE6E6"/>
<path d="M20.7201 63.6416L19.1299 57.5266L18.749 56.0637L17.4482 51.0472L17.0666 49.5807L15.7608 44.5593L15.3792 43.0921L14.0713 38.0671L13.689 36.5964L13.0883 34.2863C13.1549 34.2587 13.2216 34.2325 13.2876 34.207L13.911 36.6035L14.2926 38.0713L15.5998 43.0964L15.9814 44.5635L17.2879 49.5885L17.6688 51.0543L18.9731 56.0701L19.354 57.5323L20.6513 62.5212C20.6735 62.8916 20.6964 63.2651 20.7201 63.6416Z" fill="#A0A0A0"/>
<path d="M39.2825 34.6406C39.1917 35.1842 39.0818 35.8487 38.9562 36.6131C38.8853 37.0668 38.8023 37.5565 38.7172 38.0767C38.4789 39.5389 38.203 41.2432 37.9058 43.0897C37.8278 43.5696 37.7491 44.0572 37.6696 44.5526C37.41 46.1606 37.1384 47.8507 36.8639 49.5635C36.7859 50.05 36.7076 50.5376 36.6291 51.0264L35.8269 56.0352C35.7479 56.5273 35.6699 57.0142 35.5929 57.4959C35.173 60.1245 34.7814 62.5748 34.458 64.6046C34.458 64.1389 34.4608 63.6713 34.4665 63.2018C34.7403 61.4855 35.0495 59.547 35.3765 57.5009C35.4541 57.0196 35.5319 56.5329 35.6099 56.0408L36.4121 51.0285C36.491 50.5402 36.5695 50.0526 36.6475 49.5656C36.922 47.8536 37.193 46.1635 37.4526 44.5555C37.532 44.0596 37.6105 43.5719 37.6881 43.0926C37.9859 41.2482 38.2619 39.5446 38.5002 38.0803L38.7399 36.6166C38.8718 35.8112 38.9875 35.1134 39.0818 34.5493C39.152 34.5812 39.2158 34.6088 39.2825 34.6406Z" fill="#A0A0A0"/>
<path d="M34.451 22.5579C34.451 22.5579 32.6849 21.9917 32.6516 18.6893C32.5757 11.1872 29.1499 13.0981 29.1499 13.0981C23.736 11.8709 23.5239 16.6531 23.5239 16.6531L22.1536 14.9545L22.8387 10.3379H33.8708L34.451 22.5579Z" fill="#120283"/>
</g>
</svg>
