<svg width="54" height="53" viewBox="0 0 54 53" fill="none" xmlns="http://www.w3.org/2000/svg">
<mask id="mask0_259_207" style="mask-type:alpha" maskUnits="userSpaceOnUse" x="0" y="0" width="54" height="53">
<path d="M27.0333 52.8858C41.6689 52.8858 53.5333 41.0469 53.5333 26.4429C53.5333 11.8389 41.6689 0 27.0333 0C12.3978 0 0.533325 11.8389 0.533325 26.4429C0.533325 41.0469 12.3978 52.8858 27.0333 52.8858Z" fill="#FFC7C7"/>
</mask>
<g mask="url(#mask0_259_207)">
<path d="M29.8606 10.1368C29.8606 10.1368 31.7168 8.589 32.9225 10.4645C34.1283 12.3401 33.1112 14.7464 32.7509 15.7019C32.3906 16.6573 31.3267 21.4148 31.3267 21.4148C31.3267 21.4148 31.1139 22.2132 29.5535 23.2748C27.9931 24.3364 28.2768 21.3483 28.2768 21.3483L29.8606 10.1368Z" fill="#120283"/>
<path d="M2.68457 73.606L5.35429 73.6393L9.36454 73.6888L10.115 73.698L11.3207 73.7129L11.8229 73.7185L18.8774 73.8056L23.394 73.8615L31.6748 73.9641L39.013 74.0547L39.9798 74.0667L41.8239 74.0894L42.7679 74.1007L43.912 74.1149L47.5293 74.1594L53.5312 74.2302C53.5312 74.2302 53.5312 74.1814 53.5248 74.0887C53.5248 74.0611 53.5248 74.0285 53.5248 73.9924C53.5248 73.9684 53.5248 73.9422 53.5213 73.9139C53.5206 73.9118 53.5206 73.9096 53.5213 73.9075C53.5135 73.7263 53.5014 73.4701 53.4858 73.1474V73.107C53.4816 73.032 53.478 72.9527 53.4738 72.8706C53.4738 72.819 53.4688 72.7652 53.4659 72.71C53.4659 72.6788 53.4659 72.647 53.461 72.6144C53.4525 72.4488 53.443 72.2719 53.4326 72.0836C53.4277 72.0015 53.4234 71.9173 53.4184 71.831C53.4135 71.7446 53.4085 71.6561 53.4035 71.5655C53.3936 71.3844 53.3825 71.1956 53.3702 70.9993C53.3702 70.9576 53.3652 70.9151 53.3624 70.872C53.3546 70.7439 53.3468 70.6122 53.3383 70.477C53.334 70.4176 53.3305 70.3567 53.3269 70.2958C53.322 70.2194 53.317 70.1423 53.312 70.0637C53.3021 69.908 53.2922 69.7473 53.2808 69.5839C53.2596 69.2569 53.2359 68.9162 53.2099 68.5619C53.2035 68.4734 53.1971 68.3835 53.1907 68.2936C53.1799 68.1492 53.1692 68.003 53.1588 67.8548C53.1475 67.7062 53.1368 67.5562 53.1255 67.404C53.1255 67.3721 53.1205 67.3396 53.1177 67.307C53.1092 67.1867 53.0993 67.065 53.09 66.9418C53.0851 66.876 53.0801 66.8095 53.0744 66.743C53.0673 66.6524 53.0602 66.5611 53.0531 66.469C53.0404 66.31 53.0276 66.1489 53.0148 65.9857C53.0021 65.8224 52.9886 65.6573 52.9744 65.4902C52.9156 64.7825 52.8517 64.0521 52.7822 63.2962C52.7647 63.1075 52.7467 62.9164 52.7283 62.7229C52.7106 62.5311 52.6914 62.3372 52.673 62.1419C52.6545 61.9465 52.6347 61.7505 52.6148 61.5523C52.595 61.3542 52.5751 61.156 52.5545 60.9557C52.5354 60.7696 52.5162 60.582 52.4957 60.3895C52.4597 60.0417 52.4221 59.6912 52.3829 59.3378C52.3181 58.7489 52.2498 58.1525 52.1779 57.5486C52.163 57.4212 52.1474 57.2938 52.1325 57.1664C52.107 56.9604 52.0822 56.7538 52.0566 56.5464C52.0226 56.2723 51.9878 55.9977 51.9524 55.7226C51.9207 55.4768 51.8885 55.2307 51.8559 54.9844C51.8396 54.8613 51.8233 54.7381 51.8062 54.6143C51.7814 54.4274 51.7552 54.2406 51.7289 54.053C51.701 53.8506 51.6727 53.6479 51.6438 53.4451C51.6169 53.2554 51.5899 53.065 51.5615 52.8746C51.5417 52.7331 51.5211 52.5929 51.4998 52.4542C51.3963 51.7465 51.2871 51.0437 51.1707 50.3402C51.1381 50.1363 51.1048 49.9332 51.07 49.7294C51.0303 49.4902 50.9892 49.2502 50.9473 49.0117C50.9097 48.7923 50.8707 48.5729 50.8317 48.3549L50.8211 48.2955L50.8104 48.2367C50.7806 48.0697 50.7501 47.902 50.7189 47.7349C50.6537 47.3792 50.5868 47.0253 50.5182 46.6733C50.4841 46.4983 50.4499 46.3239 50.4154 46.1503C50.3161 45.6506 50.2009 45.1696 50.0699 44.7072C50.0179 44.5218 49.9635 44.3396 49.9068 44.1608C49.8501 43.982 49.7912 43.8055 49.7302 43.6314C49.6387 43.371 49.5415 43.1169 49.4408 42.8685C49.4075 42.7857 49.3699 42.7036 49.338 42.6229C49.3096 42.5521 49.2805 42.4891 49.2507 42.4226C49.2209 42.3561 49.1961 42.2994 49.1677 42.2386C49.1394 42.1777 49.1039 42.1013 49.072 42.034C49.0528 41.9923 49.0323 41.9505 49.0124 41.9088C48.9776 41.838 48.9415 41.7672 48.9067 41.6964C48.872 41.6257 48.8358 41.5549 48.7982 41.4841L48.75 41.4034C48.7202 41.3475 48.6904 41.2923 48.6599 41.2371C48.5388 41.0168 48.414 40.8023 48.2854 40.5938C48.2421 40.523 48.1989 40.4522 48.1556 40.3871C48.0686 40.2503 47.9797 40.116 47.8889 39.9844C47.8435 39.9186 47.7981 39.8535 47.752 39.789C47.6946 39.7084 47.6364 39.6284 47.5782 39.5491C47.5201 39.4699 47.4605 39.3927 47.4009 39.3156C47.3116 39.1995 47.221 39.086 47.1293 38.9751C47.0988 38.9376 47.0676 38.9044 47.0371 38.864C46.9874 38.8053 46.9378 38.7465 46.8881 38.6892C46.689 38.4585 46.4848 38.237 46.2753 38.0246L46.1178 37.8647C46.0724 37.8201 46.0271 37.7755 45.981 37.7316C45.8902 37.6434 45.798 37.5566 45.7043 37.4712C45.6582 37.4287 45.6114 37.3869 45.5625 37.3452C45.4206 37.2202 45.2788 37.0984 45.1369 36.98C45.0929 36.9432 45.0497 36.9092 45.0057 36.8724C44.9901 36.859 44.9738 36.8462 44.9575 36.8335C44.8785 36.7698 44.7991 36.707 44.7191 36.6452C44.6667 36.6049 44.6135 36.5638 44.5596 36.5242C44.4622 36.4515 44.3647 36.3808 44.2673 36.3119L44.1198 36.2071L43.9936 36.1194C43.9368 36.0804 43.8808 36.0422 43.824 36.0047L43.8184 36.0012L43.6623 35.8978L43.5758 35.8419L43.4198 35.7428L43.207 35.6119L43.0084 35.4937L42.9999 35.4888L42.858 35.4067L42.7736 35.3585L42.7374 35.338L42.5743 35.2474L42.4757 35.1936L42.3856 35.1448C42.2844 35.091 42.1835 35.0384 42.0828 34.987L42.031 34.9608L41.8374 34.8645L41.8203 34.856L41.6898 34.7923L41.5636 34.7322L41.5274 34.7159L41.4501 34.6798C41.443 34.6756 41.4352 34.6727 41.4281 34.6692L41.2976 34.6097L41.2565 34.5913C41.168 34.5517 41.0794 34.5128 40.9905 34.4746L40.8954 34.4328L40.777 34.3833L40.728 34.3634C40.6571 34.3337 40.5862 34.3054 40.5153 34.2771C40.4443 34.2488 40.3692 34.2184 40.2961 34.1908L40.1301 34.1271L40.111 34.1136L39.9805 34.0648L39.8798 34.028L39.7982 33.9982L39.7528 33.982L39.6265 33.9374L39.501 33.8942L39.3755 33.8517L39.3208 33.8333L39.2024 33.7944L39.1435 33.776L38.9967 33.7286L38.8506 33.684L38.6733 33.6295L38.6477 33.6217L38.4577 33.5665L38.2796 33.5149L38.108 33.4681L37.9541 33.4264L37.9144 33.4158L37.6973 33.3599L37.6186 33.34L37.5831 33.3316L37.5008 33.3117L37.2987 33.2629L37.0902 33.2148L37.0512 33.2063L37.0299 33.2013L36.9902 33.1935L36.9568 33.1865L36.9249 33.1794L36.7873 33.1497L36.7164 33.1341L36.5923 33.1079L36.4078 33.0711L36.3639 33.0626L36.1738 33.0258L36.1156 33.0152L36.0447 33.0024L35.917 32.9791L35.8936 32.9748L35.8227 32.9628L35.7518 32.9508L35.6652 32.9359L35.4957 32.9076L35.461 32.9019L35.2858 32.8743L35.1999 32.8609L35.1737 32.8566L35.0318 32.8354H35.0191L34.802 32.8043L34.5346 32.7668L34.3786 32.7455L34.2367 32.7271L34.141 32.7144L34.0828 32.7066L34.0318 32.6995L33.98 32.6925L33.8977 32.6804C33.7559 32.6606 33.6516 32.6429 33.5807 32.6259L33.5417 32.616C33.5175 32.6096 33.4927 32.6033 33.4707 32.5955L33.4083 32.5771L33.3452 32.5566L33.2814 32.5346L33.2182 32.5106L33.1601 32.4858C33.1402 32.478 33.1196 32.4695 33.0998 32.4603C32.871 32.3604 32.6534 32.2365 32.4508 32.0909C32.4153 32.0654 32.3799 32.0392 32.3444 32.0116L32.2791 31.9606C32.2359 31.926 32.1926 31.8899 32.1501 31.8531C32.1288 31.8347 32.1075 31.8163 32.0862 31.7964L32.0238 31.7391L31.9593 31.6768C31.9387 31.6563 31.9174 31.6358 31.8968 31.6146L31.8344 31.5494C31.8132 31.5275 31.7933 31.5056 31.7734 31.4829L31.7124 31.4121C31.6919 31.3888 31.672 31.3654 31.6521 31.3414C31.6323 31.3173 31.6124 31.2932 31.5933 31.2706L31.5365 31.1998C30.9911 30.4885 30.5528 29.5055 30.3719 28.2131C30.3719 28.2011 30.3676 28.1883 30.3662 28.1756C30.1797 26.8047 30.1818 24.6305 30.2308 22.7748C30.2471 22.1831 30.2676 21.6226 30.2889 21.1321C30.3364 20.0315 30.3854 19.2764 30.3854 19.2764H30.3811L30.3442 19.2983L28.4108 20.4307L28.1185 20.5956L23.7373 23.1662C23.7742 24.1068 23.7997 24.9483 23.804 25.7041C23.8068 26.0778 23.8042 26.4317 23.7962 26.7658C23.7962 26.8925 23.7891 27.0156 23.7841 27.1366C23.7792 27.2577 23.7742 27.3751 23.7671 27.4905C23.7451 27.8656 23.7139 28.2124 23.6699 28.5344C23.4962 29.831 23.133 30.7192 22.4642 31.3852C22.4032 31.4468 22.3393 31.5063 22.2734 31.5629C22.2408 31.5926 22.2067 31.6209 22.1727 31.6478C22.1386 31.6747 22.1017 31.7037 22.0677 31.7306C22.0336 31.7575 21.9968 31.7851 21.9585 31.8106C21.9202 31.8361 21.8833 31.8637 21.845 31.8884C21.6957 31.9881 21.5411 32.0795 21.3818 32.1623C21.327 32.1911 21.2709 32.2194 21.2137 32.2473H21.2102L21.1733 32.265L21.074 32.3117C21.0265 32.3343 20.9782 32.3563 20.9321 32.3768C20.886 32.3973 20.8335 32.42 20.7832 32.4405C20.7357 32.461 20.6881 32.4808 20.6413 32.4999L20.4768 32.5636C20.3642 32.6061 20.2474 32.6479 20.1264 32.6889C20.0831 32.7045 20.0392 32.7186 19.9945 32.7335C19.8526 32.7802 19.7051 32.8269 19.5533 32.8751L19.5356 32.88L19.4122 32.9161L19.359 32.9317L19.1334 32.9961L18.8447 33.0739L18.7816 33.0909C18.627 33.132 18.4681 33.1751 18.3064 33.2204L18.0851 33.2841L17.922 33.3323L17.7156 33.3945C17.4319 33.4799 17.1408 33.5731 16.8424 33.6741C16.6715 33.7314 16.4977 33.7916 16.3233 33.8546L16.263 33.8765L16.1041 33.9346C16.001 33.9718 15.8975 34.0105 15.7934 34.0506C15.6156 34.1186 15.4362 34.1893 15.2551 34.2629C14.9004 34.4045 14.5337 34.5623 14.1699 34.7279C14.0034 34.803 13.8379 34.8808 13.6734 34.9615L13.4869 35.0521C13.0904 35.246 12.6932 35.4541 12.2995 35.6756L12.1031 35.7874L11.9768 35.8582C11.9257 35.8872 11.8747 35.9177 11.8243 35.9481C11.774 35.9785 11.713 36.0139 11.6576 36.0479L11.5158 36.1342C11.4274 36.189 11.3392 36.2442 11.2512 36.2998L11.2356 36.3098L11.1285 36.3805L10.9803 36.4782C10.9093 36.5242 10.8384 36.5702 10.7725 36.6197C10.6888 36.6764 10.6058 36.733 10.5235 36.7917L10.3923 36.8774C10.3086 36.9363 10.2256 36.9965 10.1433 37.0578C10.088 37.098 10.0334 37.139 9.97948 37.181C9.83763 37.2886 9.69577 37.3997 9.55392 37.5136C9.48866 37.566 9.42341 37.6191 9.35886 37.6729L9.16594 37.8357C8.92195 38.0442 8.68411 38.2608 8.45241 38.4854L8.3368 38.5986L8.329 38.6064L8.24885 38.6864C8.19778 38.738 8.14671 38.7897 8.09635 38.8421L7.97861 38.9652C7.74361 39.2129 7.51806 39.4689 7.30196 39.7331C7.26295 39.7813 7.22323 39.8308 7.18493 39.8796L7.14308 39.9327C7.10549 39.9808 7.07216 40.029 7.03173 40.0743C6.9835 40.138 6.93598 40.2017 6.88987 40.2661C6.84377 40.3305 6.79625 40.3963 6.74802 40.4614C6.69979 40.5265 6.65652 40.5931 6.61184 40.6596C6.52247 40.7926 6.43546 40.9278 6.35082 41.0651C6.30897 41.1359 6.26713 41.2024 6.22599 41.2725C6.18485 41.3426 6.14513 41.414 6.10541 41.4848C6.06569 41.5556 6.02668 41.6264 5.98838 41.6971C5.96427 41.7417 5.94086 41.7856 5.91745 41.8302C5.89405 41.8748 5.87135 41.9201 5.84653 41.9647C5.80113 42.0546 5.75716 42.1451 5.71389 42.2372C5.6919 42.2839 5.67063 42.3306 5.64935 42.3787C5.63587 42.4077 5.62239 42.4374 5.60963 42.4672C5.60935 42.47 5.60935 42.4728 5.60963 42.4757C5.58693 42.5259 5.56494 42.5762 5.54366 42.6271C5.52239 42.6781 5.49189 42.7496 5.46706 42.8111L5.45855 42.8317C5.43302 42.8961 5.40748 42.9605 5.38337 43.0249C5.35925 43.0893 5.3323 43.1601 5.30819 43.228C5.25854 43.3639 5.21243 43.5019 5.16633 43.6406C5.14434 43.7114 5.12377 43.7765 5.1032 43.8452C5.10352 43.847 5.10352 43.8489 5.1032 43.8508C5.08264 43.9216 5.06207 43.9924 5.04292 44.0631C5.0266 44.1219 5.011 44.1806 4.99539 44.2401L4.97837 44.3073C4.96277 44.3696 4.94716 44.4319 4.93298 44.4949C4.92092 44.5444 4.90957 44.594 4.89893 44.6442C4.89893 44.6548 4.89397 44.6647 4.89255 44.6753C4.88617 44.7008 4.8812 44.7263 4.87553 44.7525C4.86276 44.8141 4.8507 44.8756 4.83864 44.9365C4.82659 44.9974 4.81311 45.0724 4.80105 45.141C4.78899 45.2097 4.77694 45.2826 4.76559 45.3534C4.76133 45.3824 4.75637 45.4114 4.75211 45.4404C4.7436 45.4992 4.73509 45.5579 4.72729 45.6174C4.65636 46.1708 4.57976 46.788 4.50599 47.4575C4.49961 47.5233 4.49181 47.5899 4.48471 47.6564C4.47478 47.7463 4.46556 47.8369 4.45563 47.9282C4.43625 48.1122 4.4171 48.2997 4.39818 48.4908C4.38211 48.6494 4.36603 48.8103 4.34995 48.9735C4.34144 49.0556 4.33364 49.1377 4.32584 49.2198C4.31803 49.3019 4.30952 49.3861 4.30172 49.4696C4.27619 49.7485 4.24947 50.0323 4.22157 50.3211C4.20597 50.4909 4.19107 50.6622 4.17547 50.8356C4.12866 51.36 4.08255 51.8972 4.03361 52.4493C4.01801 52.6323 4.00288 52.8168 3.98822 53.0027C3.98042 53.0954 3.97262 53.1889 3.96552 53.2823L3.95276 53.4429C3.95309 53.4443 3.95309 53.4458 3.95276 53.4472C3.95276 53.4854 3.94708 53.5243 3.94354 53.5633C3.94354 53.5866 3.94354 53.6107 3.93786 53.634C3.93006 53.7381 3.92155 53.8464 3.91304 53.9483C3.90453 54.0502 3.89672 54.1606 3.88821 54.2646C3.87403 54.4522 3.85913 54.6404 3.84495 54.8308C3.77402 55.7799 3.70309 56.746 3.63216 57.7142C3.61514 57.9563 3.59836 58.1983 3.58181 58.4403C3.58181 58.4566 3.58181 58.4729 3.58181 58.4892L3.5435 59.0419C3.53026 59.2486 3.51632 59.4546 3.50166 59.6598C3.49031 59.8268 3.47967 59.9939 3.46832 60.1609L3.44137 60.6054C3.42931 60.7943 3.41654 60.9833 3.40449 61.1716C3.39597 61.2997 3.38817 61.4278 3.37966 61.5559C3.36453 61.7885 3.34964 62.0204 3.33498 62.2516C3.32268 62.4403 3.31086 62.629 3.29951 62.8178C3.28816 63.0065 3.27682 63.1889 3.26547 63.3649C3.26547 63.3911 3.26192 63.4172 3.2605 63.4434C3.2449 63.6904 3.23 63.9388 3.21511 64.1781C3.21511 64.1859 3.21511 64.1929 3.21511 64.2007C3.19289 64.5565 3.17161 64.9073 3.15127 65.2531C3.12432 65.6981 3.09832 66.1329 3.07325 66.5575C3.06569 66.692 3.05789 66.825 3.04985 66.9567C3.04985 66.9885 3.0463 67.0211 3.04417 67.0529C3.03495 67.2101 3.02644 67.3658 3.01722 67.5193C3.01722 67.5639 3.01226 67.6085 3.00942 67.6524C3.00445 67.7409 2.99949 67.8279 2.99452 67.9143C2.98956 68.0006 2.98459 68.0891 2.97963 68.1754C2.97466 68.2618 2.96899 68.3658 2.96332 68.4585L2.95693 68.5697C2.95268 68.6489 2.94842 68.7268 2.94417 68.8039C2.93707 68.9271 2.92998 69.0488 2.9236 69.1677C2.9236 69.2215 2.91721 69.2746 2.91438 69.3276C2.90303 69.5376 2.89168 69.7414 2.88033 69.9391C2.88033 69.9873 2.87537 70.0354 2.87253 70.0807C2.87253 70.1168 2.86898 70.1515 2.86685 70.189C2.86331 70.2598 2.85905 70.322 2.85551 70.3871C2.85196 70.4523 2.84841 70.5287 2.84416 70.5995C2.84416 70.6299 2.84061 70.6603 2.83919 70.6901L2.83281 70.8083C2.83281 70.8578 2.82784 70.9066 2.82501 70.9548C2.82217 71.0029 2.81862 71.0694 2.81579 71.1253C2.81082 71.2096 2.80657 71.2916 2.80231 71.3723C2.80231 71.4035 2.80231 71.4346 2.79735 71.4658C2.79735 71.5252 2.79096 71.5832 2.78812 71.6399C2.78812 71.6804 2.786 71.7201 2.78174 71.7588C2.77678 71.8579 2.7711 71.9541 2.76685 72.0461C2.76685 72.0822 2.76259 72.1169 2.76117 72.1523C2.75975 72.1877 2.75763 72.2138 2.75621 72.2443C2.75479 72.2747 2.75621 72.2867 2.75266 72.308C2.75266 72.3504 2.74841 72.3915 2.74628 72.4318C2.74415 72.4722 2.74202 72.5069 2.7406 72.5429C2.73635 72.6293 2.73209 72.7114 2.72784 72.7878C2.72784 72.8069 2.72784 72.826 2.72784 72.8444C2.72784 72.8629 2.72784 72.8805 2.72784 72.8989C2.72784 72.9173 2.72784 72.9343 2.72784 72.9513C2.72784 72.9683 2.72784 72.9973 2.72429 73.0221C2.72429 73.0653 2.72003 73.1063 2.71791 73.1445C2.71578 73.1828 2.71791 73.2019 2.71365 73.2281C2.70939 73.2542 2.71365 73.2804 2.7101 73.3038C2.7101 73.3038 2.7101 73.3101 2.7101 73.313C2.7101 73.3441 2.70656 73.3731 2.70514 73.3993V73.4085C2.70514 73.417 2.70514 73.4241 2.70514 73.4319C2.68741 73.5472 2.68457 73.606 2.68457 73.606Z" fill="#FFE6E6"/>
<path d="M30.1137 20.3403C30.1137 20.3403 29.9251 23.4084 27.7022 26.2451C26.2503 28.1001 24.6778 27.8729 23.7636 27.4907C23.831 26.3406 23.804 24.9265 23.7345 23.1678L28.1178 20.5958L30.1137 20.3403Z" fill="#120283"/>
<path d="M31.8635 17.2049C31.3146 17.1342 30.9542 17.2757 30.74 17.4215C30.7748 14.548 30.4897 11.0518 30.4897 11.0518H19.7548L19.7831 17.3755C19.7831 17.3755 19.803 17.6883 19.7831 19.6721C19.7604 22.082 21.7251 25.7623 24.3565 25.7623C28.4044 25.7623 29.8889 22.7961 30.4563 20.5016C31.0947 20.6432 32.0948 20.7253 32.4423 19.9885C32.9629 18.8724 32.8594 17.3337 31.8635 17.2049Z" fill="#FFE6E6"/>
<path d="M25.9765 19.4589C26.1512 19.4589 26.2928 19.3176 26.2928 19.1433C26.2928 18.969 26.1512 18.8276 25.9765 18.8276C25.8018 18.8276 25.6602 18.969 25.6602 19.1433C25.6602 19.3176 25.8018 19.4589 25.9765 19.4589Z" fill="#120283"/>
<path d="M22.6706 19.4589C22.8453 19.4589 22.9869 19.3176 22.9869 19.1433C22.9869 18.969 22.8453 18.8276 22.6706 18.8276C22.4959 18.8276 22.3542 18.969 22.3542 19.1433C22.3542 19.3176 22.4959 19.4589 22.6706 19.4589Z" fill="#120283"/>
<path d="M24.6622 17.032C24.6622 17.032 24.8587 17.0843 25.7368 17.0843C26.6149 17.0843 27.0071 17.1693 26.9908 17.0843C26.9198 16.7191 25.3545 16.5365 25.0927 16.5755C24.831 16.6144 24.5537 16.797 24.6622 17.032Z" fill="#120283"/>
<path d="M23.2812 17.032C23.2812 17.032 23.0855 17.0843 22.2067 17.0843C21.3279 17.0843 20.9371 17.1693 20.9534 17.0843C21.0243 16.7191 22.589 16.5365 22.8514 16.5755C23.1138 16.6144 23.3897 16.797 23.2812 17.032Z" fill="#120283"/>
<path d="M30.9925 17.1228L30.3421 19.3925C30.3421 19.3925 30.2939 16.6755 29.9811 14.9443C29.6683 13.2132 28.7044 12.7807 27.7284 12.6123C27.6962 12.6073 27.6634 12.6073 27.6312 12.6123H20.5839C20.5839 12.6123 18.5404 11.9449 20.5519 9.67159C20.7527 9.56967 21.9152 9.34815 22.1414 9.28657C24.9019 8.54131 29.1122 7.46483 29.8605 10.1359C29.8605 10.1359 30.9953 9.15776 31.3783 11.4027C31.7614 13.6477 30.9925 17.1228 30.9925 17.1228Z" fill="#120283"/>
<path d="M24.0586 21.348C24.0049 21.3327 23.9502 21.3216 23.8948 21.3147C23.6706 21.2779 23.3912 21.2319 23.3465 21.0748C23.3231 20.9898 23.372 20.8971 23.4961 20.7917C23.9579 20.396 23.877 19.5248 23.8763 19.5177L23.9721 19.5078C23.9763 19.546 24.0586 20.4378 23.5586 20.866C23.4699 20.9424 23.4273 21.0075 23.4394 21.0507C23.4671 21.1491 23.7557 21.1965 23.9104 21.222C23.9797 21.2269 24.0477 21.2432 24.1118 21.2701L24.0586 21.348Z" fill="#120283"/>
<path d="M24.0415 21.8286C24.0415 21.8286 24.8607 21.7472 25.4218 21.4146C25.4218 21.4146 25.287 22.399 24.0415 21.8286Z" fill="#120283"/>
<path d="M53.5333 74.2335L51.9623 74.2144H51.7495L49.2039 74.1826H49.0975H48.9911L47.5314 74.1642L46.4462 74.1507H46.3398H46.2335L43.9148 74.1224H43.6879H43.5815H43.4751L42.7708 74.1139L41.8267 74.1026L40.9302 74.0913H40.8238H40.7174L39.9819 74.0821L39.0151 74.0701L38.1718 74.0594H38.0654H37.959L35.4141 74.0276H35.3078H35.2014L32.6558 73.9965H32.443L31.677 73.9873L31.1266 73.9802L29.8981 73.9653H29.7917H29.6853L27.1404 73.9335H27.034H26.9277L24.3821 73.9016H24.2757H24.1693L23.3962 73.8917L21.623 73.8698H21.4102L18.8781 73.8386H18.8646H18.7582H18.6518L16.1069 73.8075H16.0005H15.8941L13.3485 73.7763H13.1358L11.8236 73.7601L11.3214 73.7544L10.5909 73.7452H10.4845H10.3781H10.1135L9.36312 73.736L7.8325 73.7169H7.72682H7.62114L5.35145 73.6886H5.07341H4.86063L2.68457 73.6065C2.68457 73.6065 2.68457 73.5484 2.69308 73.4373C2.69308 73.4295 2.69308 73.4218 2.69308 73.414V73.4048C2.69308 73.3786 2.69663 73.3496 2.69805 73.3184C2.69805 73.3184 2.69805 73.3121 2.69805 73.3092C2.69805 73.2852 2.69805 73.2604 2.70159 73.2335C2.70514 73.2066 2.70159 73.179 2.70585 73.15C2.7101 73.121 2.7101 73.0707 2.71223 73.0275C2.71223 73.0049 2.71223 72.9822 2.71578 72.9568C2.71932 72.9313 2.71578 72.9221 2.71578 72.9044C2.71578 72.8867 2.71578 72.8683 2.71578 72.8499C2.71578 72.8315 2.71578 72.8124 2.71578 72.7933C2.72003 72.7168 2.72429 72.6347 2.72855 72.5484C2.72855 72.5123 2.72855 72.4776 2.73422 72.4373C2.73989 72.3969 2.73848 72.3559 2.7406 72.3134C2.7406 72.2922 2.7406 72.271 2.74415 72.2497C2.7477 72.2285 2.74415 72.1889 2.74911 72.1577C2.75408 72.1266 2.75266 72.0869 2.75479 72.0516C2.75904 71.9596 2.76472 71.8633 2.76968 71.7642C2.76968 71.7255 2.77181 71.6859 2.77607 71.6453C2.77607 71.5887 2.78245 71.5307 2.78529 71.4712C2.78529 71.4401 2.78883 71.4089 2.79025 71.3778C2.79451 71.2971 2.79876 71.215 2.80373 71.1308C2.80373 71.0749 2.8094 71.0182 2.81295 70.9602C2.8165 70.9022 2.81791 70.8632 2.82075 70.8137L2.82713 70.6955C2.82713 70.6658 2.82713 70.6354 2.8321 70.6049C2.83636 70.5341 2.8399 70.4634 2.84345 70.3926C2.84699 70.3218 2.85125 70.2609 2.8548 70.1944C2.8548 70.1583 2.85905 70.1237 2.86047 70.0861C2.86047 70.0387 2.86615 69.9906 2.86827 69.9446C2.87962 69.7469 2.89097 69.5431 2.90232 69.3331C2.90232 69.28 2.9087 69.2269 2.91154 69.1731C2.91792 69.0542 2.92502 68.9325 2.93211 68.8094C2.93636 68.7322 2.94062 68.6537 2.94487 68.5751L2.95126 68.464C2.95693 68.3706 2.9619 68.2757 2.96757 68.1809C2.97325 68.086 2.9775 68.0075 2.98247 67.9197C2.98743 67.832 2.9924 67.7456 2.99736 67.6579C2.99736 67.614 3.00233 67.5694 3.00516 67.5248C3.01462 67.3719 3.0236 67.2165 3.03212 67.0584C3.03212 67.0265 3.03212 66.994 3.03779 66.9621C3.04536 66.8305 3.05316 66.6974 3.0612 66.563C3.08578 66.1383 3.11179 65.7035 3.13922 65.2586C3.16002 64.9132 3.1813 64.5624 3.20305 64.2062C3.20305 64.1984 3.20305 64.1913 3.20305 64.1835C3.21771 63.941 3.23284 63.6961 3.24845 63.4489C3.24845 63.4227 3.24845 63.3965 3.25341 63.3703C3.26476 63.1891 3.27611 63.0068 3.28746 62.8232C3.2988 62.6397 3.31063 62.4509 3.32292 62.257C3.33758 62.0263 3.35247 61.7944 3.3676 61.5613C3.37612 61.4332 3.38392 61.3051 3.39243 61.177C3.40449 60.9894 3.41725 60.8005 3.42931 60.6108L3.4591 60.1614C3.47045 59.9944 3.48109 59.8273 3.49244 59.6603C3.50662 59.455 3.52057 59.2491 3.53428 59.0424L3.57258 58.4897C3.57258 58.4734 3.57258 58.4571 3.57258 58.4408C3.58866 58.1988 3.60545 57.9567 3.62294 57.7147C3.69387 56.7465 3.7648 55.7804 3.83573 54.8313C3.84991 54.6424 3.86481 54.4541 3.87899 54.2651C3.8875 54.1597 3.89531 54.0528 3.90382 53.9488C3.91233 53.8447 3.92013 53.7364 3.92864 53.6345C3.92864 53.6112 3.92864 53.5871 3.93432 53.5637L3.94283 53.4526C3.94317 53.451 3.94317 53.4493 3.94283 53.4477C3.94708 53.3925 3.95205 53.338 3.9563 53.2828C3.9634 53.1894 3.9712 53.0959 3.979 53.0032C3.99413 52.8178 4.00926 52.6333 4.02439 52.4498C4.06979 51.8998 4.11589 51.3605 4.16625 50.8361C4.18138 50.6625 4.19675 50.4909 4.21235 50.3216C4.23836 50.0356 4.2646 49.7544 4.29108 49.4779C4.29888 49.3944 4.30669 49.3109 4.3152 49.2281C4.32371 49.1453 4.3308 49.0639 4.33931 48.9818C4.35492 48.819 4.37123 48.6576 4.38754 48.4991C4.40693 48.3104 4.42608 48.1228 4.445 47.9364C4.45493 47.8451 4.46415 47.7545 4.47408 47.6647C4.48117 47.5981 4.48897 47.5316 4.49535 47.4658C4.56628 46.7984 4.64288 46.1812 4.71665 45.6256C4.72445 45.5662 4.73296 45.5074 4.74147 45.4487C4.74573 45.4197 4.75069 45.3907 4.75495 45.3616C4.7663 45.2909 4.77765 45.2201 4.79041 45.1493C4.80318 45.0785 4.81453 45.0127 4.828 44.9448L4.85141 44.828C4.85567 44.8061 4.85992 44.7834 4.86489 44.7608C4.86985 44.7381 4.87553 44.7091 4.88191 44.6836C4.88191 44.673 4.88617 44.6631 4.88829 44.6525C4.89893 44.6022 4.91028 44.5527 4.92234 44.5031C4.9344 44.4536 4.94574 44.4041 4.9578 44.3552L4.96773 44.3156L4.98475 44.2484C5.00036 44.1889 5.01596 44.1302 5.03228 44.0714C5.04221 44.0332 5.05285 43.9957 5.06419 43.9575C5.07554 43.9193 5.08263 43.8917 5.09256 43.8591C5.09288 43.8572 5.09288 43.8553 5.09256 43.8534C5.11313 43.7827 5.1337 43.7168 5.15569 43.6489C5.19967 43.5073 5.24648 43.3722 5.29755 43.2363C5.32166 43.1655 5.34649 43.1004 5.37273 43.0332C5.39897 42.9659 5.42238 42.9043 5.44791 42.8399L5.45642 42.8194C5.48125 42.7578 5.50678 42.6963 5.53303 42.6354C5.55927 42.5745 5.57629 42.5342 5.59899 42.4839C5.59871 42.4811 5.59871 42.4783 5.59899 42.4755C5.61176 42.4457 5.62523 42.416 5.63871 42.387C5.65999 42.3396 5.68126 42.2929 5.70325 42.2454C5.74652 42.1534 5.79049 42.0628 5.83589 41.9729C5.85858 41.9284 5.88128 41.8831 5.90681 41.8385C5.93235 41.7939 5.95292 41.75 5.97774 41.7054C6.01604 41.6346 6.05505 41.5639 6.09477 41.4931C6.13449 41.4223 6.17492 41.3515 6.21535 41.2808C6.25578 41.21 6.29834 41.1392 6.34018 41.0734C6.42435 40.9361 6.51136 40.8009 6.6012 40.6679C6.64588 40.6013 6.69127 40.5355 6.73738 40.4697C6.78348 40.4039 6.82958 40.3395 6.87923 40.2744C6.92888 40.2092 6.97357 40.1463 7.02109 40.0826C7.05797 40.0337 7.09202 39.9856 7.13245 39.941L7.17429 39.8879C7.21259 39.8391 7.25231 39.7895 7.29132 39.7414C7.39535 39.6136 7.50174 39.4873 7.6105 39.3628C7.64596 39.3224 7.68143 39.2821 7.7176 39.2425C7.75377 39.2028 7.78853 39.1646 7.82328 39.1257C7.86938 39.0747 7.9162 39.0238 7.96514 38.9735L8.08288 38.8504C8.13323 38.798 8.1843 38.7463 8.23537 38.6947L8.31552 38.6147L8.32332 38.6069L8.43893 38.4937C8.67016 38.2695 8.908 38.053 9.15247 37.8439L9.34539 37.6812C9.40993 37.6274 9.47519 37.5743 9.54044 37.5219C9.68229 37.408 9.82415 37.2969 9.96601 37.1893C10.0199 37.1473 10.0745 37.1062 10.1298 37.0661C10.2093 37.0067 10.2887 36.9486 10.3696 36.892L10.3788 36.8857L10.476 36.8149L10.5022 36.7965C10.5285 36.7774 10.5554 36.759 10.5824 36.7406C10.6384 36.7009 10.6944 36.6627 10.7512 36.6245C10.8221 36.5771 10.893 36.5311 10.959 36.4829L11.1072 36.3853L11.2143 36.3145L11.2299 36.3046C11.3179 36.2489 11.4061 36.1937 11.4945 36.139L11.6364 36.0526C11.6917 36.0187 11.7477 35.9854 11.803 35.9528C11.8584 35.9203 11.9045 35.892 11.9555 35.863L12.0818 35.7922L12.2782 35.6804C12.562 35.5218 12.8457 35.3701 13.1294 35.2253L13.2358 35.1715L13.3422 35.1184C13.3833 35.0972 13.4251 35.0774 13.4663 35.0568L13.6528 34.9662C13.8197 34.8856 13.9852 34.8077 14.1493 34.7327C14.5132 34.5671 14.8763 34.4121 15.2345 34.2677C15.4156 34.1946 15.5951 34.1238 15.7729 34.0554L15.8821 34.0143L15.9885 33.9747L16.0835 33.9393L16.0949 33.935L16.2424 33.8813L16.3027 33.8593C16.4772 33.7963 16.6509 33.7362 16.8219 33.6788C17.1198 33.5783 17.4108 33.4852 17.695 33.3993L17.9014 33.337L18.0645 33.2889L18.2858 33.2252L18.6405 33.1282L18.7469 33.0999L18.7625 33.0957L18.8256 33.0787L18.8532 33.0716L19.1143 33.0008L19.3398 32.9364L19.393 32.9208L19.5164 32.8847L19.5342 32.8798C19.6859 32.8338 19.8335 32.7871 19.9753 32.7382C20.02 32.7234 20.064 32.7092 20.1072 32.6937C20.2278 32.6526 20.3446 32.6109 20.4576 32.5684L20.6222 32.5047C20.6695 32.4858 20.7168 32.466 20.764 32.4452C20.8142 32.4249 20.8638 32.4037 20.913 32.3815C20.9619 32.361 21.0102 32.3391 21.0548 32.3164L21.0683 32.3101L21.1541 32.2697L21.191 32.252H21.1946C21.252 32.2237 21.3073 32.1954 21.3627 32.1671L21.3903 32.1522C21.4265 32.1331 21.4613 32.1133 21.4967 32.0935C21.5322 32.0737 21.5676 32.0553 21.5981 32.0355L21.6031 32.0319C21.6792 31.9876 21.753 31.9416 21.8244 31.8939C21.8627 31.8684 21.9003 31.8422 21.9379 31.816C21.9755 31.7899 22.0088 31.763 22.0471 31.7361C22.0854 31.7092 22.118 31.6816 22.1521 31.6533C22.1861 31.625 22.223 31.5981 22.2528 31.5683C22.3188 31.511 22.3826 31.4516 22.4436 31.3907C22.6552 31.179 22.8387 30.9411 22.9897 30.6829C23.3687 30.8081 23.7548 30.9109 24.1459 30.9908L24.2523 31.0128L24.3587 31.0326C25.1982 31.1857 26.051 31.254 26.9042 31.2364H27.0106H27.117C27.9801 31.2043 28.839 31.1001 29.6846 30.925C29.7201 30.9186 29.7555 30.9108 29.791 30.9038L29.8974 30.8811C30.2941 30.7967 30.7036 30.694 31.1259 30.5732C31.2459 30.7894 31.3815 30.9966 31.5316 31.1932L31.577 31.2513L31.5883 31.2661C31.6075 31.2909 31.6273 31.315 31.6472 31.3369C31.667 31.3588 31.6869 31.3843 31.7075 31.4077L31.7685 31.4785C31.7883 31.5011 31.8082 31.523 31.8295 31.545L31.8373 31.5528C31.8734 31.591 31.9082 31.6285 31.9465 31.6646C31.9493 31.667 31.9519 31.6696 31.9543 31.6724L32.0188 31.7347L32.0813 31.792C32.1025 31.8118 32.1238 31.8302 32.1451 31.8486C32.1876 31.8861 32.2309 31.9194 32.2742 31.9562L32.3394 32.0071C32.3728 32.0333 32.4068 32.0581 32.4402 32.0822L32.4458 32.0864C32.4792 32.1105 32.5132 32.1338 32.5465 32.1572L32.6529 32.228C32.7118 32.2641 32.7714 32.2987 32.831 32.3306C32.9189 32.3787 33.0069 32.4212 33.0948 32.4594C33.1147 32.4686 33.1352 32.4771 33.1551 32.4849L33.2189 32.5103L33.2821 32.5344L33.3459 32.5564L33.409 32.5769L33.4714 32.5953L33.5339 32.6123L33.5445 32.6158C33.558 32.6201 33.5707 32.6229 33.5835 32.6257C33.6544 32.6427 33.7608 32.6604 33.9006 32.6802L33.9828 32.6922L34.0346 32.6993L34.0857 32.7064L34.1438 32.7142L34.2396 32.7269L34.3814 32.7453L34.5375 32.7666L34.8049 32.8041L35.0219 32.8352H35.0347L35.1765 32.8564L35.2028 32.8607L35.2879 32.8741L35.3092 32.8777L35.4156 32.894L35.4631 32.9017L35.4978 32.9074L35.6674 32.9357L35.7539 32.9506L35.8248 32.9626L35.8957 32.9746L35.9192 32.9789L36.0468 33.0022L36.1107 33.0136L36.1738 33.0256L36.3639 33.0624L36.4078 33.0709L36.5582 33.1013L36.5923 33.1077L36.7164 33.1339L36.7873 33.1494L36.9249 33.1792L36.9568 33.1863L36.9902 33.1933L37.0327 33.2025L37.054 33.2075L37.093 33.216L37.1058 33.2195L37.2682 33.257L37.3015 33.2641L37.5037 33.3129L37.586 33.3328H37.5987L37.6214 33.3377L37.7001 33.3575L37.7711 33.3752L37.8179 33.3873L37.9207 33.4134L37.9605 33.4241L38.0668 33.4531L38.1108 33.4651L38.1732 33.4821L38.2825 33.5118L38.4605 33.5635L38.6506 33.6187C38.7655 33.6527 38.8825 33.6895 38.9995 33.7256L39.1818 33.7843L39.2052 33.7914L39.3237 33.8303L39.3662 33.8452L39.3783 33.8487L39.5038 33.8912L39.5585 33.9103L39.6294 33.9343L39.7556 33.9789L39.801 33.9952L39.8826 34.0249L39.9833 34.0617L40.111 34.1141L40.1344 34.1226L40.3004 34.1863L40.4904 34.2613L40.5195 34.2726C40.5848 34.2988 40.6493 34.325 40.7146 34.3526L40.7295 34.359L40.7784 34.3788C40.7926 34.3845 40.8068 34.3901 40.821 34.3972C40.8352 34.4043 40.8557 34.4114 40.8735 34.4191L40.8969 34.4283L40.9274 34.4418L40.9919 34.4701C41.0808 34.5083 41.1695 34.5473 41.2579 34.5869L41.299 34.6053L41.4295 34.6647C41.4366 34.6683 41.4444 34.6711 41.4515 34.6754L41.5288 34.7114L41.565 34.7277L41.6444 34.7659L41.6912 34.7879L41.8218 34.8516L41.8388 34.8601L42.0324 34.9563L42.0842 34.9825C42.1849 35.0339 42.2859 35.0866 42.387 35.1403L42.4197 35.1587L42.4771 35.1892L42.5757 35.243L42.7388 35.3336L42.775 35.3541L42.8594 35.4022L43.0013 35.4843L43.0098 35.4893L43.2084 35.6075L43.4212 35.7384L43.473 35.7709L43.5772 35.8375L43.6616 35.892L43.6836 35.9068L43.8177 35.9953L43.8233 35.9988C43.8801 36.0364 43.9361 36.0746 43.9928 36.1135L44.1191 36.2013L44.2666 36.306C44.3645 36.3763 44.4619 36.4471 44.5589 36.5183C44.6128 36.558 44.666 36.599 44.7184 36.6394C44.7979 36.7016 44.878 36.7639 44.9568 36.8276C44.9731 36.8404 44.9894 36.8531 45.005 36.8665C45.049 36.9019 45.0922 36.9373 45.1362 36.9741C45.2781 37.0921 45.4199 37.2138 45.5618 37.3393C45.6086 37.3811 45.6554 37.4228 45.7036 37.4653C45.7982 37.5502 45.8904 37.637 45.9802 37.7258C46.0263 37.7696 46.0717 37.8142 46.1171 37.8588L46.2327 37.9749L46.2746 38.0166C46.2966 38.0393 46.3186 38.0612 46.3391 38.0839C46.3753 38.1207 46.4101 38.1546 46.4455 38.195C46.5949 38.3521 46.7422 38.5142 46.8874 38.6812C46.9371 38.7385 46.9867 38.7973 47.0364 38.856C47.0669 38.8928 47.0981 38.9268 47.1286 38.9671C47.2198 39.0785 47.3104 39.192 47.4002 39.3076C47.4598 39.3847 47.5187 39.4626 47.5775 39.5411C47.6364 39.6197 47.6939 39.7004 47.7513 39.7811C47.7974 39.8455 47.8428 39.9106 47.8882 39.9764C47.978 40.108 48.0669 40.2423 48.1549 40.3791C48.1981 40.4499 48.2414 40.5164 48.2847 40.5858C48.4128 40.7948 48.5377 41.0092 48.6592 41.2291C48.6897 41.2843 48.7195 41.3395 48.7493 41.3954L48.7961 41.4846C48.833 41.5554 48.867 41.6262 48.9046 41.6969C48.9337 41.7543 48.962 41.8116 48.9904 41.8696C48.9975 41.8824 49.0039 41.8958 49.0103 41.9093C49.0301 41.951 49.0507 41.9928 49.0699 42.0345C49.0791 42.0529 49.0876 42.072 49.0968 42.0911C49.1195 42.14 49.1429 42.1895 49.1677 42.2391C49.1805 42.2667 49.1933 42.2943 49.2053 42.3226C49.2174 42.3509 49.2358 42.3891 49.2507 42.4231C49.2805 42.4896 49.3096 42.5561 49.338 42.6234C49.3727 42.7041 49.4089 42.7862 49.4408 42.869C49.5415 43.1174 49.6387 43.3715 49.7302 43.6319C49.7912 43.8055 49.8501 43.982 49.9068 44.1613C49.9635 44.3406 50.0179 44.5227 50.0699 44.7077C50.2004 45.1706 50.3156 45.6516 50.4154 46.1508C50.4503 46.3249 50.4846 46.4992 50.5182 46.6738C50.5868 47.0263 50.6537 47.3801 50.7189 47.7354C50.7501 47.9025 50.7806 48.0702 50.8104 48.2372L50.8211 48.296L50.8317 48.3554C50.8707 48.5734 50.9097 48.7928 50.9473 49.0122C50.9892 49.2507 51.0303 49.4907 51.07 49.7299C51.1048 49.9337 51.1409 50.1368 51.1707 50.3407C51.2863 51.0442 51.3963 51.7505 51.4998 52.4547C51.5211 52.5963 51.5417 52.7364 51.5615 52.8751C51.5899 53.0655 51.6169 53.2559 51.6438 53.4456C51.6727 53.6484 51.701 53.8511 51.7289 54.0535C51.736 54.1066 51.7438 54.159 51.7509 54.212C51.7701 54.3465 51.7885 54.4803 51.8062 54.6148C51.8233 54.7386 51.8396 54.8618 51.8559 54.9849C51.8559 54.9849 51.8559 54.992 51.8559 54.9955C51.8876 55.238 51.9193 55.4806 51.9509 55.7231C51.9545 55.7528 51.9587 55.7832 51.9623 55.813C51.9942 56.0586 52.0247 56.3027 52.0552 56.5469C52.0807 56.7543 52.1056 56.9609 52.1311 57.1669C52.146 57.2943 52.1616 57.4217 52.1765 57.5491C52.2484 58.1568 52.3167 58.7544 52.3815 59.3418C52.4202 59.6957 52.4578 60.0463 52.4942 60.3935C52.5148 60.5825 52.534 60.77 52.5531 60.9597C52.5739 61.1602 52.594 61.3591 52.6134 61.5564C52.6333 61.7545 52.6524 61.9506 52.6716 62.1459C52.6907 62.3412 52.7092 62.5352 52.7269 62.727C52.7446 62.9188 52.7631 63.1106 52.7808 63.3002C52.8517 64.0582 52.9141 64.7922 52.973 65.4943C52.9862 65.6604 52.9997 65.8255 53.0134 65.9897C53.0271 66.1539 53.0399 66.315 53.0517 66.4731C53.0588 66.5675 53.0659 66.6587 53.073 66.747C53.0787 66.8135 53.0836 66.88 53.0886 66.9459C53.0978 67.069 53.1078 67.1907 53.1163 67.3111C53.1163 67.3436 53.1219 67.3762 53.1241 67.408C53.1354 67.5602 53.1461 67.7102 53.1574 67.8589C53.1688 68.0075 53.1787 68.1533 53.1893 68.2977C53.1957 68.3875 53.2021 68.4774 53.2085 68.5659C53.2326 68.9198 53.2562 69.2604 53.2794 69.5879C53.29 69.7514 53.3007 69.912 53.3106 70.0677C53.3156 70.1463 53.3205 70.2234 53.3255 70.2999C53.3291 70.3607 53.3326 70.4216 53.3369 70.4811C53.3447 70.6162 53.3525 70.7479 53.361 70.876C53.361 70.9192 53.3659 70.9616 53.3688 71.0034C53.3808 71.2001 53.3915 71.3891 53.4021 71.5696C53.4073 71.6602 53.4123 71.7486 53.417 71.835C53.422 71.9213 53.4262 72.0055 53.4312 72.0876C53.4411 72.2764 53.4506 72.4533 53.4596 72.6185C53.4596 72.651 53.4631 72.6829 53.4645 72.714C53.4645 72.7692 53.4702 72.823 53.4723 72.8747C53.4766 72.9568 53.4801 73.036 53.4844 73.1111V73.1514C53.4936 73.3538 53.5021 73.53 53.5085 73.6773C53.5128 73.7657 53.5163 73.8436 53.5199 73.9115C53.5192 73.9136 53.5192 73.9158 53.5199 73.9179C53.5199 73.9462 53.5199 73.9724 53.5234 73.9965C53.5234 74.0325 53.5234 74.0672 53.5234 74.0927C53.5312 74.1847 53.5333 74.2335 53.5333 74.2335Z" fill="#EF9143"/>
<path d="M5.07619 43.9512V73.6356H4.8634V44.821C4.86766 44.7991 4.87191 44.7764 4.87688 44.7538C4.88184 44.7311 4.88752 44.7021 4.8939 44.6766C4.8939 44.666 4.89816 44.6561 4.90029 44.6455C4.91092 44.5952 4.92227 44.5457 4.93433 44.4961C4.94639 44.4466 4.95774 44.3971 4.96979 44.3482L4.97972 44.3086L4.99675 44.2413C5.01235 44.1819 5.02796 44.1232 5.04427 44.0644C5.0542 44.0262 5.06484 43.9887 5.07619 43.9512Z" fill="#FFAC6E"/>
<path d="M7.83388 39.1177V73.6693H7.7282H7.62109V39.3548C7.65656 39.3144 7.69202 39.2741 7.7282 39.2345C7.76437 39.1948 7.7977 39.1566 7.83388 39.1177Z" fill="#FFAC6E"/>
<path d="M10.5923 36.7324V73.7017H10.4859H10.3795V36.8839L10.3887 36.8775L10.4859 36.8067L10.5122 36.7883C10.5384 36.7706 10.5653 36.7522 10.5923 36.7324Z" fill="#FFAC6E"/>
<path d="M13.35 35.1138V73.737H13.1372V35.2206L13.2436 35.1669L13.35 35.1138Z" fill="#FFAC6E"/>
<path d="M16.1083 33.9316V73.7715H16.0019H15.8955V34.0109L16.0019 33.9713L16.0969 33.9359L16.1083 33.9316Z" fill="#FFAC6E"/>
<path d="M18.8661 33.0674V73.8047H18.7597H18.6533V33.1226L18.7597 33.0943L18.7753 33.09L18.8384 33.073L18.8661 33.0674Z" fill="#FFAC6E"/>
<path d="M21.6244 32.0273V73.839H21.4116V32.1526C21.4478 32.1335 21.4825 32.1137 21.518 32.0939C21.5535 32.0741 21.5889 32.0557 21.6194 32.0358L21.6244 32.0273Z" fill="#FFAC6E"/>
<path d="M24.3821 31.0281V73.8731H24.2757H24.1693V30.9863L24.2757 31.0083L24.3821 31.0281Z" fill="#FFAC6E"/>
<path d="M27.1404 31.2266V73.9073H27.034H26.9276V31.2322H27.034L27.1404 31.2266Z" fill="#FFAC6E"/>
<path d="M29.8973 30.8809V73.9417H29.791H29.6846V30.9247C29.72 30.9184 29.7555 30.9106 29.791 30.9035L29.8973 30.8809Z" fill="#FFAC6E"/>
<path d="M32.6558 32.2262V73.9756H32.443V32.084L32.4487 32.0882C32.482 32.1123 32.516 32.1356 32.5494 32.159L32.6558 32.2262Z" fill="#FFAC6E"/>
<path d="M35.4142 32.8941V74.0093H35.3078H35.2014V32.8608L35.2865 32.8743L35.3078 32.8778L35.4142 32.8941Z" fill="#FFAC6E"/>
<path d="M38.1718 33.4867V74.0407H38.0654H37.959V33.4287L38.0654 33.4577L38.1094 33.4698L38.1718 33.4867Z" fill="#FFAC6E"/>
<path d="M40.9302 34.4432V74.0771H40.8238H40.7174V34.354L40.7323 34.3604L40.7812 34.3802C40.7954 34.3859 40.8096 34.3915 40.8238 34.3986C40.838 34.4057 40.8586 34.4127 40.8763 34.4205L40.8997 34.4297L40.9302 34.4432Z" fill="#FFAC6E"/>
<path d="M43.6879 35.9098V74.1119H43.5815H43.4751V35.7725L43.5794 35.839L43.6638 35.8935L43.6879 35.9098Z" fill="#FFAC6E"/>
<path d="M46.4463 38.1996V74.1454H46.3399H46.2335V37.9795L46.2754 38.0213C46.2974 38.0439 46.3193 38.0658 46.3399 38.0885C46.3761 38.1253 46.4115 38.1621 46.4463 38.1996Z" fill="#FFAC6E"/>
<path d="M49.2039 42.3238V74.1796H49.0975H48.9911V41.8716C48.9982 41.8843 49.0046 41.8978 49.0109 41.9112C49.0308 41.953 49.0514 41.9947 49.0705 42.0365C49.0798 42.0549 49.0883 42.074 49.0975 42.0931C49.1202 42.1419 49.1436 42.1915 49.1684 42.241C49.1791 42.2686 49.1897 42.2962 49.2039 42.3238Z" fill="#FFAC6E"/>
<path d="M9.3645 73.6884L10.1149 73.6976L12.3108 46.0713L9.3645 73.6884Z" fill="#120283"/>
<path d="M42.7708 74.1018L43.9148 74.116C44.0191 67.0385 43.8013 48.3022 43.8013 48.3022L42.7708 74.1018Z" fill="#120283"/>
<path d="M32.8337 32.3289C32.7919 32.3756 32.7472 32.4216 32.7011 32.4704C31.2995 33.8859 28.1688 35.3396 28.1085 35.3014C28.0222 35.1713 27.9443 35.0358 27.8752 34.8959C27.8439 34.8378 27.8099 34.7756 27.7744 34.709C27.6326 34.4458 27.4638 34.1216 27.2935 33.7946L27.195 33.6049C26.9992 33.2284 26.8112 32.8653 26.6772 32.6049L26.5779 32.4145L26.4786 32.2199C26.4786 32.2199 26.4077 32.3296 26.2949 32.5072L26.1715 32.6948C25.9892 32.9715 25.7416 33.3374 25.4792 33.7005L25.3537 33.8732C25.1366 34.1662 24.9146 34.4472 24.7153 34.6673C24.665 34.7232 24.6153 34.7749 24.5678 34.8216C24.3791 35.0091 24.2188 35.1224 24.1124 35.1132C23.7748 35.0827 22.1789 33.4577 21.0902 32.3112L21.176 32.2708L21.2129 32.2531H21.2165C21.2682 32.2277 21.3179 32.2022 21.3675 32.1767L21.3846 32.1682C21.447 32.135 21.5087 32.101 21.5683 32.0663L21.62 32.0366L21.6264 32.0323C21.7026 31.988 21.7763 31.942 21.8477 31.8943C21.886 31.8688 21.9236 31.8427 21.9612 31.8165C21.9988 31.7903 22.0321 31.7634 22.0704 31.7365L22.1151 31.7025L22.1754 31.6537C22.2095 31.6268 22.2463 31.5985 22.2761 31.5688L22.2861 31.5603C22.3485 31.5051 22.4088 31.4491 22.4669 31.3911C22.5246 31.3331 22.5799 31.2736 22.6329 31.2128C22.6818 31.1576 22.7279 31.1002 22.7747 31.0415C22.862 30.9273 22.9423 30.8079 23.0152 30.6841C24.4962 31.1795 27.2857 31.6841 31.1286 30.5786C31.1853 30.6798 31.2435 30.7775 31.3052 30.8716C31.3449 30.9346 31.3868 30.9962 31.4286 31.0556C31.4705 31.1151 31.4996 31.1519 31.5343 31.1972L31.5797 31.2552L31.5911 31.2701C31.6102 31.2949 31.6301 31.3189 31.6499 31.3409C31.6698 31.3628 31.6896 31.3883 31.7102 31.4116L31.7712 31.4824C31.7911 31.5051 31.8109 31.527 31.8322 31.5489L31.84 31.5567L31.9109 31.6325L31.9471 31.6685C31.9499 31.671 31.9525 31.6736 31.9549 31.6763L32.0195 31.7386L32.0783 31.7924L32.0819 31.7959C32.1032 31.8158 32.1244 31.8342 32.1457 31.8526C32.1883 31.8901 32.2315 31.9233 32.2748 31.9601L32.3401 32.0111C32.3755 32.0387 32.411 32.0649 32.4464 32.0904C32.5238 32.1456 32.6004 32.1965 32.6784 32.2432C32.7344 32.2737 32.7826 32.3013 32.8337 32.3289Z" fill="#FFAC6E"/>
<path d="M26.5852 32.215L26.3724 32.2163L26.6336 73.6974L26.8464 73.696L26.5852 32.215Z" fill="#BF5F1F"/>
<path d="M28.6668 39.4248C28.934 39.4248 29.1506 39.2087 29.1506 38.9422C29.1506 38.6756 28.934 38.4595 28.6668 38.4595C28.3997 38.4595 28.1831 38.6756 28.1831 38.9422C28.1831 39.2087 28.3997 39.4248 28.6668 39.4248Z" fill="white"/>
<path d="M28.6668 44.6875C28.934 44.6875 29.1506 44.4714 29.1506 44.2049C29.1506 43.9383 28.934 43.7222 28.6668 43.7222C28.3997 43.7222 28.1831 43.9383 28.1831 44.2049C28.1831 44.4714 28.3997 44.6875 28.6668 44.6875Z" fill="white"/>
<path d="M28.6668 49.9502C28.934 49.9502 29.1506 49.7341 29.1506 49.4675C29.1506 49.201 28.934 48.9849 28.6668 48.9849C28.3997 48.9849 28.1831 49.201 28.1831 49.4675C28.1831 49.7341 28.3997 49.9502 28.6668 49.9502Z" fill="white"/>
<path d="M26.2949 32.5037L26.1715 32.6912L22.6329 31.205C22.6819 31.1498 22.728 31.0924 22.7748 31.0337L26.28 32.5072L26.2949 32.5037Z" fill="#EF9143"/>
<path d="M31.4265 31.0497L26.6744 32.6011L26.5751 32.4107L31.3003 30.8657C31.3428 30.9287 31.3868 30.9903 31.4265 31.0497Z" fill="#EF9143"/>
<path d="M25.4793 33.697L25.3538 33.8697L22.1145 31.6969L22.1748 31.6481C22.2088 31.6212 22.2457 31.5929 22.2755 31.5632L22.2854 31.5547L25.4793 33.697Z" fill="#EF9143"/>
<path d="M32.0804 31.7903L27.2935 33.7911L27.1949 33.6015L31.9131 31.6304L31.9492 31.6665C31.952 31.6689 31.9546 31.6715 31.957 31.6743L32.0216 31.7365L32.0804 31.7903Z" fill="#EF9143"/>
<path d="M24.7147 34.6636C24.6644 34.7196 24.6147 34.7712 24.5672 34.8179L21.3669 32.171L21.384 32.1625C21.4464 32.1292 21.5081 32.0952 21.5677 32.0605L24.7147 34.6636Z" fill="#EF9143"/>
<path d="M32.8338 32.3288C32.7919 32.3755 32.7472 32.4215 32.7011 32.4704L27.8781 34.8944C27.8469 34.8364 27.8128 34.7741 27.7773 34.7075L32.6834 32.2432C32.7345 32.2736 32.7827 32.3012 32.8338 32.3288Z" fill="#EF9143"/>
<path d="M19.6661 16.2361C19.6661 16.2361 20.3293 14.856 20.613 13.3697C20.8967 11.8834 21.5428 12.5558 22.3542 14.0421C23.1657 15.5283 27.0355 18.8866 30.4719 16.5708V16.2361C30.4719 16.2361 27.6674 17.6162 25.5779 15.5283C25.5779 15.5283 28.4859 17.3685 30.4719 15.776C32.4579 14.1836 32.4579 9.92437 32.4579 9.92437C32.4579 9.92437 32.3501 7.1415 29.6208 7.10611C26.8915 7.07073 21.7123 4.69977 20.3647 6.46914C19.0171 8.23851 19.7562 8.66316 19.7562 8.66316C19.7562 8.66316 16.7694 9.79556 19.6661 16.2361Z" fill="#120283"/>
</g>
</svg>
