<svg width="402" height="402" viewBox="0 0 402 402" fill="none" xmlns="http://www.w3.org/2000/svg">
<g filter="url(#filter0_d_157_220)">
<circle cx="201" cy="191" r="165" fill="white"/>
<circle cx="201" cy="191" r="168" stroke="#D62323" stroke-width="6"/>
</g>
<mask id="mask0_157_220" style="mask-type:alpha" maskUnits="userSpaceOnUse" x="36" y="26" width="330" height="330">
<circle cx="201" cy="191" r="165" fill="white"/>
</mask>
<g mask="url(#mask0_157_220)">
<path d="M81.767 368.38C81.767 368.38 67.0633 253.565 205.857 253.554C341.541 253.554 319.705 368.38 319.705 368.38H81.767Z" fill="#771B45"/>
<path d="M135.738 94.7403C135.738 94.7403 112.587 118.53 135.738 142.492C158.889 166.454 271.69 141.306 271.69 141.306C271.69 141.306 288.483 108.354 261.487 84.9772C234.491 61.6006 171.611 68.8666 170.929 68.8666C170.247 68.8666 135.738 94.7403 135.738 94.7403Z" fill="#414142"/>
<path d="M135.759 162.688C144.051 161.667 149.946 154.117 148.925 145.825C147.903 137.532 140.353 131.638 132.061 132.659C123.769 133.68 117.874 141.23 118.896 149.522C119.917 157.815 127.467 163.709 135.759 162.688Z" fill="#B58C81"/>
<path d="M264.427 163.005C272.772 162.588 279.198 155.485 278.781 147.141C278.364 138.796 271.262 132.37 262.917 132.787C254.573 133.204 248.146 140.306 248.563 148.651C248.98 156.995 256.083 163.422 264.427 163.005Z" fill="#B58C81"/>
<path d="M222.424 219.05L219.266 177.549L186.862 181.996L181.573 242.679C192.265 241.374 209.664 236.466 222.424 219.05Z" fill="#D19582"/>
<path d="M134.18 133.449C133.574 143.378 134.019 146.337 135.115 156.256C137.263 175.858 146.655 192.924 164.442 202.408C182.228 211.892 206.582 215.296 225.571 207.483C240.275 201.425 251.638 190.631 257.459 176.083C264.086 159.505 264.161 138.309 263.264 120.405C259.951 54.0985 205.953 55.0758 205.953 55.0758C205.953 55.0758 133.907 49.523 134.18 133.449Z" fill="#E5B5A3"/>
<path d="M181.573 242.658L179.242 269.359C179.242 269.359 180.192 282.698 201.797 285.238C223.401 287.778 225.963 265.229 225.963 265.229L222.445 219.045C209.664 236.466 192.265 241.374 181.573 242.658Z" fill="#E5B5A3"/>
<path opacity="0.5" d="M167.374 169.843C172.107 169.843 175.944 167.109 175.944 163.737C175.944 160.365 172.107 157.631 167.374 157.631C162.64 157.631 158.803 160.365 158.803 163.737C158.803 167.109 162.64 169.843 167.374 169.843Z" fill="#CE8282"/>
<path opacity="0.5" d="M239.045 164.209C239.045 167.582 235.205 170.315 230.452 170.315C225.7 170.315 221.86 167.582 221.86 164.209C221.86 160.837 225.7 158.104 230.452 158.104C235.205 158.104 239.045 160.837 239.045 164.209Z" fill="#CE8282"/>
<path d="M178.388 133.54C173.254 128.396 164.554 126.049 162.363 125.351C161.225 125.125 160.081 124.738 158.894 124.449C157.645 124.174 156.416 123.815 155.215 123.374C156.406 122.827 157.64 122.38 158.905 122.037C160.187 121.778 161.483 121.599 162.787 121.5C165.414 121.527 168.158 121.839 170.703 123.111C177.91 126.989 179.328 131.016 178.388 133.54Z" fill="#414142"/>
<path d="M220.695 136.161C225.179 130.436 239.673 122.633 240.876 121.983C239.625 121.543 229.641 122.859 226.167 125.565C219.476 130.264 219.459 133.766 220.695 136.161Z" fill="#414142"/>
<path d="M169.388 157.631H148.229C144.439 157.627 140.805 156.118 138.127 153.437C135.449 150.755 133.944 147.12 133.944 143.33V143.33C133.944 139.537 135.451 135.9 138.133 133.218C140.815 130.536 144.452 129.029 148.245 129.029H169.388C173.18 129.029 176.818 130.536 179.5 133.218C182.182 135.9 183.688 139.537 183.688 143.33C183.688 145.208 183.319 147.068 182.6 148.803C181.881 150.538 180.828 152.115 179.5 153.442C178.172 154.77 176.595 155.824 174.86 156.543C173.125 157.261 171.266 157.631 169.388 157.631V157.631Z" stroke="white" stroke-width="4.45" stroke-miterlimit="10"/>
<path d="M250.236 130.769H227.654C220.237 130.769 214.224 136.783 214.224 144.2C214.224 151.618 220.237 157.631 227.654 157.631H250.236C257.654 157.631 263.667 151.618 263.667 144.2C263.667 136.783 257.654 130.769 250.236 130.769Z" stroke="white" stroke-width="4.45" stroke-miterlimit="10"/>
<path d="M200.427 142.417C201.945 144.448 203.207 146.658 204.187 148.996C205.237 151.353 205.96 153.843 206.335 156.396C206.511 157.752 206.489 159.127 206.27 160.477C206.121 161.209 205.866 161.914 205.513 162.572C205.131 163.236 204.609 163.81 203.982 164.253C203.382 164.716 202.693 165.05 201.958 165.235C201.158 165.402 200.325 165.264 199.622 164.849C199.066 164.453 198.596 163.949 198.24 163.367C197.885 162.784 197.651 162.135 197.554 161.46C198.301 162.459 199.203 163.415 200.175 163.678C201.147 163.941 201.893 163.447 202.651 162.695C204.101 161.369 204.025 159.006 203.768 156.707C203.433 154.325 202.945 151.966 202.307 149.646C201.684 147.272 201.013 144.888 200.427 142.417Z" fill="#4C3D3B"/>
<g opacity="0.6">
<path opacity="0.6" d="M200.427 142.417C201.945 144.448 203.207 146.658 204.187 148.996C205.237 151.353 205.96 153.843 206.335 156.396C206.511 157.752 206.489 159.127 206.27 160.477C206.121 161.209 205.866 161.914 205.513 162.572C205.131 163.236 204.609 163.81 203.982 164.253C203.382 164.716 202.693 165.05 201.958 165.235C201.158 165.402 200.325 165.264 199.622 164.849C199.066 164.453 198.596 163.949 198.24 163.367C197.885 162.784 197.651 162.135 197.554 161.46C198.301 162.459 199.203 163.415 200.175 163.678C201.147 163.941 201.893 163.447 202.651 162.695C204.101 161.369 204.025 159.006 203.768 156.707C203.433 154.325 202.945 151.966 202.307 149.646C201.684 147.272 201.013 144.888 200.427 142.417Z" fill="#E5B5A3"/>
</g>
<path d="M174.699 114.766C178.995 115.437 183.334 115.775 187.662 116.098C191.991 116.42 196.325 116.543 200.653 116.506C202.801 116.506 204.987 116.42 207.151 116.361L213.638 115.98C217.972 115.786 222.284 115.158 226.613 114.76C226.758 114.76 226.886 114.922 226.897 115.147C226.91 115.233 226.895 115.32 226.855 115.397C226.814 115.473 226.75 115.534 226.672 115.571C224.551 116.169 222.4 116.651 220.227 117.016C218.079 117.43 215.894 117.639 213.724 117.843C209.38 118.246 205.024 118.294 200.674 118.278C196.324 118.262 191.975 117.988 187.635 117.564C183.274 117.149 178.94 116.484 174.656 115.571C174.505 115.545 174.403 115.335 174.425 115.115C174.446 114.895 174.554 114.739 174.699 114.766Z" fill="#C99B8D"/>
<path d="M181.309 108.166C184.532 108.671 187.754 108.918 190.976 109.159C194.198 109.401 197.42 109.492 200.642 109.465C202.253 109.465 203.864 109.401 205.475 109.358L210.309 109.073C213.531 108.928 216.753 108.461 219.975 108.166C220.088 108.166 220.179 108.284 220.184 108.45C220.196 108.514 220.186 108.579 220.157 108.636C220.128 108.693 220.081 108.739 220.023 108.767C218.433 109.212 216.819 109.571 215.19 109.841C213.579 110.147 211.968 110.303 210.357 110.453C207.135 110.76 203.87 110.792 200.631 110.781C197.393 110.77 194.15 110.561 190.911 110.244C187.663 109.933 184.436 109.437 181.245 108.756C181.138 108.756 181.057 108.585 181.073 108.418C181.089 108.252 181.202 108.166 181.309 108.166Z" fill="#C99B8D"/>
<path d="M170.703 149.357C172.994 147.066 172.994 143.353 170.703 141.063C168.413 138.773 164.7 138.773 162.41 141.063C160.12 143.353 160.12 147.066 162.41 149.357C164.7 151.647 168.413 151.647 170.703 149.357Z" fill="#373C44"/>
<path d="M166.557 147.562C166.62 147.909 166.575 148.267 166.427 148.588C166.279 148.908 166.036 149.176 165.731 149.353C165.426 149.531 165.073 149.61 164.722 149.58C164.37 149.551 164.036 149.413 163.765 149.187C163.494 148.961 163.299 148.657 163.207 148.316C163.115 147.975 163.131 147.614 163.251 147.283C163.371 146.951 163.591 146.664 163.879 146.461C164.168 146.258 164.513 146.15 164.866 146.15C165.277 146.115 165.685 146.244 166.002 146.508C166.318 146.773 166.518 147.151 166.557 147.562V147.562Z" fill="white"/>
<path d="M237.536 146.547C238.28 143.395 236.328 140.236 233.176 139.492C230.024 138.748 226.865 140.701 226.122 143.853C225.378 147.005 227.33 150.163 230.482 150.907C233.634 151.651 236.792 149.699 237.536 146.547Z" fill="#373C44"/>
<path d="M231.838 147.562C231.901 147.909 231.855 148.267 231.707 148.588C231.559 148.908 231.316 149.176 231.011 149.353C230.706 149.531 230.354 149.61 230.002 149.58C229.651 149.551 229.317 149.413 229.046 149.187C228.775 148.961 228.58 148.657 228.488 148.316C228.396 147.975 228.411 147.614 228.531 147.283C228.652 146.951 228.871 146.664 229.16 146.461C229.449 146.258 229.793 146.15 230.146 146.15C230.557 146.115 230.965 146.244 231.282 146.508C231.599 146.773 231.798 147.151 231.838 147.562V147.562Z" fill="white"/>
<path d="M243.599 320.134H278.79C280.456 320.134 282.054 320.796 283.233 321.974C284.411 323.153 285.073 324.751 285.073 326.417V367.505H237.697V326.036C237.698 324.471 238.32 322.971 239.427 321.864C240.533 320.758 242.034 320.135 243.599 320.134V320.134Z" fill="#511131"/>
<path d="M183.667 147.906C183.667 147.906 201.147 135.747 214.224 147.906" stroke="white" stroke-width="4.45" stroke-miterlimit="10"/>
<path d="M225.941 174.22C218.155 176.443 212.784 158.925 203.274 164.301C203.274 164.301 202.935 164.51 201.663 164.344V164.161C201.475 164.204 201.314 164.231 201.126 164.263L200.589 164.161V164.344C199.321 164.51 198.978 164.301 198.978 164.301C189.472 158.931 184.097 176.443 176.315 174.22C183.296 178.301 187.963 175.718 201.104 170.595C214.293 175.713 218.939 178.296 225.941 174.22Z" fill="#414142"/>
<path d="M192.007 179.67C193.484 178.682 200.664 174.257 205.524 176.411C207.033 177.082 207.398 177.603 208.859 178.645C208.291 177.269 207.363 176.07 206.174 175.176C202.092 171.878 193.376 175.294 192.007 179.67Z" fill="#373C44"/>
<g opacity="0.5">
<path opacity="0.5" d="M198.199 182.135C198.977 182.076 199.767 182.109 200.556 182.098C201.346 182.087 202.119 182.098 202.855 182.098C203.591 182.098 204.128 181.958 203.714 181.888C202.651 181.7 201.571 181.617 200.492 181.641C198.602 181.679 197.436 182.2 198.199 182.135Z" fill="#725947"/>
</g>
</g>
<rect x="124" y="315" width="154" height="65" rx="32.5" fill="#D62323"/>
<path d="M164.404 355.212L156.376 347.076L164.404 338.976H170.236L162.136 347.076L170.236 355.212H164.404ZM174.609 360V356.652C176.145 355.38 177.633 354.12 179.073 352.872C180.537 351.624 181.833 350.388 182.961 349.164C184.113 347.94 185.025 346.752 185.697 345.6C186.393 344.424 186.741 343.284 186.741 342.18C186.741 341.148 186.453 340.236 185.877 339.444C185.325 338.652 184.401 338.256 183.105 338.256C181.785 338.256 180.789 338.688 180.117 339.552C179.445 340.416 179.109 341.46 179.109 342.684H174.645C174.693 340.836 175.101 339.3 175.869 338.076C176.637 336.828 177.657 335.904 178.929 335.304C180.201 334.68 181.629 334.368 183.213 334.368C185.781 334.368 187.773 335.076 189.189 336.492C190.629 337.884 191.349 339.696 191.349 341.928C191.349 343.32 191.025 344.676 190.377 345.996C189.753 347.316 188.925 348.588 187.893 349.812C186.861 351.036 185.745 352.188 184.545 353.268C183.345 354.324 182.181 355.308 181.053 356.22H191.961V360H174.609ZM204.824 360.432C202.976 360.432 201.38 360.108 200.036 359.46C198.716 358.812 197.672 357.924 196.904 356.796C196.16 355.644 195.728 354.348 195.608 352.908H200.108C200.324 353.94 200.852 354.804 201.692 355.5C202.532 356.172 203.576 356.508 204.824 356.508C206.168 356.508 207.26 356.016 208.1 355.032C208.964 354.048 209.396 352.824 209.396 351.36C209.396 349.848 208.964 348.648 208.1 347.76C207.26 346.872 206.192 346.428 204.896 346.428C203.816 346.428 202.88 346.692 202.088 347.22C201.296 347.748 200.732 348.408 200.396 349.2H195.968L198.128 334.8H212.096V338.832H201.584L200.432 344.664C200.96 344.088 201.68 343.62 202.592 343.26C203.504 342.876 204.524 342.684 205.652 342.684C207.452 342.684 208.952 343.092 210.152 343.908C211.352 344.7 212.264 345.756 212.888 347.076C213.512 348.372 213.824 349.788 213.824 351.324C213.824 353.076 213.44 354.636 212.672 356.004C211.928 357.372 210.872 358.452 209.504 359.244C208.16 360.036 206.6 360.432 204.824 360.432ZM223.296 347.184C222.144 347.184 221.1 346.932 220.164 346.428C219.228 345.9 218.484 345.156 217.932 344.196C217.38 343.236 217.104 342.096 217.104 340.776C217.104 339.456 217.38 338.316 217.932 337.356C218.484 336.396 219.228 335.664 220.164 335.16C221.1 334.632 222.156 334.368 223.332 334.368C224.484 334.368 225.516 334.632 226.428 335.16C227.364 335.664 228.108 336.396 228.66 337.356C229.212 338.316 229.488 339.456 229.488 340.776C229.488 342.096 229.212 343.236 228.66 344.196C228.108 345.156 227.364 345.9 226.428 346.428C225.492 346.932 224.448 347.184 223.296 347.184ZM221.928 360L236.148 334.8H240.648L226.428 360H221.928ZM223.296 343.98C223.992 343.98 224.592 343.716 225.096 343.188C225.6 342.636 225.852 341.832 225.852 340.776C225.852 339.72 225.6 338.916 225.096 338.364C224.616 337.812 224.016 337.536 223.296 337.536C222.576 337.536 221.964 337.812 221.46 338.364C220.98 338.916 220.74 339.72 220.74 340.776C220.74 341.832 220.98 342.636 221.46 343.188C221.964 343.716 222.576 343.98 223.296 343.98ZM239.424 360.432C238.272 360.432 237.228 360.18 236.292 359.676C235.356 359.148 234.612 358.404 234.06 357.444C233.508 356.484 233.232 355.344 233.232 354.024C233.232 352.704 233.508 351.576 234.06 350.64C234.612 349.68 235.356 348.948 236.292 348.444C237.228 347.916 238.284 347.652 239.46 347.652C240.612 347.652 241.644 347.916 242.556 348.444C243.492 348.948 244.236 349.68 244.788 350.64C245.34 351.576 245.616 352.704 245.616 354.024C245.616 355.344 245.34 356.484 244.788 357.444C244.236 358.404 243.492 359.148 242.556 359.676C241.644 360.18 240.6 360.432 239.424 360.432ZM239.424 357.228C240.144 357.228 240.744 356.964 241.224 356.436C241.728 355.884 241.98 355.08 241.98 354.024C241.98 352.968 241.728 352.164 241.224 351.612C240.744 351.06 240.144 350.784 239.424 350.784C238.704 350.784 238.092 351.06 237.588 351.612C237.108 352.164 236.868 352.968 236.868 354.024C236.868 355.08 237.108 355.884 237.588 356.436C238.092 356.964 238.704 357.228 239.424 357.228Z" fill="white"/>
<defs>
<filter id="filter0_d_157_220" x="0" y="0" width="402" height="402" filterUnits="userSpaceOnUse" color-interpolation-filters="sRGB">
<feFlood flood-opacity="0" result="BackgroundImageFix"/>
<feColorMatrix in="SourceAlpha" type="matrix" values="0 0 0 0 0 0 0 0 0 0 0 0 0 0 0 0 0 0 127 0" result="hardAlpha"/>
<feOffset dy="10"/>
<feGaussianBlur stdDeviation="15"/>
<feComposite in2="hardAlpha" operator="out"/>
<feColorMatrix type="matrix" values="0 0 0 0 0 0 0 0 0 0 0 0 0 0 0 0 0 0 0.2 0"/>
<feBlend mode="normal" in2="BackgroundImageFix" result="effect1_dropShadow_157_220"/>
<feBlend mode="normal" in="SourceGraphic" in2="effect1_dropShadow_157_220" result="shape"/>
</filter>
</defs>
</svg>
