<svg width="99" height="101" viewBox="0 0 99 101" fill="none" xmlns="http://www.w3.org/2000/svg">
<g clip-path="url(#clip0_96_67)">
<path d="M98.6159 51.689C98.825 24.4567 76.9184 2.21095 49.686 2.00182C22.4536 1.79269 0.207921 23.6993 -0.00121292 50.9317C-0.210347 78.164 21.6963 100.41 48.9287 100.619C76.161 100.828 98.4067 78.9214 98.6159 51.689Z" fill="url(#paint0_radial_96_67)"/>
<path d="M49.1001 79.7402H49.5301C54.262 79.6763 58.9209 80.9111 63.0001 83.3102C63.7101 83.7502 64.7101 83.2102 64.4501 82.5302C63.295 79.504 61.2415 76.9038 58.5655 75.0787C55.8895 73.2535 52.7191 72.291 49.4801 72.3202H49.1601C45.9245 72.2951 42.7585 73.2595 40.0864 75.0844C37.4144 76.9092 35.364 79.5073 34.2101 82.5302C33.9501 83.2102 34.9501 83.7502 35.6601 83.3102C39.7309 80.9173 44.3784 79.6828 49.1001 79.7402Z" fill="#87594A"/>
<path d="M13.7565 9.55033C16.0495 6.8343 17.8068 3.69784 18.933 0.311051C18.9673 0.21959 19.0283 0.140859 19.1078 0.0853049C19.1873 0.0297509 19.2816 0 19.3782 0C19.4748 0 19.5691 0.0297509 19.6486 0.0853049C19.7281 0.140859 19.789 0.21959 19.8234 0.311051C21.0694 3.45436 22.7382 6.40823 24.7824 9.08889C27.8883 12.7594 41.1297 27.4731 28.9236 39.3027C22.4841 44.7876 13.1457 44.0325 8.47653 37.9499C3.80736 31.8672 2.34759 22.1665 13.7565 9.55033Z" fill="url(#paint1_linear_96_67)"/>
<path d="M68.8901 55.7002C73.0576 55.63 77.14 56.8834 80.5501 59.2802C80.7178 59.4343 80.9332 59.5265 81.1605 59.5416C81.3878 59.5566 81.6134 59.4936 81.8 59.363C81.9866 59.2323 82.123 59.0419 82.1867 58.8232C82.2503 58.6045 82.2374 58.3706 82.1501 58.1602C81.291 55.3119 79.5375 52.8159 77.1493 51.0417C74.7611 49.2676 71.8651 48.3096 68.8901 48.3096C65.915 48.3096 63.019 49.2676 60.6308 51.0417C58.2426 52.8159 56.4892 55.3119 55.6301 58.1602C55.5427 58.3706 55.5298 58.6045 55.5934 58.8232C55.6571 59.0419 55.7935 59.2323 55.9801 59.363C56.1667 59.4936 56.3924 59.5566 56.6197 59.5416C56.847 59.5265 57.0623 59.4343 57.2301 59.2802C60.6395 56.8822 64.7223 55.6286 68.8901 55.7002Z" fill="#87594A"/>
<path d="M29.74 55.7001C25.5725 55.6299 21.4901 56.8833 18.08 59.2801C17.9123 59.4342 17.6969 59.5264 17.4696 59.5415C17.2423 59.5565 17.0167 59.4935 16.8301 59.3629C16.6435 59.2323 16.5071 59.0418 16.4434 58.8231C16.3797 58.6044 16.3927 58.3705 16.48 58.1601C17.307 55.2922 19.0519 52.7747 21.447 50.9937C23.8422 49.2126 26.7555 48.2664 29.74 48.3001C32.7254 48.2631 35.6403 49.208 38.0361 50.9895C40.432 52.7711 42.176 55.2905 43 58.1601C43.0874 58.3705 43.1003 58.6044 43.0367 58.8231C42.973 59.0418 42.8366 59.2323 42.65 59.3629C42.4634 59.4935 42.2377 59.5565 42.0104 59.5415C41.7831 59.5264 41.5678 59.4342 41.4 59.2801C37.9906 56.8821 33.9078 55.6285 29.74 55.7001Z" fill="#87594A"/>
</g>
<defs>
<radialGradient id="paint0_radial_96_67" cx="0" cy="0" r="1" gradientUnits="userSpaceOnUse" gradientTransform="translate(42 39.5) rotate(11.4066) scale(58.1485)">
<stop stop-color="#FDDB35"/>
<stop offset="0.48" stop-color="#FDD934"/>
<stop offset="0.713542" stop-color="#FCD232"/>
<stop offset="0.869792" stop-color="#FBC72E"/>
<stop offset="1" stop-color="#F8A022"/>
</radialGradient>
<linearGradient id="paint1_linear_96_67" x1="4.99794" y1="21.4848" x2="34.0379" y2="21.4848" gradientUnits="userSpaceOnUse">
<stop stop-color="#2E92DB"/>
<stop offset="0.04" stop-color="#2D99DF"/>
<stop offset="0.2" stop-color="#2CADED"/>
<stop offset="0.35" stop-color="#2ABAF5"/>
<stop offset="0.5" stop-color="#2ABEF8"/>
<stop offset="0.65" stop-color="#2ABAF5"/>
<stop offset="0.8" stop-color="#2CADED"/>
<stop offset="0.96" stop-color="#2D98DF"/>
<stop offset="1" stop-color="#2E92DB"/>
</linearGradient>
<clipPath id="clip0_96_67">
<rect width="99" height="101" fill="white"/>
</clipPath>
</defs>
</svg>
